<?xml version="1.0" encoding="UTF-8" standalone="no"?>
<!-- Created with Inkscape (http://www.inkscape.org/) -->

<svg
   version="1.1"
   id="svg10813"
   width="472"
   height="416"
   viewBox="0 0 472 416"
   sodipodi:docname="geneGainLoss_promoterless.svg"
   inkscape:version="1.2 (dc2aeda, 2022-05-15)"
   xmlns:inkscape="http://www.inkscape.org/namespaces/inkscape"
   xmlns:sodipodi="http://sodipodi.sourceforge.net/DTD/sodipodi-0.dtd"
   xmlns="http://www.w3.org/2000/svg"
   xmlns:svg="http://www.w3.org/2000/svg">
  <defs
     id="defs10817">
    <clipPath
       clipPathUnits="userSpaceOnUse"
       id="clipPath10835">
      <path
         d="M 0,0 H 354.33 V 354.33 H 0 Z"
         id="path10833" />
    </clipPath>
    <clipPath
       clipPathUnits="userSpaceOnUse"
       id="clipPath10845">
      <path
         d="M 0,0 H 354.33 V 354.33 H 0 Z"
         id="path10843" />
    </clipPath>
  </defs>
  <sodipodi:namedview
     id="namedview10815"
     pagecolor="#ffffff"
     bordercolor="#666666"
     borderopacity="1.0"
     inkscape:showpageshadow="2"
     inkscape:pageopacity="0.0"
     inkscape:pagecheckerboard="0"
     inkscape:deskcolor="#d1d1d1"
     showgrid="false"
     inkscape:zoom="1.4329111"
     inkscape:cx="86.53712"
     inkscape:cy="185.28714"
     inkscape:window-width="1920"
     inkscape:window-height="1011"
     inkscape:window-x="0"
     inkscape:window-y="0"
     inkscape:window-maximized="1"
     inkscape:current-layer="g10821">
    <inkscape:page
       x="0"
       y="0"
       id="page10819"
       width="472"
       height="416" />
  </sodipodi:namedview>
  <g
     id="g10821"
     inkscape:groupmode="layer"
     inkscape:label="Page 1"
     transform="matrix(1.3333333,0,0,-1.3333333,0,416)">
    <g
       id="g10829">
      <g
         id="g10831"
         clip-path="url(#clipPath10835)">
        <path
           d="M 0,0 H 354.33 V 311.81 H 0"
           style="fill:#ffffff;fill-opacity:1;fill-rule:evenodd;stroke:none"
           id="path10837" />
      </g>
    </g>
    <g
       id="g10839">
      <g
         id="g10841"
         clip-path="url(#clipPath10845)">
        <path
           d="M 80.1,54.62 H 342.52 V 300 H 80.1"
           style="fill:#ffffff;fill-opacity:1;fill-rule:evenodd;stroke:none"
           id="path10847" />
      </g>
    </g>
    <path
       d="M 103.96,54.62 V 300"
       style="fill:none;stroke:#000000;stroke-width:0.5003;stroke-linecap:round;stroke-linejoin:round;stroke-miterlimit:10;stroke-dasharray:none;stroke-opacity:0.0980392"
       id="path10849" />
    <path
       d="M 143.72,54.62 V 300"
       style="fill:none;stroke:#000000;stroke-width:0.5003;stroke-linecap:round;stroke-linejoin:round;stroke-miterlimit:10;stroke-dasharray:none;stroke-opacity:0.0980392"
       id="path10851" />
    <path
       d="M 183.48,54.62 V 300"
       style="fill:none;stroke:#000000;stroke-width:0.5003;stroke-linecap:round;stroke-linejoin:round;stroke-miterlimit:10;stroke-dasharray:none;stroke-opacity:0.0980392"
       id="path10853" />
    <path
       d="M 223.24,54.62 V 300"
       style="fill:none;stroke:#000000;stroke-width:0.5003;stroke-linecap:round;stroke-linejoin:round;stroke-miterlimit:10;stroke-dasharray:none;stroke-opacity:0.0980392"
       id="path10855" />
    <path
       d="M 263,54.62 V 300"
       style="fill:none;stroke:#000000;stroke-width:0.5003;stroke-linecap:round;stroke-linejoin:round;stroke-miterlimit:10;stroke-dasharray:none;stroke-opacity:0.0980392"
       id="path10857" />
    <path
       d="M 302.76,54.62 V 300"
       style="fill:none;stroke:#000000;stroke-width:0.5003;stroke-linecap:round;stroke-linejoin:round;stroke-miterlimit:10;stroke-dasharray:none;stroke-opacity:0.0980392"
       id="path10859"
       sodipodi:nodetypes="cc" />
    <path
       d="M 342.52,54.62 V 300"
       style="fill:none;stroke:#000000;stroke-width:0.5003;stroke-linecap:round;stroke-linejoin:round;stroke-miterlimit:10;stroke-dasharray:none;stroke-opacity:0.0980392"
       id="path10861" />
    <path
       d="M 80.1,54.62 H 342.52"
       style="fill:none;stroke:#000000;stroke-width:1.001;stroke-linecap:round;stroke-linejoin:round;stroke-miterlimit:10;stroke-dasharray:none;stroke-opacity:1"
       id="path10863" />
    <path
       d="M 80.1,300 H 342.52"
       style="fill:none;stroke:#000000;stroke-width:1.001;stroke-linecap:round;stroke-linejoin:round;stroke-miterlimit:10;stroke-dasharray:none;stroke-opacity:1"
       id="path10865" />
    <path
       d="m 103.96,54.62 v 4.72"
       style="fill:none;stroke:#000000;stroke-width:1.001;stroke-linecap:round;stroke-linejoin:round;stroke-miterlimit:10;stroke-dasharray:none;stroke-opacity:1"
       id="path10867" />
    <path
       d="m 143.72,54.62 v 4.72"
       style="fill:none;stroke:#000000;stroke-width:1.001;stroke-linecap:round;stroke-linejoin:round;stroke-miterlimit:10;stroke-dasharray:none;stroke-opacity:1"
       id="path10869" />
    <path
       d="m 183.48,54.62 v 4.72"
       style="fill:none;stroke:#000000;stroke-width:1.001;stroke-linecap:round;stroke-linejoin:round;stroke-miterlimit:10;stroke-dasharray:none;stroke-opacity:1"
       id="path10871" />
    <path
       d="m 223.24,54.62 v 4.72"
       style="fill:none;stroke:#000000;stroke-width:1.001;stroke-linecap:round;stroke-linejoin:round;stroke-miterlimit:10;stroke-dasharray:none;stroke-opacity:1"
       id="path10873" />
    <path
       d="m 263,54.62 v 4.72"
       style="fill:none;stroke:#000000;stroke-width:1.001;stroke-linecap:round;stroke-linejoin:round;stroke-miterlimit:10;stroke-dasharray:none;stroke-opacity:1"
       id="path10875" />
    <path
       d="m 302.76,54.62 v 4.72"
       style="fill:none;stroke:#000000;stroke-width:1.001;stroke-linecap:round;stroke-linejoin:round;stroke-miterlimit:10;stroke-dasharray:none;stroke-opacity:1"
       id="path10877" />
    <path
       d="m 342.52,54.62 v 4.72"
       style="fill:none;stroke:#000000;stroke-width:1.001;stroke-linecap:round;stroke-linejoin:round;stroke-miterlimit:10;stroke-dasharray:none;stroke-opacity:1"
       id="path10879" />
    <text
       xml:space="preserve"
       transform="matrix(1,0,0,-1,95.46,38.42)"
       style="font-variant:normal;font-weight:normal;font-size:15px;font-family:Helvetica;-inkscape-font-specification:Helvetica;writing-mode:lr-tb;fill:#000000;fill-opacity:1;fill-rule:nonzero;stroke:none"
       id="text10883"><tspan
         x="0 8.3400002"
         y="0"
         sodipodi:role="line"
         id="tspan10881">50</tspan></text>
    <text
       xml:space="preserve"
       transform="matrix(1,0,0,-1,131.22,38.42)"
       style="font-variant:normal;font-weight:normal;font-size:15px;font-family:Helvetica;-inkscape-font-specification:Helvetica;writing-mode:lr-tb;fill:#000000;fill-opacity:1;fill-rule:nonzero;stroke:none"
       id="text10887"><tspan
         x="0 8.3400002 16.68"
         y="0"
         sodipodi:role="line"
         id="tspan10885">100</tspan></text>
    <text
       xml:space="preserve"
       transform="matrix(1,0,0,-1,170.98,38.42)"
       style="font-variant:normal;font-weight:normal;font-size:15px;font-family:Helvetica;-inkscape-font-specification:Helvetica;writing-mode:lr-tb;fill:#000000;fill-opacity:1;fill-rule:nonzero;stroke:none"
       id="text10891"><tspan
         x="0 8.3400002 16.68"
         y="0"
         sodipodi:role="line"
         id="tspan10889">150</tspan></text>
    <text
       xml:space="preserve"
       transform="matrix(1,0,0,-1,210.74,38.42)"
       style="font-variant:normal;font-weight:normal;font-size:15px;font-family:Helvetica;-inkscape-font-specification:Helvetica;writing-mode:lr-tb;fill:#000000;fill-opacity:1;fill-rule:nonzero;stroke:none"
       id="text10895"><tspan
         x="0 8.3400002 16.68"
         y="0"
         sodipodi:role="line"
         id="tspan10893">200</tspan></text>
    <text
       xml:space="preserve"
       transform="matrix(1,0,0,-1,250.5,38.42)"
       style="font-variant:normal;font-weight:normal;font-size:15px;font-family:Helvetica;-inkscape-font-specification:Helvetica;writing-mode:lr-tb;fill:#000000;fill-opacity:1;fill-rule:nonzero;stroke:none"
       id="text10899"><tspan
         x="0 8.3400002 16.68"
         y="0"
         sodipodi:role="line"
         id="tspan10897">250</tspan></text>
    <text
       xml:space="preserve"
       transform="matrix(1,0,0,-1,290.26,38.42)"
       style="font-variant:normal;font-weight:normal;font-size:15px;font-family:Helvetica;-inkscape-font-specification:Helvetica;writing-mode:lr-tb;fill:#000000;fill-opacity:1;fill-rule:nonzero;stroke:none"
       id="text10903"><tspan
         x="0 8.3400002 16.68"
         y="0"
         sodipodi:role="line"
         id="tspan10901">300</tspan></text>
    <text
       xml:space="preserve"
       transform="matrix(1,0,0,-1,121.31,15.95)"
       style="font-variant:normal;font-weight:normal;font-size:19px;font-family:Helvetica;-inkscape-font-specification:Helvetica;writing-mode:lr-tb;fill:#000000;fill-opacity:1;fill-rule:nonzero;stroke:none"
       id="text10911"><tspan
         x="0 14.782 28.5 40.109001 45.390999 49.609001 60.173 70.737 81.301003 86.583 97.147003 102.429 108.756 118.256 128.82001 139.384 149.948 160.51199 170.01199"
         y="0"
         sodipodi:role="line"
         id="tspan10909">ORF length (codons)</tspan></text>
    <path
       d="M 80.1,71.61 H 302.76"
       style="fill:none;stroke:#000000;stroke-width:0.5003;stroke-linecap:round;stroke-linejoin:round;stroke-miterlimit:10;stroke-dasharray:none;stroke-opacity:0.0980392"
       id="path10913"
       sodipodi:nodetypes="cc" />
    <path
       d="M 80.1,134.37 H 302.76"
       style="fill:none;stroke:#000000;stroke-width:0.5003;stroke-linecap:round;stroke-linejoin:round;stroke-miterlimit:10;stroke-dasharray:none;stroke-opacity:0.0980392"
       id="path10915"
       sodipodi:nodetypes="cc" />
    <path
       d="M 80.1,197.14 H 302.76"
       style="fill:none;stroke:#000000;stroke-width:0.5003;stroke-linecap:round;stroke-linejoin:round;stroke-miterlimit:10;stroke-dasharray:none;stroke-opacity:0.0980392"
       id="path10917"
       sodipodi:nodetypes="cc" />
    <path
       d="M 80.1,259.9 H 302.76"
       style="fill:none;stroke:#000000;stroke-width:0.5003;stroke-linecap:round;stroke-linejoin:round;stroke-miterlimit:10;stroke-dasharray:none;stroke-opacity:0.0980392"
       id="path10919"
       sodipodi:nodetypes="cc" />
    <path
       d="M 80.1,54.62 V 300"
       style="fill:none;stroke:#000000;stroke-width:1.001;stroke-linecap:round;stroke-linejoin:round;stroke-miterlimit:10;stroke-dasharray:none;stroke-opacity:1"
       id="path10921" />
    <path
       d="M 342.52,54.62 V 300"
       style="fill:none;stroke:#000000;stroke-width:1.001;stroke-linecap:round;stroke-linejoin:round;stroke-miterlimit:10;stroke-dasharray:none;stroke-opacity:1"
       id="path10923" />
    <path
       d="m 80.1,71.61 h 4.73"
       style="fill:none;stroke:#000000;stroke-width:1.001;stroke-linecap:round;stroke-linejoin:round;stroke-miterlimit:10;stroke-dasharray:none;stroke-opacity:1"
       id="path10925" />
    <path
       d="m 80.1,134.37 h 4.73"
       style="fill:none;stroke:#000000;stroke-width:1.001;stroke-linecap:round;stroke-linejoin:round;stroke-miterlimit:10;stroke-dasharray:none;stroke-opacity:1"
       id="path10927" />
    <path
       d="m 80.1,197.14 h 4.73"
       style="fill:none;stroke:#000000;stroke-width:1.001;stroke-linecap:round;stroke-linejoin:round;stroke-miterlimit:10;stroke-dasharray:none;stroke-opacity:1"
       id="path10929" />
    <path
       d="m 80.1,259.9 h 4.73"
       style="fill:none;stroke:#000000;stroke-width:1.001;stroke-linecap:round;stroke-linejoin:round;stroke-miterlimit:10;stroke-dasharray:none;stroke-opacity:1"
       id="path10931" />
    <text
       xml:space="preserve"
       transform="matrix(1,0,0,-1,53.83,66.11)"
       style="font-variant:normal;font-weight:normal;font-size:15px;font-family:Helvetica;-inkscape-font-specification:Helvetica;writing-mode:lr-tb;fill:#000000;fill-opacity:1;fill-rule:nonzero;stroke:none"
       id="text10935"><tspan
         x="0 8.3400002 12.51"
         y="0"
         sodipodi:role="line"
         id="tspan10933">2.0</tspan></text>
    <text
       xml:space="preserve"
       transform="matrix(1,0,0,-1,53.83,128.87)"
       style="font-variant:normal;font-weight:normal;font-size:15px;font-family:Helvetica;-inkscape-font-specification:Helvetica;writing-mode:lr-tb;fill:#000000;fill-opacity:1;fill-rule:nonzero;stroke:none"
       id="text10939"><tspan
         x="0 8.3400002 12.51"
         y="0"
         sodipodi:role="line"
         id="tspan10937">2.5</tspan></text>
    <text
       xml:space="preserve"
       transform="matrix(1,0,0,-1,53.83,191.64)"
       style="font-variant:normal;font-weight:normal;font-size:15px;font-family:Helvetica;-inkscape-font-specification:Helvetica;writing-mode:lr-tb;fill:#000000;fill-opacity:1;fill-rule:nonzero;stroke:none"
       id="text10943"><tspan
         x="0 8.3400002 12.51"
         y="0"
         sodipodi:role="line"
         id="tspan10941">3.0</tspan></text>
    <text
       xml:space="preserve"
       transform="matrix(1,0,0,-1,53.83,254.4)"
       style="font-variant:normal;font-weight:normal;font-size:15px;font-family:Helvetica;-inkscape-font-specification:Helvetica;writing-mode:lr-tb;fill:#000000;fill-opacity:1;fill-rule:nonzero;stroke:none"
       id="text10947"><tspan
         x="0 8.3400002 12.51"
         y="0"
         sodipodi:role="line"
         id="tspan10945">3.5</tspan></text>
    <g
       id="g11507"
       transform="translate(-9.2517085)">
      <text
         xml:space="preserve"
         transform="matrix(0,1,1,0,29,113.88)"
         style="font-variant:normal;font-weight:normal;font-size:19px;font-family:Helvetica;-inkscape-font-specification:Helvetica;writing-mode:lr-tb;fill:#000000;fill-opacity:1;fill-rule:nonzero;stroke:none"
         id="text10951"><tspan
           x="0 10.564 15.846 30.628 41.192001 51.756001 62.32 67.601997 78.166 88.730003 98.230003 107.73 118.294 127.794"
           y="0"
           sodipodi:role="line"
           id="tspan10949"># Gene Losses </tspan></text>
      <text
         xml:space="preserve"
         transform="matrix(0,1,1,0,49.43,115.742)"
         style="font-variant:normal;font-weight:normal;font-size:19px;font-family:Helvetica;-inkscape-font-specification:Helvetica;writing-mode:lr-tb;fill:#000000;fill-opacity:1;fill-rule:nonzero;stroke:none"
         id="text10955"><tspan
           x="0 10.564 21.128 27.455 32.737 47.519001 58.083 68.647003 79.210999 84.492996 99.275002 109.839 114.057"
           y="0"
           sodipodi:role="line"
           id="tspan10953">per Gene Gain</tspan></text>
    </g>
    <path
       d="m 88.05,61.56 0.8,0.82 0.79,0.82 0.8,0.82 0.79,0.82 0.8,0.82 0.79,0.82 0.8,0.82 0.79,0.82 0.8,0.82 0.79,0.82 0.8,0.83 0.8,0.82 0.79,0.82 0.8,0.83 0.79,0.82 0.8,0.83 0.79,0.82 0.8,0.83 0.79,0.82 0.8,0.83 0.79,0.83 0.8,0.83 0.79,0.82 0.8,0.83 0.79,0.83 0.8,0.83 0.79,0.83 0.8,0.83 0.79,0.83 0.8,0.83 0.79,0.83 0.8,0.83 0.79,0.83 0.8,0.84 0.8,0.83 0.79,0.83 0.8,0.83 0.79,0.84 0.8,0.83 0.79,0.84 0.8,0.83 0.79,0.84 0.8,0.83 0.79,0.84 0.8,0.83 0.79,0.84 0.8,0.84 0.79,0.83 0.8,0.84 0.79,0.84 0.8,0.84 0.79,0.83 0.8,0.84 0.79,0.84 0.8,0.84 0.79,0.84 0.8,0.84 0.8,0.84 0.79,0.84 0.8,0.84 0.79,0.84 0.8,0.84 0.79,0.84 0.8,0.85 0.79,0.84 0.8,0.84 0.79,0.84 0.8,0.85 0.79,0.84 0.8,0.84 0.79,0.85 0.8,0.84 0.79,0.85 0.8,0.84 0.79,0.84 0.8,0.85 0.79,0.85 0.8,0.84 0.79,0.85 0.8,0.84 0.79,0.85 0.8,0.85 0.8,0.84 0.79,0.85 0.8,0.85 0.79,0.85 0.8,0.85 0.79,0.84 0.8,0.85 0.79,0.85 0.8,0.85 0.79,0.85 0.8,0.85 0.79,0.85 0.8,0.85 0.79,0.85 0.8,0.85 0.79,0.85 0.8,0.86 0.79,0.85 0.8,0.85 0.79,0.85 0.8,0.85 0.79,0.86 0.8,0.85 0.8,0.85 0.79,0.86 0.8,0.85 0.79,0.85 0.8,0.86 0.79,0.85 0.8,0.86 0.79,0.85 0.8,0.85 0.79,0.86 0.8,0.86 0.79,0.85 0.8,0.86 0.79,0.85 0.8,0.86 0.79,0.86 0.8,0.85 0.79,0.86 0.8,0.86 0.79,0.86 0.8,0.85 0.79,0.86 0.8,0.86 0.8,0.86 0.79,0.86 0.8,0.86 0.79,0.85 0.8,0.86 0.79,0.86 0.8,0.86 0.79,0.86 0.8,0.86 0.79,0.86 0.8,0.86 0.79,0.87 0.8,0.86 0.79,0.86 0.8,0.86 0.79,0.86 0.8,0.86 0.79,0.87 0.8,0.86 0.79,0.86 0.8,0.86 0.79,0.87 0.8,0.86 0.79,0.86 0.8,0.87 0.8,0.86 0.79,0.86 0.8,0.87 0.79,0.86 0.8,0.87 0.79,0.86 0.8,0.87 0.79,0.86 0.8,0.87 0.79,0.86 0.8,0.87 0.79,0.87 0.8,0.86 0.79,0.87 0.8,0.87 0.79,0.86 0.8,0.87 0.79,0.87 0.8,0.87 0.79,0.86 0.8,0.87 0.79,0.87 0.8,0.87 0.8,0.87 0.79,0.86 0.8,0.87 0.79,0.87 0.8,0.87 0.79,0.87 0.8,0.87 0.79,0.87 0.8,0.87 0.79,0.87 0.8,0.87 0.79,0.87 0.8,0.87 0.79,0.87 0.8,0.88 0.79,0.87 0.8,0.87 0.79,0.87 0.8,0.87 0.79,0.87 0.8,0.88 0.79,0.87 0.8,0.87 0.79,0.87 0.8,0.88 0.8,0.87 0.79,0.87 0.8,0.88 0.79,0.87 0.8,0.88 0.79,0.87 0.8,0.87 0.79,0.88 0.8,0.87 0.79,0.88 0.8,0.87 0.79,0.88 0.8,0.87 0.79,0.88 0.8,0.87 0.79,0.88 0.8,0.88 0.79,0.87 0.8,0.88 0.79,0.88 0.8,0.87 0.79,0.88 0.8,0.88 0.8,0.87 0.79,0.88 0.8,0.88 0.79,0.88 0.8,0.87 0.79,0.88 0.8,0.88 0.79,0.88 0.8,0.88 0.79,0.88 0.8,0.88 0.79,0.88 0.8,0.87 0.79,0.88 0.8,0.88 0.79,0.88 0.8,0.88 0.79,0.88 0.8,0.88 0.79,0.89 0.8,0.88 0.79,0.88 0.8,0.88 0.8,0.88 0.79,0.88 0.8,0.88 0.79,0.88 0.8,0.89 0.79,0.88 0.8,0.88 0.79,0.88 0.8,0.88 0.79,0.89 0.8,0.88 0.79,0.88 0.8,0.89 0.79,0.88 0.8,0.88 0.79,0.89 0.8,0.88 0.79,0.88 0.8,0.89 0.79,0.88 0.8,0.89 0.79,0.88 0.8,0.89"
       style="fill:none;stroke:#000000;stroke-width:2.001;stroke-linecap:round;stroke-linejoin:round;stroke-miterlimit:10;stroke-dasharray:none;stroke-opacity:1"
       id="path10957" />
    <path
       d="m 88.05,62.25 0.8,0.74 0.79,0.74 0.8,0.73 0.79,0.74 0.8,0.74 0.79,0.73 0.8,0.74 0.79,0.74 0.8,0.74 0.79,0.73 0.8,0.74 0.8,0.74 0.79,0.74 0.8,0.74 0.79,0.74 0.8,0.74 0.79,0.74 0.8,0.74 0.79,0.74 0.8,0.74 0.79,0.75 0.8,0.74 0.79,0.74 0.8,0.74 0.79,0.75 0.8,0.74 0.79,0.74 0.8,0.74 0.79,0.75 0.8,0.74 0.79,0.75 0.8,0.74 0.79,0.75 0.8,0.74 0.8,0.75 0.79,0.74 0.8,0.75 0.79,0.74 0.8,0.75 0.79,0.75 0.8,0.74 0.79,0.75 0.8,0.75 0.79,0.75 0.8,0.74 0.79,0.75 0.8,0.75 0.79,0.75 0.8,0.75 0.79,0.75 0.8,0.75 0.79,0.74 0.8,0.75 0.79,0.75 0.8,0.75 0.79,0.75 0.8,0.76 0.8,0.75 0.79,0.75 0.8,0.75 0.79,0.75 0.8,0.75 0.79,0.75 0.8,0.76 0.79,0.75 0.8,0.75 0.79,0.75 0.8,0.76 0.79,0.75 0.8,0.75 0.79,0.76 0.8,0.75 0.79,0.75 0.8,0.76 0.79,0.75 0.8,0.76 0.79,0.75 0.8,0.76 0.79,0.75 0.8,0.76 0.79,0.75 0.8,0.76 0.8,0.76 0.79,0.75 0.8,0.76 0.79,0.76 0.8,0.75 0.79,0.76 0.8,0.76 0.79,0.76 0.8,0.75 0.79,0.76 0.8,0.76 0.79,0.76 0.8,0.76 0.79,0.76 0.8,0.76 0.79,0.75 0.8,0.76 0.79,0.76 0.8,0.76 0.79,0.76 0.8,0.76 0.79,0.76 0.8,0.76 0.8,0.77 0.79,0.76 0.8,0.76 0.79,0.76 0.8,0.76 0.79,0.76 0.8,0.76 0.79,0.77 0.8,0.76 0.79,0.76 0.8,0.76 0.79,0.77 0.8,0.76 0.79,0.76 0.8,0.77 0.79,0.76 0.8,0.76 0.79,0.77 0.8,0.76 0.79,0.77 0.8,0.76 0.79,0.76 0.8,0.77 0.8,0.76 0.79,0.77 0.8,0.77 0.79,0.76 0.8,0.77 0.79,0.76 0.8,0.77 0.79,0.76 0.8,0.77 0.79,0.77 0.8,0.76 0.79,0.77 0.8,0.77 0.79,0.77 0.8,0.76 0.79,0.77 0.8,0.77 0.79,0.77 0.8,0.77 0.79,0.76 0.8,0.77 0.79,0.77 0.8,0.77 0.79,0.77 0.8,0.77 0.8,0.77 0.79,0.77 0.8,0.77 0.79,0.77 0.8,0.77 0.79,0.77 0.8,0.77 0.79,0.77 0.8,0.77 0.79,0.77 0.8,0.77 0.79,0.77 0.8,0.77 0.79,0.78 0.8,0.77 0.79,0.77 0.8,0.77 0.79,0.77 0.8,0.78 0.79,0.77 0.8,0.77 0.79,0.77 0.8,0.78 0.8,0.77 0.79,0.77 0.8,0.78 0.79,0.77 0.8,0.77 0.79,0.78 0.8,0.77 0.79,0.78 0.8,0.77 0.79,0.77 0.8,0.78 0.79,0.77 0.8,0.78 0.79,0.77 0.8,0.78 0.79,0.78 0.8,0.77 0.79,0.78 0.8,0.77 0.79,0.78 0.8,0.78 0.79,0.77 0.8,0.78 0.79,0.78 0.8,0.77 0.8,0.78 0.79,0.78 0.8,0.77 0.79,0.78 0.8,0.78 0.79,0.78 0.8,0.77 0.79,0.78 0.8,0.78 0.79,0.78 0.8,0.78 0.79,0.78 0.8,0.78 0.79,0.77 0.8,0.78 0.79,0.78 0.8,0.78 0.79,0.78 0.8,0.78 0.79,0.78 0.8,0.78 0.79,0.78 0.8,0.78 0.8,0.78 0.79,0.78 0.8,0.78 0.79,0.78 0.8,0.78 0.79,0.79 0.8,0.78 0.79,0.78 0.8,0.78 0.79,0.78 0.8,0.78 0.79,0.79 0.8,0.78 0.79,0.78 0.8,0.78 0.79,0.78 0.8,0.79 0.79,0.78 0.8,0.78 0.79,0.79 0.8,0.78 0.79,0.78 0.8,0.79 0.8,0.78 0.79,0.78 0.8,0.79 0.79,0.78 0.8,0.79 0.79,0.78 0.8,0.78 0.79,0.79 0.8,0.78 0.79,0.79 0.8,0.78 0.79,0.79 0.8,0.78 0.79,0.79 0.8,0.78 0.79,0.79 0.8,0.79 0.79,0.78 0.8,0.79 0.79,0.78 0.8,0.79 0.79,0.79 0.8,0.78"
       style="fill:none;stroke:#000000;stroke-width:2.001;stroke-linecap:round;stroke-linejoin:round;stroke-miterlimit:10;stroke-dasharray:none;stroke-opacity:1"
       id="path10959" />
    <path
       d="m 88.05,63.43 0.8,0.66 0.79,0.66 0.8,0.66 0.79,0.67 0.8,0.66 0.79,0.66 0.8,0.66 0.79,0.67 0.8,0.66 0.79,0.66 0.8,0.67 0.8,0.66 0.79,0.67 0.8,0.66 0.79,0.66 0.8,0.67 0.79,0.66 0.8,0.67 0.79,0.66 0.8,0.67 0.79,0.66 0.8,0.67 0.79,0.66 0.8,0.67 0.79,0.66 0.8,0.67 0.79,0.66 0.8,0.67 0.79,0.66 0.8,0.67 0.79,0.67 0.8,0.66 0.79,0.67 0.8,0.67 0.8,0.66 0.79,0.67 0.8,0.67 0.79,0.66 0.8,0.67 0.79,0.67 0.8,0.67 0.79,0.66 0.8,0.67 0.79,0.67 0.8,0.67 0.79,0.67 0.8,0.67 0.79,0.66 0.8,0.67 0.79,0.67 0.8,0.67 0.79,0.67 0.8,0.67 0.79,0.67 0.8,0.67 0.79,0.67 0.8,0.67 0.8,0.67 0.79,0.67 0.8,0.67 0.79,0.67 0.8,0.67 0.79,0.67 0.8,0.67 0.79,0.67 0.8,0.67 0.79,0.68 0.8,0.67 0.79,0.67 0.8,0.67 0.79,0.67 0.8,0.68 0.79,0.67 0.8,0.67 0.79,0.67 0.8,0.68 0.79,0.67 0.8,0.67 0.79,0.67 0.8,0.68 0.79,0.67 0.8,0.67 0.8,0.68 0.79,0.67 0.8,0.68 0.79,0.67 0.8,0.67 0.79,0.68 0.8,0.67 0.79,0.68 0.8,0.67 0.79,0.68 0.8,0.67 0.79,0.68 0.8,0.67 0.79,0.68 0.8,0.68 0.79,0.67 0.8,0.68 0.79,0.67 0.8,0.68 0.79,0.68 0.8,0.67 0.79,0.68 0.8,0.68 0.8,0.67 0.79,0.68 0.8,0.68 0.79,0.67 0.8,0.68 0.79,0.68 0.8,0.68 0.79,0.68 0.8,0.67 0.79,0.68 0.8,0.68 0.79,0.68 0.8,0.68 0.79,0.68 0.8,0.67 0.79,0.68 0.8,0.68 0.79,0.68 0.8,0.68 0.79,0.68 0.8,0.68 0.79,0.68 0.8,0.68 0.8,0.68 0.79,0.68 0.8,0.68 0.79,0.68 0.8,0.68 0.79,0.68 0.8,0.68 0.79,0.69 0.8,0.68 0.79,0.68 0.8,0.68 0.79,0.68 0.8,0.68 0.79,0.69 0.8,0.68 0.79,0.68 0.8,0.68 0.79,0.68 0.8,0.69 0.79,0.68 0.8,0.68 0.79,0.68 0.8,0.69 0.79,0.68 0.8,0.68 0.8,0.69 0.79,0.68 0.8,0.69 0.79,0.68 0.8,0.68 0.79,0.69 0.8,0.68 0.79,0.69 0.8,0.68 0.79,0.68 0.8,0.69 0.79,0.68 0.8,0.69 0.79,0.68 0.8,0.69 0.79,0.69 0.8,0.68 0.79,0.69 0.8,0.68 0.79,0.69 0.8,0.68 0.79,0.69 0.8,0.69 0.8,0.68 0.79,0.69 0.8,0.69 0.79,0.68 0.8,0.69 0.79,0.69 0.8,0.68 0.79,0.69 0.8,0.69 0.79,0.69 0.8,0.68 0.79,0.69 0.8,0.69 0.79,0.69 0.8,0.68 0.79,0.69 0.8,0.69 0.79,0.69 0.8,0.69 0.79,0.69 0.8,0.69 0.79,0.69 0.8,0.68 0.79,0.69 0.8,0.69 0.8,0.69 0.79,0.69 0.8,0.69 0.79,0.69 0.8,0.69 0.79,0.69 0.8,0.69 0.79,0.69 0.8,0.69 0.79,0.69 0.8,0.69 0.79,0.69 0.8,0.69 0.79,0.7 0.8,0.69 0.79,0.69 0.8,0.69 0.79,0.69 0.8,0.69 0.79,0.69 0.8,0.7 0.79,0.69 0.8,0.69 0.8,0.69 0.79,0.69 0.8,0.7 0.79,0.69 0.8,0.69 0.79,0.69 0.8,0.7 0.79,0.69 0.8,0.69 0.79,0.7 0.8,0.69 0.79,0.69 0.8,0.7 0.79,0.69 0.8,0.69 0.79,0.7 0.8,0.69 0.79,0.7 0.8,0.69 0.79,0.69 0.8,0.7 0.79,0.69 0.8,0.7 0.8,0.69 0.79,0.7 0.8,0.69 0.79,0.7 0.8,0.69 0.79,0.7 0.8,0.69 0.79,0.7 0.8,0.69 0.79,0.7 0.8,0.7 0.79,0.69 0.8,0.7 0.79,0.69 0.8,0.7 0.79,0.7 0.8,0.69 0.79,0.7 0.8,0.7 0.79,0.69 0.8,0.7 0.79,0.7 0.8,0.69"
       style="fill:none;stroke:#000000;stroke-width:2.001;stroke-linecap:round;stroke-linejoin:round;stroke-miterlimit:10;stroke-dasharray:none;stroke-opacity:1"
       id="path10961" />
    <path
       d="m 88.05,65.07 0.8,0.6 0.79,0.59 0.8,0.6 0.79,0.6 0.8,0.59 0.79,0.6 0.8,0.6 0.79,0.59 0.8,0.6 0.79,0.6 0.8,0.59 0.8,0.6 0.79,0.59 0.8,0.6 0.79,0.6 0.8,0.59 0.79,0.6 0.8,0.59 0.79,0.6 0.8,0.6 0.79,0.59 0.8,0.6 0.79,0.59 0.8,0.6 0.79,0.59 0.8,0.6 0.79,0.6 0.8,0.59 0.79,0.6 0.8,0.59 0.79,0.6 0.8,0.6 0.79,0.59 0.8,0.6 0.8,0.59 0.79,0.6 0.8,0.59 0.79,0.6 0.8,0.6 0.79,0.59 0.8,0.6 0.79,0.6 0.8,0.59 0.79,0.6 0.8,0.59 0.79,0.6 0.8,0.6 0.79,0.59 0.8,0.6 0.79,0.6 0.8,0.59 0.79,0.6 0.8,0.6 0.79,0.59 0.8,0.6 0.79,0.6 0.8,0.59 0.8,0.6 0.79,0.6 0.8,0.59 0.79,0.6 0.8,0.6 0.79,0.6 0.8,0.59 0.79,0.6 0.8,0.6 0.79,0.6 0.8,0.59 0.79,0.6 0.8,0.6 0.79,0.6 0.8,0.59 0.79,0.6 0.8,0.6 0.79,0.6 0.8,0.6 0.79,0.59 0.8,0.6 0.79,0.6 0.8,0.6 0.79,0.6 0.8,0.6 0.8,0.6 0.79,0.59 0.8,0.6 0.79,0.6 0.8,0.6 0.79,0.6 0.8,0.6 0.79,0.6 0.8,0.6 0.79,0.6 0.8,0.6 0.79,0.6 0.8,0.6 0.79,0.6 0.8,0.6 0.79,0.6 0.8,0.6 0.79,0.6 0.8,0.6 0.79,0.6 0.8,0.6 0.79,0.6 0.8,0.6 0.8,0.6 0.79,0.6 0.8,0.6 0.79,0.6 0.8,0.6 0.79,0.6 0.8,0.61 0.79,0.6 0.8,0.6 0.79,0.6 0.8,0.6 0.79,0.6 0.8,0.6 0.79,0.61 0.8,0.6 0.79,0.6 0.8,0.6 0.79,0.6 0.8,0.61 0.79,0.6 0.8,0.6 0.79,0.6 0.8,0.61 0.8,0.6 0.79,0.6 0.8,0.61 0.79,0.6 0.8,0.6 0.79,0.6 0.8,0.61 0.79,0.6 0.8,0.6 0.79,0.61 0.8,0.6 0.79,0.61 0.8,0.6 0.79,0.6 0.8,0.61 0.79,0.6 0.8,0.61 0.79,0.6 0.8,0.6 0.79,0.61 0.8,0.6 0.79,0.61 0.8,0.6 0.79,0.61 0.8,0.6 0.8,0.61 0.79,0.6 0.8,0.61 0.79,0.6 0.8,0.61 0.79,0.6 0.8,0.61 0.79,0.61 0.8,0.6 0.79,0.61 0.8,0.6 0.79,0.61 0.8,0.6 0.79,0.61 0.8,0.61 0.79,0.6 0.8,0.61 0.79,0.61 0.8,0.6 0.79,0.61 0.8,0.61 0.79,0.6 0.8,0.61 0.8,0.61 0.79,0.61 0.8,0.6 0.79,0.61 0.8,0.61 0.79,0.61 0.8,0.6 0.79,0.61 0.8,0.61 0.79,0.61 0.8,0.6 0.79,0.61 0.8,0.61 0.79,0.61 0.8,0.61 0.79,0.61 0.8,0.6 0.79,0.61 0.8,0.61 0.79,0.61 0.8,0.61 0.79,0.61 0.8,0.61 0.79,0.61 0.8,0.61 0.8,0.61 0.79,0.61 0.8,0.61 0.79,0.6 0.8,0.61 0.79,0.61 0.8,0.61 0.79,0.61 0.8,0.61 0.79,0.61 0.8,0.62 0.79,0.61 0.8,0.61 0.79,0.61 0.8,0.61 0.79,0.61 0.8,0.61 0.79,0.61 0.8,0.61 0.79,0.61 0.8,0.61 0.79,0.61 0.8,0.62 0.8,0.61 0.79,0.61 0.8,0.61 0.79,0.61 0.8,0.61 0.79,0.62 0.8,0.61 0.79,0.61 0.8,0.61 0.79,0.61 0.8,0.62 0.79,0.61 0.8,0.61 0.79,0.61 0.8,0.62 0.79,0.61 0.8,0.61 0.79,0.62 0.8,0.61 0.79,0.61 0.8,0.61 0.79,0.62 0.8,0.61 0.8,0.61 0.79,0.62 0.8,0.61 0.79,0.62 0.8,0.61 0.79,0.61 0.8,0.62 0.79,0.61 0.8,0.62 0.79,0.61 0.8,0.61 0.79,0.62 0.8,0.61 0.79,0.62 0.8,0.61 0.79,0.62 0.8,0.61 0.79,0.62 0.8,0.61 0.79,0.62 0.8,0.61 0.79,0.62 0.8,0.61"
       style="fill:none;stroke:#000000;stroke-width:2.001;stroke-linecap:round;stroke-linejoin:round;stroke-miterlimit:10;stroke-dasharray:none;stroke-opacity:1"
       id="path10963" />
    <path
       d="m 88.05,67.19 0.8,0.54 0.79,0.54 0.8,0.54 0.79,0.54 0.8,0.53 0.79,0.54 0.8,0.54 0.79,0.53 0.8,0.54 0.79,0.53 0.8,0.54 0.8,0.53 0.79,0.54 0.8,0.53 0.79,0.54 0.8,0.53 0.79,0.54 0.8,0.53 0.79,0.54 0.8,0.53 0.79,0.53 0.8,0.54 0.79,0.53 0.8,0.53 0.79,0.54 0.8,0.53 0.79,0.53 0.8,0.53 0.79,0.54 0.8,0.53 0.79,0.53 0.8,0.53 0.79,0.53 0.8,0.54 0.8,0.53 0.79,0.53 0.8,0.53 0.79,0.53 0.8,0.53 0.79,0.54 0.8,0.53 0.79,0.53 0.8,0.53 0.79,0.53 0.8,0.53 0.79,0.53 0.8,0.53 0.79,0.54 0.8,0.53 0.79,0.53 0.8,0.53 0.79,0.53 0.8,0.53 0.79,0.53 0.8,0.53 0.79,0.53 0.8,0.53 0.8,0.53 0.79,0.53 0.8,0.53 0.79,0.53 0.8,0.53 0.79,0.53 0.8,0.54 0.79,0.53 0.8,0.53 0.79,0.53 0.8,0.53 0.79,0.53 0.8,0.53 0.79,0.53 0.8,0.53 0.79,0.53 0.8,0.53 0.79,0.53 0.8,0.53 0.79,0.53 0.8,0.53 0.79,0.53 0.8,0.53 0.79,0.53 0.8,0.53 0.8,0.53 0.79,0.53 0.8,0.53 0.79,0.53 0.8,0.54 0.79,0.53 0.8,0.53 0.79,0.53 0.8,0.53 0.79,0.53 0.8,0.53 0.79,0.53 0.8,0.53 0.79,0.53 0.8,0.53 0.79,0.53 0.8,0.53 0.79,0.53 0.8,0.54 0.79,0.53 0.8,0.53 0.79,0.53 0.8,0.53 0.8,0.53 0.79,0.53 0.8,0.53 0.79,0.53 0.8,0.54 0.79,0.53 0.8,0.53 0.79,0.53 0.8,0.53 0.79,0.53 0.8,0.53 0.79,0.53 0.8,0.54 0.79,0.53 0.8,0.53 0.79,0.53 0.8,0.53 0.79,0.53 0.8,0.54 0.79,0.53 0.8,0.53 0.79,0.53 0.8,0.53 0.8,0.54 0.79,0.53 0.8,0.53 0.79,0.53 0.8,0.53 0.79,0.54 0.8,0.53 0.79,0.53 0.8,0.53 0.79,0.54 0.8,0.53 0.79,0.53 0.8,0.53 0.79,0.54 0.8,0.53 0.79,0.53 0.8,0.54 0.79,0.53 0.8,0.53 0.79,0.53 0.8,0.54 0.79,0.53 0.8,0.53 0.79,0.54 0.8,0.53 0.8,0.53 0.79,0.54 0.8,0.53 0.79,0.53 0.8,0.54 0.79,0.53 0.8,0.53 0.79,0.54 0.8,0.53 0.79,0.54 0.8,0.53 0.79,0.53 0.8,0.54 0.79,0.53 0.8,0.53 0.79,0.54 0.8,0.53 0.79,0.54 0.8,0.53 0.79,0.54 0.8,0.53 0.79,0.54 0.8,0.53 0.8,0.53 0.79,0.54 0.8,0.53 0.79,0.54 0.8,0.53 0.79,0.54 0.8,0.53 0.79,0.54 0.8,0.53 0.79,0.54 0.8,0.53 0.79,0.54 0.8,0.53 0.79,0.54 0.8,0.53 0.79,0.54 0.8,0.54 0.79,0.53 0.8,0.54 0.79,0.53 0.8,0.54 0.79,0.53 0.8,0.54 0.79,0.54 0.8,0.53 0.8,0.54 0.79,0.53 0.8,0.54 0.79,0.54 0.8,0.53 0.79,0.54 0.8,0.54 0.79,0.53 0.8,0.54 0.79,0.54 0.8,0.53 0.79,0.54 0.8,0.54 0.79,0.53 0.8,0.54 0.79,0.54 0.8,0.53 0.79,0.54 0.8,0.54 0.79,0.54 0.8,0.53 0.79,0.54 0.8,0.54 0.8,0.54 0.79,0.53 0.8,0.54 0.79,0.54 0.8,0.54 0.79,0.53 0.8,0.54 0.79,0.54 0.8,0.54 0.79,0.54 0.8,0.53 0.79,0.54 0.8,0.54 0.79,0.54 0.8,0.54 0.79,0.54 0.8,0.53 0.79,0.54 0.8,0.54 0.79,0.54 0.8,0.54 0.79,0.54 0.8,0.54 0.8,0.54 0.79,0.53 0.8,0.54 0.79,0.54 0.8,0.54 0.79,0.54 0.8,0.54 0.79,0.54 0.8,0.54 0.79,0.54 0.8,0.54 0.79,0.54 0.8,0.54 0.79,0.54 0.8,0.54 0.79,0.54 0.8,0.54 0.79,0.54 0.8,0.54 0.79,0.54 0.8,0.54 0.79,0.54 0.8,0.54"
       style="fill:none;stroke:#000000;stroke-width:2.001;stroke-linecap:round;stroke-linejoin:round;stroke-miterlimit:10;stroke-dasharray:none;stroke-opacity:1"
       id="path10965" />
    <path
       d="m 88.05,69.81 0.8,0.49 0.79,0.48 0.8,0.49 0.79,0.48 0.8,0.48 0.79,0.49 0.8,0.48 0.79,0.48 0.8,0.48 0.79,0.48 0.8,0.49 0.8,0.48 0.79,0.48 0.8,0.48 0.79,0.47 0.8,0.48 0.79,0.48 0.8,0.48 0.79,0.48 0.8,0.48 0.79,0.47 0.8,0.48 0.79,0.48 0.8,0.47 0.79,0.48 0.8,0.48 0.79,0.47 0.8,0.48 0.79,0.47 0.8,0.48 0.79,0.47 0.8,0.48 0.79,0.47 0.8,0.47 0.8,0.48 0.79,0.47 0.8,0.47 0.79,0.48 0.8,0.47 0.79,0.47 0.8,0.48 0.79,0.47 0.8,0.47 0.79,0.47 0.8,0.47 0.79,0.48 0.8,0.47 0.79,0.47 0.8,0.47 0.79,0.47 0.8,0.47 0.79,0.47 0.8,0.47 0.79,0.48 0.8,0.47 0.79,0.47 0.8,0.47 0.8,0.47 0.79,0.47 0.8,0.47 0.79,0.47 0.8,0.47 0.79,0.47 0.8,0.47 0.79,0.47 0.8,0.47 0.79,0.46 0.8,0.47 0.79,0.47 0.8,0.47 0.79,0.47 0.8,0.47 0.79,0.47 0.8,0.47 0.79,0.47 0.8,0.47 0.79,0.46 0.8,0.47 0.79,0.47 0.8,0.47 0.79,0.47 0.8,0.47 0.8,0.47 0.79,0.46 0.8,0.47 0.79,0.47 0.8,0.47 0.79,0.47 0.8,0.46 0.79,0.47 0.8,0.47 0.79,0.47 0.8,0.47 0.79,0.46 0.8,0.47 0.79,0.47 0.8,0.47 0.79,0.47 0.8,0.46 0.79,0.47 0.8,0.47 0.79,0.47 0.8,0.46 0.79,0.47 0.8,0.47 0.8,0.47 0.79,0.46 0.8,0.47 0.79,0.47 0.8,0.47 0.79,0.46 0.8,0.47 0.79,0.47 0.8,0.47 0.79,0.46 0.8,0.47 0.79,0.47 0.8,0.47 0.79,0.46 0.8,0.47 0.79,0.47 0.8,0.47 0.79,0.46 0.8,0.47 0.79,0.47 0.8,0.47 0.79,0.46 0.8,0.47 0.8,0.47 0.79,0.47 0.8,0.46 0.79,0.47 0.8,0.47 0.79,0.47 0.8,0.46 0.79,0.47 0.8,0.47 0.79,0.47 0.8,0.46 0.79,0.47 0.8,0.47 0.79,0.47 0.8,0.46 0.79,0.47 0.8,0.47 0.79,0.47 0.8,0.46 0.79,0.47 0.8,0.47 0.79,0.47 0.8,0.46 0.79,0.47 0.8,0.47 0.8,0.47 0.79,0.46 0.8,0.47 0.79,0.47 0.8,0.47 0.79,0.46 0.8,0.47 0.79,0.47 0.8,0.47 0.79,0.47 0.8,0.46 0.79,0.47 0.8,0.47 0.79,0.47 0.8,0.47 0.79,0.46 0.8,0.47 0.79,0.47 0.8,0.47 0.79,0.47 0.8,0.46 0.79,0.47 0.8,0.47 0.8,0.47 0.79,0.47 0.8,0.46 0.79,0.47 0.8,0.47 0.79,0.47 0.8,0.47 0.79,0.47 0.8,0.46 0.79,0.47 0.8,0.47 0.79,0.47 0.8,0.47 0.79,0.47 0.8,0.47 0.79,0.46 0.8,0.47 0.79,0.47 0.8,0.47 0.79,0.47 0.8,0.47 0.79,0.47 0.8,0.47 0.79,0.46 0.8,0.47 0.8,0.47 0.79,0.47 0.8,0.47 0.79,0.47 0.8,0.47 0.79,0.47 0.8,0.47 0.79,0.47 0.8,0.46 0.79,0.47 0.8,0.47 0.79,0.47 0.8,0.47 0.79,0.47 0.8,0.47 0.79,0.47 0.8,0.47 0.79,0.47 0.8,0.47 0.79,0.47 0.8,0.47 0.79,0.47 0.8,0.47 0.8,0.47 0.79,0.47 0.8,0.47 0.79,0.47 0.8,0.47 0.79,0.47 0.8,0.47 0.79,0.47 0.8,0.47 0.79,0.47 0.8,0.47 0.79,0.47 0.8,0.47 0.79,0.47 0.8,0.47 0.79,0.47 0.8,0.47 0.79,0.47 0.8,0.47 0.79,0.47 0.8,0.47 0.79,0.47 0.8,0.47 0.8,0.47 0.79,0.47 0.8,0.47 0.79,0.47 0.8,0.47 0.79,0.47 0.8,0.47 0.79,0.47 0.8,0.48 0.79,0.47 0.8,0.47 0.79,0.47 0.8,0.47 0.79,0.47 0.8,0.47 0.79,0.47 0.8,0.47 0.79,0.47 0.8,0.48 0.79,0.47 0.8,0.47 0.79,0.47 0.8,0.47"
       style="fill:none;stroke:#000000;stroke-width:2.001;stroke-linecap:round;stroke-linejoin:round;stroke-miterlimit:10;stroke-dasharray:none;stroke-opacity:1"
       id="path10967" />
    <path
       d="m 88.05,72.96 0.8,0.44 0.79,0.43 0.8,0.44 0.79,0.43 0.8,0.44 0.79,0.43 0.8,0.44 0.79,0.43 0.8,0.43 0.79,0.43 0.8,0.43 0.8,0.43 0.79,0.43 0.8,0.43 0.79,0.43 0.8,0.43 0.79,0.43 0.8,0.43 0.79,0.42 0.8,0.43 0.79,0.43 0.8,0.42 0.79,0.43 0.8,0.42 0.79,0.43 0.8,0.42 0.79,0.42 0.8,0.43 0.79,0.42 0.8,0.42 0.79,0.43 0.8,0.42 0.79,0.42 0.8,0.42 0.8,0.42 0.79,0.42 0.8,0.42 0.79,0.42 0.8,0.42 0.79,0.42 0.8,0.42 0.79,0.42 0.8,0.42 0.79,0.42 0.8,0.42 0.79,0.42 0.8,0.41 0.79,0.42 0.8,0.42 0.79,0.42 0.8,0.41 0.79,0.42 0.8,0.42 0.79,0.41 0.8,0.42 0.79,0.41 0.8,0.42 0.8,0.42 0.79,0.41 0.8,0.42 0.79,0.41 0.8,0.42 0.79,0.41 0.8,0.41 0.79,0.42 0.8,0.41 0.79,0.42 0.8,0.41 0.79,0.41 0.8,0.42 0.79,0.41 0.8,0.41 0.79,0.42 0.8,0.41 0.79,0.41 0.8,0.42 0.79,0.41 0.8,0.41 0.79,0.41 0.8,0.41 0.79,0.42 0.8,0.41 0.8,0.41 0.79,0.41 0.8,0.41 0.79,0.41 0.8,0.42 0.79,0.41 0.8,0.41 0.79,0.41 0.8,0.41 0.79,0.41 0.8,0.41 0.79,0.41 0.8,0.41 0.79,0.41 0.8,0.41 0.79,0.41 0.8,0.41 0.79,0.42 0.8,0.41 0.79,0.41 0.8,0.41 0.79,0.4 0.8,0.41 0.8,0.41 0.79,0.41 0.8,0.41 0.79,0.41 0.8,0.41 0.79,0.41 0.8,0.41 0.79,0.41 0.8,0.41 0.79,0.41 0.8,0.41 0.79,0.41 0.8,0.41 0.79,0.4 0.8,0.41 0.79,0.41 0.8,0.41 0.79,0.41 0.8,0.41 0.79,0.41 0.8,0.41 0.79,0.4 0.8,0.41 0.8,0.41 0.79,0.41 0.8,0.41 0.79,0.41 0.8,0.4 0.79,0.41 0.8,0.41 0.79,0.41 0.8,0.41 0.79,0.41 0.8,0.4 0.79,0.41 0.8,0.41 0.79,0.41 0.8,0.41 0.79,0.4 0.8,0.41 0.79,0.41 0.8,0.41 0.79,0.41 0.8,0.4 0.79,0.41 0.8,0.41 0.79,0.41 0.8,0.4 0.8,0.41 0.79,0.41 0.8,0.41 0.79,0.4 0.8,0.41 0.79,0.41 0.8,0.41 0.79,0.41 0.8,0.4 0.79,0.41 0.8,0.41 0.79,0.41 0.8,0.4 0.79,0.41 0.8,0.41 0.79,0.41 0.8,0.4 0.79,0.41 0.8,0.41 0.79,0.41 0.8,0.4 0.79,0.41 0.8,0.41 0.8,0.4 0.79,0.41 0.8,0.41 0.79,0.41 0.8,0.4 0.79,0.41 0.8,0.41 0.79,0.41 0.8,0.4 0.79,0.41 0.8,0.41 0.79,0.41 0.8,0.4 0.79,0.41 0.8,0.41 0.79,0.41 0.8,0.4 0.79,0.41 0.8,0.41 0.79,0.4 0.8,0.41 0.79,0.41 0.8,0.41 0.79,0.4 0.8,0.41 0.8,0.41 0.79,0.41 0.8,0.4 0.79,0.41 0.8,0.41 0.79,0.41 0.8,0.4 0.79,0.41 0.8,0.41 0.79,0.41 0.8,0.4 0.79,0.41 0.8,0.41 0.79,0.4 0.8,0.41 0.79,0.41 0.8,0.41 0.79,0.4 0.8,0.41 0.79,0.41 0.8,0.41 0.79,0.4 0.8,0.41 0.8,0.41 0.79,0.41 0.8,0.4 0.79,0.41 0.8,0.41 0.79,0.41 0.8,0.41 0.79,0.4 0.8,0.41 0.79,0.41 0.8,0.41 0.79,0.4 0.8,0.41 0.79,0.41 0.8,0.41 0.79,0.4 0.8,0.41 0.79,0.41 0.8,0.41 0.79,0.41 0.8,0.4 0.79,0.41 0.8,0.41 0.8,0.41 0.79,0.4 0.8,0.41 0.79,0.41 0.8,0.41 0.79,0.41 0.8,0.4 0.79,0.41 0.8,0.41 0.79,0.41 0.8,0.41 0.79,0.4 0.8,0.41 0.79,0.41 0.8,0.41 0.79,0.41 0.8,0.4 0.79,0.41 0.8,0.41 0.79,0.41 0.8,0.41 0.79,0.4 0.8,0.41"
       style="fill:none;stroke:#000000;stroke-width:2.001;stroke-linecap:round;stroke-linejoin:round;stroke-miterlimit:10;stroke-dasharray:none;stroke-opacity:1"
       id="path10969" />
    <path
       d="m 88.05,76.68 0.8,0.4 0.79,0.39 0.8,0.39 0.79,0.39 0.8,0.39 0.79,0.39 0.8,0.39 0.79,0.38 0.8,0.39 0.79,0.39 0.8,0.38 0.8,0.39 0.79,0.38 0.8,0.39 0.79,0.38 0.8,0.38 0.79,0.38 0.8,0.39 0.79,0.38 0.8,0.38 0.79,0.38 0.8,0.38 0.79,0.37 0.8,0.38 0.79,0.38 0.8,0.38 0.79,0.37 0.8,0.38 0.79,0.38 0.8,0.37 0.79,0.38 0.8,0.37 0.79,0.37 0.8,0.38 0.8,0.37 0.79,0.37 0.8,0.38 0.79,0.37 0.8,0.37 0.79,0.37 0.8,0.37 0.79,0.37 0.8,0.37 0.79,0.37 0.8,0.37 0.79,0.37 0.8,0.37 0.79,0.37 0.8,0.37 0.79,0.37 0.8,0.36 0.79,0.37 0.8,0.37 0.79,0.37 0.8,0.36 0.79,0.37 0.8,0.36 0.8,0.37 0.79,0.37 0.8,0.36 0.79,0.37 0.8,0.36 0.79,0.37 0.8,0.36 0.79,0.36 0.8,0.37 0.79,0.36 0.8,0.36 0.79,0.37 0.8,0.36 0.79,0.36 0.8,0.37 0.79,0.36 0.8,0.36 0.79,0.36 0.8,0.36 0.79,0.36 0.8,0.37 0.79,0.36 0.8,0.36 0.79,0.36 0.8,0.36 0.8,0.36 0.79,0.36 0.8,0.36 0.79,0.36 0.8,0.36 0.79,0.36 0.8,0.36 0.79,0.36 0.8,0.36 0.79,0.36 0.8,0.35 0.79,0.36 0.8,0.36 0.79,0.36 0.8,0.36 0.79,0.36 0.8,0.35 0.79,0.36 0.8,0.36 0.79,0.36 0.8,0.35 0.79,0.36 0.8,0.36 0.8,0.36 0.79,0.35 0.8,0.36 0.79,0.36 0.8,0.35 0.79,0.36 0.8,0.36 0.79,0.35 0.8,0.36 0.79,0.36 0.8,0.35 0.79,0.36 0.8,0.35 0.79,0.36 0.8,0.35 0.79,0.36 0.8,0.35 0.79,0.36 0.8,0.36 0.79,0.35 0.8,0.36 0.79,0.35 0.8,0.36 0.8,0.35 0.79,0.35 0.8,0.36 0.79,0.35 0.8,0.36 0.79,0.35 0.8,0.36 0.79,0.35 0.8,0.36 0.79,0.35 0.8,0.35 0.79,0.36 0.8,0.35 0.79,0.35 0.8,0.36 0.79,0.35 0.8,0.36 0.79,0.35 0.8,0.35 0.79,0.36 0.8,0.35 0.79,0.35 0.8,0.36 0.79,0.35 0.8,0.35 0.8,0.35 0.79,0.36 0.8,0.35 0.79,0.35 0.8,0.36 0.79,0.35 0.8,0.35 0.79,0.35 0.8,0.36 0.79,0.35 0.8,0.35 0.79,0.35 0.8,0.36 0.79,0.35 0.8,0.35 0.79,0.35 0.8,0.36 0.79,0.35 0.8,0.35 0.79,0.35 0.8,0.35 0.79,0.36 0.8,0.35 0.8,0.35 0.79,0.35 0.8,0.35 0.79,0.36 0.8,0.35 0.79,0.35 0.8,0.35 0.79,0.35 0.8,0.36 0.79,0.35 0.8,0.35 0.79,0.35 0.8,0.35 0.79,0.35 0.8,0.35 0.79,0.36 0.8,0.35 0.79,0.35 0.8,0.35 0.79,0.35 0.8,0.35 0.79,0.35 0.8,0.36 0.79,0.35 0.8,0.35 0.8,0.35 0.79,0.35 0.8,0.35 0.79,0.35 0.8,0.35 0.79,0.35 0.8,0.36 0.79,0.35 0.8,0.35 0.79,0.35 0.8,0.35 0.79,0.35 0.8,0.35 0.79,0.35 0.8,0.35 0.79,0.35 0.8,0.35 0.79,0.35 0.8,0.36 0.79,0.35 0.8,0.35 0.79,0.35 0.8,0.35 0.8,0.35 0.79,0.35 0.8,0.35 0.79,0.35 0.8,0.35 0.79,0.35 0.8,0.35 0.79,0.35 0.8,0.35 0.79,0.36 0.8,0.35 0.79,0.35 0.8,0.35 0.79,0.35 0.8,0.35 0.79,0.35 0.8,0.35 0.79,0.35 0.8,0.35 0.79,0.35 0.8,0.35 0.79,0.35 0.8,0.35 0.8,0.35 0.79,0.35 0.8,0.35 0.79,0.35 0.8,0.35 0.79,0.35 0.8,0.35 0.79,0.36 0.8,0.35 0.79,0.35 0.8,0.35 0.79,0.35 0.8,0.35 0.79,0.35 0.8,0.35 0.79,0.35 0.8,0.35 0.79,0.35 0.8,0.35 0.79,0.35 0.8,0.35 0.79,0.35 0.8,0.35"
       style="fill:none;stroke:#000000;stroke-width:2.001;stroke-linecap:round;stroke-linejoin:round;stroke-miterlimit:10;stroke-dasharray:none;stroke-opacity:1"
       id="path10971" />
    <text
       xml:space="preserve"
       style="font-style:normal;font-variant:normal;font-weight:normal;font-stretch:normal;font-size:4.58611px;font-family:'TeX Gyre Heros';-inkscape-font-specification:'TeX Gyre Heros';writing-mode:lr-tb;fill:#000000;fill-opacity:1;fill-rule:nonzero;stroke:none;stroke-width:0.352778"
       id="text108-6-3-7"
       x="263.96948"
       y="46.479374"
       transform="matrix(2.8346458,0,0,-2.8346458,-440.64449,339.65558)"><tspan
         sodipodi:role="line"
         id="tspan106-2-6-5"
         style="font-style:normal;font-variant:normal;font-weight:normal;font-stretch:normal;font-size:4.58611px;font-family:'TeX Gyre Heros';-inkscape-font-specification:'TeX Gyre Heros';stroke-width:0.352778"
         x="263.96948"
         y="46.479374">42</tspan></text>
    <text
       xml:space="preserve"
       style="font-style:normal;font-variant:normal;font-weight:normal;font-stretch:normal;font-size:4.58611px;font-family:'TeX Gyre Heros';-inkscape-font-specification:'TeX Gyre Heros';writing-mode:lr-tb;fill:#000000;fill-opacity:1;fill-rule:nonzero;stroke:none;stroke-width:0.352778"
       id="text108-6-3-7-6"
       x="263.96948"
       y="46.479374"
       transform="matrix(2.8346458,0,0,-2.8346458,-440.64449,355.90096)"><tspan
         sodipodi:role="line"
         id="tspan106-2-6-5-7"
         style="font-style:normal;font-variant:normal;font-weight:normal;font-stretch:normal;font-size:4.58611px;font-family:'TeX Gyre Heros';-inkscape-font-specification:'TeX Gyre Heros';stroke-width:0.352778"
         x="263.96948"
         y="46.479374">46</tspan></text>
    <text
       xml:space="preserve"
       style="font-style:normal;font-variant:normal;font-weight:normal;font-stretch:normal;font-size:4.58611px;font-family:'TeX Gyre Heros';-inkscape-font-specification:'TeX Gyre Heros';writing-mode:lr-tb;fill:#000000;fill-opacity:1;fill-rule:nonzero;stroke:none;stroke-width:0.352778"
       id="text108-6-3-7-6-3"
       x="263.96948"
       y="46.479374"
       transform="matrix(2.8346458,0,0,-2.8346458,-440.64449,374.65306)"><tspan
         sodipodi:role="line"
         id="tspan106-2-6-5-7-6"
         style="font-style:normal;font-variant:normal;font-weight:normal;font-stretch:normal;font-size:4.58611px;font-family:'TeX Gyre Heros';-inkscape-font-specification:'TeX Gyre Heros';stroke-width:0.352778"
         x="263.96948"
         y="46.479374">50</tspan></text>
    <text
       xml:space="preserve"
       style="font-style:normal;font-variant:normal;font-weight:normal;font-stretch:normal;font-size:4.58611px;font-family:'TeX Gyre Heros';-inkscape-font-specification:'TeX Gyre Heros';writing-mode:lr-tb;fill:#000000;fill-opacity:1;fill-rule:nonzero;stroke:none;stroke-width:0.352778"
       id="text108-6-3-7-6-3-5"
       x="263.96948"
       y="46.479374"
       transform="matrix(2.8346458,0,0,-2.8346458,-440.64449,396.25741)"><tspan
         sodipodi:role="line"
         id="tspan106-2-6-5-7-6-6"
         style="font-style:normal;font-variant:normal;font-weight:normal;font-stretch:normal;font-size:4.58611px;font-family:'TeX Gyre Heros';-inkscape-font-specification:'TeX Gyre Heros';stroke-width:0.352778"
         x="263.96948"
         y="46.479374">54</tspan></text>
    <text
       xml:space="preserve"
       style="font-style:normal;font-variant:normal;font-weight:normal;font-stretch:normal;font-size:4.58611px;font-family:'TeX Gyre Heros';-inkscape-font-specification:'TeX Gyre Heros';writing-mode:lr-tb;fill:#000000;fill-opacity:1;fill-rule:nonzero;stroke:none;stroke-width:0.352778"
       id="text108-6-3-7-6-3-5-3"
       x="263.96948"
       y="46.479374"
       transform="matrix(2.8346458,0,0,-2.8346458,-440.64449,419.46806)"><tspan
         sodipodi:role="line"
         id="tspan106-2-6-5-7-6-6-9"
         style="font-style:normal;font-variant:normal;font-weight:normal;font-stretch:normal;font-size:4.58611px;font-family:'TeX Gyre Heros';-inkscape-font-specification:'TeX Gyre Heros';stroke-width:0.352778"
         x="263.96948"
         y="46.479374">58</tspan></text>
    <text
       xml:space="preserve"
       style="font-style:normal;font-variant:normal;font-weight:normal;font-stretch:normal;font-size:4.58611px;font-family:'TeX Gyre Heros';-inkscape-font-specification:'TeX Gyre Heros';writing-mode:lr-tb;fill:#000000;fill-opacity:1;fill-rule:nonzero;stroke:none;stroke-width:0.352778"
       id="text108-6-3-8"
       x="264.30817"
       y="54.441509"
       transform="matrix(2.8346458,0,0,-2.8346458,-441.60454,347.233)"><tspan
         sodipodi:role="line"
         id="tspan106-2-6-7"
         style="font-style:normal;font-variant:normal;font-weight:normal;font-stretch:normal;font-size:4.58611px;font-family:'TeX Gyre Heros';-inkscape-font-specification:'TeX Gyre Heros';stroke-width:0.352778"
         x="264.30817"
         y="54.441509">38</tspan></text>
    <text
       xml:space="preserve"
       style="font-style:normal;font-variant:normal;font-weight:normal;font-stretch:normal;font-size:4.58611px;font-family:'TeX Gyre Heros';-inkscape-font-specification:'TeX Gyre Heros';writing-mode:lr-tb;fill:#000000;fill-opacity:1;fill-rule:nonzero;stroke:none;stroke-width:0.352778"
       id="text108-6-3-9"
       x="264.28168"
       y="65.712761"
       transform="matrix(2.8346458,0,0,-2.8346458,-441.52945,365.06036)"><tspan
         sodipodi:role="line"
         id="tspan106-2-6-2"
         style="font-style:normal;font-variant:normal;font-weight:normal;font-stretch:normal;font-size:4.58611px;font-family:'TeX Gyre Heros';-inkscape-font-specification:'TeX Gyre Heros';stroke-width:0.352778"
         x="264.28168"
         y="65.712761">34</tspan></text>
    <text
       xml:space="preserve"
       style="font-style:normal;font-variant:normal;font-weight:normal;font-stretch:normal;font-size:4.58611px;font-family:'TeX Gyre Heros';-inkscape-font-specification:'TeX Gyre Heros';writing-mode:lr-tb;fill:#000000;fill-opacity:1;fill-rule:nonzero;stroke:none;stroke-width:0.352778"
       id="text108-6-3-0"
       x="264.3399"
       y="81.884094"
       transform="matrix(2.8346458,0,0,-2.8346458,-441.69451,396.77772)"><tspan
         sodipodi:role="line"
         id="tspan106-2-6-23"
         style="font-style:normal;font-variant:normal;font-weight:normal;font-stretch:normal;font-size:4.58611px;font-family:'TeX Gyre Heros';-inkscape-font-specification:'TeX Gyre Heros';stroke-width:0.352778"
         x="264.3399"
         y="81.884094">30</tspan></text>
    <text
       xml:space="preserve"
       style="font-style:normal;font-variant:normal;font-weight:normal;font-stretch:normal;font-size:4.58611px;font-family:'TeX Gyre Heros';-inkscape-font-specification:'TeX Gyre Heros';writing-mode:lr-tb;fill:#000000;fill-opacity:1;fill-rule:nonzero;stroke:none;stroke-width:0.352778"
       id="text108-6-3-0-0"
       x="264.3399"
       y="81.884094"
       transform="matrix(2.8346458,0,0,-2.8346458,-441.85051,371.14411)"><tspan
         sodipodi:role="line"
         id="tspan106-2-6-23-3"
         style="font-style:normal;font-variant:normal;font-weight:normal;font-stretch:normal;font-size:4.58611px;font-family:'TeX Gyre Heros';-inkscape-font-specification:'TeX Gyre Heros';stroke-width:0.352778"
         x="264.3399"
         y="81.884094">GC%</tspan></text>
  </g>
</svg>
