<?xml version="1.0" encoding="UTF-8" standalone="no"?>
<!-- Created with Inkscape (http://www.inkscape.org/) -->

<svg
   width="110mm"
   height="32mm"
   viewBox="0 0 110 32"
   version="1.1"
   id="svg5"
   inkscape:version="1.2 (dc2aeda, 2022-05-15)"
   sodipodi:docname="frames.svg"
   xmlns:inkscape="http://www.inkscape.org/namespaces/inkscape"
   xmlns:sodipodi="http://sodipodi.sourceforge.net/DTD/sodipodi-0.dtd"
   xmlns="http://www.w3.org/2000/svg"
   xmlns:svg="http://www.w3.org/2000/svg">
  <sodipodi:namedview
     id="namedview7"
     pagecolor="#ffffff"
     bordercolor="#666666"
     borderopacity="1.0"
     inkscape:showpageshadow="2"
     inkscape:pageopacity="0.0"
     inkscape:pagecheckerboard="0"
     inkscape:deskcolor="#d1d1d1"
     inkscape:document-units="mm"
     showgrid="false"
     inkscape:zoom="0.75098906"
     inkscape:cx="367.51534"
     inkscape:cy="243.01286"
     inkscape:window-width="1920"
     inkscape:window-height="1011"
     inkscape:window-x="0"
     inkscape:window-y="0"
     inkscape:window-maximized="1"
     inkscape:current-layer="layer1" />
  <defs
     id="defs2" />
  <g
     inkscape:label="Layer 1"
     inkscape:groupmode="layer"
     id="layer1">
    <path
       d="m 80.207698,184.03129 h 14.830748 v 2.21355 h -6.080737 v 17.22658 h -2.643232 v -17.22658 h -6.106779 z"
       style="font-size:26.6667px;line-height:1.25;font-family:'DejaVu Sans Mono';-inkscape-font-specification:'DejaVu Sans Mono';letter-spacing:0px;word-spacing:0px"
       id="path1128"
       transform="matrix(0.26458333,0,0,0.26458333,-19.0597,-33.683998)" />
    <path
       d="m 110.02545,201.86986 q -1.05469,0.97656 -2.38282,1.48437 -1.31511,0.49479 -2.85157,0.49479 -3.69792,0 -5.755212,-2.64323 -2.057294,-2.65625 -2.057294,-7.4349 0,-4.76563 2.083336,-7.42189 2.08334,-2.66927 5.79428,-2.66927 1.22396,0 2.34375,0.35156 1.11979,0.33854 2.16146,1.04167 v 2.69532 q -1.05469,-1.00261 -2.16146,-1.47136 -1.10677,-0.48177 -2.34375,-0.48177 -2.56511,0 -3.85417,1.99219 -1.276047,1.97917 -1.276047,5.96355 0,4.04948 1.236977,6.00261 1.25001,1.94011 3.82813,1.94011 0.8724,0 1.52344,-0.19532 0.66407,-0.20833 1.19792,-0.63802 v -5.22136 h -2.82552 v -2.16146 h 5.33855 z"
       style="font-size:26.6667px;line-height:1.25;font-family:'DejaVu Sans Mono';-inkscape-font-specification:'DejaVu Sans Mono';letter-spacing:0px;word-spacing:0px"
       id="path1130"
       transform="matrix(0.26458333,0,0,0.26458333,-19.0597,-33.683998)" />
    <path
       d="m 125.67651,202.78132 q -1.00261,0.53385 -2.0573,0.79427 -1.05469,0.27343 -2.23958,0.27343 -3.73699,0 -5.8073,-2.64323 -2.0573,-2.64323 -2.0573,-7.4349 0,-4.76563 2.07032,-7.42189 2.08333,-2.66927 5.79428,-2.66927 1.18489,0 2.23958,0.27344 1.05469,0.26041 2.0573,0.79427 v 2.69531 q -0.96355,-0.79427 -2.07032,-1.21093 -1.10677,-0.41667 -2.22656,-0.41667 -2.56511,0 -3.84115,1.97917 -1.27605,1.97917 -1.27605,5.97657 0,3.98438 1.27605,5.96355 1.27604,1.97917 3.84115,1.97917 1.14583,0 2.23958,-0.41667 1.10678,-0.41667 2.0573,-1.21094 z"
       style="font-size:26.6667px;line-height:1.25;font-family:'DejaVu Sans Mono';-inkscape-font-specification:'DejaVu Sans Mono';letter-spacing:0px;word-spacing:0px"
       id="path1132"
       transform="matrix(0.26458333,0,0,0.26458333,-19.0597,-33.683998)" />
    <path
       d="m 135.78069,186.349 -2.77345,9.94793 h 5.54689 z m -1.58855,-2.31771 h 3.19011 l 5.95053,19.44013 h -2.72136 l -1.43229,-5.06511 h -6.80991 l -1.40625,5.06511 h -2.72136 z"
       style="font-size:26.6667px;line-height:1.25;font-family:'DejaVu Sans Mono';-inkscape-font-specification:'DejaVu Sans Mono';letter-spacing:0px;word-spacing:0px"
       id="path1134"
       transform="matrix(0.26458333,0,0,0.26458333,-19.0597,-33.683998)" />
    <path
       d="m 157.78592,202.78132 q -1.0026,0.53385 -2.05729,0.79427 -1.05469,0.27343 -2.23959,0.27343 -3.73698,0 -5.8073,-2.64323 -2.05729,-2.64323 -2.05729,-7.4349 0,-4.76563 2.07032,-7.42189 2.08333,-2.66927 5.79427,-2.66927 1.1849,0 2.23959,0.27344 1.05469,0.26041 2.05729,0.79427 v 2.69531 q -0.96354,-0.79427 -2.07031,-1.21093 -1.10677,-0.41667 -2.22657,-0.41667 -2.5651,0 -3.84115,1.97917 -1.27604,1.97917 -1.27604,5.97657 0,3.98438 1.27604,5.96355 1.27605,1.97917 3.84115,1.97917 1.14584,0 2.23959,-0.41667 1.10677,-0.41667 2.05729,-1.21094 z"
       style="font-size:26.6667px;line-height:1.25;font-family:'DejaVu Sans Mono';-inkscape-font-specification:'DejaVu Sans Mono';letter-spacing:0px;word-spacing:0px"
       id="path1136"
       transform="matrix(0.26458333,0,0,0.26458333,-19.0597,-33.683998)" />
    <path
       d="m 174.24428,201.86986 q -1.05469,0.97656 -2.38281,1.48437 -1.31511,0.49479 -2.85157,0.49479 -3.69792,0 -5.75522,-2.64323 -2.05729,-2.65625 -2.05729,-7.4349 0,-4.76563 2.08334,-7.42189 2.08333,-2.66927 5.79427,-2.66927 1.22396,0 2.34376,0.35156 1.11979,0.33854 2.16146,1.04167 v 2.69532 q -1.05469,-1.00261 -2.16146,-1.47136 -1.10678,-0.48177 -2.34376,-0.48177 -2.5651,0 -3.85417,1.99219 -1.27604,1.97917 -1.27604,5.96355 0,4.04948 1.23698,6.00261 1.25,1.94011 3.82813,1.94011 0.8724,0 1.52344,-0.19532 0.66406,-0.20833 1.19792,-0.63802 v -5.22136 h -2.82553 v -2.16146 h 5.33855 z"
       style="font-size:26.6667px;line-height:1.25;font-family:'DejaVu Sans Mono';-inkscape-font-specification:'DejaVu Sans Mono';letter-spacing:0px;word-spacing:0px"
       id="path1138"
       transform="matrix(0.26458333,0,0,0.26458333,-19.0597,-33.683998)" />
    <path
       d="m 128.37182,218.01092 h 14.83075 v 2.21354 h -6.08074 v 17.22659 h -2.64323 v -17.22659 h -6.10678 z"
       style="font-size:26.6667px;line-height:1.25;font-family:'DejaVu Sans Mono';-inkscape-font-specification:'DejaVu Sans Mono';letter-spacing:0px;word-spacing:0px;fill:#d45500"
       id="path1140"
       transform="matrix(0.26458333,0,0,0.26458333,-19.0597,-33.683998)" />
    <path
       d="m 158.18957,235.84948 q -1.05469,0.97657 -2.38282,1.48438 -1.3151,0.49479 -2.85156,0.49479 -3.69792,0 -5.75522,-2.64323 -2.05729,-2.65625 -2.05729,-7.43491 0,-4.76563 2.08333,-7.42188 2.08334,-2.66928 5.79428,-2.66928 1.22396,0 2.34376,0.35157 1.11979,0.33854 2.16146,1.04167 v 2.69531 q -1.05469,-1.0026 -2.16146,-1.47135 -1.10678,-0.48178 -2.34376,-0.48178 -2.5651,0 -3.85417,1.99219 -1.27604,1.97917 -1.27604,5.96355 0,4.04949 1.23698,6.00262 1.25,1.9401 3.82813,1.9401 0.8724,0 1.52344,-0.19531 0.66406,-0.20833 1.19792,-0.63802 v -5.22136 h -2.82553 v -2.16146 h 5.33855 z"
       style="font-size:26.6667px;line-height:1.25;font-family:'DejaVu Sans Mono';-inkscape-font-specification:'DejaVu Sans Mono';letter-spacing:0px;word-spacing:0px;fill:#d45500"
       id="path1142"
       transform="matrix(0.26458333,0,0,0.26458333,-19.0597,-33.683998)" />
    <path
       d="m 173.84063,236.76094 q -1.0026,0.53386 -2.05729,0.79427 -1.05469,0.27344 -2.23959,0.27344 -3.73698,0 -5.80729,-2.64323 -2.0573,-2.64323 -2.0573,-7.43491 0,-4.76563 2.07032,-7.42188 2.08333,-2.66928 5.79427,-2.66928 1.1849,0 2.23959,0.27344 1.05469,0.26042 2.05729,0.79427 v 2.69532 q -0.96354,-0.79427 -2.07031,-1.21094 -1.10677,-0.41667 -2.22657,-0.41667 -2.5651,0 -3.84115,1.97917 -1.27604,1.97917 -1.27604,5.97657 0,3.98438 1.27604,5.96355 1.27605,1.97917 3.84115,1.97917 1.14584,0 2.23959,-0.41667 1.10677,-0.41666 2.05729,-1.21093 z"
       style="font-size:26.6667px;line-height:1.25;font-family:'DejaVu Sans Mono';-inkscape-font-specification:'DejaVu Sans Mono';letter-spacing:0px;word-spacing:0px;fill:#d45500"
       id="path1144"
       transform="matrix(0.26458333,0,0,0.26458333,-19.0597,-33.683998)" />
    <text
       xml:space="preserve"
       style="font-size:26.6667px;line-height:1.25;font-family:'TeX Gyre Heros';-inkscape-font-specification:'TeX Gyre Heros';letter-spacing:0px;word-spacing:0px"
       x="72.96888"
       y="105.96664"
       id="text1040"
       transform="matrix(0.26458333,0,0,0.26458333,-17.922564,-20.893499)"><tspan
         sodipodi:role="line"
         id="tspan1038"
         x="72.96888"
         y="105.96664">Frame 0</tspan></text>
    <path
       d="m 80.207698,184.03129 h 14.830748 v 2.21355 h -6.080737 v 17.22658 h -2.643232 v -17.22658 h -6.106779 z"
       style="font-size:26.6667px;line-height:1.25;font-family:'DejaVu Sans Mono';-inkscape-font-specification:'DejaVu Sans Mono';letter-spacing:0px;word-spacing:0px"
       id="path1147"
       transform="matrix(0.26458333,0,0,0.26458333,21.4193,-33.683998)" />
    <path
       d="m 110.02545,201.86986 q -1.05469,0.97656 -2.38282,1.48437 -1.31511,0.49479 -2.85157,0.49479 -3.69792,0 -5.755212,-2.64323 -2.057294,-2.65625 -2.057294,-7.4349 0,-4.76563 2.083336,-7.42189 2.08334,-2.66927 5.79428,-2.66927 1.22396,0 2.34375,0.35156 1.11979,0.33854 2.16146,1.04167 v 2.69532 q -1.05469,-1.00261 -2.16146,-1.47136 -1.10677,-0.48177 -2.34375,-0.48177 -2.56511,0 -3.85417,1.99219 -1.276047,1.97917 -1.276047,5.96355 0,4.04948 1.236977,6.00261 1.25001,1.94011 3.82813,1.94011 0.8724,0 1.52344,-0.19532 0.66407,-0.20833 1.19792,-0.63802 v -5.22136 h -2.82552 v -2.16146 h 5.33855 z"
       style="font-size:26.6667px;line-height:1.25;font-family:'DejaVu Sans Mono';-inkscape-font-specification:'DejaVu Sans Mono';letter-spacing:0px;word-spacing:0px"
       id="path1149"
       transform="matrix(0.26458333,0,0,0.26458333,21.4193,-33.683998)" />
    <path
       d="m 125.67651,202.78132 q -1.00261,0.53385 -2.0573,0.79427 -1.05469,0.27343 -2.23958,0.27343 -3.73699,0 -5.8073,-2.64323 -2.0573,-2.64323 -2.0573,-7.4349 0,-4.76563 2.07032,-7.42189 2.08333,-2.66927 5.79428,-2.66927 1.18489,0 2.23958,0.27344 1.05469,0.26041 2.0573,0.79427 v 2.69531 q -0.96355,-0.79427 -2.07032,-1.21093 -1.10677,-0.41667 -2.22656,-0.41667 -2.56511,0 -3.84115,1.97917 -1.27605,1.97917 -1.27605,5.97657 0,3.98438 1.27605,5.96355 1.27604,1.97917 3.84115,1.97917 1.14583,0 2.23958,-0.41667 1.10678,-0.41667 2.0573,-1.21094 z"
       style="font-size:26.6667px;line-height:1.25;font-family:'DejaVu Sans Mono';-inkscape-font-specification:'DejaVu Sans Mono';letter-spacing:0px;word-spacing:0px"
       id="path1151"
       transform="matrix(0.26458333,0,0,0.26458333,21.4193,-33.683998)" />
    <path
       d="m 135.78069,186.349 -2.77345,9.94793 h 5.54689 z m -1.58855,-2.31771 h 3.19011 l 5.95053,19.44013 h -2.72136 l -1.43229,-5.06511 h -6.80991 l -1.40625,5.06511 h -2.72136 z"
       style="font-size:26.6667px;line-height:1.25;font-family:'DejaVu Sans Mono';-inkscape-font-specification:'DejaVu Sans Mono';letter-spacing:0px;word-spacing:0px"
       id="path1153"
       transform="matrix(0.26458333,0,0,0.26458333,21.4193,-33.683998)" />
    <path
       d="m 157.78592,202.78132 q -1.0026,0.53385 -2.05729,0.79427 -1.05469,0.27343 -2.23959,0.27343 -3.73698,0 -5.8073,-2.64323 -2.05729,-2.64323 -2.05729,-7.4349 0,-4.76563 2.07032,-7.42189 2.08333,-2.66927 5.79427,-2.66927 1.1849,0 2.23959,0.27344 1.05469,0.26041 2.05729,0.79427 v 2.69531 q -0.96354,-0.79427 -2.07031,-1.21093 -1.10677,-0.41667 -2.22657,-0.41667 -2.5651,0 -3.84115,1.97917 -1.27604,1.97917 -1.27604,5.97657 0,3.98438 1.27604,5.96355 1.27605,1.97917 3.84115,1.97917 1.14584,0 2.23959,-0.41667 1.10677,-0.41667 2.05729,-1.21094 z"
       style="font-size:26.6667px;line-height:1.25;font-family:'DejaVu Sans Mono';-inkscape-font-specification:'DejaVu Sans Mono';letter-spacing:0px;word-spacing:0px"
       id="path1155"
       transform="matrix(0.26458333,0,0,0.26458333,21.4193,-33.683998)" />
    <path
       d="m 174.24428,201.86986 q -1.05469,0.97656 -2.38281,1.48437 -1.31511,0.49479 -2.85157,0.49479 -3.69792,0 -5.75522,-2.64323 -2.05729,-2.65625 -2.05729,-7.4349 0,-4.76563 2.08334,-7.42189 2.08333,-2.66927 5.79427,-2.66927 1.22396,0 2.34376,0.35156 1.11979,0.33854 2.16146,1.04167 v 2.69532 q -1.05469,-1.00261 -2.16146,-1.47136 -1.10678,-0.48177 -2.34376,-0.48177 -2.5651,0 -3.85417,1.99219 -1.27604,1.97917 -1.27604,5.96355 0,4.04948 1.23698,6.00261 1.25,1.94011 3.82813,1.94011 0.8724,0 1.52344,-0.19532 0.66406,-0.20833 1.19792,-0.63802 v -5.22136 h -2.82553 v -2.16146 h 5.33855 z"
       style="font-size:26.6667px;line-height:1.25;font-family:'DejaVu Sans Mono';-inkscape-font-specification:'DejaVu Sans Mono';letter-spacing:0px;word-spacing:0px"
       id="path1157"
       transform="matrix(0.26458333,0,0,0.26458333,21.4193,-33.683998)" />
    <path
       d="m 126.08015,235.84948 q -1.05469,0.97657 -2.38281,1.48438 -1.31511,0.49479 -2.85157,0.49479 -3.69792,0 -5.75521,-2.64323 -2.0573,-2.65625 -2.0573,-7.43491 0,-4.76563 2.08334,-7.42188 2.08333,-2.66928 5.79428,-2.66928 1.22396,0 2.34375,0.35157 1.11979,0.33854 2.16146,1.04167 v 2.69531 q -1.05469,-1.0026 -2.16146,-1.47135 -1.10677,-0.48178 -2.34375,-0.48178 -2.56511,0 -3.85418,1.99219 -1.27604,1.97917 -1.27604,5.96355 0,4.04949 1.23698,6.00262 1.25,1.9401 3.82813,1.9401 0.8724,0 1.52344,-0.19531 0.66406,-0.20833 1.19792,-0.63802 v -5.22136 h -2.82552 v -2.16146 h 5.33854 z"
       style="font-size:26.6667px;line-height:1.25;font-family:'DejaVu Sans Mono';-inkscape-font-specification:'DejaVu Sans Mono';letter-spacing:0px;word-spacing:0px;fill:#d45500"
       id="path1159"
       transform="matrix(0.26458333,0,0,0.26458333,21.4193,-33.683998)" />
    <path
       d="m 128.37182,218.01092 h 14.83075 v 2.21354 h -6.08074 v 17.22659 h -2.64323 v -17.22659 h -6.10678 z"
       style="font-size:26.6667px;line-height:1.25;font-family:'DejaVu Sans Mono';-inkscape-font-specification:'DejaVu Sans Mono';letter-spacing:0px;word-spacing:0px;fill:#d45500"
       id="path1161"
       transform="matrix(0.26458333,0,0,0.26458333,21.4193,-33.683998)" />
    <path
       d="m 158.18957,235.84948 q -1.05469,0.97657 -2.38282,1.48438 -1.3151,0.49479 -2.85156,0.49479 -3.69792,0 -5.75522,-2.64323 -2.05729,-2.65625 -2.05729,-7.43491 0,-4.76563 2.08333,-7.42188 2.08334,-2.66928 5.79428,-2.66928 1.22396,0 2.34376,0.35157 1.11979,0.33854 2.16146,1.04167 v 2.69531 q -1.05469,-1.0026 -2.16146,-1.47135 -1.10678,-0.48178 -2.34376,-0.48178 -2.5651,0 -3.85417,1.99219 -1.27604,1.97917 -1.27604,5.96355 0,4.04949 1.23698,6.00262 1.25,1.9401 3.82813,1.9401 0.8724,0 1.52344,-0.19531 0.66406,-0.20833 1.19792,-0.63802 v -5.22136 h -2.82553 v -2.16146 h 5.33855 z"
       style="font-size:26.6667px;line-height:1.25;font-family:'DejaVu Sans Mono';-inkscape-font-specification:'DejaVu Sans Mono';letter-spacing:0px;word-spacing:0px;fill:#d45500"
       id="path1163"
       transform="matrix(0.26458333,0,0,0.26458333,21.4193,-33.683998)" />
    <text
       xml:space="preserve"
       style="font-size:26.6667px;line-height:1.25;font-family:'TeX Gyre Heros';-inkscape-font-specification:'TeX Gyre Heros';letter-spacing:0px;word-spacing:0px"
       x="72.96888"
       y="105.96664"
       id="text1040-2"
       transform="matrix(0.26458333,0,0,0.26458333,23.120882,-20.893499)"><tspan
         sodipodi:role="line"
         id="tspan1038-0"
         x="72.96888"
         y="105.96664">Frame 1</tspan></text>
    <path
       d="m 80.207698,184.03129 h 14.830748 v 2.21355 h -6.080737 v 17.22658 h -2.643232 v -17.22658 h -6.106779 z"
       style="font-size:26.6667px;line-height:1.25;font-family:'DejaVu Sans Mono';-inkscape-font-specification:'DejaVu Sans Mono';letter-spacing:0px;word-spacing:0px"
       id="path1166"
       transform="matrix(0.26458333,0,0,0.26458333,61.8983,-33.683998)" />
    <path
       d="m 110.02545,201.86986 q -1.05469,0.97656 -2.38282,1.48437 -1.31511,0.49479 -2.85157,0.49479 -3.69792,0 -5.755212,-2.64323 -2.057294,-2.65625 -2.057294,-7.4349 0,-4.76563 2.083336,-7.42189 2.08334,-2.66927 5.79428,-2.66927 1.22396,0 2.34375,0.35156 1.11979,0.33854 2.16146,1.04167 v 2.69532 q -1.05469,-1.00261 -2.16146,-1.47136 -1.10677,-0.48177 -2.34375,-0.48177 -2.56511,0 -3.85417,1.99219 -1.276047,1.97917 -1.276047,5.96355 0,4.04948 1.236977,6.00261 1.25001,1.94011 3.82813,1.94011 0.8724,0 1.52344,-0.19532 0.66407,-0.20833 1.19792,-0.63802 v -5.22136 h -2.82552 v -2.16146 h 5.33855 z"
       style="font-size:26.6667px;line-height:1.25;font-family:'DejaVu Sans Mono';-inkscape-font-specification:'DejaVu Sans Mono';letter-spacing:0px;word-spacing:0px"
       id="path1168"
       transform="matrix(0.26458333,0,0,0.26458333,61.8983,-33.683998)" />
    <path
       d="m 125.67651,202.78132 q -1.00261,0.53385 -2.0573,0.79427 -1.05469,0.27343 -2.23958,0.27343 -3.73699,0 -5.8073,-2.64323 -2.0573,-2.64323 -2.0573,-7.4349 0,-4.76563 2.07032,-7.42189 2.08333,-2.66927 5.79428,-2.66927 1.18489,0 2.23958,0.27344 1.05469,0.26041 2.0573,0.79427 v 2.69531 q -0.96355,-0.79427 -2.07032,-1.21093 -1.10677,-0.41667 -2.22656,-0.41667 -2.56511,0 -3.84115,1.97917 -1.27605,1.97917 -1.27605,5.97657 0,3.98438 1.27605,5.96355 1.27604,1.97917 3.84115,1.97917 1.14583,0 2.23958,-0.41667 1.10678,-0.41667 2.0573,-1.21094 z"
       style="font-size:26.6667px;line-height:1.25;font-family:'DejaVu Sans Mono';-inkscape-font-specification:'DejaVu Sans Mono';letter-spacing:0px;word-spacing:0px"
       id="path1170"
       transform="matrix(0.26458333,0,0,0.26458333,61.8983,-33.683998)" />
    <path
       d="m 135.78069,186.349 -2.77345,9.94793 h 5.54689 z m -1.58855,-2.31771 h 3.19011 l 5.95053,19.44013 h -2.72136 l -1.43229,-5.06511 h -6.80991 l -1.40625,5.06511 h -2.72136 z"
       style="font-size:26.6667px;line-height:1.25;font-family:'DejaVu Sans Mono';-inkscape-font-specification:'DejaVu Sans Mono';letter-spacing:0px;word-spacing:0px"
       id="path1172"
       transform="matrix(0.26458333,0,0,0.26458333,61.8983,-33.683998)" />
    <path
       d="m 157.78592,202.78132 q -1.0026,0.53385 -2.05729,0.79427 -1.05469,0.27343 -2.23959,0.27343 -3.73698,0 -5.8073,-2.64323 -2.05729,-2.64323 -2.05729,-7.4349 0,-4.76563 2.07032,-7.42189 2.08333,-2.66927 5.79427,-2.66927 1.1849,0 2.23959,0.27344 1.05469,0.26041 2.05729,0.79427 v 2.69531 q -0.96354,-0.79427 -2.07031,-1.21093 -1.10677,-0.41667 -2.22657,-0.41667 -2.5651,0 -3.84115,1.97917 -1.27604,1.97917 -1.27604,5.97657 0,3.98438 1.27604,5.96355 1.27605,1.97917 3.84115,1.97917 1.14584,0 2.23959,-0.41667 1.10677,-0.41667 2.05729,-1.21094 z"
       style="font-size:26.6667px;line-height:1.25;font-family:'DejaVu Sans Mono';-inkscape-font-specification:'DejaVu Sans Mono';letter-spacing:0px;word-spacing:0px"
       id="path1174"
       transform="matrix(0.26458333,0,0,0.26458333,61.8983,-33.683998)" />
    <path
       d="m 174.24428,201.86986 q -1.05469,0.97656 -2.38281,1.48437 -1.31511,0.49479 -2.85157,0.49479 -3.69792,0 -5.75522,-2.64323 -2.05729,-2.65625 -2.05729,-7.4349 0,-4.76563 2.08334,-7.42189 2.08333,-2.66927 5.79427,-2.66927 1.22396,0 2.34376,0.35156 1.11979,0.33854 2.16146,1.04167 v 2.69532 q -1.05469,-1.00261 -2.16146,-1.47136 -1.10678,-0.48177 -2.34376,-0.48177 -2.5651,0 -3.85417,1.99219 -1.27604,1.97917 -1.27604,5.96355 0,4.04948 1.23698,6.00261 1.25,1.94011 3.82813,1.94011 0.8724,0 1.52344,-0.19532 0.66406,-0.20833 1.19792,-0.63802 v -5.22136 h -2.82553 v -2.16146 h 5.33855 z"
       style="font-size:26.6667px;line-height:1.25;font-family:'DejaVu Sans Mono';-inkscape-font-specification:'DejaVu Sans Mono';letter-spacing:0px;word-spacing:0px"
       id="path1176"
       transform="matrix(0.26458333,0,0,0.26458333,61.8983,-33.683998)" />
    <path
       d="m 109.6218,236.76094 q -1.00261,0.53386 -2.0573,0.79427 -1.05468,0.27344 -2.23958,0.27344 -3.73699,0 -5.807301,-2.64323 -2.057294,-2.64323 -2.057294,-7.43491 0,-4.76563 2.070315,-7.42188 2.08334,-2.66928 5.79428,-2.66928 1.1849,0 2.23958,0.27344 1.05469,0.26042 2.0573,0.79427 v 2.69532 q -0.96354,-0.79427 -2.07032,-1.21094 -1.10677,-0.41667 -2.22656,-0.41667 -2.56511,0 -3.84115,1.97917 -1.27605,1.97917 -1.27605,5.97657 0,3.98438 1.27605,5.96355 1.27604,1.97917 3.84115,1.97917 1.14583,0 2.23958,-0.41667 1.10678,-0.41666 2.0573,-1.21093 z"
       style="font-size:26.6667px;line-height:1.25;font-family:'DejaVu Sans Mono';-inkscape-font-specification:'DejaVu Sans Mono';letter-spacing:0px;word-spacing:0px;fill:#d45500"
       id="path1178"
       transform="matrix(0.26458333,0,0,0.26458333,61.8983,-33.683998)" />
    <path
       d="m 126.08015,235.84948 q -1.05469,0.97657 -2.38281,1.48438 -1.31511,0.49479 -2.85157,0.49479 -3.69792,0 -5.75521,-2.64323 -2.0573,-2.65625 -2.0573,-7.43491 0,-4.76563 2.08334,-7.42188 2.08333,-2.66928 5.79428,-2.66928 1.22396,0 2.34375,0.35157 1.11979,0.33854 2.16146,1.04167 v 2.69531 q -1.05469,-1.0026 -2.16146,-1.47135 -1.10677,-0.48178 -2.34375,-0.48178 -2.56511,0 -3.85418,1.99219 -1.27604,1.97917 -1.27604,5.96355 0,4.04949 1.23698,6.00262 1.25,1.9401 3.82813,1.9401 0.8724,0 1.52344,-0.19531 0.66406,-0.20833 1.19792,-0.63802 v -5.22136 h -2.82552 v -2.16146 h 5.33854 z"
       style="font-size:26.6667px;line-height:1.25;font-family:'DejaVu Sans Mono';-inkscape-font-specification:'DejaVu Sans Mono';letter-spacing:0px;word-spacing:0px;fill:#d45500"
       id="path1180"
       transform="matrix(0.26458333,0,0,0.26458333,61.8983,-33.683998)" />
    <path
       d="m 128.37182,218.01092 h 14.83075 v 2.21354 h -6.08074 v 17.22659 h -2.64323 v -17.22659 h -6.10678 z"
       style="font-size:26.6667px;line-height:1.25;font-family:'DejaVu Sans Mono';-inkscape-font-specification:'DejaVu Sans Mono';letter-spacing:0px;word-spacing:0px;fill:#d45500"
       id="path1182"
       transform="matrix(0.26458333,0,0,0.26458333,61.8983,-33.683998)" />
    <text
       xml:space="preserve"
       style="font-size:26.6667px;line-height:1.25;font-family:'TeX Gyre Heros';-inkscape-font-specification:'TeX Gyre Heros';letter-spacing:0px;word-spacing:0px"
       x="72.96888"
       y="105.96664"
       id="text1040-6"
       transform="matrix(0.26458333,0,0,0.26458333,63.021325,-20.893499)"><tspan
         sodipodi:role="line"
         id="tspan1038-1"
         x="72.96888"
         y="105.96664">Frame 2</tspan></text>
  </g>
</svg>
