<?xml version="1.0" encoding="UTF-8" standalone="no"?>
<!-- Created with Inkscape (http://www.inkscape.org/) -->

<svg
   version="1.1"
   id="svg3909"
   width="224.3446mm"
   height="110mm"
   viewBox="0 0 847.91661 415.74803"
   sodipodi:docname="pORFloss_antisense_scerWC.svg"
   inkscape:version="1.2 (dc2aeda, 2022-05-15)"
   xmlns:inkscape="http://www.inkscape.org/namespaces/inkscape"
   xmlns:sodipodi="http://sodipodi.sourceforge.net/DTD/sodipodi-0.dtd"
   xmlns="http://www.w3.org/2000/svg"
   xmlns:svg="http://www.w3.org/2000/svg">
  <defs
     id="defs3913">
    <clipPath
       clipPathUnits="userSpaceOnUse"
       id="clipPath3931">
      <path
         d="M 0,0 H 595.28 V 595.28 H 0 Z"
         id="path3929" />
    </clipPath>
    <clipPath
       clipPathUnits="userSpaceOnUse"
       id="clipPath3941">
      <path
         d="M 0,0 H 595.28 V 595.28 H 0 Z"
         id="path3939" />
    </clipPath>
    <clipPath
       clipPathUnits="userSpaceOnUse"
       id="clipPath4005">
      <path
         d="M 0,0 H 595.28 V 595.28 H 0 Z"
         id="path4003" />
    </clipPath>
    <clipPath
       clipPathUnits="userSpaceOnUse"
       id="clipPath4085">
      <path
         d="M 0,0 H 595.28 V 595.28 H 0 Z"
         id="path4083" />
    </clipPath>
    <clipPath
       clipPathUnits="userSpaceOnUse"
       id="clipPath13804">
      <path
         d="M 0,0 H 595.28 V 595.28 H 0 Z"
         id="path13802" />
    </clipPath>
    <clipPath
       clipPathUnits="userSpaceOnUse"
       id="clipPath13724">
      <path
         d="M 0,0 H 595.28 V 595.28 H 0 Z"
         id="path13722" />
    </clipPath>
    <clipPath
       clipPathUnits="userSpaceOnUse"
       id="clipPath13644">
      <path
         d="M 0,0 H 595.28 V 595.28 H 0 Z"
         id="path13642" />
    </clipPath>
  </defs>
  <sodipodi:namedview
     id="namedview3911"
     pagecolor="#ffffff"
     bordercolor="#666666"
     borderopacity="1.0"
     inkscape:showpageshadow="2"
     inkscape:pageopacity="0.0"
     inkscape:pagecheckerboard="0"
     inkscape:deskcolor="#d1d1d1"
     showgrid="false"
     inkscape:zoom="1.4234238"
     inkscape:cx="380.06952"
     inkscape:cy="199.16767"
     inkscape:current-layer="g3917"
     inkscape:document-units="mm">
    <inkscape:page
       x="0"
       y="0"
       id="page3915"
       width="847.91663"
       height="415.74805" />
  </sodipodi:namedview>
  <g
     id="g3917"
     inkscape:groupmode="layer"
     inkscape:label="Page 1"
     transform="matrix(1.3333333,0,0,-1.3333333,54.209951,265.12601)">
    <g
       id="g3925"
       transform="matrix(1.0682998,0,0,1.6296176,-40.657464,-112.96652)"
       style="stroke-width:0.757898">
      <g
         id="g3927"
         clip-path="url(#clipPath3931)"
         style="stroke-width:0.757898">
        <path
           d="M 0,0 H 595.28 V 191.34 H 0"
           style="fill:#ffffff;fill-opacity:1;fill-rule:evenodd;stroke:none;stroke-width:0.757898"
           id="path3933" />
      </g>
    </g>
    <text
       xml:space="preserve"
       style="font-size:19px;line-height:1.25;font-family:sans-serif;letter-spacing:0px;word-spacing:0px;stroke-width:0.75"
       x="111.1161"
       y="-707.01068"
       id="text1830-3"
       transform="matrix(1,0,0,-1,178.36332,-548.86561)"><tspan
         sodipodi:role="line"
         style="font-style:normal;font-variant:normal;font-weight:normal;font-stretch:normal;font-size:19px;font-family:'TeX Gyre Heros';-inkscape-font-specification:'TeX Gyre Heros';stroke-width:0.75"
         x="111.1161"
         y="-707.01068"
         id="tspan1832-6">Frame 1</tspan></text>
    <text
       xml:space="preserve"
       style="font-size:19px;line-height:1.25;font-family:sans-serif;letter-spacing:0px;word-spacing:0px;stroke-width:0.75"
       x="371.94211"
       y="-707.01068"
       id="text1830-3-0"
       transform="matrix(1,0,0,-1,114.4093,-548.86561)"><tspan
         sodipodi:role="line"
         style="font-style:normal;font-variant:normal;font-weight:normal;font-stretch:normal;font-size:19px;font-family:'TeX Gyre Heros';-inkscape-font-specification:'TeX Gyre Heros';stroke-width:0.75"
         x="371.94211"
         y="-707.01068"
         id="tspan1832-6-2">Frame 2</tspan></text>
    <text
       xml:space="preserve"
       style="font-size:19px;line-height:1.25;font-family:sans-serif;letter-spacing:0px;word-spacing:0px;stroke-width:0.75"
       x="634.61609"
       y="-707.01068"
       id="text1830-3-3"
       transform="matrix(1,0,0,-1,-545.08168,-548.86561)"><tspan
         sodipodi:role="line"
         style="font-style:normal;font-variant:normal;font-weight:normal;font-stretch:normal;font-size:19px;font-family:'TeX Gyre Heros';-inkscape-font-specification:'TeX Gyre Heros';stroke-width:0.75"
         x="634.61609"
         y="-707.01068"
         id="tspan1832-6-7">Frame 0</tspan></text>
    <text
       xml:space="preserve"
       style="font-size:19px;line-height:1.25;font-family:sans-serif;letter-spacing:0px;word-spacing:0px;stroke-width:0.75"
       x="308.65817"
       y="29.778574"
       id="text1830-36"
       transform="matrix(1,0,0,-1,-73.072198,-29.540881)"><tspan
         sodipodi:role="line"
         style="font-style:normal;font-variant:normal;font-weight:normal;font-stretch:normal;font-size:19px;font-family:'TeX Gyre Heros';-inkscape-font-specification:'TeX Gyre Heros';stroke-width:0.75"
         x="308.65817"
         y="29.778574"
         id="tspan1832-1">ORF length (codons)</tspan></text>
    <text
       xml:space="preserve"
       style="font-size:19px;line-height:1.25;font-family:sans-serif;letter-spacing:0px;word-spacing:0px;stroke-width:0.75"
       x="105.61845"
       y="-32.829155"
       id="text1830"
       transform="matrix(0,1,1,0,9.1993366,-40.013708)"><tspan
         sodipodi:role="line"
         style="font-style:normal;font-variant:normal;font-weight:normal;font-stretch:normal;font-size:19px;font-family:'TeX Gyre Heros';-inkscape-font-specification:'TeX Gyre Heros';text-align:center;text-anchor:middle;stroke-width:0.75"
         x="105.61845"
         y="-32.829155"
         id="tspan1832">Relative ORF loss probability</tspan><tspan
         sodipodi:role="line"
         style="font-style:normal;font-variant:normal;font-weight:normal;font-stretch:normal;font-size:19px;font-family:'TeX Gyre Heros';-inkscape-font-specification:'TeX Gyre Heros';text-align:center;text-anchor:middle;stroke-width:0.75"
         x="105.61845"
         y="-8.6187019"
         id="tspan1364"> log<tspan
   style="font-size:13px;text-align:center;baseline-shift:sub;text-anchor:middle"
   id="tspan3817">2</tspan>(antisense/intergenic)</tspan></text>
    <g
       id="g5420"
       transform="translate(69.776953,-10.5)">
      <text
         xml:space="preserve"
         style="font-size:19px;line-height:0.95;font-family:sans-serif;letter-spacing:0px;word-spacing:0px;stroke-width:0.75"
         x="354.32227"
         y="-0.39541301"
         id="text1830-36-6-6"
         transform="matrix(1,0,0,-1,-293.4939,-79.510735)"><tspan
           sodipodi:role="line"
           style="font-style:normal;font-variant:normal;font-weight:normal;font-stretch:normal;font-size:19px;font-family:'TeX Gyre Heros';-inkscape-font-specification:'TeX Gyre Heros';text-align:center;text-anchor:middle;stroke-width:0.75"
           x="354.32227"
           y="-0.39541301"
           id="tspan1832-1-5-9">No </tspan><tspan
           sodipodi:role="line"
           style="font-style:normal;font-variant:normal;font-weight:normal;font-stretch:normal;font-size:19px;font-family:'TeX Gyre Heros';-inkscape-font-specification:'TeX Gyre Heros';text-align:center;text-anchor:middle;stroke-width:0.75"
           x="354.32227"
           y="18.11504"
           id="tspan5361">Selection</tspan></text>
      <path
         style="fill:none;stroke:#000000;stroke-width:2.001;stroke-linecap:butt;stroke-linejoin:miter;stroke-dasharray:none;stroke-opacity:1"
         d="m 270.54399,8.144388 41.96202,-0.22995"
         id="path3548"
         sodipodi:nodetypes="cc"
         transform="translate(-289.84456,-85.116961)" />
    </g>
    <g
       id="g5414"
       transform="translate(-17.810925,-10.5)">
      <text
         xml:space="preserve"
         style="font-size:19px;line-height:0.95;font-family:sans-serif;letter-spacing:0px;word-spacing:0px;stroke-width:0.75"
         x="453.72006"
         y="-0.39541301"
         id="text1830-36-6-3"
         transform="matrix(1,0,0,-1,110.29752,-79.681735)"><tspan
           sodipodi:role="line"
           style="font-style:normal;font-variant:normal;font-weight:normal;font-stretch:normal;font-size:19px;font-family:'TeX Gyre Heros';-inkscape-font-specification:'TeX Gyre Heros';text-align:center;text-anchor:middle;stroke-width:0.75"
           x="453.72006"
           y="-0.39541301"
           id="tspan1832-1-5-7">Strong</tspan><tspan
           sodipodi:role="line"
           style="font-style:normal;font-variant:normal;font-weight:normal;font-stretch:normal;font-size:19px;font-family:'TeX Gyre Heros';-inkscape-font-specification:'TeX Gyre Heros';text-align:center;text-anchor:middle;stroke-width:0.75"
           x="453.72006"
           y="18.11504"
           id="tspan5365">Selection</tspan></text>
      <path
         style="fill:none;stroke:#000000;stroke-width:2.001;stroke-linecap:butt;stroke-linejoin:miter;stroke-dasharray:2.002, 4.004, 2.002, 4.004;stroke-dashoffset:0;stroke-opacity:1"
         d="m 339.45384,8.144388 41.96202,-0.22995"
         id="path3548-5"
         sodipodi:nodetypes="cc"
         transform="translate(144.44029,-85.127714)" />
    </g>
    <g
       id="g5408"
       transform="translate(31.845193,-10.5)">
      <text
         xml:space="preserve"
         style="font-size:19px;line-height:0.95;font-family:sans-serif;letter-spacing:0px;word-spacing:0px;fill:#000000;stroke-width:0.75"
         x="492.65436"
         y="-0.39541301"
         id="text1830-36-6-4"
         transform="matrix(1,0,0,-1,-186.09082,-79.482235)"><tspan
           sodipodi:role="line"
           style="font-style:normal;font-variant:normal;font-weight:normal;font-stretch:normal;font-size:19px;font-family:'TeX Gyre Heros';-inkscape-font-specification:'TeX Gyre Heros';text-align:center;text-anchor:middle;fill:#000000;stroke-width:0.75"
           x="492.65436"
           y="-0.39541301"
           id="tspan1832-1-5-5">Weak</tspan><tspan
           sodipodi:role="line"
           style="font-style:normal;font-variant:normal;font-weight:normal;font-stretch:normal;font-size:19px;font-family:'TeX Gyre Heros';-inkscape-font-specification:'TeX Gyre Heros';text-align:center;text-anchor:middle;fill:#000000;stroke-width:0.75"
           x="492.65436"
           y="18.11504"
           id="tspan5363">Selection</tspan></text>
      <path
         style="fill:#000000;stroke:#000000;stroke-width:2.001;stroke-linecap:butt;stroke-linejoin:miter;stroke-dasharray:12.006, 4.002;stroke-dashoffset:0;stroke-opacity:1"
         d="m 407.24156,8.144388 41.96202,-0.22995"
         id="path3548-4"
         sodipodi:nodetypes="cc"
         transform="translate(-180.80696,-85.116961)" />
    </g>
    <g
       id="g14886"
       transform="translate(-86.127064,-251.33583)">
      <g
         id="g13638"
         transform="translate(86.127064,212.55408)">
        <g
           id="g13640"
           clip-path="url(#clipPath13644)">
          <path
             d="M 50.97,22.71 H 186.61 V 179.53 H 50.97"
             style="fill:#ffffff;fill-opacity:1;fill-rule:evenodd;stroke:none"
             id="path13646" />
        </g>
      </g>
      <path
         d="M 78.51,22.71 V 179.53"
         style="fill:none;stroke:#000000;stroke-width:0.4991;stroke-linecap:round;stroke-linejoin:round;stroke-miterlimit:10;stroke-dasharray:none;stroke-opacity:0.0980392"
         id="path13648"
         transform="translate(86.127064,212.55408)" />
      <path
         d="M 116.42,22.71 V 179.53"
         style="fill:none;stroke:#000000;stroke-width:0.4991;stroke-linecap:round;stroke-linejoin:round;stroke-miterlimit:10;stroke-dasharray:none;stroke-opacity:0.0980392"
         id="path13650"
         transform="translate(86.127064,212.55408)" />
      <path
         d="M 154.34,22.71 V 179.53"
         style="fill:none;stroke:#000000;stroke-width:0.4991;stroke-linecap:round;stroke-linejoin:round;stroke-miterlimit:10;stroke-dasharray:none;stroke-opacity:0.0980392"
         id="path13652"
         transform="translate(86.127064,212.55408)" />
      <path
         d="M 50.97,22.71 H 186.61"
         style="fill:none;stroke:#000000;stroke-width:0.9982;stroke-linecap:round;stroke-linejoin:round;stroke-miterlimit:10;stroke-dasharray:none;stroke-opacity:1"
         id="path13654"
         transform="translate(86.127064,212.55408)" />
      <path
         d="M 50.97,179.53 H 186.61"
         style="fill:none;stroke:#000000;stroke-width:0.9982;stroke-linecap:round;stroke-linejoin:round;stroke-miterlimit:10;stroke-dasharray:none;stroke-opacity:1"
         id="path13656"
         transform="translate(86.127064,212.55408)" />
      <path
         d="m 78.51,22.71 v 4.73"
         style="fill:none;stroke:#000000;stroke-width:0.9982;stroke-linecap:round;stroke-linejoin:round;stroke-miterlimit:10;stroke-dasharray:none;stroke-opacity:1"
         id="path13658"
         transform="translate(86.127064,212.55408)" />
      <path
         d="m 116.42,22.71 v 4.73"
         style="fill:none;stroke:#000000;stroke-width:0.9982;stroke-linecap:round;stroke-linejoin:round;stroke-miterlimit:10;stroke-dasharray:none;stroke-opacity:1"
         id="path13660"
         transform="translate(86.127064,212.55408)" />
      <path
         d="m 154.34,22.71 v 4.73"
         style="fill:none;stroke:#000000;stroke-width:0.9982;stroke-linecap:round;stroke-linejoin:round;stroke-miterlimit:10;stroke-dasharray:none;stroke-opacity:1"
         id="path13662"
         transform="translate(86.127064,212.55408)" />
      <text
         xml:space="preserve"
         transform="matrix(1,0,0,-1,156.13706,217.14408)"
         style="font-variant:normal;font-weight:normal;font-size:15px;font-family:'Tex Gyre Heros';-inkscape-font-specification:'Tex Gyre Heros';writing-mode:lr-tb;fill:#000000;fill-opacity:1;fill-rule:nonzero;stroke:none"
         id="text13666"><tspan
           x="0 8.3400002"
           y="0"
           sodipodi:role="line"
           id="tspan13664">80</tspan></text>
      <text
         xml:space="preserve"
         transform="matrix(1,0,0,-1,190.04706,217.14408)"
         style="font-variant:normal;font-weight:normal;font-size:15px;font-family:'Tex Gyre Heros';-inkscape-font-specification:'Tex Gyre Heros';writing-mode:lr-tb;fill:#000000;fill-opacity:1;fill-rule:nonzero;stroke:none"
         id="text13670"><tspan
           x="0 8.3400002 16.68"
           y="0"
           sodipodi:role="line"
           id="tspan13668">160</tspan></text>
      <text
         xml:space="preserve"
         transform="matrix(1,0,0,-1,227.96706,217.14408)"
         style="font-variant:normal;font-weight:normal;font-size:15px;font-family:'Tex Gyre Heros';-inkscape-font-specification:'Tex Gyre Heros';writing-mode:lr-tb;fill:#000000;fill-opacity:1;fill-rule:nonzero;stroke:none"
         id="text13674"><tspan
           x="0 8.3400002 16.68"
           y="0"
           sodipodi:role="line"
           id="tspan13672">240</tspan></text>
      <path
         d="M 50.97,28.5 H 186.61"
         style="fill:none;stroke:#000000;stroke-width:0.4991;stroke-linecap:round;stroke-linejoin:round;stroke-miterlimit:10;stroke-dasharray:none;stroke-opacity:0.0980392"
         id="path13676"
         transform="translate(86.127064,212.55408)" />
      <path
         d="M 50.97,73.5 H 186.61"
         style="fill:none;stroke:#000000;stroke-width:0.4991;stroke-linecap:round;stroke-linejoin:round;stroke-miterlimit:10;stroke-dasharray:none;stroke-opacity:0.0980392"
         id="path13678"
         transform="translate(86.127064,212.55408)" />
      <path
         d="M 50.97,127.49 H 186.61"
         style="fill:none;stroke:#000000;stroke-width:0.4991;stroke-linecap:round;stroke-linejoin:round;stroke-miterlimit:10;stroke-dasharray:none;stroke-opacity:0.0980392"
         id="path13680"
         transform="translate(86.127064,212.55408)" />
      <path
         d="M 50.97,172.49 H 186.61"
         style="fill:none;stroke:#000000;stroke-width:0.4991;stroke-linecap:round;stroke-linejoin:round;stroke-miterlimit:10;stroke-dasharray:none;stroke-opacity:0.0980392"
         id="path13682"
         transform="translate(86.127064,212.55408)" />
      <path
         d="M 50.97,22.71 V 179.53"
         style="fill:none;stroke:#000000;stroke-width:0.9982;stroke-linecap:round;stroke-linejoin:round;stroke-miterlimit:10;stroke-dasharray:none;stroke-opacity:1"
         id="path13684"
         transform="translate(86.127064,212.55408)" />
      <path
         d="M 186.61,22.71 V 179.53"
         style="fill:none;stroke:#000000;stroke-width:0.9982;stroke-linecap:round;stroke-linejoin:round;stroke-miterlimit:10;stroke-dasharray:none;stroke-opacity:1"
         id="path13686"
         transform="translate(86.127064,212.55408)" />
      <path
         d="M 50.97,28.5 H 55.7"
         style="fill:none;stroke:#000000;stroke-width:0.9982;stroke-linecap:round;stroke-linejoin:round;stroke-miterlimit:10;stroke-dasharray:none;stroke-opacity:1"
         id="path13688"
         transform="translate(86.127064,212.55408)" />
      <path
         d="M 50.97,73.5 H 55.7"
         style="fill:none;stroke:#000000;stroke-width:0.9982;stroke-linecap:round;stroke-linejoin:round;stroke-miterlimit:10;stroke-dasharray:none;stroke-opacity:1"
         id="path13690"
         transform="translate(86.127064,212.55408)" />
      <path
         d="M 50.97,127.49 H 55.7"
         style="fill:none;stroke:#000000;stroke-width:0.9982;stroke-linecap:round;stroke-linejoin:round;stroke-miterlimit:10;stroke-dasharray:none;stroke-opacity:1"
         id="path13692"
         transform="translate(86.127064,212.55408)" />
      <path
         d="M 50.97,172.49 H 55.7"
         style="fill:none;stroke:#000000;stroke-width:0.9982;stroke-linecap:round;stroke-linejoin:round;stroke-miterlimit:10;stroke-dasharray:none;stroke-opacity:1"
         id="path13694"
         transform="translate(86.127064,212.55408)" />
      <text
         xml:space="preserve"
         transform="matrix(1,0,0,-1,99.037064,235.55408)"
         style="font-variant:normal;font-weight:normal;font-size:15px;font-family:'Tex Gyre Heros';-inkscape-font-specification:'Tex Gyre Heros';writing-mode:lr-tb;fill:#000000;fill-opacity:1;fill-rule:nonzero;stroke:none"
         id="text13698"><tspan
           sodipodi:role="line"
           id="tspan13696"
           x="0"
           y="0">−1.8</tspan></text>
      <text
         xml:space="preserve"
         transform="matrix(1,0,0,-1,99.037064,280.55408)"
         style="font-variant:normal;font-weight:normal;font-size:15px;font-family:'Tex Gyre Heros';-inkscape-font-specification:'Tex Gyre Heros';writing-mode:lr-tb;fill:#000000;fill-opacity:1;fill-rule:nonzero;stroke:none"
         id="text13702"><tspan
           sodipodi:role="line"
           id="tspan13700"
           x="0"
           y="0">−1.3</tspan></text>
      <text
         xml:space="preserve"
         transform="matrix(1,0,0,-1,99.037064,334.54408)"
         style="font-variant:normal;font-weight:normal;font-size:15px;font-family:'Tex Gyre Heros';-inkscape-font-specification:'Tex Gyre Heros';writing-mode:lr-tb;fill:#000000;fill-opacity:1;fill-rule:nonzero;stroke:none"
         id="text13706"><tspan
           sodipodi:role="line"
           id="tspan13704"
           x="0"
           y="0">−0.7</tspan></text>
      <text
         xml:space="preserve"
         transform="matrix(1,0,0,-1,99.037064,379.54408)"
         style="font-variant:normal;font-weight:normal;font-size:15px;font-family:'Tex Gyre Heros';-inkscape-font-specification:'Tex Gyre Heros';writing-mode:lr-tb;fill:#000000;fill-opacity:1;fill-rule:nonzero;stroke:none"
         id="text13710"><tspan
           sodipodi:role="line"
           id="tspan13708"
           x="0"
           y="0">−0.2</tspan></text>
      <path
         d="m 54.81,175.09 0.47,-0.08 0.48,-0.08 0.47,-0.08 0.48,-0.07 0.47,-0.08 0.47,-0.07 0.48,-0.06 0.47,-0.07 0.48,-0.07 0.47,-0.06 0.47,-0.06 0.48,-0.06 0.47,-0.06 0.48,-0.05 0.47,-0.06 0.47,-0.05 0.48,-0.05 0.47,-0.05 0.48,-0.05 0.47,-0.05 0.47,-0.05 0.48,-0.04 0.47,-0.05 0.48,-0.04 0.47,-0.04 0.47,-0.05 0.48,-0.04 0.47,-0.04 0.48,-0.04 0.47,-0.03 0.47,-0.04 0.48,-0.04 0.47,-0.03 0.48,-0.04 0.47,-0.03 0.47,-0.04 0.48,-0.03 0.47,-0.03 0.47,-0.03 0.48,-0.04 0.47,-0.03 0.48,-0.03 0.47,-0.02 0.47,-0.03 0.48,-0.03 0.47,-0.03 0.48,-0.03 0.47,-0.02 0.47,-0.03 0.48,-0.03 0.47,-0.02 0.48,-0.03 0.47,-0.02 0.47,-0.02 0.48,-0.03 0.47,-0.02 0.48,-0.02 0.47,-0.03 0.47,-0.02 0.48,-0.02 0.47,-0.02 0.48,-0.02 0.47,-0.02 0.47,-0.02 0.48,-0.02 0.47,-0.02 0.48,-0.02 0.47,-0.02 0.47,-0.02 0.48,-0.02 0.47,-0.02 0.47,-0.01 0.48,-0.02 0.47,-0.02 0.48,-0.02 0.47,-0.01 0.47,-0.02 0.48,-0.02 0.47,-0.01 0.48,-0.02 0.47,-0.01 0.47,-0.02 0.48,-0.01 0.47,-0.02 0.48,-0.01 0.47,-0.02 0.47,-0.01 0.48,-0.02 0.47,-0.01 0.48,-0.02 0.47,-0.01 0.47,-0.01 0.48,-0.02 0.47,-0.01 0.48,-0.01 0.47,-0.01 0.47,-0.02 0.48,-0.01 0.47,-0.01 0.48,-0.01 0.47,-0.02 0.47,-0.01 0.48,-0.01 0.47,-0.01 0.48,-0.01 0.47,-0.02 0.47,-0.01 0.48,-0.01 0.47,-0.01 0.47,-0.01 0.48,-0.01 0.47,-0.01 0.48,-0.01 0.47,-0.01 0.47,-0.01 0.48,-0.01 0.47,-0.01 0.48,-0.01 0.47,-0.01 0.47,-0.01 0.48,-0.01 0.47,-0.01 0.48,-0.01 0.47,-0.01 0.47,-0.01 0.48,-0.01 0.47,-0.01 h 0.48 l 0.47,-0.01 0.47,-0.01 0.48,-0.01 0.47,-0.01 0.48,-0.01 0.47,-0.01 h 0.47 l 0.48,-0.01 0.47,-0.01 0.48,-0.01 0.47,-0.01 h 0.47 l 0.48,-0.01 0.47,-0.01 0.47,-0.01 0.48,-0.01 h 0.47 l 0.48,-0.01 0.47,-0.01 h 0.47 l 0.48,-0.01 0.47,-0.01 0.48,-0.01 h 0.47 l 0.47,-0.01 0.48,-0.01 h 0.47 l 0.48,-0.01 0.47,-0.01 h 0.47 l 0.48,-0.01 0.47,-0.01 h 0.48 l 0.47,-0.01 0.47,-0.01 h 0.48 l 0.47,-0.01 h 0.48 l 0.47,-0.01 0.47,-0.01 h 0.48 l 0.47,-0.01 h 0.48 l 0.47,-0.01 0.47,-0.01 h 0.48 l 0.47,-0.01 h 0.47 l 0.48,-0.01 h 0.47 l 0.48,-0.01 0.47,-0.01 h 0.47 l 0.48,-0.01 h 0.47 l 0.48,-0.01 h 0.47 l 0.47,-0.01 h 0.48 l 0.47,-0.01 h 0.48 l 0.47,-0.01 h 0.47 l 0.48,-0.01 h 0.47 l 0.48,-0.01 h 0.47 l 0.47,-0.01 h 0.48 l 0.47,-0.01 h 0.48 l 0.47,-0.01 h 0.47 l 0.48,-0.01 h 0.47 0.48 l 0.47,-0.01 h 0.47 l 0.48,-0.01 h 0.47 l 0.48,-0.01 h 0.47 0.47 l 0.48,-0.01 h 0.47 l 0.47,-0.01 h 0.48 l 0.47,-0.01 h 0.48 0.47 l 0.47,-0.01 h 0.48 l 0.47,-0.01 h 0.48 0.47 l 0.47,-0.01 h 0.48 l 0.47,-0.01 h 0.48 0.47 l 0.47,-0.01 h 0.48 0.47 l 0.48,-0.01 h 0.47 l 0.47,-0.01 h 0.48 0.47 l 0.48,-0.01 h 0.47 0.47 l 0.48,-0.01 h 0.47 0.48 l 0.47,-0.01 h 0.47 0.48 l 0.47,-0.01 h 0.47 0.48 l 0.47,-0.01 h 0.48 0.47 l 0.47,-0.01 h 0.48 0.47 l 0.48,-0.01 h 0.47 0.47 l 0.48,-0.01 h 0.47 0.48 l 0.47,-0.01 h 0.47 0.48 0.47 l 0.48,-0.01 h 0.47 0.47 l 0.48,-0.01 h 0.47 0.48"
         style="fill:none;stroke:#000000;stroke-width:1.996;stroke-linecap:round;stroke-linejoin:round;stroke-miterlimit:10;stroke-dasharray:none;stroke-opacity:1"
         id="path13712"
         transform="translate(86.127064,212.55408)" />
      <path
         d="m 54.81,121.52 0.47,-0.99 0.48,-0.95 0.47,-0.94 0.48,-0.91 0.47,-0.89 0.47,-0.87 0.48,-0.84 0.47,-0.83 0.48,-0.81 0.47,-0.8 0.47,-0.77 0.48,-0.76 0.47,-0.74 0.48,-0.73 0.47,-0.71 0.47,-0.69 0.48,-0.68 0.47,-0.67 0.48,-0.65 0.47,-0.64 0.47,-0.63 0.48,-0.62 0.47,-0.6 0.48,-0.59 0.47,-0.59 0.47,-0.57 0.48,-0.56 0.47,-0.54 0.48,-0.54 0.47,-0.53 0.47,-0.52 0.48,-0.51 0.47,-0.51 0.48,-0.49 0.47,-0.48 0.47,-0.48 0.48,-0.47 0.47,-0.46 0.47,-0.45 0.48,-0.45 0.47,-0.43 0.48,-0.44 0.47,-0.42 0.47,-0.42 0.48,-0.41 0.47,-0.4 0.48,-0.4 0.47,-0.39 0.47,-0.39 0.48,-0.38 0.47,-0.37 0.48,-0.37 0.47,-0.36 0.47,-0.36 0.48,-0.35 0.47,-0.35 0.48,-0.34 0.47,-0.34 0.47,-0.33 0.48,-0.33 0.47,-0.32 0.48,-0.32 0.47,-0.32 0.47,-0.31 0.48,-0.3 0.47,-0.31 0.48,-0.29 0.47,-0.3 0.47,-0.29 0.48,-0.28 0.47,-0.29 0.47,-0.27 0.48,-0.28 0.47,-0.27 0.48,-0.27 0.47,-0.26 0.47,-0.27 0.48,-0.25 0.47,-0.26 0.48,-0.25 0.47,-0.25 0.47,-0.25 0.48,-0.24 0.47,-0.24 0.48,-0.23 0.47,-0.24 0.47,-0.23 0.48,-0.23 0.47,-0.23 0.48,-0.22 0.47,-0.22 0.47,-0.22 0.48,-0.21 0.47,-0.22 0.48,-0.21 0.47,-0.21 0.47,-0.2 0.48,-0.21 0.47,-0.2 0.48,-0.2 0.47,-0.2 0.47,-0.19 0.48,-0.2 0.47,-0.19 0.48,-0.19 0.47,-0.18 0.47,-0.19 0.48,-0.18 0.47,-0.18 0.47,-0.18 0.48,-0.18 0.47,-0.18 0.48,-0.17 0.47,-0.17 0.47,-0.17 0.48,-0.17 0.47,-0.17 0.48,-0.16 0.47,-0.17 0.47,-0.16 0.48,-0.16 0.47,-0.16 0.48,-0.16 0.47,-0.15 0.47,-0.16 0.48,-0.15 0.47,-0.15 0.48,-0.15 0.47,-0.15 0.47,-0.15 0.48,-0.14 0.47,-0.15 0.48,-0.14 0.47,-0.14 0.47,-0.14 0.48,-0.14 0.47,-0.14 0.48,-0.14 0.47,-0.13 0.47,-0.14 0.48,-0.13 0.47,-0.13 0.47,-0.13 0.48,-0.13 0.47,-0.13 0.48,-0.13 0.47,-0.13 0.47,-0.12 0.48,-0.13 0.47,-0.12 0.48,-0.12 0.47,-0.12 0.47,-0.12 0.48,-0.12 0.47,-0.12 0.48,-0.12 0.47,-0.11 0.47,-0.12 0.48,-0.11 0.47,-0.11 0.48,-0.12 0.47,-0.11 0.47,-0.11 0.48,-0.11 0.47,-0.11 0.48,-0.1 0.47,-0.11 0.47,-0.11 0.48,-0.1 0.47,-0.11 0.48,-0.1 0.47,-0.1 0.47,-0.1 0.48,-0.11 0.47,-0.1 0.47,-0.1 0.48,-0.1 0.47,-0.09 0.48,-0.1 0.47,-0.1 0.47,-0.09 0.48,-0.1 0.47,-0.09 0.48,-0.1 0.47,-0.09 0.47,-0.09 0.48,-0.09 0.47,-0.1 0.48,-0.09 0.47,-0.09 0.47,-0.08 0.48,-0.09 0.47,-0.09 0.48,-0.09 0.47,-0.08 0.47,-0.09 0.48,-0.09 0.47,-0.08 0.48,-0.08 0.47,-0.09 0.47,-0.08 0.48,-0.08 0.47,-0.08 0.48,-0.09 0.47,-0.08 0.47,-0.08 0.48,-0.08 0.47,-0.08 0.48,-0.07 0.47,-0.08 0.47,-0.08 0.48,-0.08 0.47,-0.07 0.47,-0.08 0.48,-0.07 0.47,-0.08 0.48,-0.07 0.47,-0.08 0.47,-0.07 0.48,-0.07 0.47,-0.07 0.48,-0.08 0.47,-0.07 0.47,-0.07 0.48,-0.07 0.47,-0.07 0.48,-0.07 0.47,-0.07 0.47,-0.07 0.48,-0.07 0.47,-0.06 0.48,-0.07 0.47,-0.07 0.47,-0.06 0.48,-0.07 0.47,-0.07 0.48,-0.06 0.47,-0.07 0.47,-0.06 0.48,-0.07 0.47,-0.06 0.48,-0.06 0.47,-0.07 0.47,-0.06 0.48,-0.06 0.47,-0.06 0.47,-0.06 0.48,-0.07 0.47,-0.06 0.48,-0.06 0.47,-0.06 0.47,-0.06 0.48,-0.06 0.47,-0.05 0.48,-0.06 0.47,-0.06 0.47,-0.06 0.48,-0.06 0.47,-0.05 0.48,-0.06 0.47,-0.06 0.47,-0.05 0.48,-0.06 0.47,-0.06 0.48,-0.05 0.47,-0.06 0.47,-0.05 0.48,-0.05 0.47,-0.06 0.48,-0.05"
         style="fill:none;stroke:#000000;stroke-width:1.996;stroke-linecap:round;stroke-linejoin:round;stroke-miterlimit:10;stroke-dasharray:16, 10;stroke-dashoffset:0;stroke-opacity:1"
         id="path13714"
         transform="translate(86.127064,212.55408)" />
      <path
         d="m 54.81,107.95 0.47,-1.2 0.48,-1.18 0.47,-1.14 0.48,-1.13 0.47,-1.09 0.47,-1.08 0.48,-1.05 0.47,-1.02 0.48,-1.01 0.47,-0.98 0.47,-0.97 0.48,-0.94 0.47,-0.93 0.48,-0.91 0.47,-0.89 0.47,-0.87 0.48,-0.85 0.47,-0.84 0.48,-0.83 0.47,-0.8 0.47,-0.8 0.48,-0.77 0.47,-0.77 0.48,-0.75 0.47,-0.74 0.47,-0.72 0.48,-0.71 0.47,-0.7 0.48,-0.69 0.47,-0.67 0.47,-0.67 0.48,-0.65 0.47,-0.64 0.48,-0.63 0.47,-0.63 0.47,-0.61 0.48,-0.6 0.47,-0.59 0.47,-0.58 0.48,-0.58 0.47,-0.56 0.48,-0.56 0.47,-0.55 0.47,-0.54 0.48,-0.53 0.47,-0.52 0.48,-0.52 0.47,-0.51 0.47,-0.5 0.48,-0.5 0.47,-0.48 0.48,-0.48 0.47,-0.48 0.47,-0.46 0.48,-0.46 0.47,-0.46 0.48,-0.45 0.47,-0.44 0.47,-0.44 0.48,-0.43 0.47,-0.42 0.48,-0.42 0.47,-0.41 0.47,-0.41 0.48,-0.4 0.47,-0.4 0.48,-0.4 0.47,-0.38 0.47,-0.39 0.48,-0.37 0.47,-0.38 0.47,-0.37 0.48,-0.36 0.47,-0.36 0.48,-0.36 0.47,-0.35 0.47,-0.35 0.48,-0.34 0.47,-0.34 0.48,-0.33 0.47,-0.34 0.47,-0.32 0.48,-0.33 0.47,-0.32 0.48,-0.31 0.47,-0.32 0.47,-0.31 0.48,-0.3 0.47,-0.3 0.48,-0.3 0.47,-0.3 0.47,-0.29 0.48,-0.29 0.47,-0.29 0.48,-0.28 0.47,-0.28 0.47,-0.28 0.48,-0.27 0.47,-0.28 0.48,-0.27 0.47,-0.26 0.47,-0.26 0.48,-0.27 0.47,-0.25 0.48,-0.26 0.47,-0.25 0.47,-0.25 0.48,-0.25 0.47,-0.24 0.47,-0.25 0.48,-0.24 0.47,-0.24 0.48,-0.23 0.47,-0.24 0.47,-0.23 0.48,-0.23 0.47,-0.22 0.48,-0.23 0.47,-0.22 0.47,-0.22 0.48,-0.22 0.47,-0.22 0.48,-0.21 0.47,-0.21 0.47,-0.21 0.48,-0.21 0.47,-0.21 0.48,-0.2 0.47,-0.21 0.47,-0.2 0.48,-0.2 0.47,-0.19 0.48,-0.2 0.47,-0.19 0.47,-0.2 0.48,-0.19 0.47,-0.19 0.48,-0.18 0.47,-0.19 0.47,-0.18 0.48,-0.19 0.47,-0.18 0.47,-0.18 0.48,-0.18 0.47,-0.17 0.48,-0.18 0.47,-0.17 0.47,-0.17 0.48,-0.17 0.47,-0.17 0.48,-0.17 0.47,-0.17 0.47,-0.16 0.48,-0.17 0.47,-0.16 0.48,-0.16 0.47,-0.16 0.47,-0.16 0.48,-0.16 0.47,-0.16 0.48,-0.15 0.47,-0.15 0.47,-0.16 0.48,-0.15 0.47,-0.15 0.48,-0.15 0.47,-0.15 0.47,-0.14 0.48,-0.15 0.47,-0.14 0.48,-0.15 0.47,-0.14 0.47,-0.14 0.48,-0.14 0.47,-0.14 0.47,-0.14 0.48,-0.14 0.47,-0.13 0.48,-0.14 0.47,-0.13 0.47,-0.14 0.48,-0.13 0.47,-0.13 0.48,-0.13 0.47,-0.13 0.47,-0.13 0.48,-0.13 0.47,-0.12 0.48,-0.13 0.47,-0.12 0.47,-0.13 0.48,-0.12 0.47,-0.12 0.48,-0.13 0.47,-0.12 0.47,-0.12 0.48,-0.12 0.47,-0.11 0.48,-0.12 0.47,-0.12 0.47,-0.11 0.48,-0.12 0.47,-0.11 0.48,-0.12 0.47,-0.11 0.47,-0.11 0.48,-0.11 0.47,-0.11 0.48,-0.11 0.47,-0.11 0.47,-0.11 0.48,-0.11 0.47,-0.11 0.47,-0.1 0.48,-0.11 0.47,-0.1 0.48,-0.11 0.47,-0.1 0.47,-0.1 0.48,-0.11 0.47,-0.1 0.48,-0.1 0.47,-0.1 0.47,-0.1 0.48,-0.1 0.47,-0.1 0.48,-0.09 0.47,-0.1 0.47,-0.1 0.48,-0.09 0.47,-0.1 0.48,-0.09 0.47,-0.1 0.47,-0.09 0.48,-0.1 0.47,-0.09 0.48,-0.09 0.47,-0.09 0.47,-0.09 0.48,-0.09 0.47,-0.09 0.48,-0.09 0.47,-0.09 0.47,-0.09 0.48,-0.09 0.47,-0.09 0.47,-0.08 0.48,-0.09 0.47,-0.08 0.48,-0.09 0.47,-0.08 0.47,-0.09 0.48,-0.08 0.47,-0.09 0.48,-0.08 0.47,-0.08 0.47,-0.08 0.48,-0.09 0.47,-0.08 0.48,-0.08 0.47,-0.08 0.47,-0.08 0.48,-0.08 0.47,-0.07 0.48,-0.08 0.47,-0.08 0.47,-0.08 0.48,-0.08 0.47,-0.07 0.48,-0.08"
         style="fill:none;stroke:#000000;stroke-width:1.996;stroke-linecap:round;stroke-linejoin:round;stroke-miterlimit:10;stroke-dasharray:2, 4;stroke-dashoffset:0;stroke-opacity:1"
         id="path13716"
         transform="translate(86.127064,212.55408)" />
    </g>
    <g
       id="g14926"
       transform="translate(-86.127064,-251.33583)">
      <g
         id="g13718"
         transform="translate(86.127064,212.55408)">
        <g
           id="g13720"
           clip-path="url(#clipPath13724)">
          <path
             d="M 249.4,22.71 H 385.04 V 179.53 H 249.4"
             style="fill:#ffffff;fill-opacity:1;fill-rule:evenodd;stroke:none"
             id="path13726" />
        </g>
      </g>
      <path
         d="M 276.93,22.71 V 179.53"
         style="fill:none;stroke:#000000;stroke-width:0.4991;stroke-linecap:round;stroke-linejoin:round;stroke-miterlimit:10;stroke-dasharray:none;stroke-opacity:0.0980392"
         id="path13728"
         transform="translate(86.127064,212.55408)" />
      <path
         d="M 314.85,22.71 V 179.53"
         style="fill:none;stroke:#000000;stroke-width:0.4991;stroke-linecap:round;stroke-linejoin:round;stroke-miterlimit:10;stroke-dasharray:none;stroke-opacity:0.0980392"
         id="path13730"
         transform="translate(86.127064,212.55408)" />
      <path
         d="M 352.76,22.71 V 179.53"
         style="fill:none;stroke:#000000;stroke-width:0.4991;stroke-linecap:round;stroke-linejoin:round;stroke-miterlimit:10;stroke-dasharray:none;stroke-opacity:0.0980392"
         id="path13732"
         transform="translate(86.127064,212.55408)" />
      <path
         d="M 249.4,22.71 H 385.04"
         style="fill:none;stroke:#000000;stroke-width:0.9982;stroke-linecap:round;stroke-linejoin:round;stroke-miterlimit:10;stroke-dasharray:none;stroke-opacity:1"
         id="path13734"
         transform="translate(86.127064,212.55408)" />
      <path
         d="M 249.4,179.53 H 385.04"
         style="fill:none;stroke:#000000;stroke-width:0.9982;stroke-linecap:round;stroke-linejoin:round;stroke-miterlimit:10;stroke-dasharray:none;stroke-opacity:1"
         id="path13736"
         transform="translate(86.127064,212.55408)" />
      <path
         d="m 276.93,22.71 v 4.73"
         style="fill:none;stroke:#000000;stroke-width:0.9982;stroke-linecap:round;stroke-linejoin:round;stroke-miterlimit:10;stroke-dasharray:none;stroke-opacity:1"
         id="path13738"
         transform="translate(86.127064,212.55408)" />
      <path
         d="m 314.85,22.71 v 4.73"
         style="fill:none;stroke:#000000;stroke-width:0.9982;stroke-linecap:round;stroke-linejoin:round;stroke-miterlimit:10;stroke-dasharray:none;stroke-opacity:1"
         id="path13740"
         transform="translate(86.127064,212.55408)" />
      <path
         d="m 352.76,22.71 v 4.73"
         style="fill:none;stroke:#000000;stroke-width:0.9982;stroke-linecap:round;stroke-linejoin:round;stroke-miterlimit:10;stroke-dasharray:none;stroke-opacity:1"
         id="path13742"
         transform="translate(86.127064,212.55408)" />
      <text
         xml:space="preserve"
         transform="matrix(1,0,0,-1,354.55706,217.14408)"
         style="font-variant:normal;font-weight:normal;font-size:15px;font-family:'Tex Gyre Heros';-inkscape-font-specification:'Tex Gyre Heros';writing-mode:lr-tb;fill:#000000;fill-opacity:1;fill-rule:nonzero;stroke:none"
         id="text13746"><tspan
           x="0 8.3400002"
           y="0"
           sodipodi:role="line"
           id="tspan13744">80</tspan></text>
      <text
         xml:space="preserve"
         transform="matrix(1,0,0,-1,388.47706,217.14408)"
         style="font-variant:normal;font-weight:normal;font-size:15px;font-family:'Tex Gyre Heros';-inkscape-font-specification:'Tex Gyre Heros';writing-mode:lr-tb;fill:#000000;fill-opacity:1;fill-rule:nonzero;stroke:none"
         id="text13750"><tspan
           x="0 8.3400002 16.68"
           y="0"
           sodipodi:role="line"
           id="tspan13748">160</tspan></text>
      <text
         xml:space="preserve"
         transform="matrix(1,0,0,-1,426.38706,217.14408)"
         style="font-variant:normal;font-weight:normal;font-size:15px;font-family:'Tex Gyre Heros';-inkscape-font-specification:'Tex Gyre Heros';writing-mode:lr-tb;fill:#000000;fill-opacity:1;fill-rule:nonzero;stroke:none"
         id="text13754"><tspan
           x="0 8.3400002 16.68"
           y="0"
           sodipodi:role="line"
           id="tspan13752">240</tspan></text>
      <path
         d="M 249.4,28.11 H 385.04"
         style="fill:none;stroke:#000000;stroke-width:0.4991;stroke-linecap:round;stroke-linejoin:round;stroke-miterlimit:10;stroke-dasharray:none;stroke-opacity:0.0980392"
         id="path13756"
         transform="translate(86.127064,212.55408)" />
      <path
         d="M 249.4,74.12 H 385.04"
         style="fill:none;stroke:#000000;stroke-width:0.4991;stroke-linecap:round;stroke-linejoin:round;stroke-miterlimit:10;stroke-dasharray:none;stroke-opacity:0.0980392"
         id="path13758"
         transform="translate(86.127064,212.55408)" />
      <path
         d="M 249.4,126.7 H 385.04"
         style="fill:none;stroke:#000000;stroke-width:0.4991;stroke-linecap:round;stroke-linejoin:round;stroke-miterlimit:10;stroke-dasharray:none;stroke-opacity:0.0980392"
         id="path13760"
         transform="translate(86.127064,212.55408)" />
      <path
         d="M 249.4,172.71 H 385.04"
         style="fill:none;stroke:#000000;stroke-width:0.4991;stroke-linecap:round;stroke-linejoin:round;stroke-miterlimit:10;stroke-dasharray:none;stroke-opacity:0.0980392"
         id="path13762"
         transform="translate(86.127064,212.55408)" />
      <path
         d="M 249.4,22.71 V 179.53"
         style="fill:none;stroke:#000000;stroke-width:0.9982;stroke-linecap:round;stroke-linejoin:round;stroke-miterlimit:10;stroke-dasharray:none;stroke-opacity:1"
         id="path13764"
         transform="translate(86.127064,212.55408)" />
      <path
         d="M 385.04,22.71 V 179.53"
         style="fill:none;stroke:#000000;stroke-width:0.9982;stroke-linecap:round;stroke-linejoin:round;stroke-miterlimit:10;stroke-dasharray:none;stroke-opacity:1"
         id="path13766"
         transform="translate(86.127064,212.55408)" />
      <path
         d="m 249.4,28.11 h 4.72"
         style="fill:none;stroke:#000000;stroke-width:0.9982;stroke-linecap:round;stroke-linejoin:round;stroke-miterlimit:10;stroke-dasharray:none;stroke-opacity:1"
         id="path13768"
         transform="translate(86.127064,212.55408)" />
      <path
         d="m 249.4,74.12 h 4.72"
         style="fill:none;stroke:#000000;stroke-width:0.9982;stroke-linecap:round;stroke-linejoin:round;stroke-miterlimit:10;stroke-dasharray:none;stroke-opacity:1"
         id="path13770"
         transform="translate(86.127064,212.55408)" />
      <path
         d="m 249.4,126.7 h 4.72"
         style="fill:none;stroke:#000000;stroke-width:0.9982;stroke-linecap:round;stroke-linejoin:round;stroke-miterlimit:10;stroke-dasharray:none;stroke-opacity:1"
         id="path13772"
         transform="translate(86.127064,212.55408)" />
      <path
         d="m 249.4,172.71 h 4.72"
         style="fill:none;stroke:#000000;stroke-width:0.9982;stroke-linecap:round;stroke-linejoin:round;stroke-miterlimit:10;stroke-dasharray:none;stroke-opacity:1"
         id="path13774"
         transform="translate(86.127064,212.55408)" />
      <text
         xml:space="preserve"
         transform="matrix(1,0,0,-1,297.45706,235.16408)"
         style="font-variant:normal;font-weight:normal;font-size:15px;font-family:'Tex Gyre Heros';-inkscape-font-specification:'Tex Gyre Heros';writing-mode:lr-tb;fill:#000000;fill-opacity:1;fill-rule:nonzero;stroke:none"
         id="text13778"><tspan
           sodipodi:role="line"
           id="tspan13776"
           x="0"
           y="0">−2.6</tspan></text>
      <text
         xml:space="preserve"
         transform="matrix(1,0,0,-1,297.45706,281.17408)"
         style="font-variant:normal;font-weight:normal;font-size:15px;font-family:'Tex Gyre Heros';-inkscape-font-specification:'Tex Gyre Heros';writing-mode:lr-tb;fill:#000000;fill-opacity:1;fill-rule:nonzero;stroke:none"
         id="text13782"><tspan
           sodipodi:role="line"
           id="tspan13780"
           x="0"
           y="0">−1.9</tspan></text>
      <text
         xml:space="preserve"
         transform="matrix(1,0,0,-1,297.45706,333.75408)"
         style="font-variant:normal;font-weight:normal;font-size:15px;font-family:'Tex Gyre Heros';-inkscape-font-specification:'Tex Gyre Heros';writing-mode:lr-tb;fill:#000000;fill-opacity:1;fill-rule:nonzero;stroke:none"
         id="text13786"><tspan
           sodipodi:role="line"
           id="tspan13784"
           x="0"
           y="0">−1.1</tspan></text>
      <text
         xml:space="preserve"
         transform="matrix(1,0,0,-1,297.45706,379.76408)"
         style="font-variant:normal;font-weight:normal;font-size:15px;font-family:'Tex Gyre Heros';-inkscape-font-specification:'Tex Gyre Heros';writing-mode:lr-tb;fill:#000000;fill-opacity:1;fill-rule:nonzero;stroke:none"
         id="text13790"><tspan
           sodipodi:role="line"
           id="tspan13788"
           x="0"
           y="0">−0.4</tspan></text>
      <path
         d="m 253.24,175.09 0.47,-0.55 0.47,-0.54 0.48,-0.53 0.47,-0.51 0.48,-0.5 0.47,-0.48 0.47,-0.48 0.48,-0.46 0.47,-0.45 0.48,-0.44 0.47,-0.43 0.47,-0.42 0.48,-0.41 0.47,-0.4 0.48,-0.4 0.47,-0.38 0.47,-0.37 0.48,-0.37 0.47,-0.36 0.48,-0.35 0.47,-0.35 0.47,-0.33 0.48,-0.33 0.47,-0.33 0.48,-0.31 0.47,-0.31 0.47,-0.31 0.48,-0.3 0.47,-0.29 0.47,-0.29 0.48,-0.28 0.47,-0.28 0.48,-0.27 0.47,-0.26 0.47,-0.26 0.48,-0.26 0.47,-0.25 0.48,-0.25 0.47,-0.25 0.47,-0.23 0.48,-0.24 0.47,-0.23 0.48,-0.23 0.47,-0.22 0.47,-0.22 0.48,-0.22 0.47,-0.21 0.48,-0.21 0.47,-0.2 0.47,-0.21 0.48,-0.2 0.47,-0.19 0.48,-0.19 0.47,-0.19 0.47,-0.19 0.48,-0.19 0.47,-0.18 0.48,-0.18 0.47,-0.17 0.47,-0.17 0.48,-0.18 0.47,-0.16 0.47,-0.17 0.48,-0.16 0.47,-0.16 0.48,-0.16 0.47,-0.16 0.47,-0.15 0.48,-0.16 0.47,-0.15 0.48,-0.15 0.47,-0.14 0.47,-0.15 0.48,-0.14 0.47,-0.14 0.48,-0.14 0.47,-0.13 0.47,-0.14 0.48,-0.13 0.47,-0.13 0.48,-0.13 0.47,-0.13 0.47,-0.13 0.48,-0.12 0.47,-0.13 0.48,-0.12 0.47,-0.12 0.47,-0.12 0.48,-0.12 0.47,-0.11 0.48,-0.12 0.47,-0.11 0.47,-0.11 0.48,-0.11 0.47,-0.11 0.48,-0.11 0.47,-0.11 0.47,-0.1 0.48,-0.11 0.47,-0.1 0.47,-0.1 0.48,-0.1 0.47,-0.1 0.48,-0.1 0.47,-0.1 0.47,-0.1 0.48,-0.09 0.47,-0.1 0.48,-0.09 0.47,-0.09 0.47,-0.09 0.48,-0.09 0.47,-0.09 0.48,-0.09 0.47,-0.09 0.47,-0.09 0.48,-0.08 0.47,-0.09 0.48,-0.08 0.47,-0.08 0.47,-0.09 0.48,-0.08 0.47,-0.08 0.48,-0.08 0.47,-0.08 0.47,-0.08 0.48,-0.07 0.47,-0.08 0.48,-0.08 0.47,-0.07 0.47,-0.08 0.48,-0.07 0.47,-0.07 0.47,-0.07 0.48,-0.08 0.47,-0.07 0.48,-0.07 0.47,-0.07 0.47,-0.07 0.48,-0.07 0.47,-0.06 0.48,-0.07 0.47,-0.07 0.47,-0.06 0.48,-0.07 0.47,-0.06 0.48,-0.07 0.47,-0.06 0.47,-0.06 0.48,-0.07 0.47,-0.06 0.48,-0.06 0.47,-0.06 0.47,-0.06 0.48,-0.06 0.47,-0.06 0.48,-0.06 0.47,-0.06 0.47,-0.05 0.48,-0.06 0.47,-0.06 0.48,-0.06 0.47,-0.05 0.47,-0.06 0.48,-0.05 0.47,-0.06 0.47,-0.05 0.48,-0.05 0.47,-0.06 0.48,-0.05 0.47,-0.05 0.47,-0.05 0.48,-0.06 0.47,-0.05 0.48,-0.05 0.47,-0.05 0.47,-0.05 0.48,-0.05 0.47,-0.05 0.48,-0.04 0.47,-0.05 0.47,-0.05 0.48,-0.05 0.47,-0.05 0.48,-0.04 0.47,-0.05 0.47,-0.05 0.48,-0.04 0.47,-0.05 0.48,-0.04 0.47,-0.05 0.47,-0.04 0.48,-0.04 0.47,-0.05 0.48,-0.04 0.47,-0.05 0.47,-0.04 0.48,-0.04 0.47,-0.04 0.48,-0.04 0.47,-0.05 0.47,-0.04 0.48,-0.04 0.47,-0.04 0.47,-0.04 0.48,-0.04 0.47,-0.04 0.48,-0.04 0.47,-0.04 0.47,-0.04 0.48,-0.04 0.47,-0.03 0.48,-0.04 0.47,-0.04 0.47,-0.04 0.48,-0.04 0.47,-0.03 0.48,-0.04 0.47,-0.04 0.47,-0.03 0.48,-0.04 0.47,-0.04 0.48,-0.03 0.47,-0.04 0.47,-0.03 0.48,-0.04 0.47,-0.03 0.48,-0.04 0.47,-0.03 0.47,-0.03 0.48,-0.04 0.47,-0.03 0.48,-0.04 0.47,-0.03 0.47,-0.03 0.48,-0.03 0.47,-0.04 0.47,-0.03 0.48,-0.03 0.47,-0.03 0.48,-0.04 0.47,-0.03 0.47,-0.03 0.48,-0.03 0.47,-0.03 0.48,-0.03 0.47,-0.03 0.47,-0.03 0.48,-0.03 0.47,-0.03 0.48,-0.03 0.47,-0.03 0.47,-0.03 0.48,-0.03 0.47,-0.03 0.48,-0.03 0.47,-0.03 0.47,-0.03 0.48,-0.02 0.47,-0.03 0.48,-0.03 0.47,-0.03 0.47,-0.03 0.48,-0.02 0.47,-0.03 0.48,-0.03 0.47,-0.03 0.47,-0.02 0.48,-0.03 0.47,-0.03"
         style="fill:none;stroke:#000000;stroke-width:1.996;stroke-linecap:round;stroke-linejoin:round;stroke-miterlimit:10;stroke-dasharray:none;stroke-opacity:1"
         id="path13792"
         transform="translate(86.127064,212.55408)" />
      <path
         d="m 253.24,129.19 0.47,-1.02 0.47,-1.01 0.48,-0.98 0.47,-0.96 0.48,-0.95 0.47,-0.92 0.47,-0.9 0.48,-0.89 0.47,-0.87 0.48,-0.85 0.47,-0.84 0.47,-0.82 0.48,-0.8 0.47,-0.79 0.48,-0.77 0.47,-0.77 0.47,-0.74 0.48,-0.74 0.47,-0.72 0.48,-0.7 0.47,-0.7 0.47,-0.68 0.48,-0.68 0.47,-0.66 0.48,-0.65 0.47,-0.64 0.47,-0.63 0.48,-0.61 0.47,-0.61 0.47,-0.6 0.48,-0.59 0.47,-0.58 0.48,-0.57 0.47,-0.57 0.47,-0.55 0.48,-0.55 0.47,-0.54 0.48,-0.53 0.47,-0.52 0.47,-0.51 0.48,-0.51 0.47,-0.5 0.48,-0.49 0.47,-0.49 0.47,-0.48 0.48,-0.47 0.47,-0.47 0.48,-0.46 0.47,-0.45 0.47,-0.45 0.48,-0.44 0.47,-0.43 0.48,-0.43 0.47,-0.43 0.47,-0.42 0.48,-0.41 0.47,-0.41 0.48,-0.4 0.47,-0.4 0.47,-0.39 0.48,-0.39 0.47,-0.38 0.47,-0.38 0.48,-0.38 0.47,-0.37 0.48,-0.36 0.47,-0.36 0.47,-0.36 0.48,-0.35 0.47,-0.35 0.48,-0.34 0.47,-0.34 0.47,-0.34 0.48,-0.33 0.47,-0.33 0.48,-0.33 0.47,-0.32 0.47,-0.31 0.48,-0.32 0.47,-0.31 0.48,-0.31 0.47,-0.3 0.47,-0.3 0.48,-0.3 0.47,-0.29 0.48,-0.29 0.47,-0.29 0.47,-0.29 0.48,-0.28 0.47,-0.28 0.48,-0.28 0.47,-0.27 0.47,-0.27 0.48,-0.27 0.47,-0.26 0.48,-0.27 0.47,-0.26 0.47,-0.25 0.48,-0.26 0.47,-0.25 0.47,-0.25 0.48,-0.25 0.47,-0.24 0.48,-0.25 0.47,-0.24 0.47,-0.24 0.48,-0.23 0.47,-0.24 0.48,-0.23 0.47,-0.23 0.47,-0.22 0.48,-0.23 0.47,-0.22 0.48,-0.22 0.47,-0.22 0.47,-0.22 0.48,-0.21 0.47,-0.22 0.48,-0.21 0.47,-0.21 0.47,-0.21 0.48,-0.2 0.47,-0.2 0.48,-0.21 0.47,-0.2 0.47,-0.2 0.48,-0.19 0.47,-0.2 0.48,-0.19 0.47,-0.19 0.47,-0.19 0.48,-0.19 0.47,-0.19 0.47,-0.19 0.48,-0.18 0.47,-0.18 0.48,-0.18 0.47,-0.18 0.47,-0.18 0.48,-0.18 0.47,-0.17 0.48,-0.18 0.47,-0.17 0.47,-0.17 0.48,-0.17 0.47,-0.17 0.48,-0.16 0.47,-0.17 0.47,-0.16 0.48,-0.17 0.47,-0.16 0.48,-0.16 0.47,-0.16 0.47,-0.16 0.48,-0.15 0.47,-0.16 0.48,-0.15 0.47,-0.16 0.47,-0.15 0.48,-0.15 0.47,-0.15 0.48,-0.15 0.47,-0.15 0.47,-0.14 0.48,-0.15 0.47,-0.14 0.47,-0.15 0.48,-0.14 0.47,-0.14 0.48,-0.14 0.47,-0.14 0.47,-0.14 0.48,-0.14 0.47,-0.13 0.48,-0.14 0.47,-0.13 0.47,-0.14 0.48,-0.13 0.47,-0.13 0.48,-0.13 0.47,-0.13 0.47,-0.13 0.48,-0.13 0.47,-0.13 0.48,-0.12 0.47,-0.13 0.47,-0.12 0.48,-0.13 0.47,-0.12 0.48,-0.12 0.47,-0.12 0.47,-0.12 0.48,-0.12 0.47,-0.12 0.48,-0.12 0.47,-0.12 0.47,-0.11 0.48,-0.12 0.47,-0.11 0.48,-0.12 0.47,-0.11 0.47,-0.12 0.48,-0.11 0.47,-0.11 0.47,-0.11 0.48,-0.11 0.47,-0.11 0.48,-0.11 0.47,-0.11 0.47,-0.1 0.48,-0.11 0.47,-0.11 0.48,-0.1 0.47,-0.11 0.47,-0.1 0.48,-0.1 0.47,-0.11 0.48,-0.1 0.47,-0.1 0.47,-0.1 0.48,-0.1 0.47,-0.1 0.48,-0.1 0.47,-0.1 0.47,-0.1 0.48,-0.09 0.47,-0.1 0.48,-0.1 0.47,-0.09 0.47,-0.1 0.48,-0.09 0.47,-0.09 0.48,-0.1 0.47,-0.09 0.47,-0.09 0.48,-0.09 0.47,-0.1 0.47,-0.09 0.48,-0.09 0.47,-0.09 0.48,-0.08 0.47,-0.09 0.47,-0.09 0.48,-0.09 0.47,-0.09 0.48,-0.08 0.47,-0.09 0.47,-0.08 0.48,-0.09 0.47,-0.08 0.48,-0.09 0.47,-0.08 0.47,-0.09 0.48,-0.08 0.47,-0.08 0.48,-0.08 0.47,-0.08 0.47,-0.09 0.48,-0.08 0.47,-0.08 0.48,-0.08 0.47,-0.08 0.47,-0.07 0.48,-0.08 0.47,-0.08 0.48,-0.08 0.47,-0.08 0.47,-0.07 0.48,-0.08 0.47,-0.08"
         style="fill:none;stroke:#000000;stroke-width:1.996;stroke-linecap:round;stroke-linejoin:round;stroke-miterlimit:10;stroke-dasharray:16, 10;stroke-dashoffset:0;stroke-opacity:1"
         id="path13794"
         transform="translate(86.127064,212.55408)" />
      <path
         d="m 253.24,118.14 0.47,-1.17 0.47,-1.15 0.48,-1.13 0.47,-1.1 0.48,-1.08 0.47,-1.06 0.47,-1.04 0.48,-1.02 0.47,-1.01 0.48,-0.98 0.47,-0.97 0.47,-0.95 0.48,-0.93 0.47,-0.92 0.48,-0.9 0.47,-0.89 0.47,-0.87 0.48,-0.86 0.47,-0.84 0.48,-0.83 0.47,-0.82 0.47,-0.8 0.48,-0.79 0.47,-0.78 0.48,-0.77 0.47,-0.75 0.47,-0.74 0.48,-0.74 0.47,-0.72 0.47,-0.71 0.48,-0.7 0.47,-0.69 0.48,-0.68 0.47,-0.67 0.47,-0.66 0.48,-0.65 0.47,-0.65 0.48,-0.63 0.47,-0.63 0.47,-0.61 0.48,-0.61 0.47,-0.6 0.48,-0.6 0.47,-0.58 0.47,-0.58 0.48,-0.57 0.47,-0.56 0.48,-0.56 0.47,-0.55 0.47,-0.54 0.48,-0.54 0.47,-0.53 0.48,-0.52 0.47,-0.52 0.47,-0.51 0.48,-0.5 0.47,-0.5 0.48,-0.49 0.47,-0.49 0.47,-0.48 0.48,-0.47 0.47,-0.47 0.47,-0.47 0.48,-0.46 0.47,-0.45 0.48,-0.45 0.47,-0.44 0.47,-0.44 0.48,-0.44 0.47,-0.43 0.48,-0.42 0.47,-0.42 0.47,-0.42 0.48,-0.41 0.47,-0.41 0.48,-0.4 0.47,-0.4 0.47,-0.4 0.48,-0.39 0.47,-0.39 0.48,-0.38 0.47,-0.38 0.47,-0.37 0.48,-0.38 0.47,-0.36 0.48,-0.37 0.47,-0.36 0.47,-0.36 0.48,-0.35 0.47,-0.35 0.48,-0.35 0.47,-0.34 0.47,-0.34 0.48,-0.34 0.47,-0.33 0.48,-0.33 0.47,-0.33 0.47,-0.33 0.48,-0.32 0.47,-0.32 0.47,-0.32 0.48,-0.31 0.47,-0.31 0.48,-0.31 0.47,-0.3 0.47,-0.3 0.48,-0.3 0.47,-0.3 0.48,-0.3 0.47,-0.29 0.47,-0.29 0.48,-0.28 0.47,-0.29 0.48,-0.28 0.47,-0.28 0.47,-0.28 0.48,-0.27 0.47,-0.27 0.48,-0.28 0.47,-0.26 0.47,-0.27 0.48,-0.26 0.47,-0.26 0.48,-0.26 0.47,-0.26 0.47,-0.26 0.48,-0.25 0.47,-0.25 0.48,-0.25 0.47,-0.25 0.47,-0.24 0.48,-0.25 0.47,-0.24 0.47,-0.24 0.48,-0.24 0.47,-0.23 0.48,-0.24 0.47,-0.23 0.47,-0.23 0.48,-0.23 0.47,-0.23 0.48,-0.22 0.47,-0.22 0.47,-0.23 0.48,-0.22 0.47,-0.22 0.48,-0.21 0.47,-0.22 0.47,-0.21 0.48,-0.22 0.47,-0.21 0.48,-0.21 0.47,-0.2 0.47,-0.21 0.48,-0.2 0.47,-0.21 0.48,-0.2 0.47,-0.2 0.47,-0.2 0.48,-0.2 0.47,-0.19 0.48,-0.2 0.47,-0.19 0.47,-0.2 0.48,-0.19 0.47,-0.19 0.47,-0.19 0.48,-0.18 0.47,-0.19 0.48,-0.18 0.47,-0.19 0.47,-0.18 0.48,-0.18 0.47,-0.18 0.48,-0.18 0.47,-0.18 0.47,-0.17 0.48,-0.18 0.47,-0.17 0.48,-0.17 0.47,-0.18 0.47,-0.17 0.48,-0.17 0.47,-0.16 0.48,-0.17 0.47,-0.17 0.47,-0.16 0.48,-0.17 0.47,-0.16 0.48,-0.16 0.47,-0.16 0.47,-0.16 0.48,-0.16 0.47,-0.16 0.48,-0.16 0.47,-0.15 0.47,-0.16 0.48,-0.15 0.47,-0.16 0.48,-0.15 0.47,-0.15 0.47,-0.15 0.48,-0.15 0.47,-0.15 0.47,-0.15 0.48,-0.15 0.47,-0.14 0.48,-0.15 0.47,-0.14 0.47,-0.14 0.48,-0.15 0.47,-0.14 0.48,-0.14 0.47,-0.14 0.47,-0.14 0.48,-0.14 0.47,-0.14 0.48,-0.13 0.47,-0.14 0.47,-0.14 0.48,-0.13 0.47,-0.13 0.48,-0.14 0.47,-0.13 0.47,-0.13 0.48,-0.13 0.47,-0.13 0.48,-0.13 0.47,-0.13 0.47,-0.13 0.48,-0.13 0.47,-0.12 0.48,-0.13 0.47,-0.12 0.47,-0.13 0.48,-0.12 0.47,-0.13 0.47,-0.12 0.48,-0.12 0.47,-0.12 0.48,-0.12 0.47,-0.12 0.47,-0.12 0.48,-0.12 0.47,-0.12 0.48,-0.12 0.47,-0.11 0.47,-0.12 0.48,-0.11 0.47,-0.12 0.48,-0.11 0.47,-0.12 0.47,-0.11 0.48,-0.11 0.47,-0.11 0.48,-0.12 0.47,-0.11 0.47,-0.11 0.48,-0.11 0.47,-0.11 0.48,-0.1 0.47,-0.11 0.47,-0.11 0.48,-0.11 0.47,-0.1 0.48,-0.11 0.47,-0.11 0.47,-0.1 0.48,-0.1 0.47,-0.11"
         style="fill:none;stroke:#000000;stroke-width:1.996;stroke-linecap:round;stroke-linejoin:round;stroke-miterlimit:10;stroke-dasharray:2, 4;stroke-dashoffset:0;stroke-opacity:1"
         id="path13796"
         transform="translate(86.127064,212.55408)" />
    </g>
    <g
       id="g14966"
       transform="translate(-86.127064,-251.33583)">
      <g
         id="g13798"
         transform="translate(86.127064,212.55408)">
        <g
           id="g13800"
           clip-path="url(#clipPath13804)">
          <path
             d="M 447.82,22.71 H 583.47 V 179.53 H 447.82"
             style="fill:#ffffff;fill-opacity:1;fill-rule:evenodd;stroke:none"
             id="path13806" />
        </g>
      </g>
      <path
         d="M 475.36,22.71 V 179.53"
         style="fill:none;stroke:#000000;stroke-width:0.4991;stroke-linecap:round;stroke-linejoin:round;stroke-miterlimit:10;stroke-dasharray:none;stroke-opacity:0.0980392"
         id="path13808"
         transform="translate(86.127064,212.55408)" />
      <path
         d="M 513.27,22.71 V 179.53"
         style="fill:none;stroke:#000000;stroke-width:0.4991;stroke-linecap:round;stroke-linejoin:round;stroke-miterlimit:10;stroke-dasharray:none;stroke-opacity:0.0980392"
         id="path13810"
         transform="translate(86.127064,212.55408)" />
      <path
         d="M 551.19,22.71 V 179.53"
         style="fill:none;stroke:#000000;stroke-width:0.4991;stroke-linecap:round;stroke-linejoin:round;stroke-miterlimit:10;stroke-dasharray:none;stroke-opacity:0.0980392"
         id="path13812"
         transform="translate(86.127064,212.55408)" />
      <path
         d="M 447.82,22.71 H 583.47"
         style="fill:none;stroke:#000000;stroke-width:0.9982;stroke-linecap:round;stroke-linejoin:round;stroke-miterlimit:10;stroke-dasharray:none;stroke-opacity:1"
         id="path13814"
         transform="translate(86.127064,212.55408)" />
      <path
         d="M 447.82,179.53 H 583.47"
         style="fill:none;stroke:#000000;stroke-width:0.9982;stroke-linecap:round;stroke-linejoin:round;stroke-miterlimit:10;stroke-dasharray:none;stroke-opacity:1"
         id="path13816"
         transform="translate(86.127064,212.55408)" />
      <path
         d="m 475.36,22.71 v 4.73"
         style="fill:none;stroke:#000000;stroke-width:0.9982;stroke-linecap:round;stroke-linejoin:round;stroke-miterlimit:10;stroke-dasharray:none;stroke-opacity:1"
         id="path13818"
         transform="translate(86.127064,212.55408)" />
      <path
         d="m 513.27,22.71 v 4.73"
         style="fill:none;stroke:#000000;stroke-width:0.9982;stroke-linecap:round;stroke-linejoin:round;stroke-miterlimit:10;stroke-dasharray:none;stroke-opacity:1"
         id="path13820"
         transform="translate(86.127064,212.55408)" />
      <path
         d="m 551.19,22.71 v 4.73"
         style="fill:none;stroke:#000000;stroke-width:0.9982;stroke-linecap:round;stroke-linejoin:round;stroke-miterlimit:10;stroke-dasharray:none;stroke-opacity:1"
         id="path13822"
         transform="translate(86.127064,212.55408)" />
      <text
         xml:space="preserve"
         transform="matrix(1,0,0,-1,552.98706,217.14408)"
         style="font-variant:normal;font-weight:normal;font-size:15px;font-family:'Tex Gyre Heros';-inkscape-font-specification:'Tex Gyre Heros';writing-mode:lr-tb;fill:#000000;fill-opacity:1;fill-rule:nonzero;stroke:none"
         id="text13826"><tspan
           x="0 8.3400002"
           y="0"
           sodipodi:role="line"
           id="tspan13824">80</tspan></text>
      <text
         xml:space="preserve"
         transform="matrix(1,0,0,-1,586.89706,217.14408)"
         style="font-variant:normal;font-weight:normal;font-size:15px;font-family:'Tex Gyre Heros';-inkscape-font-specification:'Tex Gyre Heros';writing-mode:lr-tb;fill:#000000;fill-opacity:1;fill-rule:nonzero;stroke:none"
         id="text13830"><tspan
           x="0 8.3400002 16.68"
           y="0"
           sodipodi:role="line"
           id="tspan13828">160</tspan></text>
      <text
         xml:space="preserve"
         transform="matrix(1,0,0,-1,624.81706,217.14408)"
         style="font-variant:normal;font-weight:normal;font-size:15px;font-family:'Tex Gyre Heros';-inkscape-font-specification:'Tex Gyre Heros';writing-mode:lr-tb;fill:#000000;fill-opacity:1;fill-rule:nonzero;stroke:none"
         id="text13834"><tspan
           x="0 8.3400002 16.68"
           y="0"
           sodipodi:role="line"
           id="tspan13832">240</tspan></text>
      <path
         d="M 447.82,25.63 H 583.47"
         style="fill:none;stroke:#000000;stroke-width:0.4991;stroke-linecap:round;stroke-linejoin:round;stroke-miterlimit:10;stroke-dasharray:none;stroke-opacity:0.0980392"
         id="path13836"
         transform="translate(86.127064,212.55408)" />
      <path
         d="M 447.82,74.61 H 583.47"
         style="fill:none;stroke:#000000;stroke-width:0.4991;stroke-linecap:round;stroke-linejoin:round;stroke-miterlimit:10;stroke-dasharray:none;stroke-opacity:0.0980392"
         id="path13838"
         transform="translate(86.127064,212.55408)" />
      <path
         d="M 447.82,123.59 H 583.47"
         style="fill:none;stroke:#000000;stroke-width:0.4991;stroke-linecap:round;stroke-linejoin:round;stroke-miterlimit:10;stroke-dasharray:none;stroke-opacity:0.0980392"
         id="path13840"
         transform="translate(86.127064,212.55408)" />
      <path
         d="M 447.82,172.57 H 583.47"
         style="fill:none;stroke:#000000;stroke-width:0.4991;stroke-linecap:round;stroke-linejoin:round;stroke-miterlimit:10;stroke-dasharray:none;stroke-opacity:0.0980392"
         id="path13842"
         transform="translate(86.127064,212.55408)" />
      <path
         d="M 447.82,22.71 V 179.53"
         style="fill:none;stroke:#000000;stroke-width:0.9982;stroke-linecap:round;stroke-linejoin:round;stroke-miterlimit:10;stroke-dasharray:none;stroke-opacity:1"
         id="path13844"
         transform="translate(86.127064,212.55408)" />
      <path
         d="M 583.47,22.71 V 179.53"
         style="fill:none;stroke:#000000;stroke-width:0.9982;stroke-linecap:round;stroke-linejoin:round;stroke-miterlimit:10;stroke-dasharray:none;stroke-opacity:1"
         id="path13846"
         transform="translate(86.127064,212.55408)" />
      <path
         d="m 447.82,25.63 h 4.73"
         style="fill:none;stroke:#000000;stroke-width:0.9982;stroke-linecap:round;stroke-linejoin:round;stroke-miterlimit:10;stroke-dasharray:none;stroke-opacity:1"
         id="path13848"
         transform="translate(86.127064,212.55408)" />
      <path
         d="m 447.82,74.61 h 4.73"
         style="fill:none;stroke:#000000;stroke-width:0.9982;stroke-linecap:round;stroke-linejoin:round;stroke-miterlimit:10;stroke-dasharray:none;stroke-opacity:1"
         id="path13850"
         transform="translate(86.127064,212.55408)" />
      <path
         d="m 447.82,123.59 h 4.73"
         style="fill:none;stroke:#000000;stroke-width:0.9982;stroke-linecap:round;stroke-linejoin:round;stroke-miterlimit:10;stroke-dasharray:none;stroke-opacity:1"
         id="path13852"
         transform="translate(86.127064,212.55408)" />
      <path
         d="m 447.82,172.57 h 4.73"
         style="fill:none;stroke:#000000;stroke-width:0.9982;stroke-linecap:round;stroke-linejoin:round;stroke-miterlimit:10;stroke-dasharray:none;stroke-opacity:1"
         id="path13854"
         transform="translate(86.127064,212.55408)" />
      <text
         xml:space="preserve"
         transform="matrix(1,0,0,-1,495.88706,232.68408)"
         style="font-variant:normal;font-weight:normal;font-size:15px;font-family:'Tex Gyre Heros';-inkscape-font-specification:'Tex Gyre Heros';writing-mode:lr-tb;fill:#000000;fill-opacity:1;fill-rule:nonzero;stroke:none"
         id="text13858"><tspan
           sodipodi:role="line"
           id="tspan13856"
           x="0"
           y="0">−2.3</tspan></text>
      <text
         xml:space="preserve"
         transform="matrix(1,0,0,-1,495.88706,281.66408)"
         style="font-variant:normal;font-weight:normal;font-size:15px;font-family:'Tex Gyre Heros';-inkscape-font-specification:'Tex Gyre Heros';writing-mode:lr-tb;fill:#000000;fill-opacity:1;fill-rule:nonzero;stroke:none"
         id="text13862"><tspan
           sodipodi:role="line"
           id="tspan13860"
           x="0"
           y="0">−1.5</tspan></text>
      <text
         xml:space="preserve"
         transform="matrix(1,0,0,-1,495.88706,330.64408)"
         style="font-variant:normal;font-weight:normal;font-size:15px;font-family:'Tex Gyre Heros';-inkscape-font-specification:'Tex Gyre Heros';writing-mode:lr-tb;fill:#000000;fill-opacity:1;fill-rule:nonzero;stroke:none"
         id="text13866"><tspan
           sodipodi:role="line"
           id="tspan13864"
           x="0"
           y="0">−0.7</tspan></text>
      <text
         xml:space="preserve"
         transform="matrix(1,0,0,-1,504.06706,379.62408)"
         style="font-variant:normal;font-weight:normal;font-size:15px;font-family:'Tex Gyre Heros';-inkscape-font-specification:'Tex Gyre Heros';writing-mode:lr-tb;fill:#000000;fill-opacity:1;fill-rule:nonzero;stroke:none"
         id="text13870"><tspan
           x="0 8.3400002 12.51"
           y="0"
           sodipodi:role="line"
           id="tspan13868">0.1</tspan></text>
      <path
         d="m 451.66,172.11 0.48,0.06 0.47,0.06 0.47,0.06 0.48,0.05 0.47,0.05 0.48,0.05 0.47,0.05 0.47,0.05 0.48,0.05 0.47,0.04 0.48,0.05 0.47,0.04 0.47,0.04 0.48,0.04 0.47,0.04 0.48,0.04 0.47,0.04 0.47,0.04 0.48,0.03 0.47,0.04 0.47,0.03 0.48,0.03 0.47,0.04 0.48,0.03 0.47,0.03 0.47,0.03 0.48,0.03 0.47,0.03 0.48,0.02 0.47,0.03 0.47,0.03 0.48,0.02 0.47,0.03 0.48,0.02 0.47,0.03 0.47,0.02 0.48,0.03 0.47,0.02 0.48,0.02 0.47,0.02 0.47,0.03 0.48,0.02 0.47,0.02 0.48,0.02 0.47,0.02 0.47,0.02 0.48,0.02 0.47,0.02 0.48,0.01 0.47,0.02 0.47,0.02 0.48,0.02 0.47,0.02 0.47,0.01 0.48,0.02 0.47,0.02 0.48,0.01 0.47,0.02 0.47,0.01 0.48,0.02 0.47,0.01 0.48,0.02 0.47,0.01 0.47,0.02 0.48,0.01 0.47,0.01 0.48,0.02 0.47,0.01 0.47,0.01 0.48,0.02 0.47,0.01 0.48,0.01 0.47,0.02 0.47,0.01 0.48,0.01 0.47,0.01 0.48,0.01 0.47,0.01 0.47,0.02 0.48,0.01 0.47,0.01 0.48,0.01 0.47,0.01 0.47,0.01 0.48,0.01 0.47,0.01 0.48,0.01 0.47,0.01 0.47,0.01 0.48,0.01 0.47,0.01 0.47,0.01 0.48,0.01 0.47,0.01 0.48,0.01 0.47,0.01 0.47,0.01 h 0.48 l 0.47,0.01 0.48,0.01 0.47,0.01 0.47,0.01 0.48,0.01 h 0.47 l 0.48,0.01 0.47,0.01 0.47,0.01 0.48,0.01 h 0.47 l 0.48,0.01 0.47,0.01 0.47,0.01 h 0.48 l 0.47,0.01 0.48,0.01 h 0.47 l 0.47,0.01 0.48,0.01 0.47,0.01 h 0.48 l 0.47,0.01 0.47,0.01 h 0.48 l 0.47,0.01 h 0.47 l 0.48,0.01 0.47,0.01 h 0.48 l 0.47,0.01 0.47,0.01 h 0.48 l 0.47,0.01 h 0.48 l 0.47,0.01 0.47,0.01 h 0.48 l 0.47,0.01 h 0.48 l 0.47,0.01 h 0.47 l 0.48,0.01 h 0.47 l 0.48,0.01 h 0.47 l 0.47,0.01 h 0.48 l 0.47,0.01 h 0.48 l 0.47,0.01 h 0.47 l 0.48,0.01 h 0.47 l 0.48,0.01 h 0.47 l 0.47,0.01 h 0.48 l 0.47,0.01 h 0.47 l 0.48,0.01 h 0.47 l 0.48,0.01 h 0.47 0.47 l 0.48,0.01 h 0.47 l 0.48,0.01 h 0.47 l 0.47,0.01 h 0.48 0.47 l 0.48,0.01 h 0.47 l 0.47,0.01 h 0.48 0.47 l 0.48,0.01 h 0.47 l 0.47,0.01 h 0.48 0.47 l 0.48,0.01 h 0.47 0.47 l 0.48,0.01 h 0.47 l 0.48,0.01 h 0.47 0.47 l 0.48,0.01 h 0.47 0.48 l 0.47,0.01 h 0.47 0.48 l 0.47,0.01 h 0.47 0.48 l 0.47,0.01 h 0.48 0.47 l 0.47,0.01 h 0.48 0.47 l 0.48,0.01 h 0.47 0.47 0.48 l 0.47,0.01 h 0.48 0.47 l 0.47,0.01 h 0.48 0.47 l 0.48,0.01 h 0.47 0.47 0.48 l 0.47,0.01 h 0.48 0.47 l 0.47,0.01 h 0.48 0.47 0.48 l 0.47,0.01 h 0.47 0.48 0.47 l 0.47,0.01 h 0.48 0.47 0.48 l 0.47,0.01 h 0.47 0.48 0.47 l 0.48,0.01 h 0.47 0.47 0.48 l 0.47,0.01 h 0.48 0.47 0.47 l 0.48,0.01 h 0.47 0.48 0.47 l 0.47,0.01 h 0.48 0.47 0.48 0.47 l 0.47,0.01 h 0.48 0.47 0.48 0.47 l 0.47,0.01 h 0.48 0.47 0.48 l 0.47,0.01 h 0.47 0.48 0.47 0.47 l 0.48,0.01 h 0.47 0.48"
         style="fill:none;stroke:#000000;stroke-width:1.996;stroke-linecap:round;stroke-linejoin:round;stroke-miterlimit:10;stroke-dasharray:none;stroke-opacity:1"
         id="path13872"
         transform="translate(86.127064,212.55408)" />
      <path
         d="m 451.66,132.17 0.48,-0.71 0.47,-0.7 0.47,-0.68 0.48,-0.66 0.47,-0.65 0.48,-0.63 0.47,-0.62 0.47,-0.61 0.48,-0.59 0.47,-0.58 0.48,-0.57 0.47,-0.55 0.47,-0.54 0.48,-0.53 0.47,-0.52 0.48,-0.51 0.47,-0.5 0.47,-0.49 0.48,-0.48 0.47,-0.47 0.47,-0.46 0.48,-0.46 0.47,-0.44 0.48,-0.44 0.47,-0.42 0.47,-0.42 0.48,-0.41 0.47,-0.41 0.48,-0.4 0.47,-0.39 0.47,-0.38 0.48,-0.37 0.47,-0.38 0.48,-0.36 0.47,-0.36 0.47,-0.35 0.48,-0.34 0.47,-0.34 0.48,-0.34 0.47,-0.33 0.47,-0.32 0.48,-0.32 0.47,-0.31 0.48,-0.31 0.47,-0.31 0.47,-0.29 0.48,-0.3 0.47,-0.29 0.48,-0.28 0.47,-0.29 0.47,-0.27 0.48,-0.28 0.47,-0.27 0.47,-0.26 0.48,-0.26 0.47,-0.26 0.48,-0.25 0.47,-0.26 0.47,-0.24 0.48,-0.25 0.47,-0.24 0.48,-0.23 0.47,-0.24 0.47,-0.23 0.48,-0.23 0.47,-0.22 0.48,-0.22 0.47,-0.22 0.47,-0.22 0.48,-0.21 0.47,-0.21 0.48,-0.21 0.47,-0.2 0.47,-0.2 0.48,-0.2 0.47,-0.2 0.48,-0.2 0.47,-0.19 0.47,-0.19 0.48,-0.19 0.47,-0.18 0.48,-0.19 0.47,-0.18 0.47,-0.18 0.48,-0.17 0.47,-0.18 0.48,-0.17 0.47,-0.17 0.47,-0.17 0.48,-0.17 0.47,-0.16 0.47,-0.17 0.48,-0.16 0.47,-0.16 0.48,-0.15 0.47,-0.16 0.47,-0.16 0.48,-0.15 0.47,-0.15 0.48,-0.15 0.47,-0.15 0.47,-0.14 0.48,-0.15 0.47,-0.14 0.48,-0.14 0.47,-0.14 0.47,-0.14 0.48,-0.14 0.47,-0.13 0.48,-0.14 0.47,-0.13 0.47,-0.13 0.48,-0.13 0.47,-0.13 0.48,-0.13 0.47,-0.13 0.47,-0.12 0.48,-0.13 0.47,-0.12 0.48,-0.12 0.47,-0.12 0.47,-0.12 0.48,-0.12 0.47,-0.12 0.47,-0.11 0.48,-0.12 0.47,-0.11 0.48,-0.11 0.47,-0.12 0.47,-0.11 0.48,-0.11 0.47,-0.11 0.48,-0.1 0.47,-0.11 0.47,-0.11 0.48,-0.1 0.47,-0.1 0.48,-0.11 0.47,-0.1 0.47,-0.1 0.48,-0.1 0.47,-0.1 0.48,-0.1 0.47,-0.1 0.47,-0.09 0.48,-0.1 0.47,-0.09 0.48,-0.1 0.47,-0.09 0.47,-0.09 0.48,-0.1 0.47,-0.09 0.48,-0.09 0.47,-0.09 0.47,-0.09 0.48,-0.08 0.47,-0.09 0.47,-0.09 0.48,-0.08 0.47,-0.09 0.48,-0.08 0.47,-0.09 0.47,-0.08 0.48,-0.08 0.47,-0.09 0.48,-0.08 0.47,-0.08 0.47,-0.08 0.48,-0.08 0.47,-0.08 0.48,-0.08 0.47,-0.07 0.47,-0.08 0.48,-0.08 0.47,-0.07 0.48,-0.08 0.47,-0.07 0.47,-0.08 0.48,-0.07 0.47,-0.07 0.48,-0.07 0.47,-0.08 0.47,-0.07 0.48,-0.07 0.47,-0.07 0.48,-0.07 0.47,-0.07 0.47,-0.07 0.48,-0.07 0.47,-0.06 0.48,-0.07 0.47,-0.07 0.47,-0.06 0.48,-0.07 0.47,-0.07 0.47,-0.06 0.48,-0.06 0.47,-0.07 0.48,-0.06 0.47,-0.07 0.47,-0.06 0.48,-0.06 0.47,-0.06 0.48,-0.06 0.47,-0.06 0.47,-0.07 0.48,-0.06 0.47,-0.06 0.48,-0.05 0.47,-0.06 0.47,-0.06 0.48,-0.06 0.47,-0.06 0.48,-0.06 0.47,-0.05 0.47,-0.06 0.48,-0.06 0.47,-0.05 0.48,-0.06 0.47,-0.05 0.47,-0.06 0.48,-0.05 0.47,-0.06 0.48,-0.05 0.47,-0.05 0.47,-0.06 0.48,-0.05 0.47,-0.05 0.47,-0.05 0.48,-0.06 0.47,-0.05 0.48,-0.05 0.47,-0.05 0.47,-0.05 0.48,-0.05 0.47,-0.05 0.48,-0.05 0.47,-0.05 0.47,-0.05 0.48,-0.05 0.47,-0.04 0.48,-0.05 0.47,-0.05 0.47,-0.05 0.48,-0.04 0.47,-0.05 0.48,-0.05 0.47,-0.04 0.47,-0.05 0.48,-0.05 0.47,-0.04 0.48,-0.05 0.47,-0.04 0.47,-0.05 0.48,-0.04 0.47,-0.05 0.48,-0.04 0.47,-0.04 0.47,-0.05 0.48,-0.04 0.47,-0.04 0.48,-0.05 0.47,-0.04 0.47,-0.04 0.48,-0.04 0.47,-0.04 0.47,-0.05 0.48,-0.04 0.47,-0.04 0.48,-0.04"
         style="fill:none;stroke:#000000;stroke-width:1.996;stroke-linecap:round;stroke-linejoin:round;stroke-miterlimit:10;stroke-dasharray:16, 10;stroke-dashoffset:0;stroke-opacity:1"
         id="path13874"
         transform="translate(86.127064,212.55408)" />
      <path
         d="m 451.66,102.41 0.48,-1.02 0.47,-0.99 0.47,-0.97 0.48,-0.95 0.47,-0.93 0.48,-0.92 0.47,-0.9 0.47,-0.87 0.48,-0.87 0.47,-0.84 0.48,-0.83 0.47,-0.82 0.47,-0.8 0.48,-0.78 0.47,-0.77 0.48,-0.76 0.47,-0.75 0.47,-0.73 0.48,-0.72 0.47,-0.71 0.47,-0.69 0.48,-0.68 0.47,-0.68 0.48,-0.66 0.47,-0.65 0.47,-0.64 0.48,-0.63 0.47,-0.62 0.48,-0.61 0.47,-0.6 0.47,-0.59 0.48,-0.59 0.47,-0.57 0.48,-0.57 0.47,-0.56 0.47,-0.55 0.48,-0.54 0.47,-0.53 0.48,-0.53 0.47,-0.52 0.47,-0.51 0.48,-0.5 0.47,-0.5 0.48,-0.49 0.47,-0.49 0.47,-0.47 0.48,-0.48 0.47,-0.46 0.48,-0.46 0.47,-0.45 0.47,-0.45 0.48,-0.44 0.47,-0.44 0.47,-0.43 0.48,-0.42 0.47,-0.42 0.48,-0.42 0.47,-0.41 0.47,-0.4 0.48,-0.4 0.47,-0.4 0.48,-0.39 0.47,-0.38 0.47,-0.38 0.48,-0.38 0.47,-0.37 0.48,-0.37 0.47,-0.36 0.47,-0.36 0.48,-0.36 0.47,-0.35 0.48,-0.34 0.47,-0.35 0.47,-0.34 0.48,-0.33 0.47,-0.34 0.48,-0.33 0.47,-0.32 0.47,-0.32 0.48,-0.32 0.47,-0.31 0.48,-0.32 0.47,-0.3 0.47,-0.31 0.48,-0.3 0.47,-0.3 0.48,-0.3 0.47,-0.29 0.47,-0.29 0.48,-0.29 0.47,-0.28 0.47,-0.28 0.48,-0.28 0.47,-0.28 0.48,-0.27 0.47,-0.27 0.47,-0.27 0.48,-0.26 0.47,-0.26 0.48,-0.26 0.47,-0.26 0.47,-0.26 0.48,-0.25 0.47,-0.25 0.48,-0.25 0.47,-0.24 0.47,-0.25 0.48,-0.24 0.47,-0.24 0.48,-0.23 0.47,-0.24 0.47,-0.23 0.48,-0.23 0.47,-0.23 0.48,-0.23 0.47,-0.22 0.47,-0.22 0.48,-0.23 0.47,-0.21 0.48,-0.22 0.47,-0.22 0.47,-0.21 0.48,-0.21 0.47,-0.21 0.47,-0.21 0.48,-0.2 0.47,-0.21 0.48,-0.2 0.47,-0.2 0.47,-0.2 0.48,-0.2 0.47,-0.19 0.48,-0.2 0.47,-0.19 0.47,-0.19 0.48,-0.19 0.47,-0.19 0.48,-0.19 0.47,-0.18 0.47,-0.19 0.48,-0.18 0.47,-0.18 0.48,-0.18 0.47,-0.18 0.47,-0.17 0.48,-0.18 0.47,-0.17 0.48,-0.18 0.47,-0.17 0.47,-0.17 0.48,-0.17 0.47,-0.16 0.48,-0.17 0.47,-0.16 0.47,-0.17 0.48,-0.16 0.47,-0.16 0.47,-0.16 0.48,-0.16 0.47,-0.16 0.48,-0.16 0.47,-0.15 0.47,-0.16 0.48,-0.15 0.47,-0.15 0.48,-0.15 0.47,-0.15 0.47,-0.15 0.48,-0.15 0.47,-0.15 0.48,-0.14 0.47,-0.15 0.47,-0.14 0.48,-0.14 0.47,-0.15 0.48,-0.14 0.47,-0.14 0.47,-0.14 0.48,-0.13 0.47,-0.14 0.48,-0.14 0.47,-0.13 0.47,-0.14 0.48,-0.13 0.47,-0.13 0.48,-0.13 0.47,-0.14 0.47,-0.13 0.48,-0.12 0.47,-0.13 0.48,-0.13 0.47,-0.13 0.47,-0.12 0.48,-0.13 0.47,-0.12 0.47,-0.13 0.48,-0.12 0.47,-0.12 0.48,-0.12 0.47,-0.12 0.47,-0.12 0.48,-0.12 0.47,-0.12 0.48,-0.11 0.47,-0.12 0.47,-0.12 0.48,-0.11 0.47,-0.12 0.48,-0.11 0.47,-0.11 0.47,-0.12 0.48,-0.11 0.47,-0.11 0.48,-0.11 0.47,-0.11 0.47,-0.11 0.48,-0.11 0.47,-0.1 0.48,-0.11 0.47,-0.11 0.47,-0.1 0.48,-0.11 0.47,-0.1 0.48,-0.11 0.47,-0.1 0.47,-0.1 0.48,-0.1 0.47,-0.11 0.47,-0.1 0.48,-0.1 0.47,-0.1 0.48,-0.1 0.47,-0.1 0.47,-0.09 0.48,-0.1 0.47,-0.1 0.48,-0.09 0.47,-0.1 0.47,-0.1 0.48,-0.09 0.47,-0.09 0.48,-0.1 0.47,-0.09 0.47,-0.09 0.48,-0.1 0.47,-0.09 0.48,-0.09 0.47,-0.09 0.47,-0.09 0.48,-0.09 0.47,-0.09 0.48,-0.09 0.47,-0.09 0.47,-0.08 0.48,-0.09 0.47,-0.09 0.48,-0.08 0.47,-0.09 0.47,-0.09 0.48,-0.08 0.47,-0.09 0.48,-0.08 0.47,-0.08 0.47,-0.09 0.48,-0.08 0.47,-0.08 0.47,-0.08 0.48,-0.09 0.47,-0.08 0.48,-0.08"
         style="fill:none;stroke:#000000;stroke-width:1.996;stroke-linecap:round;stroke-linejoin:round;stroke-miterlimit:10;stroke-dasharray:2, 4;stroke-dashoffset:0;stroke-opacity:1"
         id="path13876"
         transform="translate(86.127064,212.55408)" />
    </g>
  </g>
</svg>
