<?xml version="1.0" encoding="UTF-8" standalone="no"?>
<!-- Created with Inkscape (http://www.inkscape.org/) -->

<svg
   version="1.1"
   id="svg2"
   width="14cm"
   height="14cm"
   viewBox="0 0 529.13386 529.13385"
   sodipodi:docname="pORF_antisense_scer.svg"
   inkscape:version="1.2 (dc2aeda, 2022-05-15)"
   xmlns:inkscape="http://www.inkscape.org/namespaces/inkscape"
   xmlns:sodipodi="http://sodipodi.sourceforge.net/DTD/sodipodi-0.dtd"
   xmlns="http://www.w3.org/2000/svg"
   xmlns:svg="http://www.w3.org/2000/svg">
  <defs
     id="defs6">
    <clipPath
       clipPathUnits="userSpaceOnUse"
       id="clipPath24">
      <path
         d="M 0,0 H 340.16 V 340.16 H 0 Z"
         id="path22" />
    </clipPath>
    <clipPath
       clipPathUnits="userSpaceOnUse"
       id="clipPath34">
      <path
         d="M 0,0 H 340.16 V 340.16 H 0 Z"
         id="path32" />
    </clipPath>
  </defs>
  <sodipodi:namedview
     id="namedview4"
     pagecolor="#ffffff"
     bordercolor="#666666"
     borderopacity="1.0"
     inkscape:showpageshadow="2"
     inkscape:pageopacity="0.0"
     inkscape:pagecheckerboard="0"
     inkscape:deskcolor="#d1d1d1"
     showgrid="false"
     inkscape:zoom="1.1170494"
     inkscape:cx="140.10123"
     inkscape:cy="241.26059"
     inkscape:window-width="1920"
     inkscape:window-height="1011"
     inkscape:window-x="0"
     inkscape:window-y="0"
     inkscape:window-maximized="1"
     inkscape:current-layer="g10"
     inkscape:document-units="cm">
    <inkscape:page
       x="0"
       y="0"
       id="page8"
       width="529.13385"
       height="529.13385" />
  </sodipodi:namedview>
  <g
     id="g10"
     inkscape:groupmode="layer"
     inkscape:label="Page 1"
     transform="matrix(1.3333333,0,0,-1.3333333,0,377.94669)">
    <g
       id="g18"
       transform="matrix(1.1666666,0,0,1.4000226,0,-113.39038)"
       style="stroke-width:0.782455">
      <g
         id="g20"
         clip-path="url(#clipPath24)"
         style="stroke-width:0.782455">
        <path
           d="M 0,0 H 340.16 V 283.46 H 0"
           style="fill:#ffffff;fill-opacity:1;fill-rule:evenodd;stroke:none;stroke-width:0.782455"
           id="path26" />
      </g>
    </g>
    <text
       xml:space="preserve"
       style="font-size:19px;line-height:1.25;font-family:sans-serif;letter-spacing:0px;word-spacing:0px;stroke-width:0.646552"
       x="222.68202"
       y="-0.032412998"
       id="text1830-36-6"
       transform="matrix(1.16,0,0,-1.16,-201.95628,-75.535791)"><tspan
         sodipodi:role="line"
         style="font-style:normal;font-variant:normal;font-weight:normal;font-stretch:normal;font-size:19px;font-family:'TeX Gyre Heros';-inkscape-font-specification:'TeX Gyre Heros';stroke-width:0.646552"
         x="222.68202"
         y="-0.032412998"
         id="tspan1832-1-5">GC%</tspan></text>
    <g
       id="g8265"
       transform="matrix(1.16,0,0,1.16,-213.88257,-76.800771)"
       style="stroke-width:0.862069">
      <text
         xml:space="preserve"
         style="font-size:19px;line-height:1.25;font-family:sans-serif;letter-spacing:0px;word-spacing:0px;stroke-width:0.646552"
         x="317.81384"
         y="-0.39541301"
         id="text1830-36-6-6"
         transform="scale(1,-1)"><tspan
           sodipodi:role="line"
           style="font-style:normal;font-variant:normal;font-weight:normal;font-stretch:normal;font-size:19px;font-family:'TeX Gyre Heros';-inkscape-font-specification:'TeX Gyre Heros';stroke-width:0.646552"
           x="317.81384"
           y="-0.39541301"
           id="tspan1832-1-5-9">30</tspan></text>
      <path
         style="fill:none;stroke:#ffe066;stroke-width:1.72522;stroke-linecap:butt;stroke-linejoin:miter;stroke-dasharray:none;stroke-opacity:1"
         d="m 296.04399,8.144388 19.46202,-0.22995"
         id="path3548"
         sodipodi:nodetypes="cc" />
    </g>
    <g
       id="g8270"
       transform="matrix(1.16,0,0,1.16,-222.66526,-76.800771)"
       style="stroke-width:0.862069">
      <text
         xml:space="preserve"
         style="font-size:19px;line-height:1.25;font-family:sans-serif;letter-spacing:0px;word-spacing:0px;stroke-width:0.646552"
         x="386.81168"
         y="-0.39541301"
         id="text1830-36-6-3"
         transform="scale(1,-1)"><tspan
           sodipodi:role="line"
           style="font-style:normal;font-variant:normal;font-weight:normal;font-stretch:normal;font-size:19px;font-family:'TeX Gyre Heros';-inkscape-font-specification:'TeX Gyre Heros';stroke-width:0.646552"
           x="386.81168"
           y="-0.39541301"
           id="tspan1832-1-5-7">40</tspan></text>
      <path
         style="fill:none;stroke:#5599ff;stroke-width:1.72522;stroke-linecap:butt;stroke-linejoin:miter;stroke-dasharray:none;stroke-opacity:1"
         d="m 364.95384,8.144388 19.46202,-0.22995"
         id="path3548-5"
         sodipodi:nodetypes="cc" />
    </g>
    <g
       id="g8275"
       transform="matrix(1.16,0,0,1.16,-230.04422,-76.800771)"
       style="stroke-width:0.862069">
      <text
         xml:space="preserve"
         style="font-size:19px;line-height:1.25;font-family:sans-serif;letter-spacing:0px;word-spacing:0px;stroke-width:0.646552"
         x="454.4454"
         y="-0.39541301"
         id="text1830-36-6-4"
         transform="scale(1,-1)"><tspan
           sodipodi:role="line"
           style="font-style:normal;font-variant:normal;font-weight:normal;font-stretch:normal;font-size:19px;font-family:'TeX Gyre Heros';-inkscape-font-specification:'TeX Gyre Heros';stroke-width:0.646552"
           x="454.4454"
           y="-0.39541301"
           id="tspan1832-1-5-5">50</tspan></text>
      <path
         style="fill:none;stroke:#e66969;stroke-width:1.72522;stroke-linecap:butt;stroke-linejoin:miter;stroke-dasharray:none;stroke-opacity:1"
         d="m 432.74156,8.144388 19.46202,-0.22995"
         id="path3548-4"
         sodipodi:nodetypes="cc" />
    </g>
    <g
       id="g2107"
       transform="matrix(1.16,0,0,1.16,0,-51.353604)"
       style="stroke-width:0.862069">
      <text
         xml:space="preserve"
         style="font-size:19px;line-height:1.25;font-family:sans-serif;letter-spacing:0px;word-spacing:0px;stroke-width:0.646552"
         x="536.32825"
         y="-0.39541301"
         id="text1830-36-6-2"
         transform="matrix(1,0,0,-1,-219.10024,-21.937213)"><tspan
           sodipodi:role="line"
           style="font-style:normal;font-variant:normal;font-weight:normal;font-stretch:normal;font-size:19px;font-family:'TeX Gyre Heros';-inkscape-font-specification:'TeX Gyre Heros';stroke-width:0.646552"
           x="536.32825"
           y="-0.39541301"
           id="tspan1832-1-5-54">60</tspan></text>
      <path
         style="fill:none;stroke:#754473;stroke-width:1.72522;stroke-linecap:butt;stroke-linejoin:miter;stroke-dasharray:none;stroke-opacity:1"
         d="M 514.80038,8.144388 534.2624,7.914438"
         id="path3548-7"
         sodipodi:nodetypes="cc"
         transform="translate(-219.10024,-21.937213)" />
    </g>
    <g
       id="g28"
       transform="matrix(1.16,0,0,1.16,5.22,-45.353604)"
       style="stroke-width:0.862069">
      <g
         id="g30"
         clip-path="url(#clipPath34)"
         style="stroke-width:0.862069">
        <path
           d="m 73.87,52.65 h 254.48 v 219 H 73.87"
           style="fill:#ffffff;fill-opacity:1;fill-rule:evenodd;stroke:none;stroke-width:0.862069"
           id="path36" />
      </g>
    </g>
    <path
       d="m 98.86,52.65 v 219"
       style="fill:none;stroke:#000000;stroke-width:0.430345;stroke-linecap:round;stroke-linejoin:round;stroke-miterlimit:10;stroke-dasharray:none;stroke-opacity:0.0980392"
       id="path38"
       transform="matrix(1.16,0,0,1.16,5.22,-45.353604)" />
    <path
       d="m 143.31,52.65 v 219"
       style="fill:none;stroke:#000000;stroke-width:0.430345;stroke-linecap:round;stroke-linejoin:round;stroke-miterlimit:10;stroke-dasharray:none;stroke-opacity:0.0980392"
       id="path40"
       transform="matrix(1.16,0,0,1.16,5.22,-45.353604)" />
    <path
       d="m 187.77,52.65 v 219"
       style="fill:none;stroke:#000000;stroke-width:0.430345;stroke-linecap:round;stroke-linejoin:round;stroke-miterlimit:10;stroke-dasharray:none;stroke-opacity:0.0980392"
       id="path42"
       transform="matrix(1.16,0,0,1.16,5.22,-45.353604)" />
    <path
       d="m 232.23,52.65 v 219"
       style="fill:none;stroke:#000000;stroke-width:0.430345;stroke-linecap:round;stroke-linejoin:round;stroke-miterlimit:10;stroke-dasharray:none;stroke-opacity:0.0980392"
       id="path44"
       transform="matrix(1.16,0,0,1.16,5.22,-45.353604)" />
    <path
       d="m 276.69,52.65 v 219"
       style="fill:none;stroke:#000000;stroke-width:0.430345;stroke-linecap:round;stroke-linejoin:round;stroke-miterlimit:10;stroke-dasharray:none;stroke-opacity:0.0980392"
       id="path46"
       transform="matrix(1.16,0,0,1.16,5.22,-45.353604)" />
    <path
       d="m 321.14,52.65 v 219"
       style="fill:none;stroke:#000000;stroke-width:0.430345;stroke-linecap:round;stroke-linejoin:round;stroke-miterlimit:10;stroke-dasharray:none;stroke-opacity:0.0980392"
       id="path48"
       transform="matrix(1.16,0,0,1.16,5.22,-45.353604)" />
    <path
       d="M 73.87,52.65 H 328.35"
       style="fill:none;stroke:#000000;stroke-width:0.86069;stroke-linecap:round;stroke-linejoin:round;stroke-miterlimit:10;stroke-dasharray:none;stroke-opacity:1"
       id="path50"
       transform="matrix(1.16,0,0,1.16,5.22,-45.353604)" />
    <path
       d="M 73.87,271.65 H 328.35"
       style="fill:none;stroke:#000000;stroke-width:0.86069;stroke-linecap:round;stroke-linejoin:round;stroke-miterlimit:10;stroke-dasharray:none;stroke-opacity:1"
       id="path52"
       transform="matrix(1.16,0,0,1.16,5.22,-45.353604)" />
    <path
       d="m 98.86,52.65 v 4.72"
       style="fill:none;stroke:#000000;stroke-width:0.86069;stroke-linecap:round;stroke-linejoin:round;stroke-miterlimit:10;stroke-dasharray:none;stroke-opacity:1"
       id="path54"
       transform="matrix(1.16,0,0,1.16,5.22,-45.353604)" />
    <path
       d="m 143.31,52.65 v 4.72"
       style="fill:none;stroke:#000000;stroke-width:0.86069;stroke-linecap:round;stroke-linejoin:round;stroke-miterlimit:10;stroke-dasharray:none;stroke-opacity:1"
       id="path56"
       transform="matrix(1.16,0,0,1.16,5.22,-45.353604)" />
    <path
       d="m 187.77,52.65 v 4.72"
       style="fill:none;stroke:#000000;stroke-width:0.86069;stroke-linecap:round;stroke-linejoin:round;stroke-miterlimit:10;stroke-dasharray:none;stroke-opacity:1"
       id="path58"
       transform="matrix(1.16,0,0,1.16,5.22,-45.353604)" />
    <path
       d="m 232.23,52.65 v 4.72"
       style="fill:none;stroke:#000000;stroke-width:0.86069;stroke-linecap:round;stroke-linejoin:round;stroke-miterlimit:10;stroke-dasharray:none;stroke-opacity:1"
       id="path60"
       transform="matrix(1.16,0,0,1.16,5.22,-45.353604)" />
    <path
       d="m 276.69,52.65 v 4.72"
       style="fill:none;stroke:#000000;stroke-width:0.86069;stroke-linecap:round;stroke-linejoin:round;stroke-miterlimit:10;stroke-dasharray:none;stroke-opacity:1"
       id="path62"
       transform="matrix(1.16,0,0,1.16,5.22,-45.353604)" />
    <path
       d="m 321.14,52.65 v 4.72"
       style="fill:none;stroke:#000000;stroke-width:0.86069;stroke-linecap:round;stroke-linejoin:round;stroke-miterlimit:10;stroke-dasharray:none;stroke-opacity:1"
       id="path64"
       transform="matrix(1.16,0,0,1.16,5.22,-45.353604)" />
    <text
       xml:space="preserve"
       transform="matrix(1.16,0,0,-1.16,110.0376,-2.932404)"
       style="font-variant:normal;font-weight:normal;font-size:14.6552px;font-family:'Tex Gyre Heros';-inkscape-font-specification:'Tex Gyre Heros';writing-mode:lr-tb;fill:#000000;fill-opacity:1;fill-rule:nonzero;stroke:none;stroke-width:0.862069"
       id="text68"><tspan
         sodipodi:role="line"
         id="tspan66"
         style="font-size:14.6552px;stroke-width:0.862069"
         x="0"
         y="0">50</tspan></text>
    <text
       xml:space="preserve"
       transform="matrix(1.16,0,0,-1.16,156.9596,-2.932404)"
       style="font-variant:normal;font-weight:normal;font-size:14.6552px;font-family:'Tex Gyre Heros';-inkscape-font-specification:'Tex Gyre Heros';writing-mode:lr-tb;fill:#000000;fill-opacity:1;fill-rule:nonzero;stroke:none;stroke-width:0.862069"
       id="text72"><tspan
         sodipodi:role="line"
         id="tspan70"
         style="font-size:14.6552px;stroke-width:0.862069"
         x="0"
         y="0">100</tspan></text>
    <text
       xml:space="preserve"
       transform="matrix(1.16,0,0,-1.16,208.5332,-2.932404)"
       style="font-variant:normal;font-weight:normal;font-size:14.6552px;font-family:'Tex Gyre Heros';-inkscape-font-specification:'Tex Gyre Heros';writing-mode:lr-tb;fill:#000000;fill-opacity:1;fill-rule:nonzero;stroke:none;stroke-width:0.862069"
       id="text76"><tspan
         sodipodi:role="line"
         id="tspan74"
         style="font-size:14.6552px;stroke-width:0.862069"
         x="0"
         y="0">150</tspan></text>
    <text
       xml:space="preserve"
       transform="matrix(1.16,0,0,-1.16,260.1068,-2.932404)"
       style="font-variant:normal;font-weight:normal;font-size:14.6552px;font-family:'Tex Gyre Heros';-inkscape-font-specification:'Tex Gyre Heros';writing-mode:lr-tb;fill:#000000;fill-opacity:1;fill-rule:nonzero;stroke:none;stroke-width:0.862069"
       id="text80"><tspan
         sodipodi:role="line"
         id="tspan78"
         style="font-size:14.6552px;stroke-width:0.862069"
         x="0"
         y="0">200</tspan></text>
    <text
       xml:space="preserve"
       transform="matrix(1.16,0,0,-1.16,311.6804,-2.932404)"
       style="font-variant:normal;font-weight:normal;font-size:14.6552px;font-family:'Tex Gyre Heros';-inkscape-font-specification:'Tex Gyre Heros';writing-mode:lr-tb;fill:#000000;fill-opacity:1;fill-rule:nonzero;stroke:none;stroke-width:0.862069"
       id="text84"><tspan
         sodipodi:role="line"
         id="tspan82"
         style="font-size:14.6552px;stroke-width:0.862069"
         x="0"
         y="0">250</tspan></text>
    <text
       xml:space="preserve"
       transform="matrix(1.16,0,0,-1.16,363.2424,-2.932404)"
       style="font-variant:normal;font-weight:normal;font-size:14.6552px;font-family:'Tex Gyre Heros';-inkscape-font-specification:'Tex Gyre Heros';writing-mode:lr-tb;fill:#000000;fill-opacity:1;fill-rule:nonzero;stroke:none;stroke-width:0.862069"
       id="text88"><tspan
         sodipodi:role="line"
         id="tspan86"
         style="font-size:14.6552px;stroke-width:0.862069"
         x="0"
         y="0">300</tspan></text>
    <text
       xml:space="preserve"
       transform="matrix(1.16,0,0,-1.16,134.1076,-33.393204)"
       style="font-variant:normal;font-weight:normal;font-size:19px;font-family:'Tex Gyre Heros';-inkscape-font-specification:'Tex Gyre Heros';writing-mode:lr-tb;fill:#000000;fill-opacity:1;fill-rule:nonzero;stroke:none;stroke-width:0.862069"
       id="text92"><tspan
         x="0 14.782 28.5 40.109001 45.390999 49.609001 60.173 70.737 81.301003 86.583 97.147003 102.429 108.756 118.256 128.82001 139.384 149.948 160.51199 170.01199"
         y="0"
         sodipodi:role="line"
         id="tspan90"
         style="stroke-width:0.862069">ORF length (codons)</tspan></text>
    <path
       d="M 73.87,60.76 H 328.35"
       style="fill:none;stroke:#000000;stroke-width:0.430345;stroke-linecap:round;stroke-linejoin:round;stroke-miterlimit:10;stroke-dasharray:none;stroke-opacity:0.0980392"
       id="path94"
       transform="matrix(1.16,0,0,1.16,5.22,-45.353604)" />
    <path
       d="M 73.87,91.38 H 328.35"
       style="fill:none;stroke:#000000;stroke-width:0.430345;stroke-linecap:round;stroke-linejoin:round;stroke-miterlimit:10;stroke-dasharray:none;stroke-opacity:0.0980392"
       id="path96"
       transform="matrix(1.16,0,0,1.16,5.22,-45.353604)" />
    <path
       d="M 73.87,121.99 H 328.35"
       style="fill:none;stroke:#000000;stroke-width:0.430345;stroke-linecap:round;stroke-linejoin:round;stroke-miterlimit:10;stroke-dasharray:none;stroke-opacity:0.0980392"
       id="path98"
       transform="matrix(1.16,0,0,1.16,5.22,-45.353604)" />
    <path
       d="M 73.87,152.61 H 328.35"
       style="fill:none;stroke:#000000;stroke-width:0.430345;stroke-linecap:round;stroke-linejoin:round;stroke-miterlimit:10;stroke-dasharray:none;stroke-opacity:0.0980392"
       id="path100"
       transform="matrix(1.16,0,0,1.16,5.22,-45.353604)" />
    <path
       d="M 73.87,183.22 H 328.35"
       style="fill:none;stroke:#000000;stroke-width:0.430345;stroke-linecap:round;stroke-linejoin:round;stroke-miterlimit:10;stroke-dasharray:none;stroke-opacity:0.0980392"
       id="path102"
       transform="matrix(1.16,0,0,1.16,5.22,-45.353604)" />
    <path
       d="M 73.87,213.84 H 328.35"
       style="fill:none;stroke:#000000;stroke-width:0.430345;stroke-linecap:round;stroke-linejoin:round;stroke-miterlimit:10;stroke-dasharray:none;stroke-opacity:0.0980392"
       id="path104"
       transform="matrix(1.16,0,0,1.16,5.22,-45.353604)" />
    <path
       d="M 73.87,244.45 H 328.35"
       style="fill:none;stroke:#000000;stroke-width:0.430345;stroke-linecap:round;stroke-linejoin:round;stroke-miterlimit:10;stroke-dasharray:none;stroke-opacity:0.0980392"
       id="path106"
       transform="matrix(1.16,0,0,1.16,5.22,-45.353604)" />
    <path
       d="m 73.87,52.65 v 219"
       style="fill:none;stroke:#000000;stroke-width:0.86069;stroke-linecap:round;stroke-linejoin:round;stroke-miterlimit:10;stroke-dasharray:none;stroke-opacity:1"
       id="path108"
       transform="matrix(1.16,0,0,1.16,5.22,-45.353604)" />
    <path
       d="m 328.35,52.65 v 219"
       style="fill:none;stroke:#000000;stroke-width:0.86069;stroke-linecap:round;stroke-linejoin:round;stroke-miterlimit:10;stroke-dasharray:none;stroke-opacity:1"
       id="path110"
       transform="matrix(1.16,0,0,1.16,5.22,-45.353604)" />
    <path
       d="m 73.87,60.76 h 4.72"
       style="fill:none;stroke:#000000;stroke-width:0.86069;stroke-linecap:round;stroke-linejoin:round;stroke-miterlimit:10;stroke-dasharray:none;stroke-opacity:1"
       id="path112"
       transform="matrix(1.16,0,0,1.16,5.22,-45.353604)" />
    <path
       d="m 73.87,91.38 h 4.72"
       style="fill:none;stroke:#000000;stroke-width:0.86069;stroke-linecap:round;stroke-linejoin:round;stroke-miterlimit:10;stroke-dasharray:none;stroke-opacity:1"
       id="path114"
       transform="matrix(1.16,0,0,1.16,5.22,-45.353604)" />
    <path
       d="m 73.87,121.99 h 4.72"
       style="fill:none;stroke:#000000;stroke-width:0.86069;stroke-linecap:round;stroke-linejoin:round;stroke-miterlimit:10;stroke-dasharray:none;stroke-opacity:1"
       id="path116"
       transform="matrix(1.16,0,0,1.16,5.22,-45.353604)" />
    <path
       d="m 73.87,152.61 h 4.72"
       style="fill:none;stroke:#000000;stroke-width:0.86069;stroke-linecap:round;stroke-linejoin:round;stroke-miterlimit:10;stroke-dasharray:none;stroke-opacity:1"
       id="path118"
       transform="matrix(1.16,0,0,1.16,5.22,-45.353604)" />
    <path
       d="m 73.87,183.22 h 4.72"
       style="fill:none;stroke:#000000;stroke-width:0.86069;stroke-linecap:round;stroke-linejoin:round;stroke-miterlimit:10;stroke-dasharray:none;stroke-opacity:1"
       id="path120"
       transform="matrix(1.16,0,0,1.16,5.22,-45.353604)" />
    <path
       d="m 73.87,213.84 h 4.72"
       style="fill:none;stroke:#000000;stroke-width:0.86069;stroke-linecap:round;stroke-linejoin:round;stroke-miterlimit:10;stroke-dasharray:none;stroke-opacity:1"
       id="path122"
       transform="matrix(1.16,0,0,1.16,5.22,-45.353604)" />
    <path
       d="m 73.87,244.45 h 4.72"
       style="fill:none;stroke:#000000;stroke-width:0.86069;stroke-linecap:round;stroke-linejoin:round;stroke-miterlimit:10;stroke-dasharray:none;stroke-opacity:1"
       id="path124"
       transform="matrix(1.16,0,0,1.16,5.22,-45.353604)" />
    <text
       xml:space="preserve"
       transform="matrix(1.16,0,0,-1.16,75.5044,18.747996)"
       style="font-variant:normal;font-weight:normal;font-size:14.6552px;font-family:'Tex Gyre Heros';-inkscape-font-specification:'Tex Gyre Heros';writing-mode:lr-tb;fill:#000000;fill-opacity:1;fill-rule:nonzero;stroke:none;stroke-width:0.862069"
       id="text128"><tspan
         x="0"
         y="0"
         id="tspan126"
         style="font-size:14.6552px;stroke-width:0.862069">0</tspan></text>
    <text
       xml:space="preserve"
       transform="matrix(1.16,0,0,-1.16,75.4348,54.267196)"
       style="font-variant:normal;font-weight:normal;font-size:14.6552px;font-family:'Tex Gyre Heros';-inkscape-font-specification:'Tex Gyre Heros';writing-mode:lr-tb;fill:#000000;fill-opacity:1;fill-rule:nonzero;stroke:none;stroke-width:0.862069"
       id="text132"><tspan
         x="0"
         y="0"
         id="tspan130"
         style="font-size:14.6552px;stroke-width:0.862069">2</tspan></text>
    <text
       xml:space="preserve"
       transform="matrix(1.16,0,0,-1.16,75.2782,89.774796)"
       style="font-variant:normal;font-weight:normal;font-size:14.6552px;font-family:'Tex Gyre Heros';-inkscape-font-specification:'Tex Gyre Heros';writing-mode:lr-tb;fill:#000000;fill-opacity:1;fill-rule:nonzero;stroke:none;stroke-width:0.862069"
       id="text136"><tspan
         x="0"
         y="0"
         id="tspan134"
         style="font-size:14.6552px;stroke-width:0.862069">4</tspan></text>
    <text
       xml:space="preserve"
       transform="matrix(1.16,0,0,-1.16,75.4,125.294)"
       style="font-variant:normal;font-weight:normal;font-size:14.6552px;font-family:'Tex Gyre Heros';-inkscape-font-specification:'Tex Gyre Heros';writing-mode:lr-tb;fill:#000000;fill-opacity:1;fill-rule:nonzero;stroke:none;stroke-width:0.862069"
       id="text140"><tspan
         x="0"
         y="0"
         id="tspan138"
         style="font-size:14.6552px;stroke-width:0.862069">6</tspan></text>
    <text
       xml:space="preserve"
       transform="matrix(1.16,0,0,-1.16,75.4,160.8016)"
       style="font-variant:normal;font-weight:normal;font-size:14.6552px;font-family:'Tex Gyre Heros';-inkscape-font-specification:'Tex Gyre Heros';writing-mode:lr-tb;fill:#000000;fill-opacity:1;fill-rule:nonzero;stroke:none;stroke-width:0.862069"
       id="text144"><tspan
         x="0"
         y="0"
         id="tspan142"
         style="font-size:14.6552px;stroke-width:0.862069">8</tspan></text>
    <text
       xml:space="preserve"
       transform="matrix(1.16,0,0,-1.16,65.83,196.3208)"
       style="font-variant:normal;font-weight:normal;font-size:14.6552px;font-family:'Tex Gyre Heros';-inkscape-font-specification:'Tex Gyre Heros';writing-mode:lr-tb;fill:#000000;fill-opacity:1;fill-rule:nonzero;stroke:none;stroke-width:0.862069"
       id="text148"><tspan
         sodipodi:role="line"
         id="tspan146"
         style="font-size:14.6552px;stroke-width:0.862069"
         x="0"
         y="0">10</tspan></text>
    <text
       xml:space="preserve"
       transform="matrix(1.16,0,0,-1.16,65.7604,231.8284)"
       style="font-variant:normal;font-weight:normal;font-size:14.6552px;font-family:'Tex Gyre Heros';-inkscape-font-specification:'Tex Gyre Heros';writing-mode:lr-tb;fill:#000000;fill-opacity:1;fill-rule:nonzero;stroke:none;stroke-width:0.862069"
       id="text152"><tspan
         sodipodi:role="line"
         id="tspan150"
         style="font-size:14.6552px;stroke-width:0.862069"
         x="0"
         y="0">12</tspan></text>
    <path
       d="m 81.07,70.28 0.89,0.73 0.89,0.72 0.89,0.72 0.89,0.72 0.89,0.73 0.89,0.72 0.89,0.72 0.89,0.73 0.88,0.72 0.89,0.72 0.89,0.72 0.89,0.73 0.89,0.72 0.89,0.72 0.89,0.73 0.89,0.72 0.89,0.72 0.89,0.72 0.89,0.73 0.89,0.72 0.88,0.72 0.89,0.73 0.89,0.72 0.89,0.72 0.89,0.72 0.89,0.73 0.89,0.72 0.89,0.72 0.89,0.73 0.89,0.72 0.89,0.72 0.89,0.72 0.88,0.73 0.89,0.72 0.89,0.72 0.89,0.73 0.89,0.72 0.89,0.72 0.89,0.72 0.89,0.73 0.89,0.72 0.89,0.72 0.89,0.73 0.89,0.72 0.88,0.72 0.89,0.72 0.89,0.73 0.89,0.72 0.89,0.72 0.89,0.73 0.89,0.72 0.89,0.72 0.89,0.72 0.89,0.73 0.89,0.72 0.89,0.72 0.88,0.73 0.89,0.72 0.89,0.72 0.89,0.72 0.89,0.73 0.89,0.72 0.89,0.72 0.89,0.73 0.89,0.72 0.89,0.72 0.89,0.72 0.89,0.73 0.88,0.72 0.89,0.72 0.89,0.73 0.89,0.72 0.89,0.72 0.89,0.72 0.89,0.73 0.89,0.72 0.89,0.72 0.89,0.73 0.89,0.72 0.88,0.72 0.89,0.73 0.89,0.72 0.89,0.72 0.89,0.72 0.89,0.73 0.89,0.72 0.89,0.72 0.89,0.73 0.89,0.72 0.89,0.72 0.89,0.72 0.88,0.73 0.89,0.72 0.89,0.72 0.89,0.73 0.89,0.72 0.89,0.72 0.89,0.72 0.89,0.73 0.89,0.72 0.89,0.72 0.89,0.73 0.89,0.72 0.88,0.72 0.89,0.72 0.89,0.73 0.89,0.72 0.89,0.72 0.89,0.73 0.89,0.72 0.89,0.72 0.89,0.72 0.89,0.73 0.89,0.72 0.89,0.72 0.88,0.73 0.89,0.72 0.89,0.72 0.89,0.72 0.89,0.73 0.89,0.72 0.89,0.72 0.89,0.73 0.89,0.72 0.89,0.72 0.89,0.72 0.89,0.73 0.88,0.72 0.89,0.72 0.89,0.73 0.89,0.72 0.89,0.72 0.89,0.72 0.89,0.73 0.89,0.72 0.89,0.72 0.89,0.73 0.89,0.72 0.89,0.72 0.88,0.72 0.89,0.73 0.89,0.72 0.89,0.72 0.89,0.73 0.89,0.72 0.89,0.72 0.89,0.72 0.89,0.73 0.89,0.72 0.89,0.72 0.89,0.73 0.88,0.72 0.89,0.72 0.89,0.72 0.89,0.73 0.89,0.72 0.89,0.72 0.89,0.73 0.89,0.72 0.89,0.72 0.89,0.72 0.89,0.73 0.88,0.72 0.89,0.72 0.89,0.73 0.89,0.72 0.89,0.72 0.89,0.72 0.89,0.73 0.89,0.72 0.89,0.72 0.89,0.73 0.89,0.72 0.89,0.72 0.88,0.72 0.89,0.73 0.89,0.72 0.89,0.72 0.89,0.73 0.89,0.72 0.89,0.72 0.89,0.72 0.89,0.73 0.89,0.72 0.89,0.72 0.89,0.73 0.88,0.72 0.89,0.72 0.89,0.72 0.89,0.73 0.89,0.72 0.89,0.72 0.89,0.73 0.89,0.72 0.89,0.72 0.89,0.72 0.89,0.73 0.89,0.72 0.88,0.72 0.89,0.73 0.89,0.72 0.89,0.72 0.89,0.72 0.89,0.73 0.89,0.72 0.89,0.72 0.89,0.73 0.89,0.72 0.89,0.72 0.89,0.72 0.88,0.73 0.89,0.72 0.89,0.72 0.89,0.73 0.89,0.72 0.89,0.72 0.89,0.72 0.89,0.73 0.89,0.72 0.89,0.72 0.89,0.73 0.89,0.72 0.88,0.72 0.89,0.72 0.89,0.73 0.89,0.72 0.89,0.72 0.89,0.73 0.89,0.72 0.89,0.72 0.89,0.72 0.89,0.73 0.89,0.72 0.89,0.72 0.88,0.73 0.89,0.72 0.89,0.72 0.89,0.72 0.89,0.73 0.89,0.72 0.89,0.72 0.89,0.73 0.89,0.72 0.89,0.72 0.89,0.72 0.89,0.73 0.88,0.72 0.89,0.72 0.89,0.73 0.89,0.72 0.89,0.72 0.89,0.72 0.89,0.73 0.89,0.72 0.89,0.72 0.89,0.73 0.89,0.72 0.88,0.72 0.89,0.72 0.89,0.73 0.89,0.72 0.89,0.72 0.89,0.73 0.89,0.72 0.89,0.72 0.89,0.72 0.89,0.73 0.89,0.72 0.89,0.72 0.88,0.73"
       style="fill:none;stroke:#ffcc00;stroke-width:1.72155;stroke-linecap:round;stroke-linejoin:round;stroke-miterlimit:10;stroke-dasharray:none;stroke-opacity:1"
       id="path162"
       transform="matrix(1.16,0,0,1.16,5.22,-45.353604)" />
    <path
       d="m 81.07,65.68 0.89,0.52 0.89,0.53 0.89,0.52 0.89,0.53 0.89,0.52 0.89,0.52 0.89,0.53 0.89,0.52 0.88,0.53 0.89,0.52 0.89,0.52 0.89,0.53 0.89,0.52 0.89,0.53 0.89,0.52 0.89,0.52 0.89,0.53 0.89,0.52 0.89,0.53 0.89,0.52 0.88,0.52 0.89,0.53 0.89,0.52 0.89,0.53 0.89,0.52 0.89,0.52 0.89,0.53 0.89,0.52 0.89,0.53 0.89,0.52 0.89,0.53 0.89,0.52 0.88,0.52 0.89,0.53 0.89,0.52 0.89,0.53 0.89,0.52 0.89,0.52 0.89,0.53 0.89,0.52 0.89,0.53 0.89,0.52 0.89,0.52 0.89,0.53 0.88,0.52 0.89,0.53 0.89,0.52 0.89,0.52 0.89,0.53 0.89,0.52 0.89,0.53 0.89,0.52 0.89,0.52 0.89,0.53 0.89,0.52 0.89,0.53 0.88,0.52 0.89,0.52 0.89,0.53 0.89,0.52 0.89,0.53 0.89,0.52 0.89,0.52 0.89,0.53 0.89,0.52 0.89,0.53 0.89,0.52 0.89,0.52 0.88,0.53 0.89,0.52 0.89,0.53 0.89,0.52 0.89,0.52 0.89,0.53 0.89,0.52 0.89,0.53 0.89,0.52 0.89,0.52 0.89,0.53 0.88,0.52 0.89,0.53 0.89,0.52 0.89,0.52 0.89,0.53 0.89,0.52 0.89,0.53 0.89,0.52 0.89,0.52 0.89,0.53 0.89,0.52 0.89,0.53 0.88,0.52 0.89,0.52 0.89,0.53 0.89,0.52 0.89,0.53 0.89,0.52 0.89,0.52 0.89,0.53 0.89,0.52 0.89,0.53 0.89,0.52 0.89,0.52 0.88,0.53 0.89,0.52 0.89,0.53 0.89,0.52 0.89,0.52 0.89,0.53 0.89,0.52 0.89,0.53 0.89,0.52 0.89,0.52 0.89,0.53 0.89,0.52 0.88,0.53 0.89,0.52 0.89,0.53 0.89,0.52 0.89,0.52 0.89,0.53 0.89,0.52 0.89,0.53 0.89,0.52 0.89,0.52 0.89,0.53 0.89,0.52 0.88,0.53 0.89,0.52 0.89,0.52 0.89,0.53 0.89,0.52 0.89,0.53 0.89,0.52 0.89,0.52 0.89,0.53 0.89,0.52 0.89,0.53 0.89,0.52 0.88,0.52 0.89,0.53 0.89,0.52 0.89,0.53 0.89,0.52 0.89,0.52 0.89,0.53 0.89,0.52 0.89,0.53 0.89,0.52 0.89,0.52 0.89,0.53 0.88,0.52 0.89,0.53 0.89,0.52 0.89,0.52 0.89,0.53 0.89,0.52 0.89,0.53 0.89,0.52 0.89,0.52 0.89,0.53 0.89,0.52 0.88,0.53 0.89,0.52 0.89,0.52 0.89,0.53 0.89,0.52 0.89,0.53 0.89,0.52 0.89,0.52 0.89,0.53 0.89,0.52 0.89,0.53 0.89,0.52 0.88,0.52 0.89,0.53 0.89,0.52 0.89,0.53 0.89,0.52 0.89,0.52 0.89,0.53 0.89,0.52 0.89,0.53 0.89,0.52 0.89,0.52 0.89,0.53 0.88,0.52 0.89,0.53 0.89,0.52 0.89,0.52 0.89,0.53 0.89,0.52 0.89,0.53 0.89,0.52 0.89,0.52 0.89,0.53 0.89,0.52 0.89,0.53 0.88,0.52 0.89,0.53 0.89,0.52 0.89,0.52 0.89,0.53 0.89,0.52 0.89,0.53 0.89,0.52 0.89,0.52 0.89,0.53 0.89,0.52 0.89,0.53 0.88,0.52 0.89,0.52 0.89,0.53 0.89,0.52 0.89,0.53 0.89,0.52 0.89,0.52 0.89,0.53 0.89,0.52 0.89,0.53 0.89,0.52 0.89,0.52 0.88,0.53 0.89,0.52 0.89,0.53 0.89,0.52 0.89,0.52 0.89,0.53 0.89,0.52 0.89,0.53 0.89,0.52 0.89,0.52 0.89,0.53 0.89,0.52 0.88,0.53 0.89,0.52 0.89,0.52 0.89,0.53 0.89,0.52 0.89,0.53 0.89,0.52 0.89,0.52 0.89,0.53 0.89,0.52 0.89,0.53 0.89,0.52 0.88,0.52 0.89,0.53 0.89,0.52 0.89,0.53 0.89,0.52 0.89,0.52 0.89,0.53 0.89,0.52 0.89,0.53 0.89,0.52 0.89,0.52 0.88,0.53 0.89,0.52 0.89,0.53 0.89,0.52 0.89,0.52 0.89,0.53 0.89,0.52 0.89,0.53 0.89,0.52 0.89,0.52 0.89,0.53 0.89,0.52 0.88,0.53"
       style="fill:none;stroke:#5599ff;stroke-width:1.72155;stroke-linecap:round;stroke-linejoin:round;stroke-miterlimit:10;stroke-dasharray:none;stroke-opacity:1"
       id="path164"
       transform="matrix(1.16,0,0,1.16,5.22,-45.353604)" />
    <path
       d="m 81.07,61.87 0.89,0.35 0.89,0.36 0.89,0.36 0.89,0.36 0.89,0.36 0.89,0.36 0.89,0.36 0.89,0.36 0.88,0.36 0.89,0.36 0.89,0.36 0.89,0.35 0.89,0.36 0.89,0.36 0.89,0.36 0.89,0.36 0.89,0.36 0.89,0.36 0.89,0.36 0.89,0.36 0.88,0.36 0.89,0.36 0.89,0.35 0.89,0.36 0.89,0.36 0.89,0.36 0.89,0.36 0.89,0.36 0.89,0.36 0.89,0.36 0.89,0.36 0.89,0.36 0.88,0.36 0.89,0.35 0.89,0.36 0.89,0.36 0.89,0.36 0.89,0.36 0.89,0.36 0.89,0.36 0.89,0.36 0.89,0.36 0.89,0.36 0.89,0.36 0.88,0.35 0.89,0.36 0.89,0.36 0.89,0.36 0.89,0.36 0.89,0.36 0.89,0.36 0.89,0.36 0.89,0.36 0.89,0.36 0.89,0.36 0.89,0.35 0.88,0.36 0.89,0.36 0.89,0.36 0.89,0.36 0.89,0.36 0.89,0.36 0.89,0.36 0.89,0.36 0.89,0.36 0.89,0.36 0.89,0.35 0.89,0.36 0.88,0.36 0.89,0.36 0.89,0.36 0.89,0.36 0.89,0.36 0.89,0.36 0.89,0.36 0.89,0.36 0.89,0.36 0.89,0.35 0.89,0.36 0.88,0.36 0.89,0.36 0.89,0.36 0.89,0.36 0.89,0.36 0.89,0.36 0.89,0.36 0.89,0.36 0.89,0.36 0.89,0.35 0.89,0.36 0.89,0.36 0.88,0.36 0.89,0.36 0.89,0.36 0.89,0.36 0.89,0.36 0.89,0.36 0.89,0.36 0.89,0.36 0.89,0.35 0.89,0.36 0.89,0.36 0.89,0.36 0.88,0.36 0.89,0.36 0.89,0.36 0.89,0.36 0.89,0.36 0.89,0.36 0.89,0.36 0.89,0.35 0.89,0.36 0.89,0.36 0.89,0.36 0.89,0.36 0.88,0.36 0.89,0.36 0.89,0.36 0.89,0.36 0.89,0.36 0.89,0.36 0.89,0.35 0.89,0.36 0.89,0.36 0.89,0.36 0.89,0.36 0.89,0.36 0.88,0.36 0.89,0.36 0.89,0.36 0.89,0.36 0.89,0.36 0.89,0.35 0.89,0.36 0.89,0.36 0.89,0.36 0.89,0.36 0.89,0.36 0.89,0.36 0.88,0.36 0.89,0.36 0.89,0.36 0.89,0.36 0.89,0.35 0.89,0.36 0.89,0.36 0.89,0.36 0.89,0.36 0.89,0.36 0.89,0.36 0.89,0.36 0.88,0.36 0.89,0.36 0.89,0.36 0.89,0.35 0.89,0.36 0.89,0.36 0.89,0.36 0.89,0.36 0.89,0.36 0.89,0.36 0.89,0.36 0.88,0.36 0.89,0.36 0.89,0.36 0.89,0.35 0.89,0.36 0.89,0.36 0.89,0.36 0.89,0.36 0.89,0.36 0.89,0.36 0.89,0.36 0.89,0.36 0.88,0.36 0.89,0.36 0.89,0.35 0.89,0.36 0.89,0.36 0.89,0.36 0.89,0.36 0.89,0.36 0.89,0.36 0.89,0.36 0.89,0.36 0.89,0.36 0.88,0.36 0.89,0.35 0.89,0.36 0.89,0.36 0.89,0.36 0.89,0.36 0.89,0.36 0.89,0.36 0.89,0.36 0.89,0.36 0.89,0.36 0.89,0.36 0.88,0.35 0.89,0.36 0.89,0.36 0.89,0.36 0.89,0.36 0.89,0.36 0.89,0.36 0.89,0.36 0.89,0.36 0.89,0.36 0.89,0.36 0.89,0.35 0.88,0.36 0.89,0.36 0.89,0.36 0.89,0.36 0.89,0.36 0.89,0.36 0.89,0.36 0.89,0.36 0.89,0.36 0.89,0.36 0.89,0.35 0.89,0.36 0.88,0.36 0.89,0.36 0.89,0.36 0.89,0.36 0.89,0.36 0.89,0.36 0.89,0.36 0.89,0.36 0.89,0.36 0.89,0.35 0.89,0.36 0.89,0.36 0.88,0.36 0.89,0.36 0.89,0.36 0.89,0.36 0.89,0.36 0.89,0.36 0.89,0.36 0.89,0.36 0.89,0.35 0.89,0.36 0.89,0.36 0.89,0.36 0.88,0.36 0.89,0.36 0.89,0.36 0.89,0.36 0.89,0.36 0.89,0.36 0.89,0.36 0.89,0.35 0.89,0.36 0.89,0.36 0.89,0.36 0.88,0.36 0.89,0.36 0.89,0.36 0.89,0.36 0.89,0.36 0.89,0.36 0.89,0.36 0.89,0.35 0.89,0.36 0.89,0.36 0.89,0.36 0.89,0.36 0.88,0.36"
       style="fill:none;stroke:#d40000;stroke-width:1.72155;stroke-linecap:round;stroke-linejoin:round;stroke-miterlimit:10;stroke-dasharray:none;stroke-opacity:1"
       id="path166"
       transform="matrix(1.16,0,0,1.16,5.22,-45.353604)" />
    <path
       d="m 81.07,58.85 0.89,0.22 0.89,0.23 0.89,0.23 0.89,0.22 0.89,0.23 0.89,0.23 0.89,0.22 0.89,0.23 0.88,0.23 0.89,0.23 0.89,0.22 0.89,0.23 0.89,0.23 0.89,0.22 0.89,0.23 0.89,0.23 0.89,0.22 0.89,0.23 0.89,0.23 0.89,0.22 0.88,0.23 0.89,0.23 0.89,0.23 0.89,0.22 0.89,0.23 0.89,0.23 0.89,0.22 0.89,0.23 0.89,0.23 0.89,0.22 0.89,0.23 0.89,0.23 0.88,0.23 0.89,0.22 0.89,0.23 0.89,0.23 0.89,0.22 0.89,0.23 0.89,0.23 0.89,0.22 0.89,0.23 0.89,0.23 0.89,0.22 0.89,0.23 0.88,0.23 0.89,0.23 0.89,0.22 0.89,0.23 0.89,0.23 0.89,0.22 0.89,0.23 0.89,0.23 0.89,0.22 0.89,0.23 0.89,0.23 0.89,0.23 0.88,0.22 0.89,0.23 0.89,0.23 0.89,0.22 0.89,0.23 0.89,0.23 0.89,0.22 0.89,0.23 0.89,0.23 0.89,0.23 0.89,0.22 0.89,0.23 0.88,0.23 0.89,0.22 0.89,0.23 0.89,0.23 0.89,0.22 0.89,0.23 0.89,0.23 0.89,0.22 0.89,0.23 0.89,0.23 0.89,0.23 0.88,0.22 0.89,0.23 0.89,0.23 0.89,0.22 0.89,0.23 0.89,0.23 0.89,0.22 0.89,0.23 0.89,0.23 0.89,0.23 0.89,0.22 0.89,0.23 0.88,0.23 0.89,0.22 0.89,0.23 0.89,0.23 0.89,0.22 0.89,0.23 0.89,0.23 0.89,0.23 0.89,0.22 0.89,0.23 0.89,0.23 0.89,0.22 0.88,0.23 0.89,0.23 0.89,0.22 0.89,0.23 0.89,0.23 0.89,0.22 0.89,0.23 0.89,0.23 0.89,0.23 0.89,0.22 0.89,0.23 0.89,0.23 0.88,0.22 0.89,0.23 0.89,0.23 0.89,0.22 0.89,0.23 0.89,0.23 0.89,0.23 0.89,0.22 0.89,0.23 0.89,0.23 0.89,0.22 0.89,0.23 0.88,0.23 0.89,0.22 0.89,0.23 0.89,0.23 0.89,0.22 0.89,0.23 0.89,0.23 0.89,0.23 0.89,0.22 0.89,0.23 0.89,0.23 0.89,0.22 0.88,0.23 0.89,0.23 0.89,0.22 0.89,0.23 0.89,0.23 0.89,0.23 0.89,0.22 0.89,0.23 0.89,0.23 0.89,0.22 0.89,0.23 0.89,0.23 0.88,0.22 0.89,0.23 0.89,0.23 0.89,0.23 0.89,0.22 0.89,0.23 0.89,0.23 0.89,0.22 0.89,0.23 0.89,0.23 0.89,0.22 0.88,0.23 0.89,0.23 0.89,0.22 0.89,0.23 0.89,0.23 0.89,0.23 0.89,0.22 0.89,0.23 0.89,0.23 0.89,0.22 0.89,0.23 0.89,0.23 0.88,0.22 0.89,0.23 0.89,0.23 0.89,0.23 0.89,0.22 0.89,0.23 0.89,0.23 0.89,0.22 0.89,0.23 0.89,0.23 0.89,0.22 0.89,0.23 0.88,0.23 0.89,0.23 0.89,0.22 0.89,0.23 0.89,0.23 0.89,0.22 0.89,0.23 0.89,0.23 0.89,0.22 0.89,0.23 0.89,0.23 0.89,0.22 0.88,0.23 0.89,0.23 0.89,0.23 0.89,0.22 0.89,0.23 0.89,0.23 0.89,0.22 0.89,0.23 0.89,0.23 0.89,0.22 0.89,0.23 0.89,0.23 0.88,0.23 0.89,0.22 0.89,0.23 0.89,0.23 0.89,0.22 0.89,0.23 0.89,0.23 0.89,0.22 0.89,0.23 0.89,0.23 0.89,0.23 0.89,0.22 0.88,0.23 0.89,0.23 0.89,0.22 0.89,0.23 0.89,0.23 0.89,0.22 0.89,0.23 0.89,0.23 0.89,0.22 0.89,0.23 0.89,0.23 0.89,0.23 0.88,0.22 0.89,0.23 0.89,0.23 0.89,0.22 0.89,0.23 0.89,0.23 0.89,0.22 0.89,0.23 0.89,0.23 0.89,0.23 0.89,0.22 0.89,0.23 0.88,0.23 0.89,0.22 0.89,0.23 0.89,0.23 0.89,0.22 0.89,0.23 0.89,0.23 0.89,0.22 0.89,0.23 0.89,0.23 0.89,0.23 0.88,0.22 0.89,0.23 0.89,0.23 0.89,0.22 0.89,0.23 0.89,0.23 0.89,0.22 0.89,0.23 0.89,0.23 0.89,0.23 0.89,0.22 0.89,0.23 0.88,0.23"
       style="fill:none;stroke:#000000;stroke-width:1.72155;stroke-linecap:round;stroke-linejoin:round;stroke-miterlimit:10;stroke-dasharray:none;stroke-opacity:1"
       id="path168"
       transform="matrix(1.16,0,0,1.16,5.22,-45.353604)" />
    <path
       d="m 81.07,64.8 0.89,0.46 0.89,0.47 0.89,0.46 0.89,0.47 0.89,0.46 0.89,0.47 0.89,0.46 0.89,0.46 0.88,0.47 0.89,0.46 0.89,0.47 0.89,0.46 0.89,0.47 0.89,0.46 0.89,0.46 0.89,0.47 0.89,0.46 0.89,0.47 0.89,0.46 0.89,0.47 0.88,0.46 0.89,0.47 0.89,0.46 0.89,0.46 0.89,0.47 0.89,0.46 0.89,0.47 0.89,0.46 0.89,0.47 0.89,0.46 0.89,0.47 0.89,0.46 0.88,0.46 0.89,0.47 0.89,0.46 0.89,0.47 0.89,0.46 0.89,0.47 0.89,0.46 0.89,0.46 0.89,0.47 0.89,0.46 0.89,0.47 0.89,0.46 0.88,0.47 0.89,0.46 0.89,0.47 0.89,0.46 0.89,0.46 0.89,0.47 0.89,0.46 0.89,0.47 0.89,0.46 0.89,0.47 0.89,0.46 0.89,0.47 0.88,0.46 0.89,0.46 0.89,0.47 0.89,0.46 0.89,0.47 0.89,0.46 0.89,0.47 0.89,0.46 0.89,0.46 0.89,0.47 0.89,0.46 0.89,0.47 0.88,0.46 0.89,0.47 0.89,0.46 0.89,0.47 0.89,0.46 0.89,0.46 0.89,0.47 0.89,0.46 0.89,0.47 0.89,0.46 0.89,0.47 0.88,0.46 0.89,0.47 0.89,0.46 0.89,0.46 0.89,0.47 0.89,0.46 0.89,0.47 0.89,0.46 0.89,0.47 0.89,0.46 0.89,0.46 0.89,0.47 0.88,0.46 0.89,0.47 0.89,0.46 0.89,0.47 0.89,0.46 0.89,0.47 0.89,0.46 0.89,0.46 0.89,0.47 0.89,0.46 0.89,0.47 0.89,0.46 0.88,0.47 0.89,0.46 0.89,0.47 0.89,0.46 0.89,0.46 0.89,0.47 0.89,0.46 0.89,0.47 0.89,0.46 0.89,0.47 0.89,0.46 0.89,0.46 0.88,0.47 0.89,0.46 0.89,0.47 0.89,0.46 0.89,0.47 0.89,0.46 0.89,0.47 0.89,0.46 0.89,0.46 0.89,0.47 0.89,0.46 0.89,0.47 0.88,0.46 0.89,0.47 0.89,0.46 0.89,0.47 0.89,0.46 0.89,0.46 0.89,0.47 0.89,0.46 0.89,0.47 0.89,0.46 0.89,0.47 0.89,0.46 0.88,0.46 0.89,0.47 0.89,0.46 0.89,0.47 0.89,0.46 0.89,0.47 0.89,0.46 0.89,0.47 0.89,0.46 0.89,0.46 0.89,0.47 0.89,0.46 0.88,0.47 0.89,0.46 0.89,0.47 0.89,0.46 0.89,0.47 0.89,0.46 0.89,0.46 0.89,0.47 0.89,0.46 0.89,0.47 0.89,0.46 0.88,0.47 0.89,0.46 0.89,0.46 0.89,0.47 0.89,0.46 0.89,0.47 0.89,0.46 0.89,0.47 0.89,0.46 0.89,0.47 0.89,0.46 0.89,0.46 0.88,0.47 0.89,0.46 0.89,0.47 0.89,0.46 0.89,0.47 0.89,0.46 0.89,0.47 0.89,0.46 0.89,0.46 0.89,0.47 0.89,0.46 0.89,0.47 0.88,0.46 0.89,0.47 0.89,0.46 0.89,0.46 0.89,0.47 0.89,0.46 0.89,0.47 0.89,0.46 0.89,0.47 0.89,0.46 0.89,0.47 0.89,0.46 0.88,0.46 0.89,0.47 0.89,0.46 0.89,0.47 0.89,0.46 0.89,0.47 0.89,0.46 0.89,0.46 0.89,0.47 0.89,0.46 0.89,0.47 0.89,0.46 0.88,0.47 0.89,0.46 0.89,0.47 0.89,0.46 0.89,0.46 0.89,0.47 0.89,0.46 0.89,0.47 0.89,0.46 0.89,0.47 0.89,0.46 0.89,0.47 0.88,0.46 0.89,0.46 0.89,0.47 0.89,0.46 0.89,0.47 0.89,0.46 0.89,0.47 0.89,0.46 0.89,0.46 0.89,0.47 0.89,0.46 0.89,0.47 0.88,0.46 0.89,0.47 0.89,0.46 0.89,0.47 0.89,0.46 0.89,0.46 0.89,0.47 0.89,0.46 0.89,0.47 0.89,0.46 0.89,0.47 0.89,0.46 0.88,0.47 0.89,0.46 0.89,0.46 0.89,0.47 0.89,0.46 0.89,0.47 0.89,0.46 0.89,0.47 0.89,0.46 0.89,0.46 0.89,0.47 0.88,0.46 0.89,0.47 0.89,0.46 0.89,0.47 0.89,0.46 0.89,0.47 0.89,0.46 0.89,0.46 0.89,0.47 0.89,0.46 0.89,0.47 0.89,0.46 0.88,0.47"
       style="fill:none;stroke:#754473;stroke-width:1.72155;stroke-linecap:round;stroke-linejoin:round;stroke-miterlimit:10;stroke-dasharray:none;stroke-opacity:1"
       id="path170"
       transform="matrix(1.16,0,0,1.16,5.22,-45.353604)" />
    <text
       xml:space="preserve"
       style="font-size:19px;line-height:1.15;font-family:sans-serif;letter-spacing:0px;word-spacing:0px;stroke-width:0.646552"
       x="245.38364"
       y="-7.0935583"
       id="text1830"
       transform="matrix(0,1.16,1.16,0,29.031967,-151.37613)"><tspan
         sodipodi:role="line"
         style="font-style:normal;font-variant:normal;font-weight:normal;font-stretch:normal;font-size:19px;font-family:'TeX Gyre Heros';-inkscape-font-specification:'TeX Gyre Heros';text-align:center;text-anchor:middle;stroke-width:0.646552"
         x="245.38364"
         y="-7.0935583"
         id="tspan1832">Relative ORF probability</tspan><tspan
         sodipodi:role="line"
         style="font-style:normal;font-variant:normal;font-weight:normal;font-stretch:normal;font-size:19px;font-family:'TeX Gyre Heros';-inkscape-font-specification:'TeX Gyre Heros';text-align:center;text-anchor:middle;stroke-width:0.646552"
         x="245.38364"
         y="15.216894"
         id="tspan1199"> log<tspan
   style="font-size:13px;baseline-shift:sub;stroke-width:0.646552"
   id="tspan1204">2</tspan>(antisense-F1/intergenic)</tspan></text>
    <g
       id="g2102"
       transform="matrix(1.16,0,0,1.16,0,-41.873604)"
       style="stroke-width:0.862069">
      <path
         style="fill:none;stroke:#000000;stroke-width:1.72522;stroke-linecap:butt;stroke-linejoin:miter;stroke-dasharray:none;stroke-opacity:1"
         d="M 514.80038,8.144388 534.2624,7.914438"
         id="path3548-7-3"
         sodipodi:nodetypes="cc"
         transform="translate(-403.13792,-56.246759)" />
      <text
         xml:space="preserve"
         style="font-size:19px;line-height:1.25;font-family:sans-serif;letter-spacing:0px;word-spacing:0px;stroke-width:0.646552"
         x="520.72925"
         y="54.277393"
         id="text4254"
         transform="matrix(1,0,0,-1,-387.52494,-0.6161292)"><tspan
           sodipodi:role="line"
           style="font-style:normal;font-variant:normal;font-weight:normal;font-stretch:normal;font-size:19px;font-family:'TeX Gyre Heros';-inkscape-font-specification:'TeX Gyre Heros';stroke-width:0.646552"
           x="520.72925"
           y="54.277393"
           id="tspan4252">Genomic est.</tspan></text>
    </g>
  </g>
</svg>
