<?xml version="1.0" encoding="UTF-8" standalone="no"?>
<!-- Created with Inkscape (http://www.inkscape.org/) -->

<svg
   version="1.1"
   id="svg3909"
   width="224.3446mm"
   height="110mm"
   viewBox="0 0 847.91661 415.74803"
   sodipodi:docname="pORFgain_antisense_scerWC.svg"
   inkscape:version="1.2 (dc2aeda, 2022-05-15)"
   xmlns:inkscape="http://www.inkscape.org/namespaces/inkscape"
   xmlns:sodipodi="http://sodipodi.sourceforge.net/DTD/sodipodi-0.dtd"
   xmlns="http://www.w3.org/2000/svg"
   xmlns:svg="http://www.w3.org/2000/svg">
  <defs
     id="defs3913">
    <clipPath
       clipPathUnits="userSpaceOnUse"
       id="clipPath3931">
      <path
         d="M 0,0 H 595.28 V 595.28 H 0 Z"
         id="path3929" />
    </clipPath>
    <clipPath
       clipPathUnits="userSpaceOnUse"
       id="clipPath3941">
      <path
         d="M 0,0 H 595.28 V 595.28 H 0 Z"
         id="path3939" />
    </clipPath>
    <clipPath
       clipPathUnits="userSpaceOnUse"
       id="clipPath4005">
      <path
         d="M 0,0 H 595.28 V 595.28 H 0 Z"
         id="path4003" />
    </clipPath>
    <clipPath
       clipPathUnits="userSpaceOnUse"
       id="clipPath4085">
      <path
         d="M 0,0 H 595.28 V 595.28 H 0 Z"
         id="path4083" />
    </clipPath>
  </defs>
  <sodipodi:namedview
     id="namedview3911"
     pagecolor="#ffffff"
     bordercolor="#666666"
     borderopacity="1.0"
     inkscape:showpageshadow="2"
     inkscape:pageopacity="0.0"
     inkscape:pagecheckerboard="0"
     inkscape:deskcolor="#d1d1d1"
     showgrid="false"
     inkscape:zoom="1.4234238"
     inkscape:cx="412.38596"
     inkscape:cy="198.46514"
     inkscape:current-layer="g3917"
     inkscape:document-units="mm">
    <inkscape:page
       x="0"
       y="0"
       id="page3915"
       width="847.91663"
       height="415.74805" />
  </sodipodi:namedview>
  <g
     id="g3917"
     inkscape:groupmode="layer"
     inkscape:label="Page 1"
     transform="matrix(1.3333333,0,0,-1.3333333,54.209951,265.12601)">
    <g
       id="g3925"
       transform="matrix(1.0682998,0,0,1.6296176,-40.657464,-112.96652)"
       style="stroke-width:0.757898">
      <g
         id="g3927"
         clip-path="url(#clipPath3931)"
         style="stroke-width:0.757898">
        <path
           d="M 0,0 H 595.28 V 191.34 H 0"
           style="fill:#ffffff;fill-opacity:1;fill-rule:evenodd;stroke:none;stroke-width:0.757898"
           id="path3933" />
      </g>
    </g>
    <g
       id="g3935"
       transform="translate(0,-34.840744)">
      <g
         id="g3937"
         clip-path="url(#clipPath3941)">
        <path
           d="M 50.97,22.71 H 186.61 V 179.53 H 50.97"
           style="fill:#ffffff;fill-opacity:1;fill-rule:evenodd;stroke:none"
           id="path3943" />
      </g>
    </g>
    <path
       d="M 78.51,22.71 V 179.53"
       style="fill:none;stroke:#000000;stroke-width:0.4991;stroke-linecap:round;stroke-linejoin:round;stroke-miterlimit:10;stroke-dasharray:none;stroke-opacity:0.0980392"
       id="path3945"
       transform="translate(0,-34.840744)" />
    <path
       d="M 116.42,22.71 V 179.53"
       style="fill:none;stroke:#000000;stroke-width:0.4991;stroke-linecap:round;stroke-linejoin:round;stroke-miterlimit:10;stroke-dasharray:none;stroke-opacity:0.0980392"
       id="path3947"
       transform="translate(0,-34.840744)" />
    <path
       d="M 154.34,22.71 V 179.53"
       style="fill:none;stroke:#000000;stroke-width:0.4991;stroke-linecap:round;stroke-linejoin:round;stroke-miterlimit:10;stroke-dasharray:none;stroke-opacity:0.0980392"
       id="path3949"
       transform="translate(0,-34.840744)" />
    <path
       d="M 50.97,22.71 H 186.61"
       style="fill:none;stroke:#000000;stroke-width:0.9982;stroke-linecap:round;stroke-linejoin:round;stroke-miterlimit:10;stroke-dasharray:none;stroke-opacity:1"
       id="path3951"
       transform="translate(0,-34.840744)" />
    <path
       d="M 50.97,179.53 H 186.61"
       style="fill:none;stroke:#000000;stroke-width:0.9982;stroke-linecap:round;stroke-linejoin:round;stroke-miterlimit:10;stroke-dasharray:none;stroke-opacity:1"
       id="path3953"
       transform="translate(0,-34.840744)" />
    <path
       d="m 78.51,22.71 v 4.73"
       style="fill:none;stroke:#000000;stroke-width:0.9982;stroke-linecap:round;stroke-linejoin:round;stroke-miterlimit:10;stroke-dasharray:none;stroke-opacity:1"
       id="path3955"
       transform="translate(0,-34.840744)" />
    <path
       d="m 116.42,22.71 v 4.73"
       style="fill:none;stroke:#000000;stroke-width:0.9982;stroke-linecap:round;stroke-linejoin:round;stroke-miterlimit:10;stroke-dasharray:none;stroke-opacity:1"
       id="path3957"
       transform="translate(0,-34.840744)" />
    <path
       d="m 154.34,22.71 v 4.73"
       style="fill:none;stroke:#000000;stroke-width:0.9982;stroke-linecap:round;stroke-linejoin:round;stroke-miterlimit:10;stroke-dasharray:none;stroke-opacity:1"
       id="path3959"
       transform="translate(0,-34.840744)" />
    <text
       xml:space="preserve"
       transform="matrix(1,0,0,-1,70.01,-30.250744)"
       style="font-variant:normal;font-weight:normal;font-size:15px;font-family:'Tex Gyre Heros';-inkscape-font-specification:'Tex Gyre Heros';writing-mode:lr-tb;fill:#000000;fill-opacity:1;fill-rule:nonzero;stroke:none"
       id="text3963"><tspan
         x="0 8.3400002"
         y="0"
         sodipodi:role="line"
         id="tspan3961">80</tspan></text>
    <text
       xml:space="preserve"
       transform="matrix(1,0,0,-1,103.92,-30.250744)"
       style="font-variant:normal;font-weight:normal;font-size:15px;font-family:'Tex Gyre Heros';-inkscape-font-specification:'Tex Gyre Heros';writing-mode:lr-tb;fill:#000000;fill-opacity:1;fill-rule:nonzero;stroke:none"
       id="text3967"><tspan
         x="0 8.3400002 16.68"
         y="0"
         sodipodi:role="line"
         id="tspan3965">160</tspan></text>
    <text
       xml:space="preserve"
       transform="matrix(1,0,0,-1,141.84,-30.250744)"
       style="font-variant:normal;font-weight:normal;font-size:15px;font-family:'Tex Gyre Heros';-inkscape-font-specification:'Tex Gyre Heros';writing-mode:lr-tb;fill:#000000;fill-opacity:1;fill-rule:nonzero;stroke:none"
       id="text3971"><tspan
         x="0 8.3400002 16.68"
         y="0"
         sodipodi:role="line"
         id="tspan3969">240</tspan></text>
    <path
       d="M 50.97,74.9 H 186.61"
       style="fill:none;stroke:#000000;stroke-width:0.4991;stroke-linecap:round;stroke-linejoin:round;stroke-miterlimit:10;stroke-dasharray:none;stroke-opacity:0.0980392"
       id="path3973"
       transform="translate(0,-34.840744)" />
    <path
       d="M 50.97,129.49 H 186.61"
       style="fill:none;stroke:#000000;stroke-width:0.4991;stroke-linecap:round;stroke-linejoin:round;stroke-miterlimit:10;stroke-dasharray:none;stroke-opacity:0.0980392"
       id="path3975"
       transform="translate(0,-34.840744)" />
    <path
       d="M 50.97,22.71 V 179.53"
       style="fill:none;stroke:#000000;stroke-width:0.9982;stroke-linecap:round;stroke-linejoin:round;stroke-miterlimit:10;stroke-dasharray:none;stroke-opacity:1"
       id="path3977"
       transform="translate(0,-34.840744)" />
    <path
       d="M 186.61,22.71 V 179.53"
       style="fill:none;stroke:#000000;stroke-width:0.9982;stroke-linecap:round;stroke-linejoin:round;stroke-miterlimit:10;stroke-dasharray:none;stroke-opacity:1"
       id="path3979"
       transform="translate(0,-34.840744)" />
    <path
       d="M 50.97,74.9 H 55.7"
       style="fill:none;stroke:#000000;stroke-width:0.9982;stroke-linecap:round;stroke-linejoin:round;stroke-miterlimit:10;stroke-dasharray:none;stroke-opacity:1"
       id="path3981"
       transform="translate(0,-34.840744)" />
    <path
       d="M 50.97,129.49 H 55.7"
       style="fill:none;stroke:#000000;stroke-width:0.9982;stroke-linecap:round;stroke-linejoin:round;stroke-miterlimit:10;stroke-dasharray:none;stroke-opacity:1"
       id="path3983"
       transform="translate(0,-34.840744)" />
    <text
       xml:space="preserve"
       transform="matrix(1,0,0,-1,12.91,34.559256)"
       style="font-variant:normal;font-weight:normal;font-size:15px;font-family:'Tex Gyre Heros';-inkscape-font-specification:'Tex Gyre Heros';writing-mode:lr-tb;fill:#000000;fill-opacity:1;fill-rule:nonzero;stroke:none"
       id="text3987"><tspan
         sodipodi:role="line"
         id="tspan3985"
         x="0"
         y="0">−0.6</tspan></text>
    <text
       xml:space="preserve"
       transform="matrix(1,0,0,-1,12.91,89.149256)"
       style="font-variant:normal;font-weight:normal;font-size:15px;font-family:'Tex Gyre Heros';-inkscape-font-specification:'Tex Gyre Heros';writing-mode:lr-tb;fill:#000000;fill-opacity:1;fill-rule:nonzero;stroke:none"
       id="text3991"><tspan
         sodipodi:role="line"
         id="tspan3989"
         x="0"
         y="0">−0.3</tspan></text>
    <path
       d="m 54.81,154.2 0.47,-0.22 0.48,-0.21 0.47,-0.19 0.48,-0.19 0.47,-0.19 0.47,-0.17 0.48,-0.17 0.47,-0.16 0.48,-0.15 0.47,-0.14 0.47,-0.14 0.48,-0.14 0.47,-0.12 0.48,-0.12 0.47,-0.12 0.47,-0.11 0.48,-0.1 0.47,-0.1 0.48,-0.09 0.47,-0.09 0.47,-0.08 0.48,-0.08 0.47,-0.08 0.48,-0.07 0.47,-0.06 0.47,-0.06 0.48,-0.06 0.47,-0.05 0.48,-0.05 0.47,-0.05 0.47,-0.04 0.48,-0.04 0.47,-0.03 0.48,-0.03 0.47,-0.03 0.47,-0.02 0.48,-0.02 0.47,-0.02 0.47,-0.02 0.48,-0.01 0.47,-0.01 h 0.48 l 0.47,-0.01 h 0.47 0.48 l 0.47,0.01 0.48,0.01 0.47,0.01 0.47,0.01 0.48,0.01 0.47,0.02 0.48,0.02 0.47,0.02 0.47,0.02 0.48,0.03 0.47,0.02 0.48,0.03 0.47,0.03 0.47,0.04 0.48,0.03 0.47,0.04 0.48,0.04 0.47,0.04 0.47,0.04 0.48,0.05 0.47,0.04 0.48,0.05 0.47,0.05 0.47,0.05 0.48,0.05 0.47,0.05 0.47,0.06 0.48,0.06 0.47,0.05 0.48,0.06 0.47,0.07 0.47,0.06 0.48,0.06 0.47,0.07 0.48,0.06 0.47,0.07 0.47,0.07 0.48,0.07 0.47,0.07 0.48,0.07 0.47,0.08 0.47,0.07 0.48,0.08 0.47,0.07 0.48,0.08 0.47,0.08 0.47,0.08 0.48,0.08 0.47,0.08 0.48,0.09 0.47,0.08 0.47,0.09 0.48,0.08 0.47,0.09 0.48,0.09 0.47,0.08 0.47,0.09 0.48,0.09 0.47,0.1 0.48,0.09 0.47,0.09 0.47,0.1 0.48,0.09 0.47,0.1 0.47,0.09 0.48,0.1 0.47,0.1 0.48,0.09 0.47,0.1 0.47,0.1 0.48,0.1 0.47,0.11 0.48,0.1 0.47,0.1 0.47,0.1 0.48,0.11 0.47,0.1 0.48,0.11 0.47,0.1 0.47,0.11 0.48,0.11 0.47,0.11 0.48,0.1 0.47,0.11 0.47,0.11 0.48,0.11 0.47,0.11 0.48,0.12 0.47,0.11 0.47,0.11 0.48,0.11 0.47,0.12 0.48,0.11 0.47,0.11 0.47,0.12 0.48,0.12 0.47,0.11 0.47,0.12 0.48,0.11 0.47,0.12 0.48,0.12 0.47,0.12 0.47,0.12 0.48,0.12 0.47,0.12 0.48,0.12 0.47,0.12 0.47,0.12 0.48,0.12 0.47,0.12 0.48,0.12 0.47,0.13 0.47,0.12 0.48,0.12 0.47,0.13 0.48,0.12 0.47,0.13 0.47,0.12 0.48,0.13 0.47,0.12 0.48,0.13 0.47,0.13 0.47,0.12 0.48,0.13 0.47,0.13 0.48,0.13 0.47,0.12 0.47,0.13 0.48,0.13 0.47,0.13 0.47,0.13 0.48,0.13 0.47,0.13 0.48,0.13 0.47,0.13 0.47,0.13 0.48,0.14 0.47,0.13 0.48,0.13 0.47,0.13 0.47,0.13 0.48,0.14 0.47,0.13 0.48,0.13 0.47,0.14 0.47,0.13 0.48,0.14 0.47,0.13 0.48,0.14 0.47,0.13 0.47,0.14 0.48,0.13 0.47,0.14 0.48,0.13 0.47,0.14 0.47,0.14 0.48,0.13 0.47,0.14 0.48,0.14 0.47,0.14 0.47,0.13 0.48,0.14 0.47,0.14 0.48,0.14 0.47,0.14 0.47,0.14 0.48,0.14 0.47,0.14 0.47,0.14 0.48,0.14 0.47,0.14 0.48,0.14 0.47,0.14 0.47,0.14 0.48,0.14 0.47,0.14 0.48,0.14 0.47,0.14 0.47,0.14 0.48,0.15 0.47,0.14 0.48,0.14 0.47,0.14 0.47,0.15 0.48,0.14 0.47,0.14 0.48,0.15 0.47,0.14 0.47,0.14 0.48,0.15 0.47,0.14 0.48,0.14 0.47,0.15 0.47,0.14 0.48,0.15 0.47,0.14 0.48,0.15 0.47,0.14 0.47,0.15 0.48,0.14 0.47,0.15 0.47,0.15 0.48,0.14 0.47,0.15 0.48,0.14 0.47,0.15 0.47,0.15 0.48,0.14 0.47,0.15 0.48,0.15 0.47,0.14 0.47,0.15 0.48,0.15 0.47,0.15 0.48,0.14 0.47,0.15 0.47,0.15 0.48,0.15 0.47,0.15 0.48,0.15 0.47,0.14 0.47,0.15 0.48,0.15 0.47,0.15 0.48,0.15"
       style="fill:none;stroke:#000000;stroke-width:1.996;stroke-linecap:round;stroke-linejoin:round;stroke-miterlimit:10;stroke-dasharray:none;stroke-opacity:1"
       id="path3993"
       transform="translate(0,-34.840744)" />
    <path
       d="m 54.81,72.75 0.47,-0.4 0.48,-0.4 0.47,-0.38 0.48,-0.37 0.47,-0.36 0.47,-0.35 0.48,-0.33 0.47,-0.33 0.48,-0.32 0.47,-0.3 0.47,-0.3 0.48,-0.29 0.47,-0.27 0.48,-0.27 0.47,-0.26 0.47,-0.26 0.48,-0.24 0.47,-0.24 0.48,-0.23 0.47,-0.22 0.47,-0.22 0.48,-0.2 0.47,-0.2 0.48,-0.2 0.47,-0.19 0.47,-0.18 0.48,-0.17 0.47,-0.17 0.48,-0.17 0.47,-0.16 0.47,-0.15 0.48,-0.15 0.47,-0.14 0.48,-0.13 0.47,-0.14 0.47,-0.12 0.48,-0.13 0.47,-0.11 0.47,-0.12 0.48,-0.11 0.47,-0.1 0.48,-0.1 0.47,-0.1 0.47,-0.09 0.48,-0.09 0.47,-0.08 0.48,-0.08 0.47,-0.08 0.47,-0.07 0.48,-0.07 0.47,-0.07 0.48,-0.06 0.47,-0.06 0.47,-0.06 0.48,-0.05 0.47,-0.05 0.48,-0.05 0.47,-0.04 0.47,-0.04 0.48,-0.04 0.47,-0.04 0.48,-0.03 0.47,-0.03 0.47,-0.03 0.48,-0.02 0.47,-0.02 0.48,-0.02 0.47,-0.02 0.47,-0.01 0.48,-0.02 0.47,-0.01 h 0.47 l 0.48,-0.01 h 0.47 l 0.48,-0.01 0.47,0.01 h 0.47 0.48 l 0.47,0.01 0.48,0.01 0.47,0.01 0.47,0.01 0.48,0.02 0.47,0.01 0.48,0.02 0.47,0.02 0.47,0.02 0.48,0.02 0.47,0.03 0.48,0.03 0.47,0.02 0.47,0.03 0.48,0.03 0.47,0.04 0.48,0.03 0.47,0.04 0.47,0.03 0.48,0.04 0.47,0.04 0.48,0.04 0.47,0.05 0.47,0.04 0.48,0.05 0.47,0.04 0.48,0.05 0.47,0.05 0.47,0.05 0.48,0.05 0.47,0.06 0.47,0.05 0.48,0.06 0.47,0.05 0.48,0.06 0.47,0.06 0.47,0.06 0.48,0.06 0.47,0.06 0.48,0.07 0.47,0.06 0.47,0.07 0.48,0.06 0.47,0.07 0.48,0.07 0.47,0.07 0.47,0.07 0.48,0.07 0.47,0.07 0.48,0.07 0.47,0.08 0.47,0.07 0.48,0.08 0.47,0.08 0.48,0.07 0.47,0.08 0.47,0.08 0.48,0.08 0.47,0.08 0.48,0.08 0.47,0.09 0.47,0.08 0.48,0.08 0.47,0.09 0.47,0.08 0.48,0.09 0.47,0.09 0.48,0.08 0.47,0.09 0.47,0.09 0.48,0.09 0.47,0.09 0.48,0.09 0.47,0.09 0.47,0.1 0.48,0.09 0.47,0.09 0.48,0.1 0.47,0.09 0.47,0.1 0.48,0.09 0.47,0.1 0.48,0.1 0.47,0.1 0.47,0.1 0.48,0.09 0.47,0.1 0.48,0.1 0.47,0.11 0.47,0.1 0.48,0.1 0.47,0.1 0.48,0.1 0.47,0.11 0.47,0.1 0.48,0.11 0.47,0.1 0.47,0.11 0.48,0.1 0.47,0.11 0.48,0.11 0.47,0.11 0.47,0.1 0.48,0.11 0.47,0.11 0.48,0.11 0.47,0.11 0.47,0.11 0.48,0.11 0.47,0.11 0.48,0.12 0.47,0.11 0.47,0.11 0.48,0.11 0.47,0.12 0.48,0.11 0.47,0.11 0.47,0.12 0.48,0.11 0.47,0.12 0.48,0.12 0.47,0.11 0.47,0.12 0.48,0.12 0.47,0.11 0.48,0.12 0.47,0.12 0.47,0.12 0.48,0.12 0.47,0.12 0.48,0.12 0.47,0.12 0.47,0.12 0.48,0.12 0.47,0.12 0.47,0.12 0.48,0.12 0.47,0.12 0.48,0.12 0.47,0.13 0.47,0.12 0.48,0.12 0.47,0.13 0.48,0.12 0.47,0.12 0.47,0.13 0.48,0.12 0.47,0.13 0.48,0.12 0.47,0.13 0.47,0.13 0.48,0.12 0.47,0.13 0.48,0.13 0.47,0.12 0.47,0.13 0.48,0.13 0.47,0.13 0.48,0.12 0.47,0.13 0.47,0.13 0.48,0.13 0.47,0.13 0.48,0.13 0.47,0.13 0.47,0.13 0.48,0.13 0.47,0.13 0.47,0.13 0.48,0.13 0.47,0.13 0.48,0.13 0.47,0.14 0.47,0.13 0.48,0.13 0.47,0.13 0.48,0.13 0.47,0.14 0.47,0.13 0.48,0.13 0.47,0.14 0.48,0.13 0.47,0.14 0.47,0.13 0.48,0.13 0.47,0.14 0.48,0.13 0.47,0.14 0.47,0.13 0.48,0.14 0.47,0.14 0.48,0.13"
       style="fill:none;stroke:#000000;stroke-width:1.996;stroke-linecap:round;stroke-linejoin:round;stroke-miterlimit:10;stroke-dasharray:16, 10;stroke-dashoffset:0;stroke-opacity:1"
       id="path3995"
       transform="translate(0,-34.840744)" />
    <path
       d="m 54.81,49.62 0.47,-0.64 0.48,-0.62 0.47,-0.61 0.48,-0.59 0.47,-0.58 0.47,-0.56 0.48,-0.54 0.47,-0.54 0.48,-0.51 0.47,-0.51 0.47,-0.49 0.48,-0.48 0.47,-0.47 0.48,-0.45 0.47,-0.44 0.47,-0.43 0.48,-0.43 0.47,-0.4 0.48,-0.4 0.47,-0.39 0.47,-0.38 0.48,-0.37 0.47,-0.36 0.48,-0.35 0.47,-0.35 0.47,-0.33 0.48,-0.33 0.47,-0.31 0.48,-0.31 0.47,-0.3 0.47,-0.3 0.48,-0.28 0.47,-0.28 0.48,-0.27 0.47,-0.27 0.47,-0.26 0.48,-0.25 0.47,-0.24 0.47,-0.24 0.48,-0.23 0.47,-0.23 0.48,-0.22 0.47,-0.22 0.47,-0.2 0.48,-0.21 0.47,-0.2 0.48,-0.19 0.47,-0.19 0.47,-0.18 0.48,-0.18 0.47,-0.17 0.48,-0.17 0.47,-0.16 0.47,-0.16 0.48,-0.15 0.47,-0.15 0.48,-0.15 0.47,-0.14 0.47,-0.14 0.48,-0.13 0.47,-0.13 0.48,-0.13 0.47,-0.12 0.47,-0.12 0.48,-0.11 0.47,-0.11 0.48,-0.11 0.47,-0.1 0.47,-0.1 0.48,-0.1 0.47,-0.09 0.47,-0.09 0.48,-0.09 0.47,-0.09 0.48,-0.08 0.47,-0.07 0.47,-0.08 0.48,-0.07 0.47,-0.07 0.48,-0.07 0.47,-0.06 0.47,-0.06 0.48,-0.06 0.47,-0.06 0.48,-0.05 0.47,-0.05 0.47,-0.05 0.48,-0.05 0.47,-0.04 0.48,-0.04 0.47,-0.04 0.47,-0.04 0.48,-0.03 0.47,-0.03 0.48,-0.03 0.47,-0.03 0.47,-0.03 0.48,-0.02 0.47,-0.02 0.48,-0.02 0.47,-0.02 0.47,-0.02 0.48,-0.01 0.47,-0.01 0.48,-0.01 0.47,-0.01 0.47,-0.01 H 106 l 0.47,-0.01 h 0.47 0.48 0.47 l 0.48,0.01 h 0.47 l 0.47,0.01 0.48,0.01 0.47,0.01 0.48,0.01 0.47,0.01 0.47,0.02 0.48,0.01 0.47,0.02 0.48,0.02 0.47,0.02 0.47,0.02 0.48,0.03 0.47,0.02 0.48,0.03 0.47,0.02 0.47,0.03 0.48,0.03 0.47,0.03 0.48,0.03 0.47,0.04 0.47,0.03 0.48,0.04 0.47,0.03 0.48,0.04 0.47,0.04 0.47,0.04 0.48,0.04 0.47,0.05 0.47,0.04 0.48,0.05 0.47,0.04 0.48,0.05 0.47,0.05 0.47,0.05 0.48,0.05 0.47,0.05 0.48,0.05 0.47,0.05 0.47,0.06 0.48,0.05 0.47,0.06 0.48,0.05 0.47,0.06 0.47,0.06 0.48,0.06 0.47,0.06 0.48,0.06 0.47,0.06 0.47,0.07 0.48,0.06 0.47,0.06 0.48,0.07 0.47,0.07 0.47,0.06 0.48,0.07 0.47,0.07 0.48,0.07 0.47,0.07 0.47,0.07 0.48,0.07 0.47,0.07 0.47,0.08 0.48,0.07 0.47,0.08 0.48,0.07 0.47,0.08 0.47,0.08 0.48,0.07 0.47,0.08 0.48,0.08 0.47,0.08 0.47,0.08 0.48,0.08 0.47,0.08 0.48,0.08 0.47,0.09 0.47,0.08 0.48,0.08 0.47,0.09 0.48,0.08 0.47,0.09 0.47,0.09 0.48,0.08 0.47,0.09 0.48,0.09 0.47,0.09 0.47,0.09 0.48,0.09 0.47,0.09 0.48,0.09 0.47,0.09 0.47,0.09 0.48,0.1 0.47,0.09 0.48,0.09 0.47,0.1 0.47,0.09 0.48,0.1 0.47,0.09 0.47,0.1 0.48,0.1 0.47,0.09 0.48,0.1 0.47,0.1 0.47,0.1 0.48,0.1 0.47,0.1 0.48,0.1 0.47,0.1 0.47,0.1 0.48,0.1 0.47,0.1 0.48,0.1 0.47,0.1 0.47,0.11 0.48,0.1 0.47,0.11 0.48,0.1 0.47,0.1 0.47,0.11 0.48,0.11 0.47,0.1 0.48,0.11 0.47,0.1 0.47,0.11 0.48,0.11 0.47,0.11 0.48,0.11 0.47,0.1 0.47,0.11 0.48,0.11 0.47,0.11 0.47,0.11 0.48,0.11 0.47,0.11 0.48,0.12 0.47,0.11 0.47,0.11 0.48,0.11 0.47,0.11 0.48,0.12 0.47,0.11 0.47,0.11 0.48,0.12 0.47,0.11 0.48,0.12 0.47,0.11 0.47,0.12 0.48,0.11 0.47,0.12 0.48,0.12 0.47,0.11 0.47,0.12 0.48,0.12 0.47,0.11 0.48,0.12"
       style="fill:none;stroke:#000000;stroke-width:1.996;stroke-linecap:round;stroke-linejoin:round;stroke-miterlimit:10;stroke-dasharray:2, 4;stroke-dashoffset:0;stroke-opacity:1"
       id="path3997"
       transform="translate(0,-34.840744)" />
    <g
       id="g3999"
       transform="translate(0,-34.840744)">
      <g
         id="g4001"
         clip-path="url(#clipPath4005)">
        <path
           d="M 249.4,22.71 H 385.04 V 179.53 H 249.4"
           style="fill:#ffffff;fill-opacity:1;fill-rule:evenodd;stroke:none"
           id="path4007" />
      </g>
    </g>
    <path
       d="M 276.93,22.71 V 179.53"
       style="fill:none;stroke:#000000;stroke-width:0.4991;stroke-linecap:round;stroke-linejoin:round;stroke-miterlimit:10;stroke-dasharray:none;stroke-opacity:0.0980392"
       id="path4009"
       transform="translate(0,-34.840744)" />
    <path
       d="M 314.85,22.71 V 179.53"
       style="fill:none;stroke:#000000;stroke-width:0.4991;stroke-linecap:round;stroke-linejoin:round;stroke-miterlimit:10;stroke-dasharray:none;stroke-opacity:0.0980392"
       id="path4011"
       transform="translate(0,-34.840744)" />
    <path
       d="M 352.76,22.71 V 179.53"
       style="fill:none;stroke:#000000;stroke-width:0.4991;stroke-linecap:round;stroke-linejoin:round;stroke-miterlimit:10;stroke-dasharray:none;stroke-opacity:0.0980392"
       id="path4013"
       transform="translate(0,-34.840744)" />
    <path
       d="M 249.4,22.71 H 385.04"
       style="fill:none;stroke:#000000;stroke-width:0.9982;stroke-linecap:round;stroke-linejoin:round;stroke-miterlimit:10;stroke-dasharray:none;stroke-opacity:1"
       id="path4015"
       transform="translate(0,-34.840744)" />
    <path
       d="M 249.4,179.53 H 385.04"
       style="fill:none;stroke:#000000;stroke-width:0.9982;stroke-linecap:round;stroke-linejoin:round;stroke-miterlimit:10;stroke-dasharray:none;stroke-opacity:1"
       id="path4017"
       transform="translate(0,-34.840744)" />
    <path
       d="m 276.93,22.71 v 4.73"
       style="fill:none;stroke:#000000;stroke-width:0.9982;stroke-linecap:round;stroke-linejoin:round;stroke-miterlimit:10;stroke-dasharray:none;stroke-opacity:1"
       id="path4019"
       transform="translate(0,-34.840744)" />
    <path
       d="m 314.85,22.71 v 4.73"
       style="fill:none;stroke:#000000;stroke-width:0.9982;stroke-linecap:round;stroke-linejoin:round;stroke-miterlimit:10;stroke-dasharray:none;stroke-opacity:1"
       id="path4021"
       transform="translate(0,-34.840744)" />
    <path
       d="m 352.76,22.71 v 4.73"
       style="fill:none;stroke:#000000;stroke-width:0.9982;stroke-linecap:round;stroke-linejoin:round;stroke-miterlimit:10;stroke-dasharray:none;stroke-opacity:1"
       id="path4023"
       transform="translate(0,-34.840744)" />
    <text
       xml:space="preserve"
       transform="matrix(1,0,0,-1,268.43,-30.250744)"
       style="font-variant:normal;font-weight:normal;font-size:15px;font-family:'Tex Gyre Heros';-inkscape-font-specification:'Tex Gyre Heros';writing-mode:lr-tb;fill:#000000;fill-opacity:1;fill-rule:nonzero;stroke:none"
       id="text4027"><tspan
         x="0 8.3400002"
         y="0"
         sodipodi:role="line"
         id="tspan4025">80</tspan></text>
    <text
       xml:space="preserve"
       transform="matrix(1,0,0,-1,302.35,-30.250744)"
       style="font-variant:normal;font-weight:normal;font-size:15px;font-family:'Tex Gyre Heros';-inkscape-font-specification:'Tex Gyre Heros';writing-mode:lr-tb;fill:#000000;fill-opacity:1;fill-rule:nonzero;stroke:none"
       id="text4031"><tspan
         x="0 8.3400002 16.68"
         y="0"
         sodipodi:role="line"
         id="tspan4029">160</tspan></text>
    <text
       xml:space="preserve"
       transform="matrix(1,0,0,-1,340.26,-30.250744)"
       style="font-variant:normal;font-weight:normal;font-size:15px;font-family:'Tex Gyre Heros';-inkscape-font-specification:'Tex Gyre Heros';writing-mode:lr-tb;fill:#000000;fill-opacity:1;fill-rule:nonzero;stroke:none"
       id="text4035"><tspan
         x="0 8.3400002 16.68"
         y="0"
         sodipodi:role="line"
         id="tspan4033">240</tspan></text>
    <path
       d="M 249.4,27.37 H 385.04"
       style="fill:none;stroke:#000000;stroke-width:0.4991;stroke-linecap:round;stroke-linejoin:round;stroke-miterlimit:10;stroke-dasharray:none;stroke-opacity:0.0980392"
       id="path4037"
       transform="translate(0,-34.840744)" />
    <path
       d="M 249.4,75.95 H 385.04"
       style="fill:none;stroke:#000000;stroke-width:0.4991;stroke-linecap:round;stroke-linejoin:round;stroke-miterlimit:10;stroke-dasharray:none;stroke-opacity:0.0980392"
       id="path4039"
       transform="translate(0,-34.840744)" />
    <path
       d="M 249.4,126.21 H 385.04"
       style="fill:none;stroke:#000000;stroke-width:0.4991;stroke-linecap:round;stroke-linejoin:round;stroke-miterlimit:10;stroke-dasharray:none;stroke-opacity:0.0980392"
       id="path4041"
       transform="translate(0,-34.840744)" />
    <path
       d="M 249.4,174.79 H 385.04"
       style="fill:none;stroke:#000000;stroke-width:0.4991;stroke-linecap:round;stroke-linejoin:round;stroke-miterlimit:10;stroke-dasharray:none;stroke-opacity:0.0980392"
       id="path4043"
       transform="translate(0,-34.840744)" />
    <path
       d="M 249.4,22.71 V 179.53"
       style="fill:none;stroke:#000000;stroke-width:0.9982;stroke-linecap:round;stroke-linejoin:round;stroke-miterlimit:10;stroke-dasharray:none;stroke-opacity:1"
       id="path4045"
       transform="translate(0,-34.840744)" />
    <path
       d="M 385.04,22.71 V 179.53"
       style="fill:none;stroke:#000000;stroke-width:0.9982;stroke-linecap:round;stroke-linejoin:round;stroke-miterlimit:10;stroke-dasharray:none;stroke-opacity:1"
       id="path4047"
       transform="translate(0,-34.840744)" />
    <path
       d="m 249.4,27.37 h 4.72"
       style="fill:none;stroke:#000000;stroke-width:0.9982;stroke-linecap:round;stroke-linejoin:round;stroke-miterlimit:10;stroke-dasharray:none;stroke-opacity:1"
       id="path4049"
       transform="translate(0,-34.840744)" />
    <path
       d="m 249.4,75.95 h 4.72"
       style="fill:none;stroke:#000000;stroke-width:0.9982;stroke-linecap:round;stroke-linejoin:round;stroke-miterlimit:10;stroke-dasharray:none;stroke-opacity:1"
       id="path4051"
       transform="translate(0,-34.840744)" />
    <path
       d="m 249.4,126.21 h 4.72"
       style="fill:none;stroke:#000000;stroke-width:0.9982;stroke-linecap:round;stroke-linejoin:round;stroke-miterlimit:10;stroke-dasharray:none;stroke-opacity:1"
       id="path4053"
       transform="translate(0,-34.840744)" />
    <path
       d="m 249.4,174.79 h 4.72"
       style="fill:none;stroke:#000000;stroke-width:0.9982;stroke-linecap:round;stroke-linejoin:round;stroke-miterlimit:10;stroke-dasharray:none;stroke-opacity:1"
       id="path4055"
       transform="translate(0,-34.840744)" />
    <text
       xml:space="preserve"
       transform="matrix(1,0,0,-1,211.33,-12.970744)"
       style="font-variant:normal;font-weight:normal;font-size:15px;font-family:'Tex Gyre Heros';-inkscape-font-specification:'Tex Gyre Heros';writing-mode:lr-tb;fill:#000000;fill-opacity:1;fill-rule:nonzero;stroke:none"
       id="text4059"><tspan
         sodipodi:role="line"
         id="tspan4057"
         x="0"
         y="0">−0.8</tspan></text>
    <text
       xml:space="preserve"
       transform="matrix(1,0,0,-1,219.51,35.609256)"
       style="font-variant:normal;font-weight:normal;font-size:15px;font-family:'Tex Gyre Heros';-inkscape-font-specification:'Tex Gyre Heros';writing-mode:lr-tb;fill:#000000;fill-opacity:1;fill-rule:nonzero;stroke:none"
       id="text4063"><tspan
         x="0 8.3400002 12.51"
         y="0"
         sodipodi:role="line"
         id="tspan4061">2.1</tspan></text>
    <text
       xml:space="preserve"
       transform="matrix(1,0,0,-1,219.51,85.869256)"
       style="font-variant:normal;font-weight:normal;font-size:15px;font-family:'Tex Gyre Heros';-inkscape-font-specification:'Tex Gyre Heros';writing-mode:lr-tb;fill:#000000;fill-opacity:1;fill-rule:nonzero;stroke:none"
       id="text4067"><tspan
         x="0 8.3400002 12.51"
         y="0"
         sodipodi:role="line"
         id="tspan4065">5.1</tspan></text>
    <text
       xml:space="preserve"
       transform="matrix(1,0,0,-1,219.51,134.44926)"
       style="font-variant:normal;font-weight:normal;font-size:15px;font-family:'Tex Gyre Heros';-inkscape-font-specification:'Tex Gyre Heros';writing-mode:lr-tb;fill:#000000;fill-opacity:1;fill-rule:nonzero;stroke:none"
       id="text4071"><tspan
         x="0 8.3400002 12.51"
         y="0"
         sodipodi:role="line"
         id="tspan4069">8.0</tspan></text>
    <path
       d="m 253.24,40.8 0.47,0.47 0.47,0.46 0.48,0.47 0.47,0.47 0.48,0.46 0.47,0.47 0.47,0.47 0.48,0.47 0.47,0.47 0.48,0.48 0.47,0.47 0.47,0.47 0.48,0.48 0.47,0.47 0.48,0.48 0.47,0.47 0.47,0.48 0.48,0.48 0.47,0.47 0.48,0.48 0.47,0.48 0.47,0.48 0.48,0.48 0.47,0.48 0.48,0.48 0.47,0.48 0.47,0.49 0.48,0.48 0.47,0.48 0.47,0.49 0.48,0.48 0.47,0.48 0.48,0.49 0.47,0.48 0.47,0.49 0.48,0.48 0.47,0.49 0.48,0.49 0.47,0.48 0.47,0.49 0.48,0.49 0.47,0.49 0.48,0.48 0.47,0.49 0.47,0.49 0.48,0.49 0.47,0.49 0.48,0.49 0.47,0.49 0.47,0.49 0.48,0.49 0.47,0.49 0.48,0.49 0.47,0.49 0.47,0.49 0.48,0.49 0.47,0.5 0.48,0.49 0.47,0.49 0.47,0.49 0.48,0.5 0.47,0.49 0.47,0.49 0.48,0.49 0.47,0.5 0.48,0.49 0.47,0.5 0.47,0.49 0.48,0.49 0.47,0.5 0.48,0.49 0.47,0.5 0.47,0.49 0.48,0.5 0.47,0.49 0.48,0.5 0.47,0.49 0.47,0.5 0.48,0.5 0.47,0.49 0.48,0.5 0.47,0.49 0.47,0.5 0.48,0.5 0.47,0.49 0.48,0.5 0.47,0.5 0.47,0.5 0.48,0.49 0.47,0.5 0.48,0.5 0.47,0.5 0.47,0.49 0.48,0.5 0.47,0.5 0.48,0.5 0.47,0.49 0.47,0.5 0.48,0.5 0.47,0.5 0.47,0.5 0.48,0.5 0.47,0.5 0.48,0.5 0.47,0.49 0.47,0.5 0.48,0.5 0.47,0.5 0.48,0.5 0.47,0.5 0.47,0.5 0.48,0.5 0.47,0.5 0.48,0.5 0.47,0.5 0.47,0.5 0.48,0.5 0.47,0.5 0.48,0.5 0.47,0.5 0.47,0.5 0.48,0.5 0.47,0.5 0.48,0.5 0.47,0.5 0.47,0.5 0.48,0.5 0.47,0.51 0.48,0.5 0.47,0.5 0.47,0.5 0.48,0.5 0.47,0.5 0.47,0.5 0.48,0.5 0.47,0.5 0.48,0.51 0.47,0.5 0.47,0.5 0.48,0.5 0.47,0.5 0.48,0.5 0.47,0.51 0.47,0.5 0.48,0.5 0.47,0.5 0.48,0.5 0.47,0.51 0.47,0.5 0.48,0.5 0.47,0.5 0.48,0.5 0.47,0.51 0.47,0.5 0.48,0.5 0.47,0.5 0.48,0.51 0.47,0.5 0.47,0.5 0.48,0.5 0.47,0.51 0.48,0.5 0.47,0.5 0.47,0.51 0.48,0.5 0.47,0.5 0.47,0.5 0.48,0.51 0.47,0.5 0.48,0.5 0.47,0.51 0.47,0.5 0.48,0.5 0.47,0.51 0.48,0.5 0.47,0.5 0.47,0.51 0.48,0.5 0.47,0.5 0.48,0.51 0.47,0.5 0.47,0.5 0.48,0.51 0.47,0.5 0.48,0.51 0.47,0.5 0.47,0.5 0.48,0.51 0.47,0.5 0.48,0.5 0.47,0.51 0.47,0.5 0.48,0.51 0.47,0.5 0.48,0.5 0.47,0.51 0.47,0.5 0.48,0.51 0.47,0.5 0.48,0.5 0.47,0.51 0.47,0.5 0.48,0.51 0.47,0.5 0.47,0.5 0.48,0.51 0.47,0.5 0.48,0.51 0.47,0.5 0.47,0.51 0.48,0.5 0.47,0.51 0.48,0.5 0.47,0.5 0.47,0.51 0.48,0.5 0.47,0.51 0.48,0.5 0.47,0.51 0.47,0.5 0.48,0.51 0.47,0.5 0.48,0.51 0.47,0.5 0.47,0.51 0.48,0.5 0.47,0.5 0.48,0.51 0.47,0.5 0.47,0.51 0.48,0.5 0.47,0.51 0.48,0.5 0.47,0.51 0.47,0.5 0.48,0.51 0.47,0.5 0.47,0.51 0.48,0.5 0.47,0.51 0.48,0.5 0.47,0.51 0.47,0.5 0.48,0.51 0.47,0.5 0.48,0.51 0.47,0.51 0.47,0.5 0.48,0.51 0.47,0.5 0.48,0.51 0.47,0.5 0.47,0.51 0.48,0.5 0.47,0.51 0.48,0.5 0.47,0.51 0.47,0.5 0.48,0.51 0.47,0.5 0.48,0.51 0.47,0.51 0.47,0.5 0.48,0.51 0.47,0.5 0.48,0.51 0.47,0.5 0.47,0.51 0.48,0.5 0.47,0.51"
       style="fill:none;stroke:#000000;stroke-width:1.996;stroke-linecap:round;stroke-linejoin:round;stroke-miterlimit:10;stroke-dasharray:none;stroke-opacity:1"
       id="path4073"
       transform="translate(0,-34.840744)" />
    <path
       d="m 253.24,29.77 0.47,0.35 0.47,0.35 0.48,0.35 0.47,0.36 0.48,0.35 0.47,0.36 0.47,0.37 0.48,0.36 0.47,0.37 0.48,0.37 0.47,0.37 0.47,0.38 0.48,0.37 0.47,0.38 0.48,0.38 0.47,0.39 0.47,0.38 0.48,0.39 0.47,0.39 0.48,0.39 0.47,0.39 0.47,0.39 0.48,0.4 0.47,0.39 0.48,0.4 0.47,0.4 0.47,0.4 0.48,0.41 0.47,0.4 0.47,0.41 0.48,0.41 0.47,0.4 0.48,0.41 0.47,0.42 0.47,0.41 0.48,0.41 0.47,0.42 0.48,0.42 0.47,0.41 0.47,0.42 0.48,0.42 0.47,0.42 0.48,0.43 0.47,0.42 0.47,0.42 0.48,0.43 0.47,0.43 0.48,0.42 0.47,0.43 0.47,0.43 0.48,0.43 0.47,0.43 0.48,0.43 0.47,0.44 0.47,0.43 0.48,0.44 0.47,0.43 0.48,0.44 0.47,0.44 0.47,0.43 0.48,0.44 0.47,0.44 0.47,0.44 0.48,0.44 0.47,0.45 0.48,0.44 0.47,0.44 0.47,0.45 0.48,0.44 0.47,0.45 0.48,0.44 0.47,0.45 0.47,0.45 0.48,0.45 0.47,0.44 0.48,0.45 0.47,0.45 0.47,0.45 0.48,0.46 0.47,0.45 0.48,0.45 0.47,0.45 0.47,0.46 0.48,0.45 0.47,0.45 0.48,0.46 0.47,0.45 0.47,0.46 0.48,0.46 0.47,0.45 0.48,0.46 0.47,0.46 0.47,0.46 0.48,0.46 0.47,0.46 0.48,0.46 0.47,0.46 0.47,0.46 0.48,0.46 0.47,0.46 0.47,0.46 0.48,0.46 0.47,0.47 0.48,0.46 0.47,0.46 0.47,0.47 0.48,0.46 0.47,0.47 0.48,0.46 0.47,0.47 0.47,0.46 0.48,0.47 0.47,0.47 0.48,0.46 0.47,0.47 0.47,0.47 0.48,0.47 0.47,0.47 0.48,0.47 0.47,0.46 0.47,0.47 0.48,0.47 0.47,0.47 0.48,0.47 0.47,0.47 0.47,0.48 0.48,0.47 0.47,0.47 0.48,0.47 0.47,0.47 0.47,0.48 0.48,0.47 0.47,0.47 0.47,0.47 0.48,0.48 0.47,0.47 0.48,0.48 0.47,0.47 0.47,0.47 0.48,0.48 0.47,0.48 0.48,0.47 0.47,0.48 0.47,0.47 0.48,0.48 0.47,0.47 0.48,0.48 0.47,0.48 0.47,0.48 0.48,0.47 0.47,0.48 0.48,0.48 0.47,0.48 0.47,0.47 0.48,0.48 0.47,0.48 0.48,0.48 0.47,0.48 0.47,0.48 0.48,0.48 0.47,0.48 0.48,0.48 0.47,0.48 0.47,0.48 0.48,0.48 0.47,0.48 0.47,0.48 0.48,0.48 0.47,0.48 0.48,0.48 0.47,0.49 0.47,0.48 0.48,0.48 0.47,0.48 0.48,0.48 0.47,0.49 0.47,0.48 0.48,0.48 0.47,0.49 0.48,0.48 0.47,0.48 0.47,0.49 0.48,0.48 0.47,0.48 0.48,0.49 0.47,0.48 0.47,0.49 0.48,0.48 0.47,0.48 0.48,0.49 0.47,0.48 0.47,0.49 0.48,0.48 0.47,0.49 0.48,0.49 0.47,0.48 0.47,0.49 0.48,0.48 0.47,0.49 0.48,0.49 0.47,0.48 0.47,0.49 0.48,0.49 0.47,0.48 0.47,0.49 0.48,0.49 0.47,0.48 0.48,0.49 0.47,0.49 0.47,0.49 0.48,0.48 0.47,0.49 0.48,0.49 0.47,0.49 0.47,0.48 0.48,0.49 0.47,0.49 0.48,0.49 0.47,0.49 0.47,0.49 0.48,0.49 0.47,0.49 0.48,0.48 0.47,0.49 0.47,0.49 0.48,0.49 0.47,0.49 0.48,0.49 0.47,0.49 0.47,0.49 0.48,0.49 0.47,0.49 0.48,0.49 0.47,0.49 0.47,0.49 0.48,0.49 0.47,0.49 0.47,0.49 0.48,0.49 0.47,0.49 0.48,0.5 0.47,0.49 0.47,0.49 0.48,0.49 0.47,0.49 0.48,0.49 0.47,0.49 0.47,0.49 0.48,0.5 0.47,0.49 0.48,0.49 0.47,0.49 0.47,0.49 0.48,0.5 0.47,0.49 0.48,0.49 0.47,0.49 0.47,0.5 0.48,0.49 0.47,0.49 0.48,0.49 0.47,0.5 0.47,0.49 0.48,0.49 0.47,0.49 0.48,0.5 0.47,0.49 0.47,0.49 0.48,0.5 0.47,0.49"
       style="fill:none;stroke:#000000;stroke-width:1.996;stroke-linecap:round;stroke-linejoin:round;stroke-miterlimit:10;stroke-dasharray:16, 10;stroke-dashoffset:0;stroke-opacity:1"
       id="path4075"
       transform="translate(0,-34.840744)" />
    <path
       d="m 253.24,27.15 0.47,0.31 0.47,0.31 0.48,0.32 0.47,0.31 0.48,0.32 0.47,0.33 0.47,0.33 0.48,0.32 0.47,0.34 0.48,0.33 0.47,0.34 0.47,0.34 0.48,0.34 0.47,0.34 0.48,0.35 0.47,0.35 0.47,0.35 0.48,0.36 0.47,0.35 0.48,0.36 0.47,0.36 0.47,0.36 0.48,0.36 0.47,0.37 0.48,0.37 0.47,0.37 0.47,0.37 0.48,0.37 0.47,0.38 0.47,0.37 0.48,0.38 0.47,0.38 0.48,0.38 0.47,0.38 0.47,0.39 0.48,0.38 0.47,0.39 0.48,0.39 0.47,0.39 0.47,0.39 0.48,0.39 0.47,0.4 0.48,0.39 0.47,0.4 0.47,0.4 0.48,0.4 0.47,0.4 0.48,0.4 0.47,0.4 0.47,0.41 0.48,0.4 0.47,0.41 0.48,0.41 0.47,0.41 0.47,0.41 0.48,0.41 0.47,0.41 0.48,0.41 0.47,0.41 0.47,0.42 0.48,0.42 0.47,0.41 0.47,0.42 0.48,0.42 0.47,0.42 0.48,0.42 0.47,0.42 0.47,0.42 0.48,0.42 0.47,0.43 0.48,0.42 0.47,0.43 0.47,0.42 0.48,0.43 0.47,0.43 0.48,0.43 0.47,0.43 0.47,0.43 0.48,0.43 0.47,0.43 0.48,0.43 0.47,0.43 0.47,0.44 0.48,0.43 0.47,0.44 0.48,0.43 0.47,0.44 0.47,0.43 0.48,0.44 0.47,0.44 0.48,0.44 0.47,0.44 0.47,0.44 0.48,0.44 0.47,0.44 0.48,0.44 0.47,0.44 0.47,0.45 0.48,0.44 0.47,0.44 0.47,0.45 0.48,0.44 0.47,0.45 0.48,0.44 0.47,0.45 0.47,0.45 0.48,0.45 0.47,0.44 0.48,0.45 0.47,0.45 0.47,0.45 0.48,0.45 0.47,0.45 0.48,0.45 0.47,0.45 0.47,0.45 0.48,0.46 0.47,0.45 0.48,0.45 0.47,0.46 0.47,0.45 0.48,0.45 0.47,0.46 0.48,0.45 0.47,0.46 0.47,0.46 0.48,0.45 0.47,0.46 0.48,0.46 0.47,0.45 0.47,0.46 0.48,0.46 0.47,0.46 0.47,0.46 0.48,0.46 0.47,0.46 0.48,0.46 0.47,0.46 0.47,0.46 0.48,0.46 0.47,0.46 0.48,0.46 0.47,0.46 0.47,0.47 0.48,0.46 0.47,0.46 0.48,0.46 0.47,0.47 0.47,0.46 0.48,0.47 0.47,0.46 0.48,0.47 0.47,0.46 0.47,0.47 0.48,0.46 0.47,0.47 0.48,0.46 0.47,0.47 0.47,0.47 0.48,0.46 0.47,0.47 0.48,0.47 0.47,0.47 0.47,0.47 0.48,0.46 0.47,0.47 0.47,0.47 0.48,0.47 0.47,0.47 0.48,0.47 0.47,0.47 0.47,0.47 0.48,0.47 0.47,0.47 0.48,0.47 0.47,0.47 0.47,0.47 0.48,0.48 0.47,0.47 0.48,0.47 0.47,0.47 0.47,0.48 0.48,0.47 0.47,0.47 0.48,0.47 0.47,0.48 0.47,0.47 0.48,0.47 0.47,0.48 0.48,0.47 0.47,0.48 0.47,0.47 0.48,0.48 0.47,0.47 0.48,0.48 0.47,0.47 0.47,0.48 0.48,0.47 0.47,0.48 0.48,0.48 0.47,0.47 0.47,0.48 0.48,0.47 0.47,0.48 0.47,0.48 0.48,0.48 0.47,0.47 0.48,0.48 0.47,0.48 0.47,0.48 0.48,0.47 0.47,0.48 0.48,0.48 0.47,0.48 0.47,0.48 0.48,0.48 0.47,0.48 0.48,0.48 0.47,0.48 0.47,0.48 0.48,0.47 0.47,0.48 0.48,0.48 0.47,0.49 0.47,0.48 0.48,0.48 0.47,0.48 0.48,0.48 0.47,0.48 0.47,0.48 0.48,0.48 0.47,0.48 0.48,0.48 0.47,0.48 0.47,0.49 0.48,0.48 0.47,0.48 0.47,0.48 0.48,0.49 0.47,0.48 0.48,0.48 0.47,0.48 0.47,0.49 0.48,0.48 0.47,0.48 0.48,0.49 0.47,0.48 0.47,0.48 0.48,0.49 0.47,0.48 0.48,0.48 0.47,0.49 0.47,0.48 0.48,0.49 0.47,0.48 0.48,0.48 0.47,0.49 0.47,0.48 0.48,0.49 0.47,0.48 0.48,0.49 0.47,0.48 0.47,0.49 0.48,0.48 0.47,0.49 0.48,0.49 0.47,0.48 0.47,0.49 0.48,0.48 0.47,0.49"
       style="fill:none;stroke:#000000;stroke-width:1.996;stroke-linecap:round;stroke-linejoin:round;stroke-miterlimit:10;stroke-dasharray:2, 4;stroke-dashoffset:0;stroke-opacity:1"
       id="path4077"
       transform="translate(0,-34.840744)" />
    <g
       id="g4079"
       transform="translate(0,-34.840744)">
      <g
         id="g4081"
         clip-path="url(#clipPath4085)">
        <path
           d="M 447.82,22.71 H 583.47 V 179.53 H 447.82"
           style="fill:#ffffff;fill-opacity:1;fill-rule:evenodd;stroke:none"
           id="path4087" />
      </g>
    </g>
    <path
       d="M 475.36,22.71 V 179.53"
       style="fill:none;stroke:#000000;stroke-width:0.4991;stroke-linecap:round;stroke-linejoin:round;stroke-miterlimit:10;stroke-dasharray:none;stroke-opacity:0.0980392"
       id="path4089"
       transform="translate(0,-34.840744)" />
    <path
       d="M 513.27,22.71 V 179.53"
       style="fill:none;stroke:#000000;stroke-width:0.4991;stroke-linecap:round;stroke-linejoin:round;stroke-miterlimit:10;stroke-dasharray:none;stroke-opacity:0.0980392"
       id="path4091"
       transform="translate(0,-34.840744)" />
    <path
       d="M 551.19,22.71 V 179.53"
       style="fill:none;stroke:#000000;stroke-width:0.4991;stroke-linecap:round;stroke-linejoin:round;stroke-miterlimit:10;stroke-dasharray:none;stroke-opacity:0.0980392"
       id="path4093"
       transform="translate(0,-34.840744)" />
    <path
       d="M 447.82,22.71 H 583.47"
       style="fill:none;stroke:#000000;stroke-width:0.9982;stroke-linecap:round;stroke-linejoin:round;stroke-miterlimit:10;stroke-dasharray:none;stroke-opacity:1"
       id="path4095"
       transform="translate(0,-34.840744)" />
    <path
       d="M 447.82,179.53 H 583.47"
       style="fill:none;stroke:#000000;stroke-width:0.9982;stroke-linecap:round;stroke-linejoin:round;stroke-miterlimit:10;stroke-dasharray:none;stroke-opacity:1"
       id="path4097"
       transform="translate(0,-34.840744)" />
    <path
       d="m 475.36,22.71 v 4.73"
       style="fill:none;stroke:#000000;stroke-width:0.9982;stroke-linecap:round;stroke-linejoin:round;stroke-miterlimit:10;stroke-dasharray:none;stroke-opacity:1"
       id="path4099"
       transform="translate(0,-34.840744)" />
    <path
       d="m 513.27,22.71 v 4.73"
       style="fill:none;stroke:#000000;stroke-width:0.9982;stroke-linecap:round;stroke-linejoin:round;stroke-miterlimit:10;stroke-dasharray:none;stroke-opacity:1"
       id="path4101"
       transform="translate(0,-34.840744)" />
    <path
       d="m 551.19,22.71 v 4.73"
       style="fill:none;stroke:#000000;stroke-width:0.9982;stroke-linecap:round;stroke-linejoin:round;stroke-miterlimit:10;stroke-dasharray:none;stroke-opacity:1"
       id="path4103"
       transform="translate(0,-34.840744)" />
    <text
       xml:space="preserve"
       transform="matrix(1,0,0,-1,466.86,-30.250744)"
       style="font-variant:normal;font-weight:normal;font-size:15px;font-family:'Tex Gyre Heros';-inkscape-font-specification:'Tex Gyre Heros';writing-mode:lr-tb;fill:#000000;fill-opacity:1;fill-rule:nonzero;stroke:none"
       id="text4107"><tspan
         x="0 8.3400002"
         y="0"
         sodipodi:role="line"
         id="tspan4105">80</tspan></text>
    <text
       xml:space="preserve"
       transform="matrix(1,0,0,-1,500.77,-30.250744)"
       style="font-variant:normal;font-weight:normal;font-size:15px;font-family:'Tex Gyre Heros';-inkscape-font-specification:'Tex Gyre Heros';writing-mode:lr-tb;fill:#000000;fill-opacity:1;fill-rule:nonzero;stroke:none"
       id="text4111"><tspan
         x="0 8.3400002 16.68"
         y="0"
         sodipodi:role="line"
         id="tspan4109">160</tspan></text>
    <text
       xml:space="preserve"
       transform="matrix(1,0,0,-1,538.69,-30.250744)"
       style="font-variant:normal;font-weight:normal;font-size:15px;font-family:'Tex Gyre Heros';-inkscape-font-specification:'Tex Gyre Heros';writing-mode:lr-tb;fill:#000000;fill-opacity:1;fill-rule:nonzero;stroke:none"
       id="text4115"><tspan
         x="0 8.3400002 16.68"
         y="0"
         sodipodi:role="line"
         id="tspan4113">240</tspan></text>
    <path
       d="M 447.82,26.89 H 583.47"
       style="fill:none;stroke:#000000;stroke-width:0.4991;stroke-linecap:round;stroke-linejoin:round;stroke-miterlimit:10;stroke-dasharray:none;stroke-opacity:0.0980392"
       id="path4117"
       transform="translate(0,-34.840744)" />
    <path
       d="M 447.82,77.55 H 583.47"
       style="fill:none;stroke:#000000;stroke-width:0.4991;stroke-linecap:round;stroke-linejoin:round;stroke-miterlimit:10;stroke-dasharray:none;stroke-opacity:0.0980392"
       id="path4119"
       transform="translate(0,-34.840744)" />
    <path
       d="M 447.82,125.53 H 583.47"
       style="fill:none;stroke:#000000;stroke-width:0.4991;stroke-linecap:round;stroke-linejoin:round;stroke-miterlimit:10;stroke-dasharray:none;stroke-opacity:0.0980392"
       id="path4121"
       transform="translate(0,-34.840744)" />
    <path
       d="M 447.82,176.19 H 583.47"
       style="fill:none;stroke:#000000;stroke-width:0.4991;stroke-linecap:round;stroke-linejoin:round;stroke-miterlimit:10;stroke-dasharray:none;stroke-opacity:0.0980392"
       id="path4123"
       transform="translate(0,-34.840744)" />
    <path
       d="M 447.82,22.71 V 179.53"
       style="fill:none;stroke:#000000;stroke-width:0.9982;stroke-linecap:round;stroke-linejoin:round;stroke-miterlimit:10;stroke-dasharray:none;stroke-opacity:1"
       id="path4125"
       transform="translate(0,-34.840744)" />
    <path
       d="M 583.47,22.71 V 179.53"
       style="fill:none;stroke:#000000;stroke-width:0.9982;stroke-linecap:round;stroke-linejoin:round;stroke-miterlimit:10;stroke-dasharray:none;stroke-opacity:1"
       id="path4127"
       transform="translate(0,-34.840744)" />
    <path
       d="m 447.82,26.89 h 4.73"
       style="fill:none;stroke:#000000;stroke-width:0.9982;stroke-linecap:round;stroke-linejoin:round;stroke-miterlimit:10;stroke-dasharray:none;stroke-opacity:1"
       id="path4129"
       transform="translate(0,-34.840744)" />
    <path
       d="m 447.82,77.55 h 4.73"
       style="fill:none;stroke:#000000;stroke-width:0.9982;stroke-linecap:round;stroke-linejoin:round;stroke-miterlimit:10;stroke-dasharray:none;stroke-opacity:1"
       id="path4131"
       transform="translate(0,-34.840744)" />
    <path
       d="m 447.82,125.53 h 4.73"
       style="fill:none;stroke:#000000;stroke-width:0.9982;stroke-linecap:round;stroke-linejoin:round;stroke-miterlimit:10;stroke-dasharray:none;stroke-opacity:1"
       id="path4133"
       transform="translate(0,-34.840744)" />
    <path
       d="m 447.82,176.19 h 4.73"
       style="fill:none;stroke:#000000;stroke-width:0.9982;stroke-linecap:round;stroke-linejoin:round;stroke-miterlimit:10;stroke-dasharray:none;stroke-opacity:1"
       id="path4135"
       transform="translate(0,-34.840744)" />
    <text
       xml:space="preserve"
       transform="matrix(1,0,0,-1,409.76,-13.450744)"
       style="font-variant:normal;font-weight:normal;font-size:15px;font-family:'Tex Gyre Heros';-inkscape-font-specification:'Tex Gyre Heros';writing-mode:lr-tb;fill:#000000;fill-opacity:1;fill-rule:nonzero;stroke:none"
       id="text4139"><tspan
         sodipodi:role="line"
         id="tspan4137"
         x="0"
         y="0">−0.7</tspan></text>
    <text
       xml:space="preserve"
       transform="matrix(1,0,0,-1,417.94,37.209256)"
       style="font-variant:normal;font-weight:normal;font-size:15px;font-family:'Tex Gyre Heros';-inkscape-font-specification:'Tex Gyre Heros';writing-mode:lr-tb;fill:#000000;fill-opacity:1;fill-rule:nonzero;stroke:none"
       id="text4143"><tspan
         x="0 8.3400002 12.51"
         y="0"
         sodipodi:role="line"
         id="tspan4141">1.2</tspan></text>
    <text
       xml:space="preserve"
       transform="matrix(1,0,0,-1,417.94,85.189256)"
       style="font-variant:normal;font-weight:normal;font-size:15px;font-family:'Tex Gyre Heros';-inkscape-font-specification:'Tex Gyre Heros';writing-mode:lr-tb;fill:#000000;fill-opacity:1;fill-rule:nonzero;stroke:none"
       id="text4147"><tspan
         x="0 8.3400002 12.51"
         y="0"
         sodipodi:role="line"
         id="tspan4145">3.0</tspan></text>
    <text
       xml:space="preserve"
       transform="matrix(1,0,0,-1,417.94,135.84926)"
       style="font-variant:normal;font-weight:normal;font-size:15px;font-family:'Tex Gyre Heros';-inkscape-font-specification:'Tex Gyre Heros';writing-mode:lr-tb;fill:#000000;fill-opacity:1;fill-rule:nonzero;stroke:none"
       id="text4151"><tspan
         x="0 8.3400002 12.51"
         y="0"
         sodipodi:role="line"
         id="tspan4149">4.9</tspan></text>
    <path
       d="m 451.66,52.95 0.48,0.39 0.47,0.39 0.47,0.4 0.48,0.39 0.47,0.4 0.48,0.39 0.47,0.4 0.47,0.4 0.48,0.41 0.47,0.4 0.48,0.4 0.47,0.41 0.47,0.41 0.48,0.41 0.47,0.41 0.48,0.41 0.47,0.41 0.47,0.41 0.48,0.42 0.47,0.42 0.47,0.41 0.48,0.42 0.47,0.42 0.48,0.42 0.47,0.42 0.47,0.42 0.48,0.42 0.47,0.43 0.48,0.42 0.47,0.43 0.47,0.42 0.48,0.43 0.47,0.43 0.48,0.43 0.47,0.43 0.47,0.43 0.48,0.43 0.47,0.43 0.48,0.43 0.47,0.43 0.47,0.44 0.48,0.43 0.47,0.43 0.48,0.44 0.47,0.43 0.47,0.44 0.48,0.44 0.47,0.43 0.48,0.44 0.47,0.44 0.47,0.44 0.48,0.44 0.47,0.44 0.47,0.44 0.48,0.44 0.47,0.44 0.48,0.44 0.47,0.44 0.47,0.44 0.48,0.45 0.47,0.44 0.48,0.44 0.47,0.45 0.47,0.44 0.48,0.45 0.47,0.44 0.48,0.45 0.47,0.44 0.47,0.45 0.48,0.45 0.47,0.44 0.48,0.45 0.47,0.45 0.47,0.45 0.48,0.45 0.47,0.44 0.48,0.45 0.47,0.45 0.47,0.45 0.48,0.45 0.47,0.45 0.48,0.45 0.47,0.45 0.47,0.45 0.48,0.45 0.47,0.45 0.48,0.46 0.47,0.45 0.47,0.45 0.48,0.45 0.47,0.45 0.47,0.46 0.48,0.45 0.47,0.45 0.48,0.46 0.47,0.45 0.47,0.45 0.48,0.46 0.47,0.45 0.48,0.46 0.47,0.45 0.47,0.46 0.48,0.45 0.47,0.46 0.48,0.45 0.47,0.46 0.47,0.45 0.48,0.46 0.47,0.46 0.48,0.45 0.47,0.46 0.47,0.46 0.48,0.45 0.47,0.46 0.48,0.46 0.47,0.46 0.47,0.45 0.48,0.46 0.47,0.46 0.48,0.46 0.47,0.45 0.47,0.46 0.48,0.46 0.47,0.46 0.47,0.46 0.48,0.46 0.47,0.46 0.48,0.46 0.47,0.45 0.47,0.46 0.48,0.46 0.47,0.46 0.48,0.46 0.47,0.46 0.47,0.46 0.48,0.46 0.47,0.46 0.48,0.46 0.47,0.46 0.47,0.46 0.48,0.47 0.47,0.46 0.48,0.46 0.47,0.46 0.47,0.46 0.48,0.46 0.47,0.46 0.48,0.46 0.47,0.46 0.47,0.47 0.48,0.46 0.47,0.46 0.48,0.46 0.47,0.46 0.47,0.47 0.48,0.46 0.47,0.46 0.47,0.46 0.48,0.47 0.47,0.46 0.48,0.46 0.47,0.46 0.47,0.47 0.48,0.46 0.47,0.46 0.48,0.47 0.47,0.46 0.47,0.46 0.48,0.47 0.47,0.46 0.48,0.46 0.47,0.47 0.47,0.46 0.48,0.46 0.47,0.47 0.48,0.46 0.47,0.47 0.47,0.46 0.48,0.46 0.47,0.47 0.48,0.46 0.47,0.47 0.47,0.46 0.48,0.47 0.47,0.46 0.48,0.46 0.47,0.47 0.47,0.46 0.48,0.47 0.47,0.46 0.48,0.47 0.47,0.46 0.47,0.47 0.48,0.46 0.47,0.47 0.47,0.46 0.48,0.47 0.47,0.46 0.48,0.47 0.47,0.47 0.47,0.46 0.48,0.47 0.47,0.46 0.48,0.47 0.47,0.46 0.47,0.47 0.48,0.47 0.47,0.46 0.48,0.47 0.47,0.46 0.47,0.47 0.48,0.46 0.47,0.47 0.48,0.47 0.47,0.46 0.47,0.47 0.48,0.47 0.47,0.46 0.48,0.47 0.47,0.47 0.47,0.46 0.48,0.47 0.47,0.47 0.48,0.46 0.47,0.47 0.47,0.47 0.48,0.46 0.47,0.47 0.47,0.47 0.48,0.46 0.47,0.47 0.48,0.47 0.47,0.46 0.47,0.47 0.48,0.47 0.47,0.46 0.48,0.47 0.47,0.47 0.47,0.47 0.48,0.46 0.47,0.47 0.48,0.47 0.47,0.47 0.47,0.46 0.48,0.47 0.47,0.47 0.48,0.47 0.47,0.46 0.47,0.47 0.48,0.47 0.47,0.47 0.48,0.46 0.47,0.47 0.47,0.47 0.48,0.47 0.47,0.47 0.48,0.46 0.47,0.47 0.47,0.47 0.48,0.47 0.47,0.47 0.48,0.46 0.47,0.47 0.47,0.47 0.48,0.47 0.47,0.47 0.47,0.46 0.48,0.47 0.47,0.47 0.48,0.47"
       style="fill:none;stroke:#000000;stroke-width:1.996;stroke-linecap:round;stroke-linejoin:round;stroke-miterlimit:10;stroke-dasharray:none;stroke-opacity:1"
       id="path4153"
       transform="translate(0,-34.840744)" />
    <path
       d="m 451.66,39.65 0.48,0.47 0.47,0.47 0.47,0.47 0.48,0.47 0.47,0.47 0.48,0.47 0.47,0.47 0.47,0.47 0.48,0.47 0.47,0.47 0.48,0.47 0.47,0.47 0.47,0.47 0.48,0.47 0.47,0.47 0.48,0.47 0.47,0.47 0.47,0.47 0.48,0.47 0.47,0.47 0.47,0.47 0.48,0.47 0.47,0.47 0.48,0.47 0.47,0.47 0.47,0.47 0.48,0.47 0.47,0.47 0.48,0.48 0.47,0.47 0.47,0.47 0.48,0.47 0.47,0.47 0.48,0.47 0.47,0.47 0.47,0.47 0.48,0.48 0.47,0.47 0.48,0.47 0.47,0.47 0.47,0.47 0.48,0.47 0.47,0.47 0.48,0.48 0.47,0.47 0.47,0.47 0.48,0.47 0.47,0.47 0.48,0.47 0.47,0.48 0.47,0.47 0.48,0.47 0.47,0.47 0.47,0.47 0.48,0.48 0.47,0.47 0.48,0.47 0.47,0.47 0.47,0.47 0.48,0.47 0.47,0.48 0.48,0.47 0.47,0.47 0.47,0.47 0.48,0.48 0.47,0.47 0.48,0.47 0.47,0.47 0.47,0.47 0.48,0.48 0.47,0.47 0.48,0.47 0.47,0.47 0.47,0.48 0.48,0.47 0.47,0.47 0.48,0.47 0.47,0.47 0.47,0.48 0.48,0.47 0.47,0.47 0.48,0.47 0.47,0.48 0.47,0.47 0.48,0.47 0.47,0.47 0.48,0.48 0.47,0.47 0.47,0.47 0.48,0.47 0.47,0.48 0.47,0.47 0.48,0.47 0.47,0.47 0.48,0.48 0.47,0.47 0.47,0.47 0.48,0.47 0.47,0.48 0.48,0.47 0.47,0.47 0.47,0.48 0.48,0.47 0.47,0.47 0.48,0.47 0.47,0.48 0.47,0.47 0.48,0.47 0.47,0.47 0.48,0.48 0.47,0.47 0.47,0.47 0.48,0.48 0.47,0.47 0.48,0.47 0.47,0.47 0.47,0.48 0.48,0.47 0.47,0.47 0.48,0.48 0.47,0.47 0.47,0.47 0.48,0.47 0.47,0.48 0.47,0.47 0.48,0.47 0.47,0.48 0.48,0.47 0.47,0.47 0.47,0.47 0.48,0.48 0.47,0.47 0.48,0.47 0.47,0.48 0.47,0.47 0.48,0.47 0.47,0.47 0.48,0.48 0.47,0.47 0.47,0.47 0.48,0.48 0.47,0.47 0.48,0.47 0.47,0.48 0.47,0.47 0.48,0.47 0.47,0.47 0.48,0.48 0.47,0.47 0.47,0.47 0.48,0.48 0.47,0.47 0.48,0.47 0.47,0.48 0.47,0.47 0.48,0.47 0.47,0.47 0.47,0.48 0.48,0.47 0.47,0.47 0.48,0.48 0.47,0.47 0.47,0.47 0.48,0.48 0.47,0.47 0.48,0.47 0.47,0.48 0.47,0.47 0.48,0.47 0.47,0.47 0.48,0.48 0.47,0.47 0.47,0.47 0.48,0.48 0.47,0.47 0.48,0.47 0.47,0.48 0.47,0.47 0.48,0.47 0.47,0.48 0.48,0.47 0.47,0.47 0.47,0.48 0.48,0.47 0.47,0.47 0.48,0.47 0.47,0.48 0.47,0.47 0.48,0.47 0.47,0.48 0.48,0.47 0.47,0.47 0.47,0.48 0.48,0.47 0.47,0.47 0.47,0.48 0.48,0.47 0.47,0.47 0.48,0.48 0.47,0.47 0.47,0.47 0.48,0.48 0.47,0.47 0.48,0.47 0.47,0.48 0.47,0.47 0.48,0.47 0.47,0.48 0.48,0.47 0.47,0.47 0.47,0.48 0.48,0.47 0.47,0.47 0.48,0.48 0.47,0.47 0.47,0.47 0.48,0.47 0.47,0.48 0.48,0.47 0.47,0.47 0.47,0.48 0.48,0.47 0.47,0.47 0.48,0.48 0.47,0.47 0.47,0.47 0.48,0.48 0.47,0.47 0.47,0.47 0.48,0.48 0.47,0.47 0.48,0.47 0.47,0.48 0.47,0.47 0.48,0.47 0.47,0.48 0.48,0.47 0.47,0.47 0.47,0.48 0.48,0.47 0.47,0.47 0.48,0.48 0.47,0.47 0.47,0.47 0.48,0.48 0.47,0.47 0.48,0.47 0.47,0.48 0.47,0.47 0.48,0.47 0.47,0.48 0.48,0.47 0.47,0.47 0.47,0.48 0.48,0.47 0.47,0.47 0.48,0.48 0.47,0.47 0.47,0.47 0.48,0.48 0.47,0.47 0.48,0.47 0.47,0.48 0.47,0.47 0.48,0.47 0.47,0.48 0.47,0.47 0.48,0.47 0.47,0.48 0.48,0.47"
       style="fill:none;stroke:#000000;stroke-width:1.996;stroke-linecap:round;stroke-linejoin:round;stroke-miterlimit:10;stroke-dasharray:16, 10;stroke-dashoffset:0;stroke-opacity:1"
       id="path4155"
       transform="translate(0,-34.840744)" />
    <path
       d="m 451.66,27.15 0.48,0.3 0.47,0.3 0.47,0.31 0.48,0.3 0.47,0.32 0.48,0.31 0.47,0.32 0.47,0.32 0.48,0.32 0.47,0.33 0.48,0.32 0.47,0.34 0.47,0.33 0.48,0.33 0.47,0.34 0.48,0.34 0.47,0.35 0.47,0.34 0.48,0.35 0.47,0.35 0.47,0.35 0.48,0.35 0.47,0.36 0.48,0.36 0.47,0.36 0.47,0.36 0.48,0.36 0.47,0.36 0.48,0.37 0.47,0.37 0.47,0.37 0.48,0.37 0.47,0.37 0.48,0.38 0.47,0.37 0.47,0.38 0.48,0.38 0.47,0.38 0.48,0.38 0.47,0.38 0.47,0.38 0.48,0.39 0.47,0.39 0.48,0.38 0.47,0.39 0.47,0.39 0.48,0.39 0.47,0.39 0.48,0.4 0.47,0.39 0.47,0.4 0.48,0.39 0.47,0.4 0.47,0.4 0.48,0.4 0.47,0.4 0.48,0.4 0.47,0.4 0.47,0.4 0.48,0.41 0.47,0.4 0.48,0.41 0.47,0.4 0.47,0.41 0.48,0.41 0.47,0.41 0.48,0.41 0.47,0.41 0.47,0.41 0.48,0.41 0.47,0.41 0.48,0.42 0.47,0.41 0.47,0.41 0.48,0.42 0.47,0.41 0.48,0.42 0.47,0.42 0.47,0.42 0.48,0.41 0.47,0.42 0.48,0.42 0.47,0.42 0.47,0.42 0.48,0.43 0.47,0.42 0.48,0.42 0.47,0.42 0.47,0.43 0.48,0.42 0.47,0.42 0.47,0.43 0.48,0.43 0.47,0.42 0.48,0.43 0.47,0.42 0.47,0.43 0.48,0.43 0.47,0.43 0.48,0.43 0.47,0.43 0.47,0.43 0.48,0.43 0.47,0.43 0.48,0.43 0.47,0.43 0.47,0.43 0.48,0.43 0.47,0.44 0.48,0.43 0.47,0.43 0.47,0.44 0.48,0.43 0.47,0.43 0.48,0.44 0.47,0.43 0.47,0.44 0.48,0.44 0.47,0.43 0.48,0.44 0.47,0.43 0.47,0.44 0.48,0.44 0.47,0.44 0.47,0.44 0.48,0.43 0.47,0.44 0.48,0.44 0.47,0.44 0.47,0.44 0.48,0.44 0.47,0.44 0.48,0.44 0.47,0.44 0.47,0.44 0.48,0.44 0.47,0.45 0.48,0.44 0.47,0.44 0.47,0.44 0.48,0.45 0.47,0.44 0.48,0.44 0.47,0.44 0.47,0.45 0.48,0.44 0.47,0.45 0.48,0.44 0.47,0.45 0.47,0.44 0.48,0.45 0.47,0.44 0.48,0.45 0.47,0.44 0.47,0.45 0.48,0.44 0.47,0.45 0.47,0.45 0.48,0.44 0.47,0.45 0.48,0.45 0.47,0.45 0.47,0.44 0.48,0.45 0.47,0.45 0.48,0.45 0.47,0.45 0.47,0.44 0.48,0.45 0.47,0.45 0.48,0.45 0.47,0.45 0.47,0.45 0.48,0.45 0.47,0.45 0.48,0.45 0.47,0.45 0.47,0.45 0.48,0.45 0.47,0.45 0.48,0.45 0.47,0.45 0.47,0.45 0.48,0.45 0.47,0.46 0.48,0.45 0.47,0.45 0.47,0.45 0.48,0.45 0.47,0.46 0.48,0.45 0.47,0.45 0.47,0.45 0.48,0.46 0.47,0.45 0.47,0.45 0.48,0.45 0.47,0.46 0.48,0.45 0.47,0.46 0.47,0.45 0.48,0.45 0.47,0.46 0.48,0.45 0.47,0.45 0.47,0.46 0.48,0.45 0.47,0.46 0.48,0.45 0.47,0.46 0.47,0.45 0.48,0.46 0.47,0.45 0.48,0.46 0.47,0.45 0.47,0.46 0.48,0.46 0.47,0.45 0.48,0.46 0.47,0.45 0.47,0.46 0.48,0.45 0.47,0.46 0.48,0.46 0.47,0.45 0.47,0.46 0.48,0.46 0.47,0.45 0.47,0.46 0.48,0.46 0.47,0.46 0.48,0.45 0.47,0.46 0.47,0.46 0.48,0.46 0.47,0.45 0.48,0.46 0.47,0.46 0.47,0.46 0.48,0.45 0.47,0.46 0.48,0.46 0.47,0.46 0.47,0.46 0.48,0.46 0.47,0.45 0.48,0.46 0.47,0.46 0.47,0.46 0.48,0.46 0.47,0.46 0.48,0.46 0.47,0.46 0.47,0.46 0.48,0.45 0.47,0.46 0.48,0.46 0.47,0.46 0.47,0.46 0.48,0.46 0.47,0.46 0.48,0.46 0.47,0.46 0.47,0.46 0.48,0.46 0.47,0.46 0.47,0.46 0.48,0.46 0.47,0.46 0.48,0.46"
       style="fill:none;stroke:#000000;stroke-width:1.996;stroke-linecap:round;stroke-linejoin:round;stroke-miterlimit:10;stroke-dasharray:2, 4;stroke-dashoffset:0;stroke-opacity:1"
       id="path4157"
       transform="translate(0,-34.840744)" />
    <text
       xml:space="preserve"
       style="font-size:19px;line-height:1.25;font-family:sans-serif;letter-spacing:0px;word-spacing:0px;stroke-width:0.75"
       x="111.1161"
       y="-707.01068"
       id="text1830-3"
       transform="matrix(1,0,0,-1,178.36332,-548.86561)"><tspan
         sodipodi:role="line"
         style="font-style:normal;font-variant:normal;font-weight:normal;font-stretch:normal;font-size:19px;font-family:'TeX Gyre Heros';-inkscape-font-specification:'TeX Gyre Heros';stroke-width:0.75"
         x="111.1161"
         y="-707.01068"
         id="tspan1832-6">Frame 1</tspan></text>
    <text
       xml:space="preserve"
       style="font-size:19px;line-height:1.25;font-family:sans-serif;letter-spacing:0px;word-spacing:0px;stroke-width:0.75"
       x="371.94211"
       y="-707.01068"
       id="text1830-3-0"
       transform="matrix(1,0,0,-1,114.4093,-548.86561)"><tspan
         sodipodi:role="line"
         style="font-style:normal;font-variant:normal;font-weight:normal;font-stretch:normal;font-size:19px;font-family:'TeX Gyre Heros';-inkscape-font-specification:'TeX Gyre Heros';stroke-width:0.75"
         x="371.94211"
         y="-707.01068"
         id="tspan1832-6-2">Frame 2</tspan></text>
    <text
       xml:space="preserve"
       style="font-size:19px;line-height:1.25;font-family:sans-serif;letter-spacing:0px;word-spacing:0px;stroke-width:0.75"
       x="634.61609"
       y="-707.01068"
       id="text1830-3-3"
       transform="matrix(1,0,0,-1,-545.08168,-548.86561)"><tspan
         sodipodi:role="line"
         style="font-style:normal;font-variant:normal;font-weight:normal;font-stretch:normal;font-size:19px;font-family:'TeX Gyre Heros';-inkscape-font-specification:'TeX Gyre Heros';stroke-width:0.75"
         x="634.61609"
         y="-707.01068"
         id="tspan1832-6-7">Frame 0</tspan></text>
    <text
       xml:space="preserve"
       style="font-size:19px;line-height:1.25;font-family:sans-serif;letter-spacing:0px;word-spacing:0px;stroke-width:0.75"
       x="308.65817"
       y="29.778574"
       id="text1830-36"
       transform="matrix(1,0,0,-1,-73.072198,-29.540881)"><tspan
         sodipodi:role="line"
         style="font-style:normal;font-variant:normal;font-weight:normal;font-stretch:normal;font-size:19px;font-family:'TeX Gyre Heros';-inkscape-font-specification:'TeX Gyre Heros';stroke-width:0.75"
         x="308.65817"
         y="29.778574"
         id="tspan1832-1">ORF length (codons)</tspan></text>
    <text
       xml:space="preserve"
       style="font-size:19px;line-height:1.25;font-family:sans-serif;letter-spacing:0px;word-spacing:0px;stroke-width:0.75"
       x="105.61845"
       y="-32.829155"
       id="text1830"
       transform="matrix(0,1,1,0,9.1993366,-40.013708)"><tspan
         sodipodi:role="line"
         style="font-style:normal;font-variant:normal;font-weight:normal;font-stretch:normal;font-size:19px;font-family:'TeX Gyre Heros';-inkscape-font-specification:'TeX Gyre Heros';text-align:center;text-anchor:middle;stroke-width:0.75"
         x="105.61845"
         y="-32.829155"
         id="tspan1832">Relative ORF gain probability</tspan><tspan
         sodipodi:role="line"
         style="font-style:normal;font-variant:normal;font-weight:normal;font-stretch:normal;font-size:19px;font-family:'TeX Gyre Heros';-inkscape-font-specification:'TeX Gyre Heros';text-align:center;text-anchor:middle;stroke-width:0.75"
         x="105.61845"
         y="-8.6187019"
         id="tspan1364"> log<tspan
   style="font-size:13px;text-align:center;baseline-shift:sub;text-anchor:middle"
   id="tspan3817">2</tspan>(antisense/intergenic)</tspan></text>
    <g
       id="g5420"
       transform="translate(69.776953,-10.5)">
      <text
         xml:space="preserve"
         style="font-size:19px;line-height:0.95;font-family:sans-serif;letter-spacing:0px;word-spacing:0px;stroke-width:0.75"
         x="354.32227"
         y="-0.39541301"
         id="text1830-36-6-6"
         transform="matrix(1,0,0,-1,-293.4939,-79.510735)"><tspan
           sodipodi:role="line"
           style="font-style:normal;font-variant:normal;font-weight:normal;font-stretch:normal;font-size:19px;font-family:'TeX Gyre Heros';-inkscape-font-specification:'TeX Gyre Heros';text-align:center;text-anchor:middle;stroke-width:0.75"
           x="354.32227"
           y="-0.39541301"
           id="tspan1832-1-5-9">No </tspan><tspan
           sodipodi:role="line"
           style="font-style:normal;font-variant:normal;font-weight:normal;font-stretch:normal;font-size:19px;font-family:'TeX Gyre Heros';-inkscape-font-specification:'TeX Gyre Heros';text-align:center;text-anchor:middle;stroke-width:0.75"
           x="354.32227"
           y="18.11504"
           id="tspan5361">Selection</tspan></text>
      <path
         style="fill:none;stroke:#000000;stroke-width:2.001;stroke-linecap:butt;stroke-linejoin:miter;stroke-dasharray:none;stroke-opacity:1"
         d="m 270.54399,8.144388 41.96202,-0.22995"
         id="path3548"
         sodipodi:nodetypes="cc"
         transform="translate(-289.84456,-85.116961)" />
    </g>
    <g
       id="g5414"
       transform="translate(-17.810925,-10.5)">
      <text
         xml:space="preserve"
         style="font-size:19px;line-height:0.95;font-family:sans-serif;letter-spacing:0px;word-spacing:0px;stroke-width:0.75"
         x="453.72006"
         y="-0.39541301"
         id="text1830-36-6-3"
         transform="matrix(1,0,0,-1,110.29752,-79.681735)"><tspan
           sodipodi:role="line"
           style="font-style:normal;font-variant:normal;font-weight:normal;font-stretch:normal;font-size:19px;font-family:'TeX Gyre Heros';-inkscape-font-specification:'TeX Gyre Heros';text-align:center;text-anchor:middle;stroke-width:0.75"
           x="453.72006"
           y="-0.39541301"
           id="tspan1832-1-5-7">Strong</tspan><tspan
           sodipodi:role="line"
           style="font-style:normal;font-variant:normal;font-weight:normal;font-stretch:normal;font-size:19px;font-family:'TeX Gyre Heros';-inkscape-font-specification:'TeX Gyre Heros';text-align:center;text-anchor:middle;stroke-width:0.75"
           x="453.72006"
           y="18.11504"
           id="tspan5365">Selection</tspan></text>
      <path
         style="fill:none;stroke:#000000;stroke-width:2.001;stroke-linecap:butt;stroke-linejoin:miter;stroke-dasharray:2.002, 4.004, 2.002, 4.004;stroke-dashoffset:0;stroke-opacity:1"
         d="m 339.45384,8.144388 41.96202,-0.22995"
         id="path3548-5"
         sodipodi:nodetypes="cc"
         transform="translate(144.44029,-85.127714)" />
    </g>
    <g
       id="g5408"
       transform="translate(31.845193,-10.5)">
      <text
         xml:space="preserve"
         style="font-size:19px;line-height:0.95;font-family:sans-serif;letter-spacing:0px;word-spacing:0px;fill:#000000;stroke-width:0.75"
         x="492.65436"
         y="-0.39541301"
         id="text1830-36-6-4"
         transform="matrix(1,0,0,-1,-186.09082,-79.482235)"><tspan
           sodipodi:role="line"
           style="font-style:normal;font-variant:normal;font-weight:normal;font-stretch:normal;font-size:19px;font-family:'TeX Gyre Heros';-inkscape-font-specification:'TeX Gyre Heros';text-align:center;text-anchor:middle;fill:#000000;stroke-width:0.75"
           x="492.65436"
           y="-0.39541301"
           id="tspan1832-1-5-5">Weak</tspan><tspan
           sodipodi:role="line"
           style="font-style:normal;font-variant:normal;font-weight:normal;font-stretch:normal;font-size:19px;font-family:'TeX Gyre Heros';-inkscape-font-specification:'TeX Gyre Heros';text-align:center;text-anchor:middle;fill:#000000;stroke-width:0.75"
           x="492.65436"
           y="18.11504"
           id="tspan5363">Selection</tspan></text>
      <path
         style="fill:#000000;stroke:#000000;stroke-width:2.001;stroke-linecap:butt;stroke-linejoin:miter;stroke-dasharray:12.006, 4.002;stroke-dashoffset:0;stroke-opacity:1"
         d="m 407.24156,8.144388 41.96202,-0.22995"
         id="path3548-4"
         sodipodi:nodetypes="cc"
         transform="translate(-180.80696,-85.116961)" />
    </g>
  </g>
</svg>
