<?xml version="1.0" encoding="UTF-8" standalone="no"?>
<!-- Created with Inkscape (http://www.inkscape.org/) -->

<svg
   version="1.1"
   id="svg2"
   width="491.33859"
   height="415.74664"
   viewBox="0 0 491.33859 415.74664"
   sodipodi:docname="pFix_promoterless.svg"
   inkscape:version="1.2 (dc2aeda, 2022-05-15)"
   xmlns:inkscape="http://www.inkscape.org/namespaces/inkscape"
   xmlns:sodipodi="http://sodipodi.sourceforge.net/DTD/sodipodi-0.dtd"
   xmlns="http://www.w3.org/2000/svg"
   xmlns:svg="http://www.w3.org/2000/svg">
  <defs
     id="defs6">
    <clipPath
       clipPathUnits="userSpaceOnUse"
       id="clipPath24">
      <path
         d="M 0,0 H 354.33 V 354.33 H 0 Z"
         id="path22" />
    </clipPath>
    <clipPath
       clipPathUnits="userSpaceOnUse"
       id="clipPath34">
      <path
         d="M 0,0 H 354.33 V 354.33 H 0 Z"
         id="path32" />
    </clipPath>
  </defs>
  <sodipodi:namedview
     id="namedview4"
     pagecolor="#ffffff"
     bordercolor="#666666"
     borderopacity="1.0"
     inkscape:showpageshadow="2"
     inkscape:pageopacity="0.0"
     inkscape:pagecheckerboard="0"
     inkscape:deskcolor="#d1d1d1"
     showgrid="false"
     inkscape:zoom="2.0264423"
     inkscape:cx="235.88138"
     inkscape:cy="177.89798"
     inkscape:window-width="1920"
     inkscape:window-height="1011"
     inkscape:window-x="0"
     inkscape:window-y="0"
     inkscape:window-maximized="1"
     inkscape:current-layer="g10">
    <inkscape:page
       x="0"
       y="0"
       id="page8"
       width="491.33859"
       height="415.74664" />
  </sodipodi:namedview>
  <g
     id="g10"
     inkscape:groupmode="layer"
     inkscape:label="Page 1"
     transform="matrix(1.3333333,0,0,-1.3333333,0,415.74666)">
    <g
       id="g18">
      <g
         id="g20"
         clip-path="url(#clipPath24)">
        <path
           d="M 0,0 H 368.50395 V 311.81 H 0"
           style="fill:#ffffff;fill-opacity:1;fill-rule:evenodd;stroke:none"
           id="path26"
           sodipodi:nodetypes="cccc" />
      </g>
    </g>
    <g
       id="g28">
      <g
         id="g30"
         clip-path="url(#clipPath34)">
        <path
           d="M 88.46,54.62 H 342.52 V 300 H 88.46"
           style="fill:#ffffff;fill-opacity:1;fill-rule:evenodd;stroke:none"
           id="path36" />
      </g>
    </g>
    <path
       d="M 108.01,54.62 V 300"
       style="fill:none;stroke:#000000;stroke-width:0.5003;stroke-linecap:round;stroke-linejoin:round;stroke-miterlimit:10;stroke-dasharray:none;stroke-opacity:0.0980392"
       id="path38"
       sodipodi:nodetypes="cc" />
    <path
       d="M 147.09,54.62 V 300"
       style="fill:none;stroke:#000000;stroke-width:0.5003;stroke-linecap:round;stroke-linejoin:round;stroke-miterlimit:10;stroke-dasharray:none;stroke-opacity:0.0980392"
       id="path40"
       sodipodi:nodetypes="cc" />
    <path
       d="M 186.18,54.62 V 300"
       style="fill:none;stroke:#000000;stroke-width:0.5003;stroke-linecap:round;stroke-linejoin:round;stroke-miterlimit:10;stroke-dasharray:none;stroke-opacity:0.0980392"
       id="path42"
       sodipodi:nodetypes="cc" />
    <path
       d="M 225.26,54.62 V 300"
       style="fill:none;stroke:#000000;stroke-width:0.5003;stroke-linecap:round;stroke-linejoin:round;stroke-miterlimit:10;stroke-dasharray:none;stroke-opacity:0.0980392"
       id="path44"
       sodipodi:nodetypes="cc" />
    <path
       d="M 264.35,54.62 V 300"
       style="fill:none;stroke:#000000;stroke-width:0.5003;stroke-linecap:round;stroke-linejoin:round;stroke-miterlimit:10;stroke-dasharray:none;stroke-opacity:0.0980392"
       id="path46"
       sodipodi:nodetypes="cc" />
    <path
       d="M 303.43,54.62 V 300"
       style="fill:none;stroke:#000000;stroke-width:0.5003;stroke-linecap:round;stroke-linejoin:round;stroke-miterlimit:10;stroke-dasharray:none;stroke-opacity:0.0980392"
       id="path48"
       sodipodi:nodetypes="cc" />
    <path
       d="M 356.69198,54.62 V 300"
       style="fill:none;stroke:#000000;stroke-width:0.5003;stroke-linecap:round;stroke-linejoin:round;stroke-miterlimit:10;stroke-dasharray:none;stroke-opacity:0.0980392"
       id="path50"
       sodipodi:nodetypes="cc" />
    <path
       d="M 88.46,54.62 H 356.69198"
       style="fill:none;stroke:#000000;stroke-width:1.001;stroke-linecap:round;stroke-linejoin:round;stroke-miterlimit:10;stroke-dasharray:none;stroke-opacity:1"
       id="path52"
       sodipodi:nodetypes="cc" />
    <path
       d="M 88.46,300 H 356.69198"
       style="fill:none;stroke:#000000;stroke-width:1.001;stroke-linecap:round;stroke-linejoin:round;stroke-miterlimit:10;stroke-dasharray:none;stroke-opacity:1"
       id="path54"
       sodipodi:nodetypes="cc" />
    <path
       d="m 108.01,54.62 v 4.72"
       style="fill:none;stroke:#000000;stroke-width:1.001;stroke-linecap:round;stroke-linejoin:round;stroke-miterlimit:10;stroke-dasharray:none;stroke-opacity:1"
       id="path56"
       sodipodi:nodetypes="cc" />
    <path
       d="m 147.09,54.62 v 4.72"
       style="fill:none;stroke:#000000;stroke-width:1.001;stroke-linecap:round;stroke-linejoin:round;stroke-miterlimit:10;stroke-dasharray:none;stroke-opacity:1"
       id="path58"
       sodipodi:nodetypes="cc" />
    <path
       d="m 186.18,54.62 v 4.72"
       style="fill:none;stroke:#000000;stroke-width:1.001;stroke-linecap:round;stroke-linejoin:round;stroke-miterlimit:10;stroke-dasharray:none;stroke-opacity:1"
       id="path60"
       sodipodi:nodetypes="cc" />
    <path
       d="m 225.26,54.62 v 4.72"
       style="fill:none;stroke:#000000;stroke-width:1.001;stroke-linecap:round;stroke-linejoin:round;stroke-miterlimit:10;stroke-dasharray:none;stroke-opacity:1"
       id="path62"
       sodipodi:nodetypes="cc" />
    <path
       d="m 264.35,54.62 v 4.72"
       style="fill:none;stroke:#000000;stroke-width:1.001;stroke-linecap:round;stroke-linejoin:round;stroke-miterlimit:10;stroke-dasharray:none;stroke-opacity:1"
       id="path64"
       sodipodi:nodetypes="cc" />
    <path
       d="m 303.43,54.62 v 4.72"
       style="fill:none;stroke:#000000;stroke-width:1.001;stroke-linecap:round;stroke-linejoin:round;stroke-miterlimit:10;stroke-dasharray:none;stroke-opacity:1"
       id="path66"
       sodipodi:nodetypes="cc" />
    <path
       d="m 356.69198,54.62 v 4.72"
       style="fill:none;stroke:#000000;stroke-width:1.001;stroke-linecap:round;stroke-linejoin:round;stroke-miterlimit:10;stroke-dasharray:none;stroke-opacity:1"
       id="path68"
       sodipodi:nodetypes="cc" />
    <text
       xml:space="preserve"
       transform="matrix(1,0,0,-1,99.51,38.42)"
       style="font-variant:normal;font-weight:normal;font-size:15px;font-family:Helvetica;-inkscape-font-specification:Helvetica;writing-mode:lr-tb;fill:#000000;fill-opacity:1;fill-rule:nonzero;stroke:none"
       id="text72"><tspan
         x="0 8.3400002"
         y="0"
         sodipodi:role="line"
         id="tspan70">50</tspan></text>
    <text
       xml:space="preserve"
       transform="matrix(1,0,0,-1,134.59,38.42)"
       style="font-variant:normal;font-weight:normal;font-size:15px;font-family:Helvetica;-inkscape-font-specification:Helvetica;writing-mode:lr-tb;fill:#000000;fill-opacity:1;fill-rule:nonzero;stroke:none"
       id="text76"><tspan
         x="0 8.3400002 16.68"
         y="0"
         sodipodi:role="line"
         id="tspan74">100</tspan></text>
    <text
       xml:space="preserve"
       transform="matrix(1,0,0,-1,173.68,38.42)"
       style="font-variant:normal;font-weight:normal;font-size:15px;font-family:Helvetica;-inkscape-font-specification:Helvetica;writing-mode:lr-tb;fill:#000000;fill-opacity:1;fill-rule:nonzero;stroke:none"
       id="text80"><tspan
         x="0 8.3400002 16.68"
         y="0"
         sodipodi:role="line"
         id="tspan78">150</tspan></text>
    <text
       xml:space="preserve"
       transform="matrix(1,0,0,-1,212.76,38.42)"
       style="font-variant:normal;font-weight:normal;font-size:15px;font-family:Helvetica;-inkscape-font-specification:Helvetica;writing-mode:lr-tb;fill:#000000;fill-opacity:1;fill-rule:nonzero;stroke:none"
       id="text84"><tspan
         x="0 8.3400002 16.68"
         y="0"
         sodipodi:role="line"
         id="tspan82">200</tspan></text>
    <text
       xml:space="preserve"
       transform="matrix(1,0,0,-1,251.85,38.42)"
       style="font-variant:normal;font-weight:normal;font-size:15px;font-family:Helvetica;-inkscape-font-specification:Helvetica;writing-mode:lr-tb;fill:#000000;fill-opacity:1;fill-rule:nonzero;stroke:none"
       id="text88"><tspan
         x="0 8.3400002 16.68"
         y="0"
         sodipodi:role="line"
         id="tspan86">250</tspan></text>
    <text
       xml:space="preserve"
       transform="matrix(1,0,0,-1,290.93,38.42)"
       style="font-variant:normal;font-weight:normal;font-size:15px;font-family:Helvetica;-inkscape-font-specification:Helvetica;writing-mode:lr-tb;fill:#000000;fill-opacity:1;fill-rule:nonzero;stroke:none"
       id="text92"><tspan
         x="0 8.3400002 16.68"
         y="0"
         sodipodi:role="line"
         id="tspan90">300</tspan></text>
    <text
       xml:space="preserve"
       transform="matrix(1,0,0,-1,330.02,38.42)"
       style="font-variant:normal;font-weight:normal;font-size:15px;font-family:Helvetica;-inkscape-font-specification:Helvetica;writing-mode:lr-tb;fill:#000000;fill-opacity:1;fill-rule:nonzero;stroke:none"
       id="text96"><tspan
         x="0 8.3400002 16.68"
         y="0"
         sodipodi:role="line"
         id="tspan94">350</tspan></text>
    <text
       xml:space="preserve"
       transform="matrix(1,0,0,-1,125.49,15.95)"
       style="font-variant:normal;font-weight:normal;font-size:19px;font-family:Helvetica;-inkscape-font-specification:Helvetica;writing-mode:lr-tb;fill:#000000;fill-opacity:1;fill-rule:nonzero;stroke:none"
       id="text100"><tspan
         x="0 14.782 28.5 40.109001 45.390999 49.609001 60.173 70.737 81.301003 86.583 97.147003 102.429 108.756 118.256 128.82001 139.384 149.948 160.51199 170.01199"
         y="0"
         sodipodi:role="line"
         id="tspan98">ORF length (codons)</tspan></text>
    <path
       d="M 88.46,109.28 H 356.69198"
       style="fill:none;stroke:#000000;stroke-width:0.5003;stroke-linecap:round;stroke-linejoin:round;stroke-miterlimit:10;stroke-dasharray:none;stroke-opacity:0.0980392"
       id="path102"
       sodipodi:nodetypes="cc" />
    <path
       d="M 88.46,165.33 H 356.69198"
       style="fill:none;stroke:#000000;stroke-width:0.5003;stroke-linecap:round;stroke-linejoin:round;stroke-miterlimit:10;stroke-dasharray:none;stroke-opacity:0.0980392"
       id="path104"
       sodipodi:nodetypes="cc" />
    <path
       d="M 88.46,221.37 H 356.69198"
       style="fill:none;stroke:#000000;stroke-width:0.5003;stroke-linecap:round;stroke-linejoin:round;stroke-miterlimit:10;stroke-dasharray:none;stroke-opacity:0.0980392"
       id="path106"
       sodipodi:nodetypes="cc" />
    <path
       d="M 88.46,277.42 H 356.69198"
       style="fill:none;stroke:#000000;stroke-width:0.5003;stroke-linecap:round;stroke-linejoin:round;stroke-miterlimit:10;stroke-dasharray:none;stroke-opacity:0.0980392"
       id="path108"
       sodipodi:nodetypes="cc" />
    <path
       d="M 88.46,54.62 V 300"
       style="fill:none;stroke:#000000;stroke-width:1.001;stroke-linecap:round;stroke-linejoin:round;stroke-miterlimit:10;stroke-dasharray:none;stroke-opacity:1"
       id="path110"
       sodipodi:nodetypes="cc" />
    <path
       d="M 356.69198,54.62 V 300"
       style="fill:none;stroke:#000000;stroke-width:1.001;stroke-linecap:round;stroke-linejoin:round;stroke-miterlimit:10;stroke-dasharray:none;stroke-opacity:1"
       id="path112"
       sodipodi:nodetypes="cc" />
    <path
       d="m 88.46,109.28 h 4.73"
       style="fill:none;stroke:#000000;stroke-width:1.001;stroke-linecap:round;stroke-linejoin:round;stroke-miterlimit:10;stroke-dasharray:none;stroke-opacity:1"
       id="path114"
       sodipodi:nodetypes="cc" />
    <path
       d="m 88.46,165.33 h 4.73"
       style="fill:none;stroke:#000000;stroke-width:1.001;stroke-linecap:round;stroke-linejoin:round;stroke-miterlimit:10;stroke-dasharray:none;stroke-opacity:1"
       id="path116"
       sodipodi:nodetypes="cc" />
    <path
       d="m 88.46,221.37 h 4.73"
       style="fill:none;stroke:#000000;stroke-width:1.001;stroke-linecap:round;stroke-linejoin:round;stroke-miterlimit:10;stroke-dasharray:none;stroke-opacity:1"
       id="path118"
       sodipodi:nodetypes="cc" />
    <path
       d="m 88.46,277.42 h 4.73"
       style="fill:none;stroke:#000000;stroke-width:1.001;stroke-linecap:round;stroke-linejoin:round;stroke-miterlimit:10;stroke-dasharray:none;stroke-opacity:1"
       id="path120"
       sodipodi:nodetypes="cc" />
    <text
       xml:space="preserve"
       transform="matrix(1,0,0,-1,54.01,103.78)"
       style="font-variant:normal;font-weight:normal;font-size:15px;font-family:Helvetica;-inkscape-font-specification:Helvetica;writing-mode:lr-tb;fill:#000000;fill-opacity:1;fill-rule:nonzero;stroke:none"
       id="text124"><tspan
         x="0 8.3400002 12.51 20.85"
         y="0"
         sodipodi:role="line"
         id="tspan122">1.75</tspan></text>
    <text
       xml:space="preserve"
       transform="matrix(1,0,0,-1,54.01,159.83)"
       style="font-variant:normal;font-weight:normal;font-size:15px;font-family:Helvetica;-inkscape-font-specification:Helvetica;writing-mode:lr-tb;fill:#000000;fill-opacity:1;fill-rule:nonzero;stroke:none"
       id="text128"><tspan
         x="0 8.3400002 12.51 20.85"
         y="0"
         sodipodi:role="line"
         id="tspan126">2.00</tspan></text>
    <text
       xml:space="preserve"
       transform="matrix(1,0,0,-1,54.01,215.87)"
       style="font-variant:normal;font-weight:normal;font-size:15px;font-family:Helvetica;-inkscape-font-specification:Helvetica;writing-mode:lr-tb;fill:#000000;fill-opacity:1;fill-rule:nonzero;stroke:none"
       id="text132"><tspan
         x="0 8.3400002 12.51 20.85"
         y="0"
         sodipodi:role="line"
         id="tspan130">2.25</tspan></text>
    <text
       xml:space="preserve"
       transform="matrix(1,0,0,-1,54.01,271.92)"
       style="font-variant:normal;font-weight:normal;font-size:15px;font-family:Helvetica;-inkscape-font-specification:Helvetica;writing-mode:lr-tb;fill:#000000;fill-opacity:1;fill-rule:nonzero;stroke:none"
       id="text136"><tspan
         x="0 8.3400002 12.51 20.85"
         y="0"
         sodipodi:role="line"
         id="tspan134">2.50</tspan></text>
    <g
       id="g1651"
       transform="translate(-9.2517085)">
      <text
         xml:space="preserve"
         transform="matrix(0,1,1,0,29,65.965002)"
         style="font-variant:normal;font-weight:normal;font-size:19px;font-family:Helvetica;-inkscape-font-specification:Helvetica;writing-mode:lr-tb;fill:#000000;fill-opacity:1;fill-rule:nonzero;stroke:none"
         id="text140"><tspan
           x="0 10.564 25.346001 35.91 46.473999 57.037998 62.32 66.538002 77.101997 86.601997 96.101997 101.384 115.102 119.32 124.602 135.166 140.448 151.01199 160.51199 165.79401 170.01199 180.576 190.076 195.358 199.576 210.14 220.70399"
           y="0"
           sodipodi:role="line"
           id="tspan138">#Gene loss with extinction </tspan></text>
      <text
         xml:space="preserve"
         transform="matrix(0,1,1,0,49.43,64.122)"
         style="font-variant:normal;font-weight:normal;font-size:19px;font-family:Helvetica;-inkscape-font-specification:Helvetica;writing-mode:lr-tb;fill:#000000;fill-opacity:1;fill-rule:nonzero;stroke:none"
         id="text144"><tspan
           x="0 10.564 21.128 27.455 32.737 47.519001 58.083 68.647003 79.210999 84.492996 95.056999 105.621 109.839 120.403 125.685 139.403 143.621 148.903 159.467 164.74899 170.03101 174.24899 183.74899 194.313 199.595 203.813 214.377"
           y="0"
           sodipodi:role="line"
           id="tspan142">per Gene gain with fixation</tspan></text>
    </g>
    <path
       d="m 92.37,90.82 0.78,0.74 0.79,0.75 0.78,0.74 0.78,0.74 0.78,0.74 0.78,0.74 0.78,0.75 0.79,0.74 0.78,0.74 0.78,0.74 0.78,0.74 0.78,0.74 0.78,0.74 0.79,0.75 0.78,0.74 0.78,0.74 0.78,0.74 0.78,0.74 0.79,0.74 0.78,0.74 0.78,0.75 0.78,0.74 0.78,0.74 0.78,0.74 0.79,0.74 0.78,0.74 0.78,0.75 0.78,0.74 0.78,0.74 0.78,0.74 0.79,0.74 0.78,0.74 0.78,0.75 0.78,0.74 0.78,0.74 0.78,0.74 0.79,0.74 0.78,0.74 0.78,0.75 0.78,0.74 0.78,0.74 0.78,0.74 0.79,0.74 0.78,0.75 0.78,0.74 0.78,0.74 0.78,0.74 0.78,0.75 0.79,0.74 0.78,0.74 0.78,0.74 0.78,0.75 0.78,0.74 0.78,0.74 0.79,0.74 0.78,0.75 0.78,0.74 0.78,0.74 0.78,0.75 0.79,0.74 0.78,0.74 0.78,0.74 0.78,0.75 0.78,0.74 0.78,0.74 0.79,0.75 0.78,0.74 0.78,0.75 0.78,0.74 0.78,0.74 0.78,0.75 0.79,0.74 0.78,0.74 0.78,0.75 0.78,0.74 0.78,0.75 0.78,0.74 0.79,0.74 0.78,0.75 0.78,0.74 0.78,0.75 0.78,0.74 0.78,0.75 0.79,0.74 0.78,0.75 0.78,0.74 0.78,0.75 0.78,0.74 0.78,0.75 0.79,0.74 0.78,0.75 0.78,0.74 0.78,0.75 0.78,0.74 0.79,0.75 0.78,0.74 0.78,0.75 0.78,0.75 0.78,0.74 0.78,0.75 0.79,0.74 0.78,0.75 0.78,0.74 0.78,0.75 0.78,0.75 0.78,0.74 0.79,0.75 0.78,0.75 0.78,0.74 0.78,0.75 0.78,0.75 0.78,0.74 0.79,0.75 0.78,0.75 0.78,0.74 0.78,0.75 0.78,0.75 0.78,0.75 0.79,0.74 0.78,0.75 0.78,0.75 0.78,0.75 0.78,0.74 0.78,0.75 0.79,0.75 0.78,0.75 0.78,0.75 0.78,0.74 0.78,0.75 0.79,0.75 0.78,0.75 0.78,0.75 0.78,0.75 0.78,0.74 0.78,0.75 0.79,0.75 0.78,0.75 0.78,0.75 0.78,0.75 0.78,0.75 0.78,0.75 0.79,0.75 0.78,0.74 0.78,0.75 0.78,0.75 0.78,0.75 0.78,0.75 0.79,0.75 0.78,0.75 0.78,0.75 0.78,0.75 0.78,0.75 0.78,0.75 0.79,0.75 0.78,0.75 0.78,0.75 0.78,0.75 0.78,0.75 0.78,0.75 0.79,0.76 0.78,0.75 0.78,0.75 0.78,0.75 0.78,0.75 0.78,0.75 0.79,0.75 0.78,0.75 0.78,0.75 0.78,0.75 0.78,0.76 0.79,0.75 0.78,0.75 0.78,0.75 0.78,0.75 0.78,0.75 0.78,0.76 0.79,0.75 0.78,0.75 0.78,0.75 0.78,0.75 0.78,0.76 0.78,0.75 0.79,0.75 0.78,0.75 0.78,0.76 0.78,0.75 0.78,0.75 0.78,0.76 0.79,0.75 0.78,0.75 0.78,0.75 0.78,0.76 0.78,0.75 0.78,0.75 0.79,0.76 0.78,0.75 0.78,0.75 0.78,0.76 0.78,0.75 0.78,0.76 0.79,0.75 0.78,0.75 0.78,0.76 0.78,0.75 0.78,0.76 0.79,0.75 0.78,0.75 0.78,0.76 0.78,0.75 0.78,0.76 0.78,0.75 0.79,0.76 0.78,0.75 0.78,0.76 0.78,0.75 0.78,0.76 0.78,0.75 0.79,0.76 0.78,0.75 0.78,0.76 0.78,0.75 0.78,0.76 0.78,0.75 0.79,0.76 0.78,0.75 0.78,0.76 0.78,0.76 0.78,0.75 0.78,0.76 0.79,0.75 0.78,0.76 0.78,0.76 0.78,0.75 0.78,0.76 0.78,0.76 0.79,0.75 0.78,0.76 0.78,0.76 0.78,0.75 0.78,0.76 0.79,0.76 0.78,0.75 0.78,0.76 0.78,0.76 0.78,0.75 0.78,0.76 0.79,0.76 0.78,0.76 0.78,0.75 0.78,0.76 0.78,0.76 0.78,0.76 0.79,0.75 0.78,0.76 0.78,0.76 0.78,0.76 0.78,0.76 0.78,0.75 0.79,0.76 0.78,0.76 0.78,0.76 0.78,0.76 0.78,0.75 0.78,0.76 0.79,0.76 0.78,0.76 0.78,0.76 0.78,0.76 0.78,0.76 0.78,0.76"
       style="fill:none;stroke:#000000;stroke-width:2.001;stroke-linecap:round;stroke-linejoin:round;stroke-miterlimit:10;stroke-dasharray:none;stroke-opacity:1"
       id="path146"
       sodipodi:nodetypes="ccccccccccccccccccccccccccccccccccccccccccccccccccccccccccccccccccccccccccccccccccccccccccccccccccccccccccccccccccccccccccccccccccccccccccccccccccccccccccccccccccccccccccccccccccccccccccccccccccccccccccccccccccccccccccccccccccccccccccccccccccccccccccccccccccccccccccccccc" />
    <path
       d="m 92.37,82.25 0.78,0.7 0.79,0.69 0.78,0.7 0.78,0.69 0.78,0.7 0.78,0.69 0.78,0.7 0.79,0.69 0.78,0.7 0.78,0.69 0.78,0.7 0.78,0.69 0.78,0.7 0.79,0.69 0.78,0.7 0.78,0.69 0.78,0.7 0.78,0.69 0.79,0.7 0.78,0.69 0.78,0.7 0.78,0.69 0.78,0.7 0.78,0.69 0.79,0.7 0.78,0.69 0.78,0.7 0.78,0.69 0.78,0.7 0.78,0.69 0.79,0.7 0.78,0.69 0.78,0.7 0.78,0.69 0.78,0.7 0.78,0.69 0.79,0.7 0.78,0.69 0.78,0.7 0.78,0.69 0.78,0.7 0.78,0.69 0.79,0.7 0.78,0.69 0.78,0.7 0.78,0.69 0.78,0.7 0.78,0.7 0.79,0.69 0.78,0.7 0.78,0.69 0.78,0.7 0.78,0.7 0.78,0.69 0.79,0.7 0.78,0.69 0.78,0.7 0.78,0.7 0.78,0.69 0.79,0.7 0.78,0.69 0.78,0.7 0.78,0.7 0.78,0.69 0.78,0.7 0.79,0.7 0.78,0.69 0.78,0.7 0.78,0.7 0.78,0.69 0.78,0.7 0.79,0.7 0.78,0.69 0.78,0.7 0.78,0.7 0.78,0.7 0.78,0.69 0.79,0.7 0.78,0.7 0.78,0.69 0.78,0.7 0.78,0.7 0.78,0.7 0.79,0.7 0.78,0.69 0.78,0.7 0.78,0.7 0.78,0.7 0.78,0.69 0.79,0.7 0.78,0.7 0.78,0.7 0.78,0.7 0.78,0.7 0.79,0.69 0.78,0.7 0.78,0.7 0.78,0.7 0.78,0.7 0.78,0.7 0.79,0.7 0.78,0.69 0.78,0.7 0.78,0.7 0.78,0.7 0.78,0.7 0.79,0.7 0.78,0.7 0.78,0.7 0.78,0.7 0.78,0.7 0.78,0.7 0.79,0.7 0.78,0.7 0.78,0.7 0.78,0.7 0.78,0.7 0.78,0.7 0.79,0.7 0.78,0.7 0.78,0.7 0.78,0.7 0.78,0.7 0.78,0.7 0.79,0.7 0.78,0.7 0.78,0.7 0.78,0.7 0.78,0.7 0.79,0.7 0.78,0.7 0.78,0.7 0.78,0.7 0.78,0.7 0.78,0.71 0.79,0.7 0.78,0.7 0.78,0.7 0.78,0.7 0.78,0.7 0.78,0.7 0.79,0.71 0.78,0.7 0.78,0.7 0.78,0.7 0.78,0.7 0.78,0.7 0.79,0.71 0.78,0.7 0.78,0.7 0.78,0.7 0.78,0.71 0.78,0.7 0.79,0.7 0.78,0.7 0.78,0.71 0.78,0.7 0.78,0.7 0.78,0.7 0.79,0.71 0.78,0.7 0.78,0.7 0.78,0.71 0.78,0.7 0.78,0.7 0.79,0.71 0.78,0.7 0.78,0.7 0.78,0.71 0.78,0.7 0.79,0.7 0.78,0.71 0.78,0.7 0.78,0.7 0.78,0.71 0.78,0.7 0.79,0.71 0.78,0.7 0.78,0.7 0.78,0.71 0.78,0.7 0.78,0.71 0.79,0.7 0.78,0.71 0.78,0.7 0.78,0.71 0.78,0.7 0.78,0.7 0.79,0.71 0.78,0.7 0.78,0.71 0.78,0.7 0.78,0.71 0.78,0.71 0.79,0.7 0.78,0.71 0.78,0.7 0.78,0.71 0.78,0.7 0.78,0.71 0.79,0.7 0.78,0.71 0.78,0.71 0.78,0.7 0.78,0.71 0.79,0.7 0.78,0.71 0.78,0.71 0.78,0.7 0.78,0.71 0.78,0.7 0.79,0.71 0.78,0.71 0.78,0.7 0.78,0.71 0.78,0.71 0.78,0.7 0.79,0.71 0.78,0.71 0.78,0.7 0.78,0.71 0.78,0.71 0.78,0.71 0.79,0.7 0.78,0.71 0.78,0.71 0.78,0.7 0.78,0.71 0.78,0.71 0.79,0.71 0.78,0.7 0.78,0.71 0.78,0.71 0.78,0.71 0.78,0.71 0.79,0.7 0.78,0.71 0.78,0.71 0.78,0.71 0.78,0.71 0.79,0.7 0.78,0.71 0.78,0.71 0.78,0.71 0.78,0.71 0.78,0.71 0.79,0.71 0.78,0.7 0.78,0.71 0.78,0.71 0.78,0.71 0.78,0.71 0.79,0.71 0.78,0.71 0.78,0.71 0.78,0.71 0.78,0.71 0.78,0.71 0.79,0.7 0.78,0.71 0.78,0.71 0.78,0.71 0.78,0.71 0.78,0.71 0.79,0.71 0.78,0.71 0.78,0.71 0.78,0.71 0.78,0.71 0.78,0.71"
       style="fill:none;stroke:#000000;stroke-width:2.001;stroke-linecap:round;stroke-linejoin:round;stroke-miterlimit:10;stroke-dasharray:none;stroke-opacity:1"
       id="path148"
       sodipodi:nodetypes="ccccccccccccccccccccccccccccccccccccccccccccccccccccccccccccccccccccccccccccccccccccccccccccccccccccccccccccccccccccccccccccccccccccccccccccccccccccccccccccccccccccccccccccccccccccccccccccccccccccccccccccccccccccccccccccccccccccccccccccccccccccccccccccccccccccccccccccccc" />
    <path
       d="m 92.37,74.61 0.78,0.65 0.79,0.66 0.78,0.65 0.78,0.65 0.78,0.66 0.78,0.65 0.78,0.66 0.79,0.65 0.78,0.65 0.78,0.66 0.78,0.65 0.78,0.66 0.78,0.65 0.79,0.65 0.78,0.66 0.78,0.65 0.78,0.65 0.78,0.66 0.79,0.65 0.78,0.66 0.78,0.65 0.78,0.65 0.78,0.66 0.78,0.65 0.79,0.65 0.78,0.66 0.78,0.65 0.78,0.66 0.78,0.65 0.78,0.65 0.79,0.66 0.78,0.65 0.78,0.66 0.78,0.65 0.78,0.65 0.78,0.66 0.79,0.65 0.78,0.66 0.78,0.65 0.78,0.65 0.78,0.66 0.78,0.65 0.79,0.66 0.78,0.65 0.78,0.66 0.78,0.65 0.78,0.65 0.78,0.66 0.79,0.65 0.78,0.66 0.78,0.65 0.78,0.66 0.78,0.65 0.78,0.66 0.79,0.65 0.78,0.66 0.78,0.65 0.78,0.66 0.78,0.65 0.79,0.65 0.78,0.66 0.78,0.66 0.78,0.65 0.78,0.66 0.78,0.65 0.79,0.66 0.78,0.65 0.78,0.66 0.78,0.65 0.78,0.66 0.78,0.65 0.79,0.66 0.78,0.65 0.78,0.66 0.78,0.66 0.78,0.65 0.78,0.66 0.79,0.65 0.78,0.66 0.78,0.65 0.78,0.66 0.78,0.66 0.78,0.65 0.79,0.66 0.78,0.66 0.78,0.65 0.78,0.66 0.78,0.65 0.78,0.66 0.79,0.66 0.78,0.65 0.78,0.66 0.78,0.66 0.78,0.65 0.79,0.66 0.78,0.66 0.78,0.66 0.78,0.65 0.78,0.66 0.78,0.66 0.79,0.65 0.78,0.66 0.78,0.66 0.78,0.66 0.78,0.65 0.78,0.66 0.79,0.66 0.78,0.66 0.78,0.65 0.78,0.66 0.78,0.66 0.78,0.66 0.79,0.66 0.78,0.65 0.78,0.66 0.78,0.66 0.78,0.66 0.78,0.66 0.79,0.65 0.78,0.66 0.78,0.66 0.78,0.66 0.78,0.66 0.78,0.66 0.79,0.65 0.78,0.66 0.78,0.66 0.78,0.66 0.78,0.66 0.79,0.66 0.78,0.66 0.78,0.66 0.78,0.66 0.78,0.66 0.78,0.65 0.79,0.66 0.78,0.66 0.78,0.66 0.78,0.66 0.78,0.66 0.78,0.66 0.79,0.66 0.78,0.66 0.78,0.66 0.78,0.66 0.78,0.66 0.78,0.66 0.79,0.66 0.78,0.66 0.78,0.66 0.78,0.66 0.78,0.66 0.78,0.66 0.79,0.66 0.78,0.66 0.78,0.66 0.78,0.66 0.78,0.67 0.78,0.66 0.79,0.66 0.78,0.66 0.78,0.66 0.78,0.66 0.78,0.66 0.78,0.66 0.79,0.66 0.78,0.66 0.78,0.67 0.78,0.66 0.78,0.66 0.79,0.66 0.78,0.66 0.78,0.66 0.78,0.66 0.78,0.67 0.78,0.66 0.79,0.66 0.78,0.66 0.78,0.66 0.78,0.67 0.78,0.66 0.78,0.66 0.79,0.66 0.78,0.66 0.78,0.67 0.78,0.66 0.78,0.66 0.78,0.66 0.79,0.67 0.78,0.66 0.78,0.66 0.78,0.66 0.78,0.67 0.78,0.66 0.79,0.66 0.78,0.67 0.78,0.66 0.78,0.66 0.78,0.67 0.78,0.66 0.79,0.66 0.78,0.66 0.78,0.67 0.78,0.66 0.78,0.67 0.79,0.66 0.78,0.66 0.78,0.67 0.78,0.66 0.78,0.66 0.78,0.67 0.79,0.66 0.78,0.67 0.78,0.66 0.78,0.66 0.78,0.67 0.78,0.66 0.79,0.67 0.78,0.66 0.78,0.66 0.78,0.67 0.78,0.66 0.78,0.67 0.79,0.66 0.78,0.67 0.78,0.66 0.78,0.67 0.78,0.66 0.78,0.67 0.79,0.66 0.78,0.67 0.78,0.66 0.78,0.67 0.78,0.66 0.78,0.67 0.79,0.66 0.78,0.67 0.78,0.66 0.78,0.67 0.78,0.66 0.79,0.67 0.78,0.67 0.78,0.66 0.78,0.67 0.78,0.66 0.78,0.67 0.79,0.66 0.78,0.67 0.78,0.67 0.78,0.66 0.78,0.67 0.78,0.67 0.79,0.66 0.78,0.67 0.78,0.66 0.78,0.67 0.78,0.67 0.78,0.66 0.79,0.67 0.78,0.67 0.78,0.66 0.78,0.67 0.78,0.67 0.78,0.66 0.79,0.67 0.78,0.67 0.78,0.66 0.78,0.67 0.78,0.67 0.78,0.67"
       style="fill:none;stroke:#000000;stroke-width:2.001;stroke-linecap:round;stroke-linejoin:round;stroke-miterlimit:10;stroke-dasharray:none;stroke-opacity:1"
       id="path150"
       sodipodi:nodetypes="ccccccccccccccccccccccccccccccccccccccccccccccccccccccccccccccccccccccccccccccccccccccccccccccccccccccccccccccccccccccccccccccccccccccccccccccccccccccccccccccccccccccccccccccccccccccccccccccccccccccccccccccccccccccccccccccccccccccccccccccccccccccccccccccccccccccccccccccc" />
    <path
       d="m 92.37,67.75 0.78,0.62 0.79,0.62 0.78,0.61 0.78,0.62 0.78,0.62 0.78,0.61 0.78,0.62 0.79,0.62 0.78,0.62 0.78,0.61 0.78,0.62 0.78,0.62 0.78,0.62 0.79,0.61 0.78,0.62 0.78,0.62 0.78,0.61 0.78,0.62 0.79,0.62 0.78,0.62 0.78,0.61 0.78,0.62 0.78,0.62 0.78,0.62 0.79,0.61 0.78,0.62 0.78,0.62 0.78,0.61 0.78,0.62 0.78,0.62 0.79,0.62 0.78,0.61 0.78,0.62 0.78,0.62 0.78,0.62 0.78,0.61 0.79,0.62 0.78,0.62 0.78,0.62 0.78,0.61 0.78,0.62 0.78,0.62 0.79,0.62 0.78,0.61 0.78,0.62 0.78,0.62 0.78,0.62 0.78,0.62 0.79,0.61 0.78,0.62 0.78,0.62 0.78,0.62 0.78,0.62 0.78,0.61 0.79,0.62 0.78,0.62 0.78,0.62 0.78,0.62 0.78,0.61 0.79,0.62 0.78,0.62 0.78,0.62 0.78,0.62 0.78,0.62 0.78,0.61 0.79,0.62 0.78,0.62 0.78,0.62 0.78,0.62 0.78,0.62 0.78,0.62 0.79,0.62 0.78,0.61 0.78,0.62 0.78,0.62 0.78,0.62 0.78,0.62 0.79,0.62 0.78,0.62 0.78,0.62 0.78,0.62 0.78,0.62 0.78,0.62 0.79,0.61 0.78,0.62 0.78,0.62 0.78,0.62 0.78,0.62 0.78,0.62 0.79,0.62 0.78,0.62 0.78,0.62 0.78,0.62 0.78,0.62 0.79,0.62 0.78,0.62 0.78,0.62 0.78,0.62 0.78,0.62 0.78,0.62 0.79,0.62 0.78,0.62 0.78,0.62 0.78,0.62 0.78,0.62 0.78,0.62 0.79,0.63 0.78,0.62 0.78,0.62 0.78,0.62 0.78,0.62 0.78,0.62 0.79,0.62 0.78,0.62 0.78,0.62 0.78,0.62 0.78,0.62 0.78,0.63 0.79,0.62 0.78,0.62 0.78,0.62 0.78,0.62 0.78,0.62 0.78,0.62 0.79,0.62 0.78,0.63 0.78,0.62 0.78,0.62 0.78,0.62 0.79,0.62 0.78,0.63 0.78,0.62 0.78,0.62 0.78,0.62 0.78,0.62 0.79,0.63 0.78,0.62 0.78,0.62 0.78,0.62 0.78,0.62 0.78,0.63 0.79,0.62 0.78,0.62 0.78,0.62 0.78,0.63 0.78,0.62 0.78,0.62 0.79,0.63 0.78,0.62 0.78,0.62 0.78,0.62 0.78,0.63 0.78,0.62 0.79,0.62 0.78,0.63 0.78,0.62 0.78,0.62 0.78,0.63 0.78,0.62 0.79,0.62 0.78,0.63 0.78,0.62 0.78,0.62 0.78,0.63 0.78,0.62 0.79,0.63 0.78,0.62 0.78,0.62 0.78,0.63 0.78,0.62 0.79,0.63 0.78,0.62 0.78,0.62 0.78,0.63 0.78,0.62 0.78,0.63 0.79,0.62 0.78,0.63 0.78,0.62 0.78,0.62 0.78,0.63 0.78,0.62 0.79,0.63 0.78,0.62 0.78,0.63 0.78,0.62 0.78,0.63 0.78,0.62 0.79,0.63 0.78,0.62 0.78,0.63 0.78,0.62 0.78,0.63 0.78,0.62 0.79,0.63 0.78,0.62 0.78,0.63 0.78,0.63 0.78,0.62 0.78,0.63 0.79,0.62 0.78,0.63 0.78,0.62 0.78,0.63 0.78,0.63 0.79,0.62 0.78,0.63 0.78,0.62 0.78,0.63 0.78,0.63 0.78,0.62 0.79,0.63 0.78,0.62 0.78,0.63 0.78,0.63 0.78,0.62 0.78,0.63 0.79,0.63 0.78,0.62 0.78,0.63 0.78,0.63 0.78,0.62 0.78,0.63 0.79,0.63 0.78,0.62 0.78,0.63 0.78,0.63 0.78,0.62 0.78,0.63 0.79,0.63 0.78,0.63 0.78,0.62 0.78,0.63 0.78,0.63 0.78,0.63 0.79,0.62 0.78,0.63 0.78,0.63 0.78,0.63 0.78,0.62 0.79,0.63 0.78,0.63 0.78,0.63 0.78,0.62 0.78,0.63 0.78,0.63 0.79,0.63 0.78,0.63 0.78,0.62 0.78,0.63 0.78,0.63 0.78,0.63 0.79,0.63 0.78,0.63 0.78,0.62 0.78,0.63 0.78,0.63 0.78,0.63 0.79,0.63 0.78,0.63 0.78,0.63 0.78,0.62 0.78,0.63 0.78,0.63 0.79,0.63 0.78,0.63 0.78,0.63 0.78,0.63 0.78,0.63 0.78,0.63"
       style="fill:none;stroke:#000000;stroke-width:2.001;stroke-linecap:round;stroke-linejoin:round;stroke-miterlimit:10;stroke-dasharray:none;stroke-opacity:1"
       id="path152"
       sodipodi:nodetypes="ccccccccccccccccccccccccccccccccccccccccccccccccccccccccccccccccccccccccccccccccccccccccccccccccccccccccccccccccccccccccccccccccccccccccccccccccccccccccccccccccccccccccccccccccccccccccccccccccccccccccccccccccccccccccccccccccccccccccccccccccccccccccccccccccccccccccccccccc" />
    <path
       d="m 92.37,61.56 0.78,0.59 0.79,0.58 0.78,0.59 0.78,0.58 0.78,0.59 0.78,0.58 0.78,0.59 0.79,0.58 0.78,0.59 0.78,0.58 0.78,0.58 0.78,0.59 0.78,0.58 0.79,0.59 0.78,0.58 0.78,0.59 0.78,0.58 0.78,0.59 0.79,0.58 0.78,0.59 0.78,0.58 0.78,0.58 0.78,0.59 0.78,0.58 0.79,0.59 0.78,0.58 0.78,0.59 0.78,0.58 0.78,0.59 0.78,0.58 0.79,0.59 0.78,0.58 0.78,0.58 0.78,0.59 0.78,0.58 0.78,0.59 0.79,0.58 0.78,0.59 0.78,0.58 0.78,0.59 0.78,0.58 0.78,0.59 0.79,0.58 0.78,0.59 0.78,0.58 0.78,0.59 0.78,0.58 0.78,0.59 0.79,0.58 0.78,0.59 0.78,0.58 0.78,0.59 0.78,0.58 0.78,0.59 0.79,0.58 0.78,0.59 0.78,0.59 0.78,0.58 0.78,0.59 0.79,0.58 0.78,0.59 0.78,0.58 0.78,0.59 0.78,0.58 0.78,0.59 0.79,0.59 0.78,0.58 0.78,0.59 0.78,0.58 0.78,0.59 0.78,0.58 0.79,0.59 0.78,0.59 0.78,0.58 0.78,0.59 0.78,0.58 0.78,0.59 0.79,0.59 0.78,0.58 0.78,0.59 0.78,0.59 0.78,0.58 0.78,0.59 0.79,0.59 0.78,0.58 0.78,0.59 0.78,0.58 0.78,0.59 0.78,0.59 0.79,0.58 0.78,0.59 0.78,0.59 0.78,0.59 0.78,0.58 0.79,0.59 0.78,0.59 0.78,0.58 0.78,0.59 0.78,0.59 0.78,0.58 0.79,0.59 0.78,0.59 0.78,0.59 0.78,0.58 0.78,0.59 0.78,0.59 0.79,0.59 0.78,0.58 0.78,0.59 0.78,0.59 0.78,0.59 0.78,0.59 0.79,0.58 0.78,0.59 0.78,0.59 0.78,0.59 0.78,0.58 0.78,0.59 0.79,0.59 0.78,0.59 0.78,0.59 0.78,0.59 0.78,0.58 0.78,0.59 0.79,0.59 0.78,0.59 0.78,0.59 0.78,0.59 0.78,0.58 0.79,0.59 0.78,0.59 0.78,0.59 0.78,0.59 0.78,0.59 0.78,0.59 0.79,0.59 0.78,0.59 0.78,0.58 0.78,0.59 0.78,0.59 0.78,0.59 0.79,0.59 0.78,0.59 0.78,0.59 0.78,0.59 0.78,0.59 0.78,0.59 0.79,0.59 0.78,0.59 0.78,0.59 0.78,0.59 0.78,0.59 0.78,0.59 0.79,0.59 0.78,0.59 0.78,0.59 0.78,0.59 0.78,0.59 0.78,0.59 0.79,0.59 0.78,0.59 0.78,0.59 0.78,0.59 0.78,0.59 0.78,0.59 0.79,0.59 0.78,0.59 0.78,0.59 0.78,0.59 0.78,0.59 0.79,0.59 0.78,0.59 0.78,0.59 0.78,0.59 0.78,0.59 0.78,0.59 0.79,0.6 0.78,0.59 0.78,0.59 0.78,0.59 0.78,0.59 0.78,0.59 0.79,0.59 0.78,0.59 0.78,0.59 0.78,0.6 0.78,0.59 0.78,0.59 0.79,0.59 0.78,0.59 0.78,0.59 0.78,0.6 0.78,0.59 0.78,0.59 0.79,0.59 0.78,0.59 0.78,0.59 0.78,0.6 0.78,0.59 0.78,0.59 0.79,0.59 0.78,0.59 0.78,0.6 0.78,0.59 0.78,0.59 0.79,0.59 0.78,0.6 0.78,0.59 0.78,0.59 0.78,0.59 0.78,0.6 0.79,0.59 0.78,0.59 0.78,0.59 0.78,0.6 0.78,0.59 0.78,0.59 0.79,0.59 0.78,0.6 0.78,0.59 0.78,0.59 0.78,0.6 0.78,0.59 0.79,0.59 0.78,0.6 0.78,0.59 0.78,0.59 0.78,0.6 0.78,0.59 0.79,0.59 0.78,0.6 0.78,0.59 0.78,0.59 0.78,0.6 0.78,0.59 0.79,0.59 0.78,0.6 0.78,0.59 0.78,0.6 0.78,0.59 0.79,0.59 0.78,0.6 0.78,0.59 0.78,0.59 0.78,0.6 0.78,0.59 0.79,0.6 0.78,0.59 0.78,0.6 0.78,0.59 0.78,0.59 0.78,0.6 0.79,0.59 0.78,0.6 0.78,0.59 0.78,0.6 0.78,0.59 0.78,0.6 0.79,0.59 0.78,0.6 0.78,0.59 0.78,0.6 0.78,0.59 0.78,0.59 0.79,0.6 0.78,0.59 0.78,0.6 0.78,0.6 0.78,0.59 0.78,0.6"
       style="fill:none;stroke:#000000;stroke-width:2.001;stroke-linecap:round;stroke-linejoin:round;stroke-miterlimit:10;stroke-dasharray:none;stroke-opacity:1"
       id="path154"
       sodipodi:nodetypes="ccccccccccccccccccccccccccccccccccccccccccccccccccccccccccccccccccccccccccccccccccccccccccccccccccccccccccccccccccccccccccccccccccccccccccccccccccccccccccccccccccccccccccccccccccccccccccccccccccccccccccccccccccccccccccccccccccccccccccccccccccccccccccccccccccccccccccccccc" />
    <text
       xml:space="preserve"
       style="font-size:13px;line-height:1.25;font-family:'TeX Gyre Heros';-inkscape-font-specification:'TeX Gyre Heros';letter-spacing:0px;word-spacing:0px;stroke-width:0.75"
       x="305.66199"
       y="-286.5495"
       id="text445"
       transform="matrix(1,0,0,-1,2.2018645,1.5000005)"><tspan
         sodipodi:role="line"
         id="tspan443"
         x="305.66199"
         y="-286.5495"
         style="stroke-width:0.75">102400</tspan></text>
    <text
       xml:space="preserve"
       style="font-size:13px;line-height:1.25;font-family:'TeX Gyre Heros';-inkscape-font-specification:'TeX Gyre Heros';letter-spacing:0px;word-spacing:0px;stroke-width:0.75"
       x="306.54599"
       y="-264.6795"
       id="text445-3"
       transform="matrix(1,0,0,-1,2.2018645,1.5000005)"><tspan
         sodipodi:role="line"
         id="tspan443-6"
         x="306.54599"
         y="-264.6795"
         style="stroke-width:0.75">25600</tspan></text>
    <text
       xml:space="preserve"
       style="font-size:13px;line-height:1.25;font-family:'TeX Gyre Heros';-inkscape-font-specification:'TeX Gyre Heros';letter-spacing:0px;word-spacing:0px;stroke-width:0.75"
       x="306.42899"
       y="-245.3295"
       id="text445-7"
       transform="matrix(1,0,0,-1,2.2018645,1.5000005)"><tspan
         sodipodi:role="line"
         id="tspan443-5"
         x="306.42899"
         y="-245.3295"
         style="stroke-width:0.75">6400</tspan></text>
    <text
       xml:space="preserve"
       style="font-size:13px;line-height:1.25;font-family:'TeX Gyre Heros';-inkscape-font-specification:'TeX Gyre Heros';letter-spacing:0px;word-spacing:0px;stroke-width:0.75"
       x="305.66199"
       y="-228.0795"
       id="text445-35"
       transform="matrix(1,0,0,-1,2.2018645,1.5000005)"><tspan
         sodipodi:role="line"
         id="tspan443-62"
         x="305.66199"
         y="-228.0795"
         style="stroke-width:0.75">1600</tspan></text>
    <text
       xml:space="preserve"
       style="font-size:13px;line-height:1.25;font-family:'TeX Gyre Heros';-inkscape-font-specification:'TeX Gyre Heros';letter-spacing:0px;word-spacing:0px;stroke-width:0.75"
       x="306.62399"
       y="-212.6095"
       id="text445-9"
       transform="matrix(1,0,0,-1,2.2018645,1.5000005)"><tspan
         sodipodi:role="line"
         id="tspan443-1"
         x="306.62399"
         y="-212.6095"
         style="stroke-width:0.75">400</tspan></text>
    <text
       xml:space="preserve"
       style="font-size:15px;line-height:1.25;font-family:'TeX Gyre Heros';-inkscape-font-specification:'TeX Gyre Heros';letter-spacing:0px;word-spacing:0px;stroke-width:0.75"
       x="320.21497"
       y="-193.0905"
       id="text445-2"
       transform="matrix(1,0,0,-1,2.2018645,1.5000005)"><tspan
         sodipodi:role="line"
         x="320.21497"
         y="-193.0905"
         style="font-size:15px;text-align:center;text-anchor:middle;stroke-width:0.75"
         id="tspan818">N<tspan
   style="font-size:15px;baseline-shift:sub"
   id="tspan831">e</tspan></tspan></text>
  </g>
</svg>
