<?xml version="1.0" encoding="UTF-8" standalone="no"?>
<!-- Created with Inkscape (http://www.inkscape.org/) -->

<svg
   version="1.1"
   id="svg8181"
   width="472"
   height="416"
   viewBox="0 0 472 416"
   sodipodi:docname="whoisfirst2_promoterless.svg"
   inkscape:version="1.2 (dc2aeda, 2022-05-15)"
   xmlns:inkscape="http://www.inkscape.org/namespaces/inkscape"
   xmlns:sodipodi="http://sodipodi.sourceforge.net/DTD/sodipodi-0.dtd"
   xmlns="http://www.w3.org/2000/svg"
   xmlns:svg="http://www.w3.org/2000/svg">
  <defs
     id="defs8185">
    <clipPath
       clipPathUnits="userSpaceOnUse"
       id="clipPath8203">
      <path
         d="M 0,0 H 354.33 V 354.33 H 0 Z"
         id="path8201" />
    </clipPath>
    <clipPath
       clipPathUnits="userSpaceOnUse"
       id="clipPath8213">
      <path
         d="M 0,0 H 354.33 V 354.33 H 0 Z"
         id="path8211" />
    </clipPath>
  </defs>
  <sodipodi:namedview
     id="namedview8183"
     pagecolor="#ffffff"
     bordercolor="#666666"
     borderopacity="1.0"
     inkscape:showpageshadow="2"
     inkscape:pageopacity="0.0"
     inkscape:pagecheckerboard="0"
     inkscape:deskcolor="#d1d1d1"
     showgrid="false"
     inkscape:zoom="2.0264423"
     inkscape:cx="235.88138"
     inkscape:cy="208"
     inkscape:window-width="1920"
     inkscape:window-height="1011"
     inkscape:window-x="0"
     inkscape:window-y="0"
     inkscape:window-maximized="1"
     inkscape:current-layer="g8189">
    <inkscape:page
       x="0"
       y="0"
       id="page8187"
       width="472"
       height="416" />
  </sodipodi:namedview>
  <g
     id="g8189"
     inkscape:groupmode="layer"
     inkscape:label="Page 1"
     transform="matrix(1.3333333,0,0,-1.3333333,0,416)">
    <g
       id="g8197">
      <g
         id="g8199"
         clip-path="url(#clipPath8203)">
        <path
           d="M 0,0 H 354.33 V 311.81 H 0"
           style="fill:#ffffff;fill-opacity:1;fill-rule:evenodd;stroke:none"
           id="path8205" />
      </g>
    </g>
    <g
       id="g8207">
      <g
         id="g8209"
         clip-path="url(#clipPath8213)">
        <path
           d="M 96.83,54.62 H 342.52 V 300 H 96.83"
           style="fill:#ffffff;fill-opacity:1;fill-rule:evenodd;stroke:none"
           id="path8215" />
      </g>
    </g>
    <path
       d="M 120.95,54.62 V 300"
       style="fill:none;stroke:#000000;stroke-width:0.5003;stroke-linecap:round;stroke-linejoin:round;stroke-miterlimit:10;stroke-dasharray:none;stroke-opacity:0.0980392"
       id="path8217" />
    <path
       d="M 163.87,54.62 V 300"
       style="fill:none;stroke:#000000;stroke-width:0.5003;stroke-linecap:round;stroke-linejoin:round;stroke-miterlimit:10;stroke-dasharray:none;stroke-opacity:0.0980392"
       id="path8219" />
    <path
       d="M 206.8,54.62 V 300"
       style="fill:none;stroke:#000000;stroke-width:0.5003;stroke-linecap:round;stroke-linejoin:round;stroke-miterlimit:10;stroke-dasharray:none;stroke-opacity:0.0980392"
       id="path8221" />
    <path
       d="M 249.72,54.62 V 300"
       style="fill:none;stroke:#000000;stroke-width:0.5003;stroke-linecap:round;stroke-linejoin:round;stroke-miterlimit:10;stroke-dasharray:none;stroke-opacity:0.0980392"
       id="path8223" />
    <path
       d="M 292.64,54.62 V 300"
       style="fill:none;stroke:#000000;stroke-width:0.5003;stroke-linecap:round;stroke-linejoin:round;stroke-miterlimit:10;stroke-dasharray:none;stroke-opacity:0.0980392"
       id="path8225" />
    <path
       d="M 335.57,54.62 V 300"
       style="fill:none;stroke:#000000;stroke-width:0.5003;stroke-linecap:round;stroke-linejoin:round;stroke-miterlimit:10;stroke-dasharray:none;stroke-opacity:0.0980392"
       id="path8227" />
    <path
       d="M 96.83,54.62 H 342.52"
       style="fill:none;stroke:#000000;stroke-width:1.001;stroke-linecap:round;stroke-linejoin:round;stroke-miterlimit:10;stroke-dasharray:none;stroke-opacity:1"
       id="path8229" />
    <path
       d="M 96.83,300 H 342.52"
       style="fill:none;stroke:#000000;stroke-width:1.001;stroke-linecap:round;stroke-linejoin:round;stroke-miterlimit:10;stroke-dasharray:none;stroke-opacity:1"
       id="path8231" />
    <path
       d="m 120.95,54.62 v 4.72"
       style="fill:none;stroke:#000000;stroke-width:1.001;stroke-linecap:round;stroke-linejoin:round;stroke-miterlimit:10;stroke-dasharray:none;stroke-opacity:1"
       id="path8233" />
    <path
       d="m 163.87,54.62 v 4.72"
       style="fill:none;stroke:#000000;stroke-width:1.001;stroke-linecap:round;stroke-linejoin:round;stroke-miterlimit:10;stroke-dasharray:none;stroke-opacity:1"
       id="path8235" />
    <path
       d="m 206.8,54.62 v 4.72"
       style="fill:none;stroke:#000000;stroke-width:1.001;stroke-linecap:round;stroke-linejoin:round;stroke-miterlimit:10;stroke-dasharray:none;stroke-opacity:1"
       id="path8237" />
    <path
       d="m 249.72,54.62 v 4.72"
       style="fill:none;stroke:#000000;stroke-width:1.001;stroke-linecap:round;stroke-linejoin:round;stroke-miterlimit:10;stroke-dasharray:none;stroke-opacity:1"
       id="path8239" />
    <path
       d="m 292.64,54.62 v 4.72"
       style="fill:none;stroke:#000000;stroke-width:1.001;stroke-linecap:round;stroke-linejoin:round;stroke-miterlimit:10;stroke-dasharray:none;stroke-opacity:1"
       id="path8241" />
    <path
       d="m 335.57,54.62 v 4.72"
       style="fill:none;stroke:#000000;stroke-width:1.001;stroke-linecap:round;stroke-linejoin:round;stroke-miterlimit:10;stroke-dasharray:none;stroke-opacity:1"
       id="path8243" />
    <text
       xml:space="preserve"
       transform="matrix(1,0,0,-1,112.45,38.42)"
       style="font-variant:normal;font-weight:normal;font-size:15px;font-family:Helvetica;-inkscape-font-specification:Helvetica;writing-mode:lr-tb;fill:#000000;fill-opacity:1;fill-rule:nonzero;stroke:none"
       id="text8247"><tspan
         x="0 8.3400002"
         y="0"
         sodipodi:role="line"
         id="tspan8245">50</tspan></text>
    <text
       xml:space="preserve"
       transform="matrix(1,0,0,-1,151.37,38.42)"
       style="font-variant:normal;font-weight:normal;font-size:15px;font-family:Helvetica;-inkscape-font-specification:Helvetica;writing-mode:lr-tb;fill:#000000;fill-opacity:1;fill-rule:nonzero;stroke:none"
       id="text8251"><tspan
         x="0 8.3400002 16.68"
         y="0"
         sodipodi:role="line"
         id="tspan8249">100</tspan></text>
    <text
       xml:space="preserve"
       transform="matrix(1,0,0,-1,194.3,38.42)"
       style="font-variant:normal;font-weight:normal;font-size:15px;font-family:Helvetica;-inkscape-font-specification:Helvetica;writing-mode:lr-tb;fill:#000000;fill-opacity:1;fill-rule:nonzero;stroke:none"
       id="text8255"><tspan
         x="0 8.3400002 16.68"
         y="0"
         sodipodi:role="line"
         id="tspan8253">150</tspan></text>
    <text
       xml:space="preserve"
       transform="matrix(1,0,0,-1,237.22,38.42)"
       style="font-variant:normal;font-weight:normal;font-size:15px;font-family:Helvetica;-inkscape-font-specification:Helvetica;writing-mode:lr-tb;fill:#000000;fill-opacity:1;fill-rule:nonzero;stroke:none"
       id="text8259"><tspan
         x="0 8.3400002 16.68"
         y="0"
         sodipodi:role="line"
         id="tspan8257">200</tspan></text>
    <text
       xml:space="preserve"
       transform="matrix(1,0,0,-1,280.14,38.42)"
       style="font-variant:normal;font-weight:normal;font-size:15px;font-family:Helvetica;-inkscape-font-specification:Helvetica;writing-mode:lr-tb;fill:#000000;fill-opacity:1;fill-rule:nonzero;stroke:none"
       id="text8263"><tspan
         x="0 8.3400002 16.68"
         y="0"
         sodipodi:role="line"
         id="tspan8261">250</tspan></text>
    <text
       xml:space="preserve"
       transform="matrix(1,0,0,-1,323.07,38.42)"
       style="font-variant:normal;font-weight:normal;font-size:15px;font-family:Helvetica;-inkscape-font-specification:Helvetica;writing-mode:lr-tb;fill:#000000;fill-opacity:1;fill-rule:nonzero;stroke:none"
       id="text8267"><tspan
         x="0 8.3400002 16.68"
         y="0"
         sodipodi:role="line"
         id="tspan8265">300</tspan></text>
    <text
       xml:space="preserve"
       transform="matrix(1,0,0,-1,129.67,15.95)"
       style="font-variant:normal;font-weight:normal;font-size:19px;font-family:Helvetica;-inkscape-font-specification:Helvetica;writing-mode:lr-tb;fill:#000000;fill-opacity:1;fill-rule:nonzero;stroke:none"
       id="text8271"><tspan
         x="0 14.782 28.5 40.109001 45.390999 49.609001 60.173 70.737 81.301003 86.583 97.147003 102.429 108.756 118.256 128.82001 139.384 149.948 160.51199 170.01199"
         y="0"
         sodipodi:role="line"
         id="tspan8269">ORF length (codons)</tspan></text>
    <path
       d="M 96.83,72.3 H 342.52"
       style="fill:none;stroke:#000000;stroke-width:0.5003;stroke-linecap:round;stroke-linejoin:round;stroke-miterlimit:10;stroke-dasharray:none;stroke-opacity:0.0980392"
       id="path8273" />
    <path
       d="M 96.83,125.66 H 342.52"
       style="fill:none;stroke:#000000;stroke-width:0.5003;stroke-linecap:round;stroke-linejoin:round;stroke-miterlimit:10;stroke-dasharray:none;stroke-opacity:0.0980392"
       id="path8275" />
    <path
       d="M 96.83,179.03 H 342.52"
       style="fill:none;stroke:#000000;stroke-width:0.5003;stroke-linecap:round;stroke-linejoin:round;stroke-miterlimit:10;stroke-dasharray:none;stroke-opacity:0.0980392"
       id="path8277" />
    <path
       d="M 96.83,232.4 H 342.52"
       style="fill:none;stroke:#000000;stroke-width:0.5003;stroke-linecap:round;stroke-linejoin:round;stroke-miterlimit:10;stroke-dasharray:none;stroke-opacity:0.0980392"
       id="path8279" />
    <path
       d="M 96.83,285.77 H 342.52"
       style="fill:none;stroke:#000000;stroke-width:0.5003;stroke-linecap:round;stroke-linejoin:round;stroke-miterlimit:10;stroke-dasharray:none;stroke-opacity:0.0980392"
       id="path8281" />
    <path
       d="M 96.83,54.62 V 300"
       style="fill:none;stroke:#000000;stroke-width:1.001;stroke-linecap:round;stroke-linejoin:round;stroke-miterlimit:10;stroke-dasharray:none;stroke-opacity:1"
       id="path8283" />
    <path
       d="M 342.52,54.62 V 300"
       style="fill:none;stroke:#000000;stroke-width:1.001;stroke-linecap:round;stroke-linejoin:round;stroke-miterlimit:10;stroke-dasharray:none;stroke-opacity:1"
       id="path8285" />
    <path
       d="m 96.83,72.3 h 4.72"
       style="fill:none;stroke:#000000;stroke-width:1.001;stroke-linecap:round;stroke-linejoin:round;stroke-miterlimit:10;stroke-dasharray:none;stroke-opacity:1"
       id="path8287" />
    <path
       d="m 96.83,125.66 h 4.72"
       style="fill:none;stroke:#000000;stroke-width:1.001;stroke-linecap:round;stroke-linejoin:round;stroke-miterlimit:10;stroke-dasharray:none;stroke-opacity:1"
       id="path8289" />
    <path
       d="m 96.83,179.03 h 4.72"
       style="fill:none;stroke:#000000;stroke-width:1.001;stroke-linecap:round;stroke-linejoin:round;stroke-miterlimit:10;stroke-dasharray:none;stroke-opacity:1"
       id="path8291" />
    <path
       d="m 96.83,232.4 h 4.72"
       style="fill:none;stroke:#000000;stroke-width:1.001;stroke-linecap:round;stroke-linejoin:round;stroke-miterlimit:10;stroke-dasharray:none;stroke-opacity:1"
       id="path8293" />
    <path
       d="m 96.83,285.77 h 4.72"
       style="fill:none;stroke:#000000;stroke-width:1.001;stroke-linecap:round;stroke-linejoin:round;stroke-miterlimit:10;stroke-dasharray:none;stroke-opacity:1"
       id="path8295" />
    <text
       xml:space="preserve"
       transform="matrix(1,0,0,-1,53.69,66.8)"
       style="font-variant:normal;font-weight:normal;font-size:15px;font-family:Helvetica;-inkscape-font-specification:Helvetica;writing-mode:lr-tb;fill:#000000;fill-opacity:1;fill-rule:nonzero;stroke:none"
       id="text8299"><tspan
         sodipodi:role="line"
         id="tspan8297"
         x="0"
         y="0">−0.25</tspan></text>
    <text
       xml:space="preserve"
       transform="matrix(1,0,0,-1,53.69,120.16)"
       style="font-variant:normal;font-weight:normal;font-size:15px;font-family:Helvetica;-inkscape-font-specification:Helvetica;writing-mode:lr-tb;fill:#000000;fill-opacity:1;fill-rule:nonzero;stroke:none"
       id="text8303"><tspan
         sodipodi:role="line"
         id="tspan8301"
         x="0"
         y="0">−0.20</tspan></text>
    <text
       xml:space="preserve"
       transform="matrix(1,0,0,-1,53.69,173.53)"
       style="font-variant:normal;font-weight:normal;font-size:15px;font-family:Helvetica;-inkscape-font-specification:Helvetica;writing-mode:lr-tb;fill:#000000;fill-opacity:1;fill-rule:nonzero;stroke:none"
       id="text8307"><tspan
         sodipodi:role="line"
         id="tspan8305"
         x="0"
         y="0">−0.15</tspan></text>
    <text
       xml:space="preserve"
       transform="matrix(1,0,0,-1,53.69,226.9)"
       style="font-variant:normal;font-weight:normal;font-size:15px;font-family:Helvetica;-inkscape-font-specification:Helvetica;writing-mode:lr-tb;fill:#000000;fill-opacity:1;fill-rule:nonzero;stroke:none"
       id="text8311"><tspan
         sodipodi:role="line"
         id="tspan8309"
         x="0"
         y="0">−0.10</tspan></text>
    <text
       xml:space="preserve"
       transform="matrix(1,0,0,-1,53.69,280.27)"
       style="font-variant:normal;font-weight:normal;font-size:15px;font-family:Helvetica;-inkscape-font-specification:Helvetica;writing-mode:lr-tb;fill:#000000;fill-opacity:1;fill-rule:nonzero;stroke:none"
       id="text8315"><tspan
         sodipodi:role="line"
         id="tspan8313"
         x="0"
         y="0">−0.05</tspan></text>
    <path
       d="m 103.78,293.06 0.86,-1.58 0.86,-1.57 0.86,-1.56 0.85,-1.55 0.86,-1.55 0.86,-1.53 0.86,-1.53 0.86,-1.52 0.86,-1.51 0.86,-1.5 0.85,-1.5 0.86,-1.48 0.86,-1.48 0.86,-1.47 0.86,-1.45 0.86,-1.46 0.85,-1.44 0.86,-1.43 0.86,-1.43 0.86,-1.41 0.86,-1.41 0.86,-1.4 0.86,-1.4 0.85,-1.38 0.86,-1.38 0.86,-1.36 0.86,-1.36 0.86,-1.35 0.86,-1.35 0.85,-1.33 0.86,-1.33 0.86,-1.32 0.86,-1.31 0.86,-1.31 0.86,-1.29 0.86,-1.29 0.85,-1.28 0.86,-1.27 0.86,-1.27 0.86,-1.26 0.86,-1.25 0.86,-1.24 0.85,-1.24 0.86,-1.23 0.86,-1.22 0.86,-1.22 0.86,-1.2 0.86,-1.21 0.86,-1.19 0.85,-1.19 0.86,-1.18 0.86,-1.17 0.86,-1.17 0.86,-1.16 0.86,-1.15 0.85,-1.15 0.86,-1.14 0.86,-1.13 0.86,-1.13 0.86,-1.12 0.86,-1.12 0.86,-1.11 0.85,-1.1 0.86,-1.1 0.86,-1.09 0.86,-1.08 0.86,-1.08 0.86,-1.07 0.85,-1.07 0.86,-1.06 0.86,-1.05 0.86,-1.05 0.86,-1.05 0.86,-1.04 0.86,-1.03 0.85,-1.03 0.86,-1.02 0.86,-1.01 0.86,-1.01 0.86,-1.01 0.86,-1 0.85,-0.99 0.86,-0.99 0.86,-0.99 0.86,-0.98 0.86,-0.97 0.86,-0.97 0.86,-0.97 0.85,-0.96 0.86,-0.95 0.86,-0.95 0.86,-0.95 0.86,-0.94 0.86,-0.93 0.86,-0.93 0.85,-0.93 0.86,-0.92 0.86,-0.92 0.86,-0.91 0.86,-0.91 0.86,-0.9 0.85,-0.9 0.86,-0.89 0.86,-0.89 0.86,-0.89 0.86,-0.88 0.86,-0.88 0.86,-0.87 0.85,-0.87 0.86,-0.87 0.86,-0.86 0.86,-0.86 0.86,-0.85 0.86,-0.85 0.85,-0.84 0.86,-0.84 0.86,-0.84 0.86,-0.83 0.86,-0.83 0.86,-0.83 0.86,-0.82 0.85,-0.82 0.86,-0.81 0.86,-0.81 0.86,-0.81 0.86,-0.8 0.86,-0.8 0.85,-0.8 0.86,-0.79 0.86,-0.79 0.86,-0.79 0.86,-0.78 0.86,-0.78 0.86,-0.78 0.85,-0.77 0.86,-0.77 0.86,-0.76 0.86,-0.76 0.86,-0.76 0.86,-0.76 0.85,-0.75 0.86,-0.75 0.86,-0.75 0.86,-0.74 0.86,-0.74 0.86,-0.74 0.86,-0.73 0.85,-0.73 0.86,-0.73 0.86,-0.73 0.86,-0.72 0.86,-0.72 0.86,-0.71 0.85,-0.72 0.86,-0.71 0.86,-0.7 0.86,-0.71 0.86,-0.7 0.86,-0.7 0.86,-0.7 0.85,-0.69 0.86,-0.69 0.86,-0.69 0.86,-0.68 0.86,-0.69 0.86,-0.68 0.85,-0.67 0.86,-0.68 0.86,-0.67 0.86,-0.67 0.86,-0.67 0.86,-0.66 0.86,-0.66 0.85,-0.66 0.86,-0.66 0.86,-0.66 0.86,-0.65 0.86,-0.65 0.86,-0.65 0.85,-0.64 0.86,-0.64 0.86,-0.64 0.86,-0.64 0.86,-0.64 0.86,-0.63 0.86,-0.63 0.85,-0.63 0.86,-0.63 0.86,-0.62 0.86,-0.62 0.86,-0.62 0.86,-0.62 0.85,-0.62 0.86,-0.61 0.86,-0.61 0.86,-0.61 0.86,-0.61 0.86,-0.6 0.86,-0.61 0.85,-0.6 0.86,-0.6 0.86,-0.59 0.86,-0.6 0.86,-0.59 0.86,-0.59 0.85,-0.59 0.86,-0.59 0.86,-0.58 0.86,-0.58 0.86,-0.58 0.86,-0.58 0.86,-0.58 0.85,-0.58 0.86,-0.57 0.86,-0.57 0.86,-0.57 0.86,-0.57 0.86,-0.56 0.85,-0.57 0.86,-0.56 0.86,-0.56 0.86,-0.56 0.86,-0.56 0.86,-0.55 0.86,-0.56 0.85,-0.55 0.86,-0.55 0.86,-0.55 0.86,-0.54 0.86,-0.55 0.86,-0.54 0.85,-0.54 0.86,-0.54 0.86,-0.54 0.86,-0.54 0.86,-0.53 0.86,-0.54 0.86,-0.53 0.85,-0.53 0.86,-0.53 0.86,-0.52 0.86,-0.53 0.86,-0.52 0.86,-0.53 0.85,-0.52 0.86,-0.52 0.86,-0.51 0.86,-0.52 0.86,-0.51 0.86,-0.52 0.86,-0.51 0.85,-0.51 0.86,-0.51 0.86,-0.51 0.86,-0.5 0.86,-0.51 0.86,-0.5 0.86,-0.5 0.85,-0.5 0.86,-0.5 0.86,-0.5 0.86,-0.5 0.86,-0.49 0.86,-0.49 0.85,-0.5 0.86,-0.49 0.86,-0.49 0.86,-0.49 0.86,-0.48 0.86,-0.49"
       style="fill:none;stroke:#000000;stroke-width:2.001;stroke-linecap:round;stroke-linejoin:round;stroke-miterlimit:10;stroke-dasharray:none;stroke-opacity:1"
       id="path8325" />
    <g
       id="g1183"
       transform="translate(15.146488)">
      <text
         xml:space="preserve"
         style="font-size:19px;line-height:1.25;font-family:'TeX Gyre Heros';-inkscape-font-specification:'TeX Gyre Heros';letter-spacing:0px;word-spacing:0px;stroke-width:0.75"
         x="116.23402"
         y="16.32781"
         id="text1355"
         transform="matrix(0,1,1,0,0,0)"><tspan
           sodipodi:role="line"
           id="tspan1353"
           style="font-size:19px;stroke-width:0.75"
           x="116.23402"
           y="16.32781">log<tspan
   style="font-size:14px;baseline-shift:sub"
   id="tspan1263">2</tspan></tspan></text>
      <g
         id="g1380"
         transform="translate(-12.284697,10.730695)">
        <text
           xml:space="preserve"
           style="font-size:19px;line-height:1.25;font-family:'TeX Gyre Heros';-inkscape-font-specification:'TeX Gyre Heros';letter-spacing:0px;word-spacing:0px;stroke-width:0.75"
           x="182.55278"
           y="16.658501"
           id="text553"
           transform="matrix(0,1,1,0,0,0)"><tspan
             sodipodi:role="line"
             id="tspan551"
             style="font-size:19px;text-align:center;text-anchor:middle;stroke-width:0.75"
             x="182.55278"
             y="16.658501">P<tspan
   style="font-style:italic;font-size:14px;baseline-shift:sub"
   id="tspan635">ORF-first</tspan></tspan><tspan
             sodipodi:role="line"
             style="font-style:italic;font-size:19px;text-align:center;text-anchor:middle;stroke-width:0.75"
             x="182.55278"
             y="40.408501"
             id="tspan555" /></text>
        <path
           style="fill:none;stroke:#000000;stroke-width:1.13386;stroke-linecap:butt;stroke-linejoin:miter;stroke-dasharray:none;stroke-opacity:1"
           d="m 23.779007,145.90388 v 75.55881"
           id="path693"
           sodipodi:nodetypes="cc" />
        <text
           xml:space="preserve"
           style="font-size:19px;line-height:1.25;font-family:'TeX Gyre Heros';-inkscape-font-specification:'TeX Gyre Heros';letter-spacing:0px;word-spacing:0px;stroke-width:0.75"
           x="148.18138"
           y="40.698513"
           id="text697"
           transform="matrix(0,1,1,0,0,0)"><tspan
             sodipodi:role="line"
             id="tspan695"
             style="font-size:19px;stroke-width:0.75"
             x="148.18138"
             y="40.698513">P<tspan
   style="font-style:italic;font-size:14px;baseline-shift:sub"
   id="tspan699">RNA-first</tspan></tspan></text>
      </g>
      <g
         aria-label=")"
         transform="matrix(0,1,2.0731013,0,-48.295216,-11.58558)"
         id="text1363"
         style="font-size:20px;line-height:1.25;font-family:'TeX Gyre Heros';-inkscape-font-specification:'TeX Gyre Heros';letter-spacing:0px;word-spacing:0px;stroke-width:0.75">
        <path
           d="m 248.67956,29.525936 c 0,-3.16 -1.26,-6.8 -3.26,-9.42 h -1.1 c 1.76,2.86 2.74,6.22 2.74,9.42 0,3.18 -0.98,6.56 -2.74,9.4 h 1.1 c 2,-2.62 3.26,-6.26 3.26,-9.4 z"
           id="path1365" />
      </g>
      <g
         aria-label=")"
         transform="matrix(0,-1,-2.0731013,0,74.083835,400.41354)"
         id="g1370"
         style="font-size:20px;line-height:1.25;font-family:'TeX Gyre Heros';-inkscape-font-specification:'TeX Gyre Heros';letter-spacing:0px;word-spacing:0px;stroke-width:0.75">
        <path
           d="m 248.67956,29.525936 c 0,-3.16 -1.26,-6.8 -3.26,-9.42 h -1.1 c 1.76,2.86 2.74,6.22 2.74,9.42 0,3.18 -0.98,6.56 -2.74,9.4 h 1.1 c 2,-2.62 3.26,-6.26 3.26,-9.4 z"
           id="path1368" />
      </g>
    </g>
  </g>
</svg>
