<?xml version="1.0" encoding="UTF-8" standalone="no"?>
<!-- Created with Inkscape (http://www.inkscape.org/) -->

<svg
   version="1.1"
   id="svg6885"
   width="472"
   height="416"
   viewBox="0 0 472 416"
   sodipodi:docname="whoisfirst_promoterless.svg"
   inkscape:version="1.2 (dc2aeda, 2022-05-15)"
   xmlns:inkscape="http://www.inkscape.org/namespaces/inkscape"
   xmlns:sodipodi="http://sodipodi.sourceforge.net/DTD/sodipodi-0.dtd"
   xmlns="http://www.w3.org/2000/svg"
   xmlns:svg="http://www.w3.org/2000/svg">
  <defs
     id="defs6889">
    <clipPath
       clipPathUnits="userSpaceOnUse"
       id="clipPath6907">
      <path
         d="M 0,0 H 354.33 V 354.33 H 0 Z"
         id="path6905" />
    </clipPath>
    <clipPath
       clipPathUnits="userSpaceOnUse"
       id="clipPath6917">
      <path
         d="M 0,0 H 354.33 V 354.33 H 0 Z"
         id="path6915" />
    </clipPath>
  </defs>
  <sodipodi:namedview
     id="namedview6887"
     pagecolor="#ffffff"
     bordercolor="#666666"
     borderopacity="1.0"
     inkscape:showpageshadow="2"
     inkscape:pageopacity="0.0"
     inkscape:pagecheckerboard="0"
     inkscape:deskcolor="#d1d1d1"
     showgrid="false"
     inkscape:zoom="2.0264423"
     inkscape:cx="235.88138"
     inkscape:cy="168.52195"
     inkscape:window-width="1920"
     inkscape:window-height="1011"
     inkscape:window-x="0"
     inkscape:window-y="0"
     inkscape:window-maximized="1"
     inkscape:current-layer="g6893">
    <inkscape:page
       x="0"
       y="0"
       id="page6891"
       width="472"
       height="416" />
  </sodipodi:namedview>
  <g
     id="g6893"
     inkscape:groupmode="layer"
     inkscape:label="Page 1"
     transform="matrix(1.3333333,0,0,-1.3333333,0,416)">
    <g
       id="g6901">
      <g
         id="g6903"
         clip-path="url(#clipPath6907)">
        <path
           d="M 0,0 H 354.33 V 311.81 H 0"
           style="fill:#ffffff;fill-opacity:1;fill-rule:evenodd;stroke:none"
           id="path6909" />
      </g>
    </g>
    <g
       id="g6911">
      <g
         id="g6913"
         clip-path="url(#clipPath6917)">
        <path
           d="M 88.46,54.62 H 342.52 V 300 H 88.46"
           style="fill:#ffffff;fill-opacity:1;fill-rule:evenodd;stroke:none"
           id="path6919" />
      </g>
    </g>
    <path
       d="M 113.41,54.62 V 300"
       style="fill:none;stroke:#000000;stroke-width:0.5003;stroke-linecap:round;stroke-linejoin:round;stroke-miterlimit:10;stroke-dasharray:none;stroke-opacity:0.0980392"
       id="path6921" />
    <path
       d="M 157.79,54.62 V 300"
       style="fill:none;stroke:#000000;stroke-width:0.5003;stroke-linecap:round;stroke-linejoin:round;stroke-miterlimit:10;stroke-dasharray:none;stroke-opacity:0.0980392"
       id="path6923" />
    <path
       d="M 202.18,54.62 V 300"
       style="fill:none;stroke:#000000;stroke-width:0.5003;stroke-linecap:round;stroke-linejoin:round;stroke-miterlimit:10;stroke-dasharray:none;stroke-opacity:0.0980392"
       id="path6925" />
    <path
       d="M 246.56,54.62 V 300"
       style="fill:none;stroke:#000000;stroke-width:0.5003;stroke-linecap:round;stroke-linejoin:round;stroke-miterlimit:10;stroke-dasharray:none;stroke-opacity:0.0980392"
       id="path6927" />
    <path
       d="M 290.95,54.62 V 300"
       style="fill:none;stroke:#000000;stroke-width:0.5003;stroke-linecap:round;stroke-linejoin:round;stroke-miterlimit:10;stroke-dasharray:none;stroke-opacity:0.0980392"
       id="path6929" />
    <path
       d="M 335.33,54.62 V 300"
       style="fill:none;stroke:#000000;stroke-width:0.5003;stroke-linecap:round;stroke-linejoin:round;stroke-miterlimit:10;stroke-dasharray:none;stroke-opacity:0.0980392"
       id="path6931" />
    <path
       d="M 88.46,54.62 H 342.52"
       style="fill:none;stroke:#000000;stroke-width:1.001;stroke-linecap:round;stroke-linejoin:round;stroke-miterlimit:10;stroke-dasharray:none;stroke-opacity:1"
       id="path6933" />
    <path
       d="M 88.46,300 H 342.52"
       style="fill:none;stroke:#000000;stroke-width:1.001;stroke-linecap:round;stroke-linejoin:round;stroke-miterlimit:10;stroke-dasharray:none;stroke-opacity:1"
       id="path6935" />
    <path
       d="m 113.41,54.62 v 4.72"
       style="fill:none;stroke:#000000;stroke-width:1.001;stroke-linecap:round;stroke-linejoin:round;stroke-miterlimit:10;stroke-dasharray:none;stroke-opacity:1"
       id="path6937" />
    <path
       d="m 157.79,54.62 v 4.72"
       style="fill:none;stroke:#000000;stroke-width:1.001;stroke-linecap:round;stroke-linejoin:round;stroke-miterlimit:10;stroke-dasharray:none;stroke-opacity:1"
       id="path6939" />
    <path
       d="m 202.18,54.62 v 4.72"
       style="fill:none;stroke:#000000;stroke-width:1.001;stroke-linecap:round;stroke-linejoin:round;stroke-miterlimit:10;stroke-dasharray:none;stroke-opacity:1"
       id="path6941" />
    <path
       d="m 246.56,54.62 v 4.72"
       style="fill:none;stroke:#000000;stroke-width:1.001;stroke-linecap:round;stroke-linejoin:round;stroke-miterlimit:10;stroke-dasharray:none;stroke-opacity:1"
       id="path6943" />
    <path
       d="m 290.95,54.62 v 4.72"
       style="fill:none;stroke:#000000;stroke-width:1.001;stroke-linecap:round;stroke-linejoin:round;stroke-miterlimit:10;stroke-dasharray:none;stroke-opacity:1"
       id="path6945" />
    <path
       d="m 335.33,54.62 v 4.72"
       style="fill:none;stroke:#000000;stroke-width:1.001;stroke-linecap:round;stroke-linejoin:round;stroke-miterlimit:10;stroke-dasharray:none;stroke-opacity:1"
       id="path6947" />
    <text
       xml:space="preserve"
       transform="matrix(1,0,0,-1,104.91,38.42)"
       style="font-variant:normal;font-weight:normal;font-size:15px;font-family:Helvetica;-inkscape-font-specification:Helvetica;writing-mode:lr-tb;fill:#000000;fill-opacity:1;fill-rule:nonzero;stroke:none"
       id="text6951"><tspan
         x="0 8.3400002"
         y="0"
         sodipodi:role="line"
         id="tspan6949">50</tspan></text>
    <text
       xml:space="preserve"
       transform="matrix(1,0,0,-1,145.29,38.42)"
       style="font-variant:normal;font-weight:normal;font-size:15px;font-family:Helvetica;-inkscape-font-specification:Helvetica;writing-mode:lr-tb;fill:#000000;fill-opacity:1;fill-rule:nonzero;stroke:none"
       id="text6955"><tspan
         x="0 8.3400002 16.68"
         y="0"
         sodipodi:role="line"
         id="tspan6953">100</tspan></text>
    <text
       xml:space="preserve"
       transform="matrix(1,0,0,-1,189.68,38.42)"
       style="font-variant:normal;font-weight:normal;font-size:15px;font-family:Helvetica;-inkscape-font-specification:Helvetica;writing-mode:lr-tb;fill:#000000;fill-opacity:1;fill-rule:nonzero;stroke:none"
       id="text6959"><tspan
         x="0 8.3400002 16.68"
         y="0"
         sodipodi:role="line"
         id="tspan6957">150</tspan></text>
    <text
       xml:space="preserve"
       transform="matrix(1,0,0,-1,234.06,38.42)"
       style="font-variant:normal;font-weight:normal;font-size:15px;font-family:Helvetica;-inkscape-font-specification:Helvetica;writing-mode:lr-tb;fill:#000000;fill-opacity:1;fill-rule:nonzero;stroke:none"
       id="text6963"><tspan
         x="0 8.3400002 16.68"
         y="0"
         sodipodi:role="line"
         id="tspan6961">200</tspan></text>
    <text
       xml:space="preserve"
       transform="matrix(1,0,0,-1,278.45,38.42)"
       style="font-variant:normal;font-weight:normal;font-size:15px;font-family:Helvetica;-inkscape-font-specification:Helvetica;writing-mode:lr-tb;fill:#000000;fill-opacity:1;fill-rule:nonzero;stroke:none"
       id="text6967"><tspan
         x="0 8.3400002 16.68"
         y="0"
         sodipodi:role="line"
         id="tspan6965">250</tspan></text>
    <text
       xml:space="preserve"
       transform="matrix(1,0,0,-1,322.83,38.42)"
       style="font-variant:normal;font-weight:normal;font-size:15px;font-family:Helvetica;-inkscape-font-specification:Helvetica;writing-mode:lr-tb;fill:#000000;fill-opacity:1;fill-rule:nonzero;stroke:none"
       id="text6971"><tspan
         x="0 8.3400002 16.68"
         y="0"
         sodipodi:role="line"
         id="tspan6969">300</tspan></text>
    <text
       xml:space="preserve"
       transform="matrix(1,0,0,-1,125.49,15.95)"
       style="font-variant:normal;font-weight:normal;font-size:19px;font-family:Helvetica;-inkscape-font-specification:Helvetica;writing-mode:lr-tb;fill:#000000;fill-opacity:1;fill-rule:nonzero;stroke:none"
       id="text6975"><tspan
         x="0 14.782 28.5 40.109001 45.390999 49.609001 60.173 70.737 81.301003 86.583 97.147003 102.429 108.756 118.256 128.82001 139.384 149.948 160.51199 170.01199"
         y="0"
         sodipodi:role="line"
         id="tspan6973">ORF length (codons)</tspan></text>
    <path
       d="M 88.46,114.25 H 342.52"
       style="fill:none;stroke:#000000;stroke-width:0.5003;stroke-linecap:round;stroke-linejoin:round;stroke-miterlimit:10;stroke-dasharray:none;stroke-opacity:0.0980392"
       id="path6977" />
    <path
       d="M 88.46,175.41 H 342.52"
       style="fill:none;stroke:#000000;stroke-width:0.5003;stroke-linecap:round;stroke-linejoin:round;stroke-miterlimit:10;stroke-dasharray:none;stroke-opacity:0.0980392"
       id="path6979" />
    <path
       d="M 88.46,236.56 H 342.52"
       style="fill:none;stroke:#000000;stroke-width:0.5003;stroke-linecap:round;stroke-linejoin:round;stroke-miterlimit:10;stroke-dasharray:none;stroke-opacity:0.0980392"
       id="path6981" />
    <path
       d="M 88.46,297.72 H 342.52"
       style="fill:none;stroke:#000000;stroke-width:0.5003;stroke-linecap:round;stroke-linejoin:round;stroke-miterlimit:10;stroke-dasharray:none;stroke-opacity:0.0980392"
       id="path6983" />
    <path
       d="M 88.46,54.62 V 300"
       style="fill:none;stroke:#000000;stroke-width:1.001;stroke-linecap:round;stroke-linejoin:round;stroke-miterlimit:10;stroke-dasharray:none;stroke-opacity:1"
       id="path6985" />
    <path
       d="M 342.52,54.62 V 300"
       style="fill:none;stroke:#000000;stroke-width:1.001;stroke-linecap:round;stroke-linejoin:round;stroke-miterlimit:10;stroke-dasharray:none;stroke-opacity:1"
       id="path6987" />
    <path
       d="m 88.46,114.25 h 4.73"
       style="fill:none;stroke:#000000;stroke-width:1.001;stroke-linecap:round;stroke-linejoin:round;stroke-miterlimit:10;stroke-dasharray:none;stroke-opacity:1"
       id="path6989" />
    <path
       d="m 88.46,175.41 h 4.73"
       style="fill:none;stroke:#000000;stroke-width:1.001;stroke-linecap:round;stroke-linejoin:round;stroke-miterlimit:10;stroke-dasharray:none;stroke-opacity:1"
       id="path6991" />
    <path
       d="m 88.46,236.56 h 4.73"
       style="fill:none;stroke:#000000;stroke-width:1.001;stroke-linecap:round;stroke-linejoin:round;stroke-miterlimit:10;stroke-dasharray:none;stroke-opacity:1"
       id="path6993" />
    <path
       d="m 88.46,297.72 h 4.73"
       style="fill:none;stroke:#000000;stroke-width:1.001;stroke-linecap:round;stroke-linejoin:round;stroke-miterlimit:10;stroke-dasharray:none;stroke-opacity:1"
       id="path6995" />
    <text
       xml:space="preserve"
       transform="matrix(1,0,0,-1,54.01,108.75)"
       style="font-variant:normal;font-weight:normal;font-size:15px;font-family:Helvetica;-inkscape-font-specification:Helvetica;writing-mode:lr-tb;fill:#000000;fill-opacity:1;fill-rule:nonzero;stroke:none"
       id="text6999"><tspan
         sodipodi:role="line"
         id="tspan6997"
         x="0"
         y="0">−3.7</tspan></text>
    <text
       xml:space="preserve"
       transform="matrix(1,0,0,-1,54.01,169.91)"
       style="font-variant:normal;font-weight:normal;font-size:15px;font-family:Helvetica;-inkscape-font-specification:Helvetica;writing-mode:lr-tb;fill:#000000;fill-opacity:1;fill-rule:nonzero;stroke:none"
       id="text7003"><tspan
         sodipodi:role="line"
         id="tspan7001"
         x="0"
         y="0">−3.6</tspan></text>
    <text
       xml:space="preserve"
       transform="matrix(1,0,0,-1,54.01,231.06)"
       style="font-variant:normal;font-weight:normal;font-size:15px;font-family:Helvetica;-inkscape-font-specification:Helvetica;writing-mode:lr-tb;fill:#000000;fill-opacity:1;fill-rule:nonzero;stroke:none"
       id="text7007"><tspan
         sodipodi:role="line"
         id="tspan7005"
         x="0"
         y="0">−3.5</tspan></text>
    <text
       xml:space="preserve"
       transform="matrix(1,0,0,-1,54.01,292.22)"
       style="font-variant:normal;font-weight:normal;font-size:15px;font-family:Helvetica;-inkscape-font-specification:Helvetica;writing-mode:lr-tb;fill:#000000;fill-opacity:1;fill-rule:nonzero;stroke:none"
       id="text7011"><tspan
         sodipodi:role="line"
         id="tspan7009"
         x="0"
         y="0">−3.4</tspan></text>
    <path
       d="m 95.65,293.06 0.89,-5.82 0.89,-5.68 0.89,-5.56 0.88,-5.43 0.89,-5.3 0.89,-5.19 0.89,-5.07 0.89,-4.96 0.88,-4.84 0.89,-4.74 0.89,-4.64 0.89,-4.53 0.88,-4.43 0.89,-4.34 0.89,-4.24 0.89,-4.14 0.88,-4.06 0.89,-3.97 0.89,-3.88 0.89,-3.79 0.89,-3.72 0.88,-3.63 0.89,-3.56 0.89,-3.47 0.89,-3.4 0.88,-3.33 0.89,-3.25 0.89,-3.19 0.89,-3.11 0.88,-3.05 0.89,-2.98 0.89,-2.91 0.89,-2.85 0.89,-2.79 0.88,-2.72 0.89,-2.67 0.89,-2.61 0.89,-2.54 0.88,-2.5 0.89,-2.43 0.89,-2.38 0.89,-2.33 0.88,-2.28 0.89,-2.22 0.89,-2.18 0.89,-2.12 0.89,-2.07 0.88,-2.03 0.89,-1.98 0.89,-1.93 0.89,-1.89 0.88,-1.84 0.89,-1.8 0.89,-1.76 0.89,-1.71 0.88,-1.68 0.89,-1.63 0.89,-1.59 0.89,-1.55 0.89,-1.51 0.88,-1.48 0.89,-1.43 0.89,-1.4 0.89,-1.36 0.88,-1.33 0.89,-1.29 0.89,-1.26 0.89,-1.22 0.88,-1.19 0.89,-1.16 0.89,-1.12 0.89,-1.09 0.89,-1.06 0.88,-1.03 0.89,-1 0.89,-0.97 0.89,-0.94 0.88,-0.9 0.89,-0.88 0.89,-0.86 0.89,-0.82 0.88,-0.79 0.89,-0.77 0.89,-0.74 0.89,-0.72 0.89,-0.69 0.88,-0.66 0.89,-0.64 0.89,-0.61 0.89,-0.59 0.88,-0.57 0.89,-0.54 0.89,-0.51 0.89,-0.5 0.88,-0.47 0.89,-0.44 0.89,-0.43 0.89,-0.4 0.89,-0.38 0.88,-0.36 0.89,-0.34 0.89,-0.32 0.89,-0.29 0.88,-0.28 0.89,-0.26 0.89,-0.23 0.89,-0.22 0.88,-0.2 0.89,-0.18 0.89,-0.16 0.89,-0.14 0.89,-0.12 0.88,-0.1 0.89,-0.09 0.89,-0.07 0.89,-0.05 0.88,-0.03 0.89,-0.02 h 0.89 l 0.89,0.02 0.88,0.03 0.89,0.05 0.89,0.07 0.89,0.08 0.89,0.1 0.88,0.11 0.89,0.13 0.89,0.15 0.89,0.15 0.88,0.18 0.89,0.19 0.89,0.2 0.89,0.22 0.88,0.23 0.89,0.24 0.89,0.26 0.89,0.28 0.89,0.28 0.88,0.3 0.89,0.32 0.89,0.32 0.89,0.34 0.88,0.35 0.89,0.37 0.89,0.38 0.89,0.39 0.88,0.4 0.89,0.41 0.89,0.43 0.89,0.44 0.89,0.45 0.88,0.46 0.89,0.47 0.89,0.48 0.89,0.5 0.88,0.51 0.89,0.51 0.89,0.53 0.89,0.54 0.88,0.55 0.89,0.56 0.89,0.58 0.89,0.58 0.89,0.59 0.88,0.6 0.89,0.61 0.89,0.63 0.89,0.63 0.88,0.64 0.89,0.65 0.89,0.66 0.89,0.67 0.88,0.68 0.89,0.69 0.89,0.7 0.89,0.71 0.88,0.72 0.89,0.72 0.89,0.74 0.89,0.74 0.89,0.75 0.88,0.76 0.89,0.77 0.89,0.78 0.89,0.79 0.88,0.79 0.89,0.8 0.89,0.82 0.89,0.81 0.88,0.83 0.89,0.84 0.89,0.84 0.89,0.85 0.89,0.86 0.88,0.86 0.89,0.88 0.89,0.88 0.89,0.89 0.88,0.89 0.89,0.91 0.89,0.91 0.89,0.91 0.88,0.93 0.89,0.93 0.89,0.94 0.89,0.94 0.89,0.96 0.88,0.96 0.89,0.96 0.89,0.97 0.89,0.98 0.88,0.99 0.89,0.99 0.89,1 0.89,1.01 0.88,1.01 0.89,1.02 0.89,1.02 0.89,1.03 0.89,1.04 0.88,1.04 0.89,1.05 0.89,1.05 0.89,1.06 0.88,1.07 0.89,1.07 0.89,1.08 0.89,1.08 0.88,1.09 0.89,1.1 0.89,1.1 0.89,1.11 0.89,1.11 0.88,1.12 0.89,1.12 0.89,1.13 0.89,1.13 0.88,1.14 0.89,1.14 0.89,1.15 0.89,1.16 0.88,1.16 0.89,1.16 0.89,1.17 0.89,1.18 0.89,1.18 0.88,1.18 0.89,1.19 0.89,1.2 0.89,1.2 0.88,1.2 0.89,1.21 0.89,1.21 0.89,1.22 0.88,1.22 0.89,1.23 0.89,1.23 0.89,1.24 0.89,1.24 0.88,1.25 0.89,1.25 0.89,1.25 0.89,1.26 0.88,1.26 0.89,1.27 0.89,1.27 0.89,1.28 0.88,1.28 0.89,1.28 0.89,1.29"
       style="fill:none;stroke:#000000;stroke-width:2.001;stroke-linecap:round;stroke-linejoin:round;stroke-miterlimit:10;stroke-dasharray:none;stroke-opacity:1"
       id="path7021" />
    <g
       id="g1183"
       transform="translate(15.146488)">
      <text
         xml:space="preserve"
         style="font-size:19px;line-height:1.25;font-family:'TeX Gyre Heros';-inkscape-font-specification:'TeX Gyre Heros';letter-spacing:0px;word-spacing:0px;stroke-width:0.75"
         x="116.23402"
         y="16.32781"
         id="text1355"
         transform="matrix(0,1,1,0,0,0)"><tspan
           sodipodi:role="line"
           id="tspan1353"
           style="font-size:19px;stroke-width:0.75"
           x="116.23402"
           y="16.32781">log<tspan
   style="font-size:14px;baseline-shift:sub"
   id="tspan1263">2</tspan></tspan></text>
      <g
         id="g1380"
         transform="translate(-12.284697,10.730695)">
        <text
           xml:space="preserve"
           style="font-size:19px;line-height:1.25;font-family:'TeX Gyre Heros';-inkscape-font-specification:'TeX Gyre Heros';letter-spacing:0px;word-spacing:0px;stroke-width:0.75"
           x="182.55278"
           y="16.658501"
           id="text553"
           transform="matrix(0,1,1,0,0,0)"><tspan
             sodipodi:role="line"
             id="tspan551"
             style="font-size:19px;text-align:center;text-anchor:middle;stroke-width:0.75"
             x="182.55278"
             y="16.658501">P<tspan
   style="font-style:italic;font-size:14px;baseline-shift:sub"
   id="tspan635">ORF-first</tspan></tspan><tspan
             sodipodi:role="line"
             style="font-style:italic;font-size:19px;text-align:center;text-anchor:middle;stroke-width:0.75"
             x="182.55278"
             y="40.408501"
             id="tspan555" /></text>
        <path
           style="fill:none;stroke:#000000;stroke-width:1.13386;stroke-linecap:butt;stroke-linejoin:miter;stroke-dasharray:none;stroke-opacity:1"
           d="m 23.779007,145.90388 v 75.55881"
           id="path693"
           sodipodi:nodetypes="cc" />
        <text
           xml:space="preserve"
           style="font-size:19px;line-height:1.25;font-family:'TeX Gyre Heros';-inkscape-font-specification:'TeX Gyre Heros';letter-spacing:0px;word-spacing:0px;stroke-width:0.75"
           x="148.18138"
           y="40.698513"
           id="text697"
           transform="matrix(0,1,1,0,0,0)"><tspan
             sodipodi:role="line"
             id="tspan695"
             style="font-size:19px;stroke-width:0.75"
             x="148.18138"
             y="40.698513">P<tspan
   style="font-style:italic;font-size:14px;baseline-shift:sub"
   id="tspan699">RNA-first</tspan></tspan></text>
      </g>
      <g
         aria-label=")"
         transform="matrix(0,1,2.0731013,0,-48.295216,-11.58558)"
         id="text1363"
         style="font-size:20px;line-height:1.25;font-family:'TeX Gyre Heros';-inkscape-font-specification:'TeX Gyre Heros';letter-spacing:0px;word-spacing:0px;stroke-width:0.75">
        <path
           d="m 248.67956,29.525936 c 0,-3.16 -1.26,-6.8 -3.26,-9.42 h -1.1 c 1.76,2.86 2.74,6.22 2.74,9.42 0,3.18 -0.98,6.56 -2.74,9.4 h 1.1 c 2,-2.62 3.26,-6.26 3.26,-9.4 z"
           id="path1365" />
      </g>
      <g
         aria-label=")"
         transform="matrix(0,-1,-2.0731013,0,74.083835,400.41354)"
         id="g1370"
         style="font-size:20px;line-height:1.25;font-family:'TeX Gyre Heros';-inkscape-font-specification:'TeX Gyre Heros';letter-spacing:0px;word-spacing:0px;stroke-width:0.75">
        <path
           d="m 248.67956,29.525936 c 0,-3.16 -1.26,-6.8 -3.26,-9.42 h -1.1 c 1.76,2.86 2.74,6.22 2.74,9.42 0,3.18 -0.98,6.56 -2.74,9.4 h 1.1 c 2,-2.62 3.26,-6.26 3.26,-9.4 z"
           id="path1368" />
      </g>
    </g>
  </g>
</svg>
