<?xml version="1.0" encoding="UTF-8" standalone="no"?>
<!-- Created with Inkscape (http://www.inkscape.org/) -->

<svg
   version="1.1"
   id="svg15188"
   width="472"
   height="416"
   viewBox="0 0 472 416"
   sodipodi:docname="whoisfirst2_dmel.svg"
   inkscape:version="1.2 (dc2aeda, 2022-05-15)"
   xmlns:inkscape="http://www.inkscape.org/namespaces/inkscape"
   xmlns:sodipodi="http://sodipodi.sourceforge.net/DTD/sodipodi-0.dtd"
   xmlns="http://www.w3.org/2000/svg"
   xmlns:svg="http://www.w3.org/2000/svg">
  <defs
     id="defs15192">
    <clipPath
       clipPathUnits="userSpaceOnUse"
       id="clipPath15210">
      <path
         d="M 0,0 H 354.33 V 354.33 H 0 Z"
         id="path15208" />
    </clipPath>
    <clipPath
       clipPathUnits="userSpaceOnUse"
       id="clipPath15220">
      <path
         d="M 0,0 H 354.33 V 354.33 H 0 Z"
         id="path15218" />
    </clipPath>
  </defs>
  <sodipodi:namedview
     id="namedview15190"
     pagecolor="#ffffff"
     bordercolor="#666666"
     borderopacity="1.0"
     inkscape:showpageshadow="2"
     inkscape:pageopacity="0.0"
     inkscape:pagecheckerboard="0"
     inkscape:deskcolor="#d1d1d1"
     showgrid="false"
     inkscape:zoom="2.0264423"
     inkscape:cx="235.88138"
     inkscape:cy="129.04389"
     inkscape:window-width="1920"
     inkscape:window-height="1011"
     inkscape:window-x="0"
     inkscape:window-y="0"
     inkscape:window-maximized="1"
     inkscape:current-layer="g15196">
    <inkscape:page
       x="0"
       y="0"
       id="page15194"
       width="472"
       height="416" />
  </sodipodi:namedview>
  <g
     id="g15196"
     inkscape:groupmode="layer"
     inkscape:label="Page 1"
     transform="matrix(1.3333333,0,0,-1.3333333,0,416)">
    <g
       id="g15204">
      <g
         id="g15206"
         clip-path="url(#clipPath15210)">
        <path
           d="M 0,0 H 354.33 V 311.81 H 0"
           style="fill:#ffffff;fill-opacity:1;fill-rule:evenodd;stroke:none"
           id="path15212" />
      </g>
    </g>
    <g
       id="g15214">
      <g
         id="g15216"
         clip-path="url(#clipPath15220)">
        <path
           d="M 88.46,54.62 H 342.52 V 300 H 88.46"
           style="fill:#ffffff;fill-opacity:1;fill-rule:evenodd;stroke:none"
           id="path15222" />
      </g>
    </g>
    <path
       d="M 113.41,54.62 V 300"
       style="fill:none;stroke:#000000;stroke-width:0.5003;stroke-linecap:round;stroke-linejoin:round;stroke-miterlimit:10;stroke-dasharray:none;stroke-opacity:0.0980392"
       id="path15224" />
    <path
       d="M 157.79,54.62 V 300"
       style="fill:none;stroke:#000000;stroke-width:0.5003;stroke-linecap:round;stroke-linejoin:round;stroke-miterlimit:10;stroke-dasharray:none;stroke-opacity:0.0980392"
       id="path15226" />
    <path
       d="M 202.18,54.62 V 300"
       style="fill:none;stroke:#000000;stroke-width:0.5003;stroke-linecap:round;stroke-linejoin:round;stroke-miterlimit:10;stroke-dasharray:none;stroke-opacity:0.0980392"
       id="path15228" />
    <path
       d="M 246.56,54.62 V 300"
       style="fill:none;stroke:#000000;stroke-width:0.5003;stroke-linecap:round;stroke-linejoin:round;stroke-miterlimit:10;stroke-dasharray:none;stroke-opacity:0.0980392"
       id="path15230" />
    <path
       d="M 290.95,54.62 V 300"
       style="fill:none;stroke:#000000;stroke-width:0.5003;stroke-linecap:round;stroke-linejoin:round;stroke-miterlimit:10;stroke-dasharray:none;stroke-opacity:0.0980392"
       id="path15232" />
    <path
       d="M 335.33,54.62 V 300"
       style="fill:none;stroke:#000000;stroke-width:0.5003;stroke-linecap:round;stroke-linejoin:round;stroke-miterlimit:10;stroke-dasharray:none;stroke-opacity:0.0980392"
       id="path15234" />
    <path
       d="M 88.46,54.62 H 342.52"
       style="fill:none;stroke:#000000;stroke-width:1.001;stroke-linecap:round;stroke-linejoin:round;stroke-miterlimit:10;stroke-dasharray:none;stroke-opacity:1"
       id="path15236" />
    <path
       d="M 88.46,300 H 342.52"
       style="fill:none;stroke:#000000;stroke-width:1.001;stroke-linecap:round;stroke-linejoin:round;stroke-miterlimit:10;stroke-dasharray:none;stroke-opacity:1"
       id="path15238" />
    <path
       d="m 113.41,54.62 v 4.72"
       style="fill:none;stroke:#000000;stroke-width:1.001;stroke-linecap:round;stroke-linejoin:round;stroke-miterlimit:10;stroke-dasharray:none;stroke-opacity:1"
       id="path15240" />
    <path
       d="m 157.79,54.62 v 4.72"
       style="fill:none;stroke:#000000;stroke-width:1.001;stroke-linecap:round;stroke-linejoin:round;stroke-miterlimit:10;stroke-dasharray:none;stroke-opacity:1"
       id="path15242" />
    <path
       d="m 202.18,54.62 v 4.72"
       style="fill:none;stroke:#000000;stroke-width:1.001;stroke-linecap:round;stroke-linejoin:round;stroke-miterlimit:10;stroke-dasharray:none;stroke-opacity:1"
       id="path15244" />
    <path
       d="m 246.56,54.62 v 4.72"
       style="fill:none;stroke:#000000;stroke-width:1.001;stroke-linecap:round;stroke-linejoin:round;stroke-miterlimit:10;stroke-dasharray:none;stroke-opacity:1"
       id="path15246" />
    <path
       d="m 290.95,54.62 v 4.72"
       style="fill:none;stroke:#000000;stroke-width:1.001;stroke-linecap:round;stroke-linejoin:round;stroke-miterlimit:10;stroke-dasharray:none;stroke-opacity:1"
       id="path15248" />
    <path
       d="m 335.33,54.62 v 4.72"
       style="fill:none;stroke:#000000;stroke-width:1.001;stroke-linecap:round;stroke-linejoin:round;stroke-miterlimit:10;stroke-dasharray:none;stroke-opacity:1"
       id="path15250" />
    <text
       xml:space="preserve"
       transform="matrix(1,0,0,-1,104.91,38.42)"
       style="font-variant:normal;font-weight:normal;font-size:15px;font-family:Helvetica;-inkscape-font-specification:Helvetica;writing-mode:lr-tb;fill:#000000;fill-opacity:1;fill-rule:nonzero;stroke:none"
       id="text15254"><tspan
         x="0 8.3400002"
         y="0"
         sodipodi:role="line"
         id="tspan15252">50</tspan></text>
    <text
       xml:space="preserve"
       transform="matrix(1,0,0,-1,145.29,38.42)"
       style="font-variant:normal;font-weight:normal;font-size:15px;font-family:Helvetica;-inkscape-font-specification:Helvetica;writing-mode:lr-tb;fill:#000000;fill-opacity:1;fill-rule:nonzero;stroke:none"
       id="text15258"><tspan
         x="0 8.3400002 16.68"
         y="0"
         sodipodi:role="line"
         id="tspan15256">100</tspan></text>
    <text
       xml:space="preserve"
       transform="matrix(1,0,0,-1,189.68,38.42)"
       style="font-variant:normal;font-weight:normal;font-size:15px;font-family:Helvetica;-inkscape-font-specification:Helvetica;writing-mode:lr-tb;fill:#000000;fill-opacity:1;fill-rule:nonzero;stroke:none"
       id="text15262"><tspan
         x="0 8.3400002 16.68"
         y="0"
         sodipodi:role="line"
         id="tspan15260">150</tspan></text>
    <text
       xml:space="preserve"
       transform="matrix(1,0,0,-1,234.06,38.42)"
       style="font-variant:normal;font-weight:normal;font-size:15px;font-family:Helvetica;-inkscape-font-specification:Helvetica;writing-mode:lr-tb;fill:#000000;fill-opacity:1;fill-rule:nonzero;stroke:none"
       id="text15266"><tspan
         x="0 8.3400002 16.68"
         y="0"
         sodipodi:role="line"
         id="tspan15264">200</tspan></text>
    <text
       xml:space="preserve"
       transform="matrix(1,0,0,-1,278.45,38.42)"
       style="font-variant:normal;font-weight:normal;font-size:15px;font-family:Helvetica;-inkscape-font-specification:Helvetica;writing-mode:lr-tb;fill:#000000;fill-opacity:1;fill-rule:nonzero;stroke:none"
       id="text15270"><tspan
         x="0 8.3400002 16.68"
         y="0"
         sodipodi:role="line"
         id="tspan15268">250</tspan></text>
    <text
       xml:space="preserve"
       transform="matrix(1,0,0,-1,322.83,38.42)"
       style="font-variant:normal;font-weight:normal;font-size:15px;font-family:Helvetica;-inkscape-font-specification:Helvetica;writing-mode:lr-tb;fill:#000000;fill-opacity:1;fill-rule:nonzero;stroke:none"
       id="text15274"><tspan
         x="0 8.3400002 16.68"
         y="0"
         sodipodi:role="line"
         id="tspan15272">300</tspan></text>
    <text
       xml:space="preserve"
       transform="matrix(1,0,0,-1,125.49,15.95)"
       style="font-variant:normal;font-weight:normal;font-size:19px;font-family:Helvetica;-inkscape-font-specification:Helvetica;writing-mode:lr-tb;fill:#000000;fill-opacity:1;fill-rule:nonzero;stroke:none"
       id="text15278"><tspan
         x="0 14.782 28.5 40.109001 45.390999 49.609001 60.173 70.737 81.301003 86.583 97.147003 102.429 108.756 118.256 128.82001 139.384 149.948 160.51199 170.01199"
         y="0"
         sodipodi:role="line"
         id="tspan15276">ORF length (codons)</tspan></text>
    <path
       d="M 88.46,94.38 H 342.52"
       style="fill:none;stroke:#000000;stroke-width:0.5003;stroke-linecap:round;stroke-linejoin:round;stroke-miterlimit:10;stroke-dasharray:none;stroke-opacity:0.0980392"
       id="path15280" />
    <path
       d="M 88.46,167.33 H 342.52"
       style="fill:none;stroke:#000000;stroke-width:0.5003;stroke-linecap:round;stroke-linejoin:round;stroke-miterlimit:10;stroke-dasharray:none;stroke-opacity:0.0980392"
       id="path15282" />
    <path
       d="M 88.46,240.29 H 342.52"
       style="fill:none;stroke:#000000;stroke-width:0.5003;stroke-linecap:round;stroke-linejoin:round;stroke-miterlimit:10;stroke-dasharray:none;stroke-opacity:0.0980392"
       id="path15284" />
    <path
       d="M 88.46,54.62 V 300"
       style="fill:none;stroke:#000000;stroke-width:1.001;stroke-linecap:round;stroke-linejoin:round;stroke-miterlimit:10;stroke-dasharray:none;stroke-opacity:1"
       id="path15286" />
    <path
       d="M 342.52,54.62 V 300"
       style="fill:none;stroke:#000000;stroke-width:1.001;stroke-linecap:round;stroke-linejoin:round;stroke-miterlimit:10;stroke-dasharray:none;stroke-opacity:1"
       id="path15288" />
    <path
       d="m 88.46,94.38 h 4.73"
       style="fill:none;stroke:#000000;stroke-width:1.001;stroke-linecap:round;stroke-linejoin:round;stroke-miterlimit:10;stroke-dasharray:none;stroke-opacity:1"
       id="path15290" />
    <path
       d="m 88.46,167.33 h 4.73"
       style="fill:none;stroke:#000000;stroke-width:1.001;stroke-linecap:round;stroke-linejoin:round;stroke-miterlimit:10;stroke-dasharray:none;stroke-opacity:1"
       id="path15292" />
    <path
       d="m 88.46,240.29 h 4.73"
       style="fill:none;stroke:#000000;stroke-width:1.001;stroke-linecap:round;stroke-linejoin:round;stroke-miterlimit:10;stroke-dasharray:none;stroke-opacity:1"
       id="path15294" />
    <text
       xml:space="preserve"
       transform="matrix(1,0,0,-1,54.01,88.88)"
       style="font-variant:normal;font-weight:normal;font-size:15px;font-family:Helvetica;-inkscape-font-specification:Helvetica;writing-mode:lr-tb;fill:#000000;fill-opacity:1;fill-rule:nonzero;stroke:none"
       id="text15298"><tspan
         sodipodi:role="line"
         id="tspan15296"
         x="0"
         y="0">−0.4</tspan></text>
    <text
       xml:space="preserve"
       transform="matrix(1,0,0,-1,54.01,161.83)"
       style="font-variant:normal;font-weight:normal;font-size:15px;font-family:Helvetica;-inkscape-font-specification:Helvetica;writing-mode:lr-tb;fill:#000000;fill-opacity:1;fill-rule:nonzero;stroke:none"
       id="text15302"><tspan
         sodipodi:role="line"
         id="tspan15300"
         x="0"
         y="0">−0.3</tspan></text>
    <text
       xml:space="preserve"
       transform="matrix(1,0,0,-1,54.01,234.79)"
       style="font-variant:normal;font-weight:normal;font-size:15px;font-family:Helvetica;-inkscape-font-specification:Helvetica;writing-mode:lr-tb;fill:#000000;fill-opacity:1;fill-rule:nonzero;stroke:none"
       id="text15306"><tspan
         sodipodi:role="line"
         id="tspan15304"
         x="0"
         y="0">−0.2</tspan></text>
    <path
       d="m 95.65,293.06 0.89,-2.45 0.89,-2.4 0.89,-2.36 0.88,-2.33 0.89,-2.28 0.89,-2.26 0.89,-2.21 0.89,-2.19 0.88,-2.14 0.89,-2.12 0.89,-2.09 0.89,-2.05 0.88,-2.03 0.89,-1.99 0.89,-1.97 0.89,-1.94 0.88,-1.91 0.89,-1.88 0.89,-1.86 0.89,-1.83 0.89,-1.81 0.88,-1.79 0.89,-1.76 0.89,-1.73 0.89,-1.72 0.88,-1.69 0.89,-1.67 0.89,-1.65 0.89,-1.63 0.88,-1.61 0.89,-1.58 0.89,-1.57 0.89,-1.55 0.89,-1.53 0.88,-1.51 0.89,-1.5 0.89,-1.48 0.89,-1.46 0.88,-1.44 0.89,-1.43 0.89,-1.41 0.89,-1.39 0.88,-1.38 0.89,-1.36 0.89,-1.35 0.89,-1.34 0.89,-1.32 0.88,-1.3 0.89,-1.29 0.89,-1.28 0.89,-1.27 0.88,-1.25 0.89,-1.24 0.89,-1.22 0.89,-1.22 0.88,-1.2 0.89,-1.19 0.89,-1.18 0.89,-1.16 0.89,-1.16 0.88,-1.14 0.89,-1.14 0.89,-1.12 0.89,-1.11 0.88,-1.1 0.89,-1.09 0.89,-1.08 0.89,-1.07 0.88,-1.07 0.89,-1.05 0.89,-1.04 0.89,-1.04 0.89,-1.02 0.88,-1.02 0.89,-1 0.89,-1 0.89,-0.99 0.88,-0.98 0.89,-0.98 0.89,-0.96 0.89,-0.96 0.88,-0.95 0.89,-0.94 0.89,-0.93 0.89,-0.93 0.89,-0.92 0.88,-0.91 0.89,-0.9 0.89,-0.9 0.89,-0.89 0.88,-0.89 0.89,-0.87 0.89,-0.87 0.89,-0.87 0.88,-0.86 0.89,-0.85 0.89,-0.84 0.89,-0.84 0.89,-0.83 0.88,-0.83 0.89,-0.82 0.89,-0.82 0.89,-0.8 0.88,-0.81 0.89,-0.8 0.89,-0.79 0.89,-0.79 0.88,-0.78 0.89,-0.77 0.89,-0.77 0.89,-0.77 0.89,-0.76 0.88,-0.76 0.89,-0.75 0.89,-0.74 0.89,-0.75 0.88,-0.73 0.89,-0.73 0.89,-0.73 0.89,-0.73 0.88,-0.71 0.89,-0.72 0.89,-0.71 0.89,-0.7 0.89,-0.7 0.88,-0.7 0.89,-0.69 0.89,-0.69 0.89,-0.68 0.88,-0.68 0.89,-0.68 0.89,-0.67 0.89,-0.67 0.88,-0.67 0.89,-0.66 0.89,-0.66 0.89,-0.65 0.89,-0.65 0.88,-0.64 0.89,-0.65 0.89,-0.64 0.89,-0.63 0.88,-0.64 0.89,-0.62 0.89,-0.63 0.89,-0.62 0.88,-0.62 0.89,-0.62 0.89,-0.61 0.89,-0.61 0.89,-0.61 0.88,-0.6 0.89,-0.6 0.89,-0.6 0.89,-0.59 0.88,-0.59 0.89,-0.59 0.89,-0.59 0.89,-0.58 0.88,-0.58 0.89,-0.58 0.89,-0.57 0.89,-0.57 0.89,-0.57 0.88,-0.57 0.89,-0.56 0.89,-0.56 0.89,-0.56 0.88,-0.56 0.89,-0.55 0.89,-0.55 0.89,-0.55 0.88,-0.55 0.89,-0.54 0.89,-0.54 0.89,-0.54 0.88,-0.54 0.89,-0.53 0.89,-0.53 0.89,-0.53 0.89,-0.53 0.88,-0.52 0.89,-0.53 0.89,-0.52 0.89,-0.52 0.88,-0.51 0.89,-0.52 0.89,-0.51 0.89,-0.51 0.88,-0.51 0.89,-0.5 0.89,-0.51 0.89,-0.5 0.89,-0.5 0.88,-0.5 0.89,-0.49 0.89,-0.5 0.89,-0.49 0.88,-0.49 0.89,-0.49 0.89,-0.49 0.89,-0.48 0.88,-0.48 0.89,-0.49 0.89,-0.48 0.89,-0.47 0.89,-0.48 0.88,-0.47 0.89,-0.48 0.89,-0.47 0.89,-0.47 0.88,-0.46 0.89,-0.47 0.89,-0.46 0.89,-0.47 0.88,-0.46 0.89,-0.46 0.89,-0.46 0.89,-0.45 0.89,-0.46 0.88,-0.45 0.89,-0.45 0.89,-0.45 0.89,-0.45 0.88,-0.45 0.89,-0.45 0.89,-0.44 0.89,-0.44 0.88,-0.45 0.89,-0.44 0.89,-0.43 0.89,-0.44 0.89,-0.44 0.88,-0.43 0.89,-0.44 0.89,-0.43 0.89,-0.43 0.88,-0.43 0.89,-0.43 0.89,-0.42 0.89,-0.43 0.88,-0.42 0.89,-0.43 0.89,-0.42 0.89,-0.42 0.89,-0.42 0.88,-0.42 0.89,-0.41 0.89,-0.42 0.89,-0.41 0.88,-0.42 0.89,-0.41 0.89,-0.41 0.89,-0.41 0.88,-0.41 0.89,-0.41 0.89,-0.4 0.89,-0.41 0.89,-0.4 0.88,-0.4 0.89,-0.41 0.89,-0.4 0.89,-0.4 0.88,-0.4 0.89,-0.39 0.89,-0.4 0.89,-0.4 0.88,-0.39 0.89,-0.39 0.89,-0.4"
       style="fill:none;stroke:#000000;stroke-width:2.001;stroke-linecap:round;stroke-linejoin:round;stroke-miterlimit:10;stroke-dasharray:none;stroke-opacity:1"
       id="path15316" />
    <g
       id="g1183"
       transform="translate(15.146488)">
      <text
         xml:space="preserve"
         style="font-size:19px;line-height:1.25;font-family:'TeX Gyre Heros';-inkscape-font-specification:'TeX Gyre Heros';letter-spacing:0px;word-spacing:0px;stroke-width:0.75"
         x="116.23402"
         y="16.32781"
         id="text1355"
         transform="matrix(0,1,1,0,0,0)"><tspan
           sodipodi:role="line"
           id="tspan1353"
           style="font-size:19px;stroke-width:0.75"
           x="116.23402"
           y="16.32781">log<tspan
   style="font-size:14px;baseline-shift:sub"
   id="tspan1263">2</tspan></tspan></text>
      <g
         id="g1380"
         transform="translate(-12.284697,10.730695)">
        <text
           xml:space="preserve"
           style="font-size:19px;line-height:1.25;font-family:'TeX Gyre Heros';-inkscape-font-specification:'TeX Gyre Heros';letter-spacing:0px;word-spacing:0px;stroke-width:0.75"
           x="182.55278"
           y="16.658501"
           id="text553"
           transform="matrix(0,1,1,0,0,0)"><tspan
             sodipodi:role="line"
             id="tspan551"
             style="font-size:19px;text-align:center;text-anchor:middle;stroke-width:0.75"
             x="182.55278"
             y="16.658501">P<tspan
   style="font-style:italic;font-size:14px;baseline-shift:sub"
   id="tspan635">ORF-first</tspan></tspan><tspan
             sodipodi:role="line"
             style="font-style:italic;font-size:19px;text-align:center;text-anchor:middle;stroke-width:0.75"
             x="182.55278"
             y="40.408501"
             id="tspan555" /></text>
        <path
           style="fill:none;stroke:#000000;stroke-width:1.13386;stroke-linecap:butt;stroke-linejoin:miter;stroke-dasharray:none;stroke-opacity:1"
           d="m 23.779007,145.90388 v 75.55881"
           id="path693"
           sodipodi:nodetypes="cc" />
        <text
           xml:space="preserve"
           style="font-size:19px;line-height:1.25;font-family:'TeX Gyre Heros';-inkscape-font-specification:'TeX Gyre Heros';letter-spacing:0px;word-spacing:0px;stroke-width:0.75"
           x="148.18138"
           y="40.698513"
           id="text697"
           transform="matrix(0,1,1,0,0,0)"><tspan
             sodipodi:role="line"
             id="tspan695"
             style="font-size:19px;stroke-width:0.75"
             x="148.18138"
             y="40.698513">P<tspan
   style="font-style:italic;font-size:14px;baseline-shift:sub"
   id="tspan699">RNA-first</tspan></tspan></text>
      </g>
      <g
         aria-label=")"
         transform="matrix(0,1,2.0731013,0,-48.295216,-11.58558)"
         id="text1363"
         style="font-size:20px;line-height:1.25;font-family:'TeX Gyre Heros';-inkscape-font-specification:'TeX Gyre Heros';letter-spacing:0px;word-spacing:0px;stroke-width:0.75">
        <path
           d="m 248.67956,29.525936 c 0,-3.16 -1.26,-6.8 -3.26,-9.42 h -1.1 c 1.76,2.86 2.74,6.22 2.74,9.42 0,3.18 -0.98,6.56 -2.74,9.4 h 1.1 c 2,-2.62 3.26,-6.26 3.26,-9.4 z"
           id="path1365" />
      </g>
      <g
         aria-label=")"
         transform="matrix(0,-1,-2.0731013,0,74.083835,400.41354)"
         id="g1370"
         style="font-size:20px;line-height:1.25;font-family:'TeX Gyre Heros';-inkscape-font-specification:'TeX Gyre Heros';letter-spacing:0px;word-spacing:0px;stroke-width:0.75">
        <path
           d="m 248.67956,29.525936 c 0,-3.16 -1.26,-6.8 -3.26,-9.42 h -1.1 c 1.76,2.86 2.74,6.22 2.74,9.42 0,3.18 -0.98,6.56 -2.74,9.4 h 1.1 c 2,-2.62 3.26,-6.26 3.26,-9.4 z"
           id="path1368" />
      </g>
    </g>
  </g>
</svg>
